<svg width="649" height="470" viewBox="0 0 649 470" fill="none" xmlns="http://www.w3.org/2000/svg">
<path d="M231.28 11.9C234.566 11.9 237.23 9.23611 237.23 5.95001C237.23 2.66392 234.566 0 231.28 0C227.994 0 225.33 2.66392 225.33 5.95001C225.33 9.23611 227.994 11.9 231.28 11.9Z" fill="#A0E286"/>
<path d="M183.34 17.4697C187.079 17.4697 190.11 14.4387 190.11 10.6997C190.11 6.96074 187.079 3.92969 183.34 3.92969C179.601 3.92969 176.57 6.96074 176.57 10.6997C176.57 14.4387 179.601 17.4697 183.34 17.4697Z" fill="#A0E286"/>
<path d="M280.83 17.8103C283.669 17.8103 285.97 15.509 285.97 12.6703C285.97 9.83154 283.669 7.53027 280.83 7.53027C277.991 7.53027 275.69 9.83154 275.69 12.6703C275.69 15.509 277.991 17.8103 280.83 17.8103Z" fill="#A0E286"/>
<path d="M429.22 50.1903C438.642 50.1903 446.28 42.5523 446.28 33.1303C446.28 23.7083 438.642 16.0703 429.22 16.0703C419.798 16.0703 412.16 23.7083 412.16 33.1303C412.16 42.5523 419.798 50.1903 429.22 50.1903Z" fill="#A0E385"/>
<path d="M138.31 33.0998C142.546 33.0998 145.98 29.6658 145.98 25.4297C145.98 21.1937 142.546 17.7598 138.31 17.7598C134.074 17.7598 130.64 21.1937 130.64 25.4297C130.64 29.6658 134.074 33.0998 138.31 33.0998Z" fill="#A0E286"/>
<path d="M379.53 54.8001C389.394 54.8001 397.39 46.8039 397.39 36.9401C397.39 27.0763 389.394 19.0801 379.53 19.0801C369.666 19.0801 361.67 27.0763 361.67 36.9401C361.67 46.8039 369.666 54.8001 379.53 54.8001Z" fill="#A0E385"/>
<path d="M478.49 56.6198C487.415 56.6198 494.65 49.3847 494.65 40.4598C494.65 31.5349 487.415 24.2998 478.49 24.2998C469.565 24.2998 462.33 31.5349 462.33 40.4598C462.33 49.3847 469.565 56.6198 478.49 56.6198Z" fill="#A0E385"/>
<path d="M333.67 70.3996C343.97 70.3996 352.32 62.0497 352.32 51.7496C352.32 41.4495 343.97 33.0996 333.67 33.0996C323.37 33.0996 315.02 41.4495 315.02 51.7496C315.02 62.0497 323.37 70.3996 333.67 70.3996Z" fill="#A0E385"/>
<path d="M217.48 48.5602C219.789 48.5602 221.66 46.6887 221.66 44.3802C221.66 42.0716 219.789 40.2002 217.48 40.2002C215.172 40.2002 213.3 42.0716 213.3 44.3802C213.3 46.6887 215.172 48.5602 217.48 48.5602Z" fill="#A0E286"/>
<path d="M97.92 58.1896C102.57 58.1896 106.34 54.4198 106.34 49.7696C106.34 45.1194 102.57 41.3496 97.92 41.3496C93.2698 41.3496 89.5 45.1194 89.5 49.7696C89.5 54.4198 93.2698 58.1896 97.92 58.1896Z" fill="#A0E286"/>
<path d="M182.67 52.41C185.327 52.41 187.48 50.2565 187.48 47.6C187.48 44.9435 185.327 42.79 182.67 42.79C180.014 42.79 177.86 44.9435 177.86 47.6C177.86 50.2565 180.014 52.41 182.67 52.41Z" fill="#A0E286"/>
<path d="M523.44 73.5199C531.896 73.5199 538.75 66.6654 538.75 58.2099C538.75 49.7544 531.896 42.8999 523.44 42.8999C514.985 42.8999 508.13 49.7544 508.13 58.2099C508.13 66.6654 514.985 73.5199 523.44 73.5199Z" fill="#A0E385"/>
<path d="M252.87 52.9696C254.963 52.9696 256.66 51.2728 256.66 49.1796C256.66 47.0865 254.963 45.3896 252.87 45.3896C250.777 45.3896 249.08 47.0865 249.08 49.1796C249.08 51.2728 250.777 52.9696 252.87 52.9696Z" fill="#A0E286"/>
<path d="M150.04 64.1201C153.094 64.1201 155.57 61.6442 155.57 58.5901C155.57 55.5359 153.094 53.0601 150.04 53.0601C146.986 53.0601 144.51 55.5359 144.51 58.5901C144.51 61.6442 146.986 64.1201 150.04 64.1201Z" fill="#A0E286"/>
<path d="M293.06 95.3599C303.835 95.3599 312.57 86.6249 312.57 75.8499C312.57 65.0748 303.835 56.3398 293.06 56.3398C282.285 56.3398 273.55 65.0748 273.55 75.8499C273.55 86.6249 282.285 95.3599 293.06 95.3599Z" fill="#A0E385"/>
<path d="M121.04 81.7697C124.287 81.7697 126.92 79.1372 126.92 75.8898C126.92 72.6423 124.287 70.0098 121.04 70.0098C117.793 70.0098 115.16 72.6423 115.16 75.8898C115.16 79.1372 117.793 81.7697 121.04 81.7697Z" fill="#A0E286"/>
<path d="M562.38 99.2599C570.338 99.2599 576.79 92.8084 576.79 84.8499C576.79 76.8915 570.338 70.4399 562.38 70.4399C554.422 70.4399 547.97 76.8915 547.97 84.8499C547.97 92.8084 554.422 99.2599 562.38 99.2599Z" fill="#A0E385"/>
<path d="M63.38 91.8101C68.4831 91.8101 72.62 87.6732 72.62 82.5701C72.62 77.467 68.4831 73.3301 63.38 73.3301C58.2769 73.3301 54.14 77.467 54.14 82.5701C54.14 87.6732 58.2769 91.8101 63.38 91.8101Z" fill="#A0E286"/>
<path d="M95.75 106.01C99.4006 106.01 102.36 103.051 102.36 99.4C102.36 95.7494 99.4006 92.79 95.75 92.79C92.0994 92.79 89.14 95.7494 89.14 99.4C89.14 103.051 92.0994 106.01 95.75 106.01Z" fill="#A0E286"/>
<path d="M444.58 123.12C451.235 123.12 456.63 117.725 456.63 111.07C456.63 104.415 451.235 99.02 444.58 99.02C437.925 99.02 432.53 104.415 432.53 111.07C432.53 117.725 437.925 123.12 444.58 123.12Z" fill="#A0E385"/>
<path d="M408.73 126.42C415.799 126.42 421.53 120.69 421.53 113.62C421.53 106.551 415.799 100.82 408.73 100.82C401.661 100.82 395.93 106.551 395.93 113.62C395.93 120.69 401.661 126.42 408.73 126.42Z" fill="#A0E385"/>
<path d="M480.1 127.77C486.506 127.77 491.7 122.577 491.7 116.17C491.7 109.764 486.506 104.57 480.1 104.57C473.693 104.57 468.5 109.764 468.5 116.17C468.5 122.577 473.693 127.77 480.1 127.77Z" fill="#A0E385"/>
<path d="M594.78 133.01C602.28 133.01 608.36 126.93 608.36 119.43C608.36 111.93 602.28 105.85 594.78 105.85C587.28 105.85 581.2 111.93 581.2 119.43C581.2 126.93 587.28 133.01 594.78 133.01Z" fill="#A0E385"/>
<path d="M375.43 137.76C382.792 137.76 388.76 131.792 388.76 124.43C388.76 117.068 382.792 111.1 375.43 111.1C368.068 111.1 362.1 117.068 362.1 124.43C362.1 131.792 368.068 137.76 375.43 137.76Z" fill="#A0E385"/>
<path d="M36.57 132.51C42.2088 132.51 46.78 127.939 46.78 122.3C46.78 116.661 42.2088 112.09 36.57 112.09C30.9312 112.09 26.36 116.661 26.36 122.3C26.36 127.939 30.9312 132.51 36.57 132.51Z" fill="#A0E286"/>
<path d="M512.58 139.97C518.627 139.97 523.53 135.068 523.53 129.02C523.53 122.973 518.627 118.07 512.58 118.07C506.532 118.07 501.63 122.973 501.63 129.02C501.63 135.068 506.532 139.97 512.58 139.97Z" fill="#A0E385"/>
<path d="M76.54 135.86C80.5717 135.86 83.84 132.591 83.84 128.56C83.84 124.528 80.5717 121.26 76.54 121.26C72.5084 121.26 69.24 124.528 69.24 128.56C69.24 132.591 72.5084 135.86 76.54 135.86Z" fill="#A0E286"/>
<path d="M345.91 155.85C353.625 155.85 359.88 149.596 359.88 141.88C359.88 134.165 353.625 127.91 345.91 127.91C338.195 127.91 331.94 134.165 331.94 141.88C331.94 149.596 338.195 155.85 345.91 155.85Z" fill="#A0E385"/>
<path d="M540.99 158.92C546.712 158.92 551.35 154.282 551.35 148.56C551.35 142.839 546.712 138.2 540.99 138.2C535.268 138.2 530.63 142.839 530.63 148.56C530.63 154.282 535.268 158.92 540.99 158.92Z" fill="#A0E385"/>
<path d="M619.13 173.12C626.21 173.12 631.95 167.38 631.95 160.3C631.95 153.22 626.21 147.48 619.13 147.48C612.05 147.48 606.31 153.22 606.31 160.3C606.31 167.38 612.05 173.12 619.13 173.12Z" fill="#A0E385"/>
<path d="M320.93 179.59C328.993 179.59 335.53 173.053 335.53 164.99C335.53 156.926 328.993 150.39 320.93 150.39C312.867 150.39 306.33 156.926 306.33 164.99C306.33 173.053 312.867 179.59 320.93 179.59Z" fill="#A0E385"/>
<path d="M63.7501 169.95C68.1352 169.95 71.6901 166.395 71.6901 162.01C71.6901 157.625 68.1352 154.07 63.7501 154.07C59.3649 154.07 55.8101 157.625 55.8101 162.01C55.8101 166.395 59.3649 169.95 63.7501 169.95Z" fill="#A0E286"/>
<path d="M128.7 209.77L128.65 228.43C128.647 228.638 128.564 228.836 128.418 228.982C128.272 229.128 128.075 229.21 127.87 229.21L113.09 229.16C112.904 229.16 112.726 229.086 112.595 228.955C112.464 228.824 112.39 228.646 112.39 228.46L112.45 158.03C112.45 157.897 112.503 157.77 112.596 157.676C112.69 157.583 112.817 157.53 112.95 157.53C131.87 157.35 150.787 157.39 169.7 157.65C173.36 157.703 176.427 158.153 178.9 159C189.667 162.707 195.433 169.873 196.2 180.5C196.733 187.833 195.123 194.157 191.37 199.47C186.797 205.943 179.887 209.193 170.64 209.22C156.827 209.26 143.01 209.28 129.19 209.28C129.126 209.28 129.062 209.293 129.003 209.317C128.943 209.342 128.889 209.378 128.844 209.423C128.798 209.469 128.762 209.523 128.737 209.582C128.713 209.642 128.7 209.706 128.7 209.77ZM175.69 173.43C173.757 172.157 171.99 171.503 170.39 171.47C157.057 171.183 143.387 171.103 129.38 171.23C129.184 171.233 128.997 171.311 128.86 171.448C128.723 171.585 128.647 171.769 128.65 171.96L128.81 195.29C128.813 195.421 128.869 195.545 128.966 195.637C129.063 195.729 129.194 195.78 129.33 195.78C139.543 195.727 149.757 195.707 159.97 195.72C160.05 195.72 161.33 195.747 163.81 195.8C167.463 195.88 170.573 195.52 173.14 194.72C176.327 193.727 178.41 191.727 179.39 188.72C180.49 185.353 180.463 181.85 179.31 178.21C178.663 176.183 177.457 174.59 175.69 173.43Z" fill="#A0E385"/>
<path d="M221.38 157.47H205.64C205.496 157.47 205.38 157.586 205.38 157.73V228.95C205.38 229.093 205.496 229.21 205.64 229.21H221.38C221.524 229.21 221.64 229.093 221.64 228.95V157.73C221.64 157.586 221.524 157.47 221.38 157.47Z" fill="#A0E385"/>
<path d="M18.8801 179.94C24.9828 179.94 29.9301 174.993 29.9301 168.89C29.9301 162.787 24.9828 157.84 18.8801 157.84C12.7773 157.84 7.83008 162.787 7.83008 168.89C7.83008 174.993 12.7773 179.94 18.8801 179.94Z" fill="#A0E286"/>
<path d="M564.34 183.46C569.785 183.46 574.2 179.046 574.2 173.6C574.2 168.155 569.785 163.74 564.34 163.74C558.894 163.74 554.48 168.155 554.48 173.6C554.48 179.046 558.894 183.46 564.34 183.46Z" fill="#A0E385"/>
<path d="M301.7 208.67C310.178 208.67 317.05 201.797 317.05 193.32C317.05 184.842 310.178 177.97 301.7 177.97C293.223 177.97 286.35 184.842 286.35 193.32C286.35 201.797 293.223 208.67 301.7 208.67Z" fill="#A0E385"/>
<path d="M59.09 206.19C63.7347 206.19 67.4999 202.425 67.4999 197.78C67.4999 193.135 63.7347 189.37 59.09 189.37C54.4453 189.37 50.6799 193.135 50.6799 197.78C50.6799 202.425 54.4453 206.19 59.09 206.19Z" fill="#A0E385"/>
<path d="M581.74 212.03C586.843 212.03 590.98 207.893 590.98 202.79C590.98 197.687 586.843 193.55 581.74 193.55C576.637 193.55 572.5 197.687 572.5 202.79C572.5 207.893 576.637 212.03 581.74 212.03Z" fill="#A0E286"/>
<path d="M633.46 218.32C640.049 218.32 645.39 212.979 645.39 206.39C645.39 199.801 640.049 194.46 633.46 194.46C626.871 194.46 621.53 199.801 621.53 206.39C621.53 212.979 626.871 218.32 633.46 218.32Z" fill="#A0E385"/>
<path d="M12 230.09C18.6274 230.09 24 224.717 24 218.09C24 211.462 18.6274 206.09 12 206.09C5.37258 206.09 0 211.462 0 218.09C0 224.717 5.37258 230.09 12 230.09Z" fill="#A0E385"/>
<path d="M288.9 241.35C297.659 241.35 304.76 234.249 304.76 225.49C304.76 216.731 297.659 209.63 288.9 209.63C280.141 209.63 273.04 216.731 273.04 225.49C273.04 234.249 280.141 241.35 288.9 241.35Z" fill="#A0E385"/>
<path d="M465.34 221.93C461.627 221.223 459.133 222.683 457.86 226.31C457.7 226.77 457.627 226.763 457.64 226.29L457.8 220.97C457.801 220.906 457.818 220.843 457.848 220.785C457.879 220.727 457.923 220.676 457.977 220.634C458.032 220.593 458.096 220.562 458.165 220.544C458.235 220.526 458.308 220.521 458.38 220.53C464.22 221.183 470.063 221.213 475.91 220.62C475.957 220.613 476.453 220.457 477.4 220.15C478.287 219.857 478.54 220.82 478.16 223.04C478.053 223.687 478.02 224.337 478.06 224.99C478.14 226.223 478.043 226.887 477.77 226.98C477.723 226.996 477.671 226.99 477.618 226.963C477.566 226.936 477.514 226.889 477.465 226.823C477.417 226.758 477.374 226.677 477.338 226.585C477.303 226.493 477.276 226.392 477.26 226.29C476.687 222.703 474.467 221.183 470.6 221.73C470.4 221.758 470.216 221.854 470.08 222.004C469.943 222.154 469.862 222.347 469.85 222.55C469.49 229.31 469.497 235.853 469.87 242.18C469.885 242.423 469.982 242.653 470.145 242.835C470.308 243.016 470.528 243.138 470.77 243.18C471.99 243.4 472.667 243.613 472.8 243.82C472.973 244.087 472.623 244.22 471.75 244.22C469.15 244.22 466.55 244.22 463.95 244.22C463.717 244.22 463.51 244.187 463.33 244.12C462.69 243.873 462.717 243.623 463.41 243.37C463.563 243.323 463.763 243.293 464.01 243.28C465.617 243.22 466.367 242.403 466.26 240.83C466.193 239.737 466.16 239.16 466.16 239.1C466.28 233.567 466.18 228.04 465.86 222.52C465.851 222.378 465.795 222.243 465.701 222.136C465.607 222.029 465.48 221.956 465.34 221.93Z" fill="#A0E385"/>
<path d="M482.94 237.82C481.727 235.66 481.333 233.273 481.76 230.66C482.127 228.387 483.203 226.37 484.99 224.61C489.49 220.19 495.11 219.19 501.85 221.61C502.015 221.667 502.16 221.758 502.27 221.873C502.379 221.987 502.448 222.121 502.47 222.26L503.08 226.42C503.104 226.596 503.073 226.773 502.993 226.913C502.913 227.053 502.79 227.145 502.65 227.17C502.397 227.217 502.203 226.99 502.07 226.49C501.703 225.03 501.003 223.837 499.97 222.91C499.077 222.103 497.873 221.593 496.36 221.38C491.3 220.687 487.96 222.987 486.34 228.28C485 232.673 485.453 236.467 487.7 239.66C489.687 242.473 492.333 243.827 495.64 243.72C498.367 243.627 500.39 242.413 501.71 240.08C502.243 239.127 502.573 238.583 502.7 238.45C503.46 237.623 503.497 238.81 502.81 242.01C502.748 242.293 502.618 242.557 502.432 242.779C502.245 243 502.008 243.172 501.74 243.28C497.8 244.867 494.017 245.027 490.39 243.76C486.977 242.573 484.493 240.593 482.94 237.82Z" fill="#A0E385"/>
<path d="M530.897 227.51C531.512 228.959 531.824 230.521 531.815 232.105C531.805 233.689 531.475 235.265 530.842 236.743C530.21 238.221 529.287 239.572 528.128 240.719C526.969 241.866 525.595 242.786 524.085 243.427C522.575 244.068 520.959 244.417 519.328 244.454C517.698 244.492 516.086 244.217 514.583 243.645C513.08 243.073 511.717 242.216 510.571 241.122C509.425 240.029 508.518 238.72 507.903 237.27C507.288 235.821 506.976 234.259 506.985 232.675C506.995 231.091 507.325 229.515 507.958 228.037C508.59 226.559 509.513 225.208 510.672 224.061C511.831 222.914 513.205 221.994 514.715 221.353C516.225 220.712 517.841 220.363 519.472 220.326C521.102 220.288 522.714 220.563 524.217 221.135C525.72 221.707 527.083 222.564 528.229 223.658C529.375 224.751 530.282 226.06 530.897 227.51ZM521.076 243.434C522.179 243.267 523.227 242.815 524.161 242.104C525.095 241.393 525.897 240.437 526.521 239.29C527.145 238.143 527.578 236.827 527.797 235.419C528.015 234.01 528.015 232.536 527.795 231.08C527.35 228.141 526.039 225.455 524.15 223.615C522.262 221.774 519.95 220.929 517.724 221.266C516.621 221.433 515.573 221.884 514.639 222.596C513.705 223.307 512.903 224.263 512.279 225.41C511.655 226.557 511.221 227.873 511.003 229.281C510.785 230.69 510.785 232.164 511.005 233.62C511.45 236.559 512.761 239.245 514.649 241.085C516.538 242.926 518.85 243.771 521.076 243.434Z" fill="#A0E385"/>
<path d="M319.65 221.29C318.803 221.17 318.807 221.084 319.66 221.03C322.687 220.844 325.54 220.78 328.22 220.84C330.84 220.907 332.713 221.307 333.84 222.04C335.16 222.907 335.97 224.17 336.27 225.83C336.523 227.244 336.313 228.627 335.64 229.98C334.213 232.874 331.63 234.207 327.89 233.98C325.923 233.86 326.127 233.757 328.5 233.67C328.733 233.664 328.943 233.61 329.13 233.51C331.29 232.37 332.377 230.274 332.39 227.22C332.403 224.26 331.133 222.364 328.58 221.53C326.28 220.784 325.127 221.597 325.12 223.97C325.1 229.784 325.127 235.597 325.2 241.41C325.207 241.99 326.103 242.594 327.89 243.22C329.71 243.86 329.46 244.21 327.14 244.27C324.467 244.337 321.8 244.24 319.14 243.98C318.593 243.92 318.543 243.777 318.99 243.55C319.077 243.504 319.183 243.474 319.31 243.46C319.963 243.407 320.533 243.19 321.02 242.81C321.136 242.719 321.232 242.597 321.301 242.452C321.37 242.307 321.411 242.143 321.42 241.97C321.747 236.197 321.773 230.424 321.5 224.65C321.44 223.364 321.407 222.707 321.4 222.68C321.213 221.894 320.63 221.43 319.65 221.29Z" fill="#A0E385"/>
<path d="M341.86 242.41C342.267 236.037 342.313 229.663 342 223.29C341.967 222.583 341.763 222.07 341.39 221.75C341.057 221.463 340.657 221.257 340.19 221.13C339.937 221.063 339.943 221.027 340.21 221.02C343.35 220.94 346.493 220.85 349.64 220.75C351.113 220.703 352.457 220.997 353.67 221.63C354.943 222.297 355.687 223.32 355.9 224.7C356.293 227.18 355.2 229.433 352.62 231.46C352.464 231.584 352.362 231.763 352.334 231.96C352.307 232.157 352.355 232.357 352.47 232.52C354.483 235.393 356.467 238.03 358.42 240.43C359.773 242.09 361.447 243.093 363.44 243.44C364.347 243.593 364.357 243.79 363.47 244.03C361.777 244.483 360.16 244.497 358.62 244.07C357.34 243.717 356.12 242.807 354.96 241.34C353.16 239.047 351.533 236.63 350.08 234.09C349.453 232.99 348.23 232.567 346.41 232.82C346.266 232.842 346.134 232.914 346.04 233.022C345.947 233.131 345.897 233.269 345.9 233.41L345.95 242.39C345.95 242.586 346.021 242.776 346.151 242.928C346.28 243.079 346.461 243.183 346.66 243.22C348.327 243.507 348.827 243.703 348.16 243.81C345.413 244.277 342.657 244.35 339.89 244.03C339.41 243.977 339.38 243.86 339.8 243.68L341.35 243.01C341.496 242.944 341.622 242.853 341.712 242.747C341.802 242.641 341.854 242.524 341.86 242.41ZM350.32 221.88C348.633 221.28 347.297 221.383 346.31 222.19C346.204 222.277 346.116 222.399 346.054 222.546C345.992 222.692 345.956 222.861 345.95 223.04L345.73 230.92C345.724 231.066 345.764 231.209 345.844 231.327C345.923 231.445 346.038 231.53 346.17 231.57C347.883 232.103 349.347 231.973 350.56 231.18C351.687 230.44 352.327 229.23 352.48 227.55C352.613 225.997 352.377 224.55 351.77 223.21C351.631 222.9 351.431 222.623 351.181 222.394C350.932 222.165 350.639 221.99 350.32 221.88Z" fill="#A0E385"/>
<path d="M372.19 242.76C374.51 243.233 376.39 243.2 377.83 242.66C379.763 241.927 380.987 240.54 381.5 238.5C381.573 238.207 381.703 238.143 381.89 238.31C381.958 238.372 382.01 238.45 382.041 238.537C382.072 238.624 382.082 238.718 382.07 238.81L381.55 243.55C381.537 243.684 381.47 243.809 381.36 243.905C381.25 244 381.105 244.058 380.95 244.07C375.783 244.397 370.617 244.357 365.45 243.95C365.157 243.923 365.153 243.87 365.44 243.79C367.353 243.263 368.23 242.017 368.07 240.05C367.95 238.637 367.89 237.91 367.89 237.87C367.89 233.97 367.89 230.07 367.89 226.17C367.89 226.11 367.94 225.48 368.04 224.28C368.193 222.427 367.33 221.397 365.45 221.19C365.177 221.163 365.177 221.137 365.45 221.11C370.277 220.643 375.11 220.563 379.95 220.87C380.11 220.881 380.263 220.935 380.389 221.023C380.515 221.112 380.609 221.232 380.66 221.37C380.987 222.217 381.04 223.21 380.82 224.35C380.673 225.11 380.403 225.157 380.01 224.49C378.437 221.83 375.91 220.967 372.43 221.9C372.282 221.939 372.149 222.018 372.043 222.127C371.937 222.237 371.864 222.372 371.83 222.52C371.31 224.767 371.207 227.42 371.52 230.48C371.54 230.672 371.624 230.852 371.758 230.992C371.892 231.131 372.069 231.222 372.26 231.25C374.98 231.677 377.083 231.323 378.57 230.19C379.11 229.783 379.37 229.9 379.35 230.54L379.24 234.49C379.227 234.877 379.113 234.89 378.9 234.53C377.833 232.73 376.163 232.013 373.89 232.38C373.583 232.427 373.257 232.413 372.91 232.34C371.717 232.093 371.16 232.577 371.24 233.79C371.313 234.93 371.35 235.55 371.35 235.65C371.277 237.83 371.373 240 371.64 242.16C371.658 242.306 371.721 242.443 371.819 242.55C371.918 242.658 372.048 242.731 372.19 242.76Z" fill="#A0E385"/>
<path d="M410.14 221.01V221.18C407.027 221.1 405.033 222.424 404.16 225.15C403.727 226.51 403.5 227.214 403.48 227.26C401.333 232.72 399.2 238.187 397.08 243.66C396.8 244.38 396.493 244.394 396.16 243.7C393 237.1 389.897 230.54 386.85 224.02C386.357 222.96 385.667 222.05 384.78 221.29C384.54 221.084 384.577 220.977 384.89 220.97L392.23 220.9C393.457 220.887 393.477 221.037 392.29 221.35C390.663 221.777 390.19 222.727 390.87 224.2C392.93 228.647 395.127 233.367 397.46 238.36C397.693 238.854 397.91 238.844 398.11 238.33C399.777 233.984 401.457 229.62 403.15 225.24C403.583 224.12 403.673 223.25 403.42 222.63C403.08 221.797 402.343 221.317 401.21 221.19C400.803 221.144 400.8 221.12 401.2 221.12L410.14 221.01Z" fill="#A0E385"/>
<path d="M410.14 221.18V221.01C414.7 220.603 419.58 220.593 424.78 220.98C425.008 220.997 425.221 221.085 425.381 221.229C425.541 221.372 425.636 221.56 425.65 221.76L425.88 225.48C425.907 225.92 425.8 225.947 425.56 225.56C423.38 222.06 420.583 220.91 417.17 222.11C417.014 222.163 416.879 222.256 416.782 222.376C416.686 222.496 416.632 222.637 416.63 222.78L416.47 230.19C416.464 230.432 416.557 230.669 416.732 230.857C416.907 231.045 417.152 231.17 417.42 231.21C420.76 231.71 422.93 231.033 423.93 229.18C424.103 228.847 424.197 228.857 424.21 229.21L424.38 234.62C424.4 235.153 424.26 235.19 423.96 234.73C422.68 232.783 420.903 231.997 418.63 232.37C418.343 232.417 418.023 232.39 417.67 232.29C416.797 232.037 416.363 232.43 416.37 233.47C416.383 235.723 416.39 238.31 416.39 241.23C416.39 241.627 416.537 242.011 416.803 242.306C417.069 242.601 417.435 242.788 417.83 242.83C422.343 243.31 425.163 242.027 426.29 238.98C426.603 238.133 426.793 238.16 426.86 239.06C426.987 240.74 426.857 242.277 426.47 243.67C426.433 243.811 426.351 243.936 426.235 244.026C426.12 244.116 425.977 244.167 425.83 244.17C420.803 244.263 415.777 244.26 410.75 244.16C410.523 244.16 410.333 244.12 410.18 244.04C409.827 243.847 409.797 243.653 410.09 243.46C410.165 243.409 410.271 243.373 410.402 243.352C410.533 243.331 410.686 243.327 410.85 243.34C411.383 243.373 411.833 243.247 412.2 242.96C412.487 242.733 412.647 242.35 412.68 241.81C413.027 235.443 413.023 229.077 412.67 222.71C412.661 222.544 412.619 222.384 412.549 222.243C412.478 222.101 412.379 221.981 412.26 221.89C411.667 221.437 410.96 221.2 410.14 221.18Z" fill="#A0E385"/>
<path d="M435.87 242.97C436.117 243.083 436.583 243.307 437.27 243.64C437.697 243.847 437.633 244.02 437.08 244.16C436.4 244.327 434.353 244.333 430.94 244.18C430.233 244.147 430.077 243.993 430.47 243.72L432.49 242.27C432.68 242.133 432.837 241.969 432.95 241.791C433.063 241.613 433.128 241.424 433.14 241.24C433.407 236.74 433.497 232.243 433.41 227.75C433.41 227.697 433.443 227.01 433.51 225.69C433.63 223.437 432.603 221.933 430.43 221.18C430.117 221.073 430.123 221.017 430.45 221.01L435.89 220.96C436.044 220.96 436.196 220.995 436.338 221.062C436.48 221.13 436.607 221.228 436.71 221.35L450.36 237.5C450.967 238.213 451.29 238.103 451.33 237.17C451.49 233.577 451.443 229.993 451.19 226.42C451.19 226.36 451.193 225.897 451.2 225.03C451.22 223.497 450.423 222.177 448.81 221.07C448.477 220.843 448.51 220.757 448.91 220.81C450.723 221.043 452.607 221.037 454.56 220.79C454.973 220.737 455.123 220.847 455.01 221.12C454.973 221.2 454.909 221.275 454.822 221.337C454.736 221.4 454.629 221.449 454.51 221.48C453.143 221.84 452.437 222.503 452.39 223.47C452.103 229.797 452.03 236.573 452.17 243.8C452.183 244.693 451.9 244.8 451.32 244.12L435.08 225.2C434.62 224.66 434.39 224.743 434.39 225.45V240.65C434.39 241.137 434.53 241.615 434.792 242.026C435.054 242.437 435.428 242.764 435.87 242.97Z" fill="#A0E385"/>
<path d="M548.24 232.74C549.953 234.72 551.667 236.886 553.38 239.24C554.88 241.313 556.827 242.736 559.22 243.51C559.547 243.616 559.55 243.726 559.23 243.84C557.817 244.333 556.393 244.463 554.96 244.23C553.747 244.03 552.607 243.323 551.54 242.11C549.28 239.536 547.257 236.783 545.47 233.85C544.85 232.823 543.753 232.48 542.18 232.82C542.026 232.854 541.889 232.938 541.791 233.058C541.693 233.178 541.639 233.327 541.64 233.48C541.64 235.466 541.64 237.39 541.64 239.25C541.64 239.316 541.607 239.796 541.54 240.69C541.413 242.383 542.223 243.306 543.97 243.46C544.103 243.473 544.207 243.503 544.28 243.55C544.46 243.67 544.453 243.786 544.26 243.9C544.193 243.946 544.103 243.973 543.99 243.98C541.537 244.166 539.08 244.25 536.62 244.23C535.673 244.223 535.35 244.033 535.65 243.66C535.863 243.4 536.483 243.11 537.51 242.79C537.619 242.757 537.714 242.691 537.784 242.602C537.854 242.512 537.895 242.403 537.9 242.29C538.18 235.996 538.26 229.64 538.14 223.22C538.12 222.146 537.45 221.433 536.13 221.08C535.863 221.006 535.867 220.97 536.14 220.97C537.76 220.976 539.377 220.966 540.99 220.94C541.063 220.94 542.113 220.84 544.14 220.64C545.933 220.466 547.57 220.773 549.05 221.56C550.943 222.573 551.85 224.083 551.77 226.09C551.69 228.17 550.573 229.926 548.42 231.36C548.311 231.434 548.219 231.53 548.15 231.642C548.081 231.754 548.037 231.879 548.02 232.009C548.003 232.14 548.014 232.272 548.052 232.398C548.09 232.524 548.154 232.64 548.24 232.74ZM542.83 231.77C547.003 231.923 548.847 229.896 548.36 225.69C547.94 221.983 546.043 220.706 542.67 221.86C542.526 221.909 542.397 221.995 542.294 222.111C542.191 222.226 542.117 222.367 542.08 222.52C541.553 224.853 541.45 227.606 541.77 230.78C541.799 231.046 541.922 231.293 542.117 231.475C542.312 231.657 542.565 231.761 542.83 231.77Z" fill="#A0E385"/>
<path d="M62.3501 241.13C67.3317 241.13 71.3701 237.091 71.3701 232.11C71.3701 227.128 67.3317 223.09 62.3501 223.09C57.3685 223.09 53.3301 227.128 53.3301 232.11C53.3301 237.091 57.3685 241.13 62.3501 241.13Z" fill="#A0E385"/>
<path d="M592.39 244.8C597.145 244.8 601 240.945 601 236.19C601 231.435 597.145 227.58 592.39 227.58C587.635 227.58 583.78 231.435 583.78 236.19C583.78 240.945 587.635 244.8 592.39 244.8Z" fill="#A0E286"/>
<path d="M637.76 266.83C643.946 266.83 648.96 261.815 648.96 255.63C648.96 249.444 643.946 244.43 637.76 244.43C631.574 244.43 626.56 249.444 626.56 255.63C626.56 261.815 631.574 266.83 637.76 266.83Z" fill="#A0E385"/>
<path d="M283.34 277.59C292.375 277.59 299.7 270.265 299.7 261.23C299.7 252.195 292.375 244.87 283.34 244.87C274.305 244.87 266.98 252.195 266.98 261.23C266.98 270.265 274.305 277.59 283.34 277.59Z" fill="#A0E385"/>
<path d="M16.88 278.46C23.8609 278.46 29.52 272.801 29.52 265.82C29.52 258.839 23.8609 253.18 16.88 253.18C9.89913 253.18 4.23999 258.839 4.23999 265.82C4.23999 272.801 9.89913 278.46 16.88 278.46Z" fill="#A0E385"/>
<path d="M72.69 274.84C78.1852 274.84 82.64 270.385 82.64 264.89C82.64 259.395 78.1852 254.94 72.69 254.94C67.1948 254.94 62.74 259.395 62.74 264.89C62.74 270.385 67.1948 274.84 72.69 274.84Z" fill="#A0E286"/>
<path d="M595.11 279.76C599.479 279.76 603.02 276.219 603.02 271.85C603.02 267.481 599.479 263.94 595.11 263.94C590.741 263.94 587.2 267.481 587.2 271.85C587.2 276.219 590.741 279.76 595.11 279.76Z" fill="#A0E286"/>
<path d="M451.93 273.29C448.69 273.33 446.623 275.043 445.73 278.43C445.57 279.043 445.397 279.12 445.21 278.66C445.163 278.547 445.147 278.417 445.16 278.27C445.327 276.19 445.493 274.11 445.66 272.03C445.665 271.983 445.682 271.938 445.71 271.899C445.738 271.861 445.776 271.83 445.82 271.81C445.864 271.79 445.913 271.781 445.962 271.785C446.011 271.788 446.058 271.804 446.1 271.83C447.007 272.423 448.27 272.72 449.89 272.72C453.89 272.72 457.89 272.773 461.89 272.88C463.103 272.913 464.42 272.59 465.84 271.91C465.884 271.889 465.934 271.88 465.983 271.885C466.032 271.889 466.079 271.907 466.12 271.937C466.16 271.966 466.193 272.006 466.214 272.052C466.235 272.098 466.244 272.149 466.24 272.2L465.88 278.38C465.872 278.516 465.843 278.642 465.798 278.74C465.752 278.838 465.693 278.901 465.63 278.92C465.47 278.967 465.363 278.79 465.31 278.39C464.963 275.837 463.467 274.163 460.82 273.37C458.76 272.757 457.677 273.523 457.57 275.67C457.343 280.003 457.277 284.767 457.37 289.96C457.37 290 457.333 290.673 457.26 291.98C457.14 294.047 458.1 295.27 460.14 295.65C460.433 295.703 460.433 295.743 460.14 295.77C457.48 296.023 454.813 296.12 452.14 296.06C450.36 296.02 450.647 295.713 453 295.14C453.234 295.08 453.442 294.945 453.591 294.757C453.739 294.569 453.82 294.338 453.82 294.1L453.89 275.21C453.89 273.91 453.237 273.27 451.93 273.29Z" fill="#A0E385"/>
<path d="M433.14 273.18V272.76C435.527 272.047 437.853 272.157 440.12 273.09C440.275 273.153 440.409 273.251 440.505 273.374C440.601 273.496 440.655 273.637 440.66 273.78L440.87 278.41C440.89 278.857 440.72 278.977 440.36 278.77C440.107 278.623 439.937 278.36 439.85 277.98C439.07 274.393 436.833 272.793 433.14 273.18Z" fill="#A0E385"/>
<path d="M525.49 294.12L522.58 287.61C522.456 287.335 522.241 287.103 521.963 286.944C521.685 286.786 521.357 286.708 521.02 286.72L513.73 286.94C513.538 286.945 513.354 287.002 513.198 287.103C513.042 287.204 512.921 287.345 512.85 287.51L510.93 292.08C510.443 293.246 510.81 294.12 512.03 294.7L514.13 295.69C514.397 295.81 514.377 295.87 514.07 295.87L506.46 295.88C506.18 295.88 506.16 295.813 506.4 295.68C507.713 294.98 508.607 294.14 509.08 293.16C512.313 286.453 515.35 279.666 518.19 272.8C518.543 271.953 518.92 271.943 519.32 272.77C522.16 278.59 524.967 284.42 527.74 290.26C528.9 292.693 529.97 294.243 530.95 294.91C532.723 296.103 532.383 296.413 529.93 295.84C529.29 295.693 528.643 295.65 527.99 295.71C524.17 296.03 523.227 295.75 525.16 294.87C525.307 294.803 525.424 294.687 525.486 294.547C525.548 294.406 525.549 294.253 525.49 294.12ZM517.1 278.11L513.95 285.03C513.917 285.104 513.903 285.186 513.91 285.267C513.917 285.349 513.945 285.427 513.991 285.496C514.036 285.564 514.099 285.62 514.172 285.66C514.245 285.699 514.327 285.719 514.41 285.72H521.06C521.132 285.72 521.202 285.701 521.264 285.666C521.326 285.63 521.378 285.579 521.415 285.517C521.452 285.455 521.473 285.384 521.476 285.311C521.478 285.238 521.463 285.165 521.43 285.1L517.96 278.11C517.66 277.51 517.373 277.51 517.1 278.11Z" fill="#A0E385"/>
<path d="M336.16 273.21C336.073 273.204 335.943 273.104 335.77 272.91C335.537 272.657 335.59 272.544 335.93 272.57C338.33 272.744 340.733 272.817 343.14 272.79C343.753 272.784 343.377 273.044 342.01 273.57C341.834 273.636 341.681 273.751 341.569 273.902C341.457 274.053 341.391 274.233 341.38 274.42C341 280.84 340.993 287.327 341.36 293.88C341.387 294.354 341.517 294.71 341.75 294.95C342.057 295.257 342.437 295.434 342.89 295.48C343.106 295.5 343.305 295.547 343.456 295.612C343.607 295.678 343.7 295.758 343.72 295.84C343.76 296.034 343.407 296.097 342.66 296.03C342.267 295.997 341.917 295.984 341.61 295.99C339.53 296.077 337.453 296.007 335.38 295.78C335.16 295.754 335.153 295.684 335.36 295.57L336.94 294.73C337.056 294.666 337.156 294.557 337.229 294.413C337.303 294.269 337.348 294.096 337.36 293.91C337.793 287.51 337.797 281.034 337.37 274.48C337.351 274.158 337.218 273.854 336.997 273.621C336.775 273.389 336.478 273.243 336.16 273.21Z" fill="#A0E385"/>
<path d="M367.43 289.88C367.703 290.207 367.857 290.16 367.89 289.74C368.157 286.313 368.25 282.887 368.17 279.46C368.17 279.413 368.197 278.757 368.25 277.49C368.343 275.557 367.557 274.107 365.89 273.14C365.617 272.98 365.633 272.883 365.94 272.85C367.6 272.683 369.267 272.637 370.94 272.71C371.06 272.717 371.193 272.697 371.34 272.65C371.733 272.517 371.86 272.603 371.72 272.91C371.685 272.982 371.63 273.046 371.559 273.098C371.488 273.15 371.403 273.188 371.31 273.21C370.157 273.47 369.517 274.057 369.39 274.97C368.837 278.863 368.673 282.78 368.9 286.72C369.08 289.793 369.03 292.86 368.75 295.92C368.717 296.253 368.587 296.29 368.36 296.03L351.99 277.14C351.423 276.487 351.14 276.587 351.14 277.44C351.14 281.393 351.14 285.267 351.14 289.06C351.14 289.12 351.103 289.72 351.03 290.86C350.897 292.92 351.703 294.46 353.45 295.48C353.81 295.693 353.79 295.8 353.39 295.8L347.37 295.83C346.817 295.83 346.797 295.713 347.31 295.48C349.477 294.493 350.42 292.99 350.14 290.97C349.94 289.517 349.987 284.873 350.28 277.04C350.32 276 350.123 275.223 349.69 274.71C349.183 274.103 348.467 273.617 347.54 273.25C346.66 272.897 346.697 272.72 347.65 272.72H352.64C352.803 272.72 352.962 272.755 353.107 272.822C353.253 272.89 353.38 272.988 353.48 273.11L367.43 289.88Z" fill="#A0E385"/>
<path d="M479.43 272.72L478.89 273.18C476.803 273.013 475.693 273.737 475.56 275.35C475.42 277.05 475.34 277.95 475.32 278.05C474.993 280.05 475.36 281.907 476.42 283.62C475.833 283.927 475.66 284.273 475.9 284.66C475.28 287.76 475.227 290.887 475.74 294.04C475.77 294.231 475.831 294.406 475.917 294.546C476.003 294.687 476.111 294.788 476.23 294.84L478.1 295.68C478.273 295.76 478.267 295.803 478.08 295.81L470.07 296.03C469.237 296.057 469.113 295.92 469.7 295.62L471.36 294.77C471.52 294.685 471.653 294.566 471.747 294.425C471.84 294.284 471.89 294.127 471.89 293.97C471.89 287.137 471.89 280.72 471.89 274.72C471.89 273.64 471.327 273.107 470.2 273.12C469.627 273.127 469.427 272.987 469.6 272.7C469.707 272.527 470.057 272.453 470.65 272.48C473.577 272.62 476.503 272.7 479.43 272.72Z" fill="#A0E385"/>
<path d="M495.88 272.81C495.173 272.47 495.21 272.363 495.99 272.49C497.663 272.757 499.38 272.85 501.14 272.77C503.86 272.637 504.297 272.79 502.45 273.23C502.148 273.298 501.879 273.467 501.686 273.709C501.494 273.951 501.389 274.251 501.39 274.56C501.39 280.653 501.39 286.177 501.39 291.13C501.39 291.17 501.343 291.73 501.25 292.81C501.123 294.357 501.817 295.317 503.33 295.69C503.617 295.757 503.617 295.803 503.33 295.83C501.19 296.017 499.043 296.117 496.89 296.13C494.817 296.143 494.737 295.843 496.65 295.23C496.938 295.137 497.189 294.954 497.367 294.708C497.545 294.462 497.64 294.165 497.64 293.86C497.64 288.147 497.64 282.477 497.64 276.85C497.64 275.443 497.627 274.693 497.6 274.6C497.4 273.873 496.827 273.277 495.88 272.81Z" fill="#A0E385"/>
<path d="M376.12 273.29C373.787 273.036 373.793 272.883 376.14 272.83C379.473 272.756 382.807 272.72 386.14 272.72C388.967 272.72 391.417 273.74 393.49 275.78C395.27 277.54 396.38 279.763 396.82 282.45C397.727 288.01 395.397 292.163 389.83 294.91C387.957 295.83 385.873 296.236 383.58 296.13C381.373 296.03 380.243 295.98 380.19 295.98C378.59 296.013 376.993 296.08 375.4 296.18C374.82 296.22 374.473 296.16 374.36 296C374.331 295.959 374.324 295.91 374.34 295.858C374.355 295.806 374.393 295.752 374.45 295.7C374.507 295.648 374.581 295.6 374.666 295.56C374.752 295.52 374.845 295.489 374.94 295.47C375.447 295.37 375.88 295.156 376.24 294.83C376.56 294.536 376.74 294.123 376.78 293.59C376.853 292.61 376.89 290.82 376.89 288.22C376.89 284.306 376.89 279.613 376.89 274.14C376.891 273.929 376.813 273.725 376.67 273.568C376.528 273.411 376.332 273.312 376.12 273.29ZM381.97 294.82C384.917 295.586 387.387 295.173 389.38 293.58C391.04 292.266 392.17 290.306 392.77 287.7C393.73 283.593 392.8 279.723 389.98 276.09C388.753 274.503 387.057 273.546 384.89 273.22C382.543 272.866 381.16 273.49 380.74 275.09C380.673 275.356 380.64 276.613 380.64 278.86C380.64 283.573 380.64 288.32 380.64 293.1C380.64 293.493 380.771 293.875 381.012 294.186C381.253 294.498 381.589 294.72 381.97 294.82Z" fill="#A0E385"/>
<path d="M418.5 273.63L417.42 273.09C417.087 272.93 417.097 272.85 417.45 272.85L423.33 272.84C423.717 272.84 423.733 272.927 423.38 273.1C421.953 273.793 421.257 274.933 421.29 276.52C421.317 277.747 421.33 278.387 421.33 278.44C421.183 280.72 421.107 283 421.1 285.28C421.093 288.387 420.74 290.613 420.04 291.96C418.347 295.253 415.217 296.647 410.65 296.14C407.683 295.813 405.523 294.577 404.17 292.43C403.31 291.063 402.827 288.84 402.72 285.76C402.6 282.433 402.59 278.733 402.69 274.66C402.698 274.358 402.603 274.061 402.419 273.821C402.235 273.581 401.974 273.411 401.68 273.34C399.533 272.82 399.937 272.563 402.89 272.57C404.63 272.577 406.363 272.67 408.09 272.85C408.37 272.883 408.373 272.947 408.1 273.04C407.607 273.213 407.177 273.477 406.81 273.83C406.49 274.137 406.31 274.577 406.27 275.15C405.837 280.663 405.96 285.52 406.64 289.72C406.88 291.187 407.57 292.407 408.71 293.38C409.67 294.193 410.887 294.703 412.36 294.91C415.06 295.283 417.097 294.517 418.47 292.61C419.417 291.297 419.89 289.097 419.89 286.01C419.89 282.93 419.89 279.69 419.89 276.29C419.89 274.977 419.427 274.09 418.5 273.63Z" fill="#A0E385"/>
<path d="M433.14 272.76V273.18C430.913 274.38 430.267 276.04 431.2 278.16C431.847 279.626 433.197 280.93 435.25 282.07C436.703 282.87 438.023 283.83 439.21 284.95C440.57 286.216 441.39 287.576 441.67 289.03C442.117 291.343 441.337 293.22 439.33 294.66C436.09 296.973 432.503 297.073 428.57 294.96C428.43 294.883 428.307 294.781 428.208 294.657C428.108 294.533 428.034 294.392 427.99 294.24C427.577 292.726 427.493 290.946 427.74 288.9C427.833 288.12 428.007 288.103 428.26 288.85C428.827 290.503 429.603 291.976 430.59 293.27C432.01 295.13 433.823 295.813 436.03 295.32C437.177 295.066 437.887 294.366 438.16 293.22C438.7 290.926 438.213 288.99 436.7 287.41C436.22 286.903 434.597 285.693 431.83 283.78C429.637 282.266 428.47 280.576 428.33 278.71C428.057 275.17 429.66 273.186 433.14 272.76Z" fill="#A0E385"/>
<path d="M479.43 272.72C481.29 272.506 482.84 272.886 484.08 273.86C485.32 274.826 485.887 276.13 485.78 277.77C485.633 279.89 484.483 281.72 482.33 283.26C482.192 283.359 482.097 283.507 482.066 283.673C482.034 283.839 482.068 284.01 482.16 284.15C484.333 287.463 486.597 290.383 488.95 292.91C489.843 293.863 491.153 294.75 492.88 295.57C493.3 295.77 493.283 295.866 492.83 295.86L487.44 295.75C487.312 295.749 487.17 295.708 487.027 295.628C486.883 295.548 486.74 295.433 486.61 295.29C483.623 292.05 481.3 288.943 479.64 285.97C478.98 284.783 477.733 284.346 475.9 284.66C475.66 284.273 475.833 283.926 476.42 283.62C479.9 283.886 481.81 282.746 482.15 280.2C482.35 278.713 482.313 277.386 482.04 276.22C481.68 274.713 480.63 273.7 478.89 273.18L479.43 272.72Z" fill="#A0E385"/>
<path d="M534.88 273.12C533.627 272.92 533.633 272.793 534.9 272.74C537.187 272.64 539.327 272.68 541.32 272.86C541.593 272.88 541.603 272.937 541.35 273.03C540.377 273.37 539.89 274.183 539.89 275.47C539.89 281.137 539.89 287.1 539.89 293.36C539.89 293.653 539.996 293.937 540.189 294.158C540.383 294.378 540.649 294.521 540.94 294.56C546.073 295.247 549.55 293.723 551.37 289.99C551.517 289.677 551.58 289.69 551.56 290.03L551.25 295.29C551.242 295.431 551.181 295.563 551.079 295.66C550.976 295.756 550.841 295.81 550.7 295.81H533.95C533.643 295.81 533.643 295.773 533.95 295.7C535.41 295.36 536.14 294.2 536.14 292.22C536.14 286.64 536.213 281.06 536.36 275.48C536.393 274.067 535.9 273.28 534.88 273.12Z" fill="#A0E385"/>
<path d="M90.4601 304.62C96.1983 304.62 100.85 299.968 100.85 294.23C100.85 288.492 96.1983 283.84 90.4601 283.84C84.7218 283.84 80.0701 288.492 80.0701 294.23C80.0701 299.968 84.7218 304.62 90.4601 304.62Z" fill="#A0E286"/>
<path d="M630 315.18C635.722 315.18 640.36 310.542 640.36 304.82C640.36 299.098 635.722 294.46 630 294.46C624.278 294.46 619.64 299.098 619.64 304.82C619.64 310.542 624.278 315.18 630 315.18Z" fill="#A0E385"/>
<path d="M31.68 324.59C39.1524 324.59 45.21 318.533 45.21 311.06C45.21 303.588 39.1524 297.53 31.68 297.53C24.2076 297.53 18.15 303.588 18.15 311.06C18.15 318.533 24.2076 324.59 31.68 324.59Z" fill="#A0E385"/>
<path d="M589.97 314.69C594.101 314.69 597.45 311.341 597.45 307.21C597.45 303.079 594.101 299.73 589.97 299.73C585.839 299.73 582.49 303.079 582.49 307.21C582.49 311.341 585.839 314.69 589.97 314.69Z" fill="#A0E286"/>
<path d="M113.99 330.13C120.087 330.13 125.03 325.187 125.03 319.09C125.03 312.993 120.087 308.05 113.99 308.05C107.893 308.05 102.95 312.993 102.95 319.09C102.95 325.187 107.893 330.13 113.99 330.13Z" fill="#A0E385"/>
<path d="M308.95 338.78C316.997 338.78 323.52 332.256 323.52 324.21C323.52 316.163 316.997 309.64 308.95 309.64C300.903 309.64 294.38 316.163 294.38 324.21C294.38 332.256 300.903 338.78 308.95 338.78Z" fill="#A0E385"/>
<path d="M142.78 349.84C149.192 349.84 154.39 344.642 154.39 338.23C154.39 331.818 149.192 326.62 142.78 326.62C136.368 326.62 131.17 331.818 131.17 338.23C131.17 344.642 136.368 349.84 142.78 349.84Z" fill="#A0E385"/>
<path d="M279.51 356.11C287.33 356.11 293.67 349.77 293.67 341.95C293.67 334.13 287.33 327.79 279.51 327.79C271.69 327.79 265.35 334.13 265.35 341.95C265.35 349.77 271.69 356.11 279.51 356.11Z" fill="#A0E385"/>
<path d="M576.69 346.2C580.352 346.2 583.32 343.232 583.32 339.57C583.32 335.908 580.352 332.94 576.69 332.94C573.028 332.94 570.06 335.908 570.06 339.57C570.06 343.232 573.028 346.2 576.69 346.2Z" fill="#A0E286"/>
<path d="M55.83 366.13C63.8216 366.13 70.3 359.652 70.3 351.66C70.3 343.668 63.8216 337.19 55.83 337.19C47.8385 337.19 41.36 343.668 41.36 351.66C41.36 359.652 47.8385 366.13 55.83 366.13Z" fill="#A0E385"/>
<path d="M246.82 366.03C254.27 366.03 260.31 359.99 260.31 352.54C260.31 345.09 254.27 339.05 246.82 339.05C239.37 339.05 233.33 345.09 233.33 352.54C233.33 359.99 239.37 366.03 246.82 366.03Z" fill="#A0E385"/>
<path d="M176.9 363.25C183.555 363.25 188.95 357.855 188.95 351.2C188.95 344.545 183.555 339.15 176.9 339.15C170.245 339.15 164.85 344.545 164.85 351.2C164.85 357.855 170.245 363.25 176.9 363.25Z" fill="#A0E385"/>
<path d="M612.32 359.07C617.506 359.07 621.71 354.866 621.71 349.68C621.71 344.494 617.506 340.29 612.32 340.29C607.134 340.29 602.93 344.494 602.93 349.68C602.93 354.866 607.134 359.07 612.32 359.07Z" fill="#A0E286"/>
<path d="M212.5 369.03C219.586 369.03 225.33 363.286 225.33 356.2C225.33 349.114 219.586 343.37 212.5 343.37C205.414 343.37 199.67 349.114 199.67 356.2C199.67 363.286 205.414 369.03 212.5 369.03Z" fill="#A0E385"/>
<path d="M557.63 374.19C561.038 374.19 563.8 371.427 563.8 368.02C563.8 364.612 561.038 361.85 557.63 361.85C554.222 361.85 551.46 364.612 551.46 368.02C551.46 371.427 554.222 374.19 557.63 374.19Z" fill="#A0E286"/>
<path d="M88.7 401.35C97.0947 401.35 103.9 394.545 103.9 386.15C103.9 377.755 97.0947 370.95 88.7 370.95C80.3053 370.95 73.5 377.755 73.5 386.15C73.5 394.545 80.3053 401.35 88.7 401.35Z" fill="#A0E385"/>
<path d="M358.33 413.64C369.458 413.64 378.48 404.619 378.48 393.49C378.48 382.362 369.458 373.34 358.33 373.34C347.201 373.34 338.18 382.362 338.18 393.49C338.18 404.619 347.201 413.64 358.33 413.64Z" fill="#A0E385"/>
<path d="M585.55 397.52C590.289 397.52 594.13 393.679 594.13 388.94C594.13 384.201 590.289 380.36 585.55 380.36C580.811 380.36 576.97 384.201 576.97 388.94C576.97 393.679 580.811 397.52 585.55 397.52Z" fill="#A0E385"/>
<path d="M532.67 396.66C535.713 396.66 538.18 394.193 538.18 391.15C538.18 388.107 535.713 385.64 532.67 385.64C529.627 385.64 527.16 388.107 527.16 391.15C527.16 394.193 529.627 396.66 532.67 396.66Z" fill="#A0E286"/>
<path d="M128.64 428.73C137.471 428.73 144.63 421.571 144.63 412.74C144.63 403.909 137.471 396.75 128.64 396.75C119.809 396.75 112.65 403.909 112.65 412.74C112.65 421.571 119.809 428.73 128.64 428.73Z" fill="#A0E385"/>
<path d="M317.56 436.96C328.33 436.96 337.06 428.23 337.06 417.46C337.06 406.69 328.33 397.96 317.56 397.96C306.791 397.96 298.06 406.69 298.06 417.46C298.06 428.23 306.791 436.96 317.56 436.96Z" fill="#A0E385"/>
<path d="M503.05 413.62C505.751 413.62 507.94 411.431 507.94 408.73C507.94 406.029 505.751 403.84 503.05 403.84C500.349 403.84 498.16 406.029 498.16 408.73C498.16 411.431 500.349 413.62 503.05 413.62Z" fill="#A0E286"/>
<path d="M175.27 447.4C184.626 447.4 192.21 439.816 192.21 430.46C192.21 421.104 184.626 413.52 175.27 413.52C165.914 413.52 158.33 421.104 158.33 430.46C158.33 439.816 165.914 447.4 175.27 447.4Z" fill="#A0E385"/>
<path d="M550.95 429.03C555.208 429.03 558.66 425.578 558.66 421.32C558.66 417.062 555.208 413.61 550.95 413.61C546.692 413.61 543.24 417.062 543.24 421.32C543.24 425.578 546.692 429.03 550.95 429.03Z" fill="#A0E286"/>
<path d="M272.77 450.77C282.938 450.77 291.18 442.528 291.18 432.36C291.18 422.192 282.938 413.95 272.77 413.95C262.602 413.95 254.36 422.192 254.36 432.36C254.36 442.528 262.602 450.77 272.77 450.77Z" fill="#A0E385"/>
<path d="M469.92 423.8C472.372 423.8 474.36 421.812 474.36 419.36C474.36 416.908 472.372 414.92 469.92 414.92C467.468 414.92 465.48 416.908 465.48 419.36C465.48 421.812 467.468 423.8 469.92 423.8Z" fill="#A0E286"/>
<path d="M434 425.74C436.049 425.74 437.71 424.079 437.71 422.03C437.71 419.981 436.049 418.32 434 418.32C431.951 418.32 430.29 419.981 430.29 422.03C430.29 424.079 431.951 425.74 434 425.74Z" fill="#A0E286"/>
<path d="M224.62 454.51C234.351 454.51 242.24 446.621 242.24 436.89C242.24 427.159 234.351 419.27 224.62 419.27C214.889 419.27 207 427.159 207 436.89C207 446.621 214.889 454.51 224.62 454.51Z" fill="#A0E385"/>
<path d="M509.91 451.93C513.71 451.93 516.79 448.85 516.79 445.05C516.79 441.25 513.71 438.17 509.91 438.17C506.11 438.17 503.03 441.25 503.03 445.05C503.03 448.85 506.11 451.93 509.91 451.93Z" fill="#A0E286"/>
<path d="M464.25 465.71C467.652 465.71 470.41 462.952 470.41 459.55C470.41 456.148 467.652 453.39 464.25 453.39C460.848 453.39 458.09 456.148 458.09 459.55C458.09 462.952 460.848 465.71 464.25 465.71Z" fill="#A0E286"/>
<path d="M414.62 469.08C417.553 469.08 419.93 466.703 419.93 463.77C419.93 460.837 417.553 458.46 414.62 458.46C411.687 458.46 409.31 460.837 409.31 463.77C409.31 466.703 411.687 469.08 414.62 469.08Z" fill="#A0E286"/>
</svg>
