<?xml version="1.0" encoding="UTF-8" standalone="no"?>
<!DOCTYPE svg PUBLIC "-//W3C//DTD SVG 1.1//EN" "http://www.w3.org/Graphics/SVG/1.1/DTD/svg11.dtd">
<svg xmlns="http://www.w3.org/2000/svg" version="1.1" viewBox="0 0 656 402">
<g stroke-width="2.00" fill="none" stroke-linecap="butt">
<path stroke="#818e9b" vector-effect="non-scaling-stroke" d="
  M 121.50 68.26
  Q 114.32 68.96 107.54 71.22
  Q 97.26 74.65 96.81 74.79
  Q 90.02 76.95 83.65 80.15
  Q 80.77 81.61 76.82 84.53
  Q 73.54 86.97 70.15 89.22
  Q 63.07 93.93 60.74 95.78
  Q 56.82 98.90 51.94 103.19
  Q 29.82 122.63 22.39 150.19
  Q 20.48 157.24 19.67 161.81
  Q 18.68 167.33 18.50 173.75
  Q 18.17 185.42 19.16 194.85
  Q 19.42 197.38 20.31 200.56
  Q 21.09 203.38 21.78 206.21
  Q 23.24 212.29 24.03 214.69
  Q 28.56 228.37 36.91 240.13
  Q 38.39 242.22 40.69 244.81
  Q 42.69 247.05 44.68 249.31
  Q 51.02 256.52 58.71 262.17
  Q 59.92 263.06 64.59 265.93
  Q 67.60 267.78 70.35 269.94"
/>
<path stroke="#ebc188" vector-effect="non-scaling-stroke" d="
  M 70.35 269.94
  Q 78.39 277.26 83.44 280.56
  Q 88.88 284.12 94.00 286.25
  Q 101.07 289.19 111.19 292.92
  Q 117.46 295.23 127.00 295.75
  Q 140.60 296.48 151.07 295.31
  Q 154.72 294.91 159.29 293.47
  Q 163.32 292.21 167.37 290.99
  Q 174.96 288.70 179.31 286.80
  Q 190.55 281.87 199.06 275.31
  Q 213.55 264.15 226.04 247.25"
/>
<path stroke="#d2e0df" vector-effect="non-scaling-stroke" d="
  M 226.04 247.25
  Q 239.94 229.75 245.03 207.96
  Q 246.27 202.70 247.55 197.45
  Q 252.42 177.59 247.63 157.72
  Q 246.59 153.42 244.06 144.94
  Q 237.73 123.68 224.95 106.68
  Q 222.52 103.44 218.10 99.23
  Q 215.32 96.58 210.81 92.19
  Q 200.03 81.68 185.46 75.49
  Q 183.73 74.76 177.90 71.88
  Q 174.01 69.96 169.94 69.06
  Q 165.40 68.06 160.05 67.31
  Q 151.19 66.07 150.10 65.95
  Q 135.68 64.27 121.50 68.26"
/>
<path stroke="#bda268" vector-effect="non-scaling-stroke" d="
  M 226.04 247.25
  Q 225.78 246.19 225.76 245.14
  Q 225.75 244.17 226.40 243.17
  Q 232.13 234.35 236.00 222.25
  Q 242.99 200.39 244.33 180.26
  Q 244.46 178.20 243.64 177.95"
/>
<path stroke="#546f7b" vector-effect="non-scaling-stroke" d="
  M 243.64 177.95
  Q 244.71 160.02 238.25 142.75
  Q 234.07 131.59 228.30 121.73
  Q 223.99 114.36 217.58 107.12
  Q 211.56 100.31 204.91 94.09
  Q 199.73 89.24 194.44 86.56
  Q 192.44 85.55 191.00 84.54
  Q 187.76 82.28 187.74 82.27
  Q 179.40 77.32 169.98 74.84
  Q 163.98 73.26 158.16 71.13
  Q 151.77 68.78 145.04 68.63
  Q 136.58 68.44 136.47 68.43
  Q 129.00 67.98 121.50 68.26"
/>
<path stroke="#6d5024" vector-effect="non-scaling-stroke" d="
  M 243.64 177.95
  Q 240.36 179.83 239.31 182.06
  Q 237.81 185.27 235.54 187.00"
/>
<path stroke="#818e9b" vector-effect="non-scaling-stroke" d="
  M 235.54 187.00
  Q 234.96 180.57 234.24 174.15
  Q 233.49 167.40 231.64 161.58
  Q 228.18 150.70 223.54 140.26
  Q 222.73 138.43 220.66 135.81
  Q 219.14 133.89 217.69 131.31
  Q 212.07 121.37 203.37 112.50
  Q 203.05 112.17 200.19 110.03
  Q 198.55 108.80 197.53 106.87
  A 2.83 2.79 88.4 0 0 196.24 105.63
  Q 192.35 103.77 188.96 101.88
  Q 186.00 100.22 181.71 98.15
  Q 179.20 96.94 176.80 95.52
  Q 174.19 93.98 171.77 93.27
  Q 155.08 88.33 149.75 87.75
  Q 132.67 85.90 115.73 88.33
  Q 113.28 88.68 110.36 89.61
  Q 107.73 90.44 105.07 91.21
  Q 100.40 92.55 97.28 94.04
  Q 89.05 97.97 81.51 103.12
  Q 81.42 103.18 79.80 104.16
  Q 78.09 105.20 76.56 107.06
  Q 74.43 109.65 66.46 117.72"
/>
<path stroke="#546f7b" vector-effect="non-scaling-stroke" d="
  M 66.46 117.72
  Q 69.44 111.50 74.40 106.87
  Q 75.92 105.46 79.52 103.18
  Q 82.21 101.48 84.75 99.54"
/>
<path stroke="#818e9b" vector-effect="non-scaling-stroke" d="
  M 84.75 99.54
  Q 86.98 98.32 89.44 96.19
  Q 91.89 94.06 95.06 92.82
  Q 98.68 91.41 98.75 91.38
  Q 101.75 90.06 104.77 88.80
  Q 107.44 87.70 110.98 86.72
  Q 115.99 85.33 120.93 83.65
  Q 126.72 81.68 132.74 81.05
  Q 137.61 80.54 144.76 80.40
  Q 157.92 80.16 170.51 84.48
  Q 170.78 84.58 170.98 84.51
  Q 171.40 84.35 170.93 84.03
  Q 167.11 81.43 162.74 80.19
  Q 156.10 78.31 156.00 78.27
  Q 147.47 75.49 139.25 75.00
  Q 134.19 74.70 125.25 74.96"
/>
<path stroke="#546f7b" vector-effect="non-scaling-stroke" d="
  M 125.25 74.96
  Q 111.94 73.77 98.76 76.03
  Q 92.54 77.10 86.61 79.44"
/>
<path stroke="#818e9b" vector-effect="non-scaling-stroke" d="
  M 86.61 79.44
  Q 67.97 88.92 56.44 103.19
  Q 49.50 111.76 42.82 123.99
  Q 38.35 132.17 36.00 139.31
  Q 33.21 147.78 32.25 155.75
  Q 30.35 171.51 33.06 189.24
  Q 33.10 189.50 33.24 189.51
  A 0.28 0.18 -89.6 0 0 33.43 189.22
  Q 33.11 179.19 33.81 174.31
  Q 34.76 167.70 37.77 157.70
  Q 39.00 153.62 41.03 149.71
  Q 43.01 145.90 45.11 142.08"
/>
<path stroke="#546f7b" vector-effect="non-scaling-stroke" d="
  M 45.11 142.08
  Q 43.86 151.89 42.25 158.75
  Q 38.21 175.98 41.17 192.67
  Q 42.80 201.89 44.75 211.05
  Q 47.38 223.41 53.06 234.69
  Q 55.67 239.87 59.91 243.86
  Q 62.47 246.27 68.44 251.31
  Q 75.19 257.02 80.66 260.13"
/>
<path stroke="#704f1f" vector-effect="non-scaling-stroke" d="
  M 80.66 260.13
  Q 90.61 267.24 102.15 271.52
  Q 108.25 273.78 112.35 274.94
  Q 117.85 276.50 123.00 276.75
  Q 132.65 277.23 142.25 277.87"
/>
<path stroke="#818e9b" vector-effect="non-scaling-stroke" d="
  M 142.25 277.87
  Q 137.30 283.04 130.50 284.25
  Q 128.40 284.62 118.25 283.96"
/>
<path stroke="#546f7b" vector-effect="non-scaling-stroke" d="
  M 118.25 283.96
  L 114.00 283.54"
/>
<path stroke="#6d5024" vector-effect="non-scaling-stroke" d="
  M 114.00 283.54
  Q 105.56 283.43 97.06 280.19
  Q 92.26 278.36 85.06 276.44
  Q 81.98 275.62 70.35 269.94"
/>
<path stroke="#bda268" vector-effect="non-scaling-stroke" d="
  M 114.00 283.54
  Q 114.52 284.65 115.71 285.00"
/>
<path stroke="#ebc188" vector-effect="non-scaling-stroke" d="
  M 235.54 187.00
  Q 235.26 207.38 233.00 218.25
  Q 230.92 228.23 224.32 241.30
  Q 223.10 243.70 220.60 247.30
  Q 218.97 249.65 216.69 253.19
  Q 211.98 260.47 204.21 268.28
  Q 200.40 272.11 196.17 274.99
  Q 191.83 277.93 187.21 280.47
  Q 178.64 285.17 169.31 287.60
  Q 160.97 289.77 150.38 290.01
  Q 134.43 290.38 118.75 286.75
  Q 117.21 286.39 115.71 285.00"
/>
<path stroke="#d2e0df" vector-effect="non-scaling-stroke" d="
  M 115.71 285.00
  Q 116.27 283.39 118.25 283.96"
/>
<path stroke="#eec083" vector-effect="non-scaling-stroke" d="
  M 142.25 277.87
  Q 143.32 277.57 147.25 277.25
  Q 168.20 275.55 185.21 261.96
  Q 192.71 255.97 195.17 246.82
  Q 195.59 245.27 195.36 244.16
  Q 194.95 242.12 193.28 242.11
  Q 191.94 242.09 190.48 243.52
  Q 189.50 244.48 188.06 246.06
  Q 168.78 267.27 139.25 264.24
  Q 123.85 262.66 112.94 258.56
  Q 97.90 252.92 82.70 242.23
  Q 79.09 239.70 74.23 235.26
  Q 70.16 231.55 65.96 228.00"
/>
<path stroke="#d2e0df" vector-effect="non-scaling-stroke" d="
  M 125.25 74.96
  Q 111.87 78.07 100.31 85.25
  Q 98.37 86.46 93.89 88.65
  Q 87.54 91.77 84.06 97.31
  Q 83.32 98.49 84.75 99.54"
/>
<path stroke="#d2e0df" vector-effect="non-scaling-stroke" d="
  M 66.46 117.72
  Q 62.14 123.26 59.15 129.67
  Q 51.68 145.68 49.72 163.25
  Q 47.88 179.75 49.70 196.26
  Q 50.58 204.22 53.44 211.66
  Q 54.35 214.04 56.44 216.27
  Q 61.61 221.80 65.96 228.00"
/>
<path stroke="#c1a163" vector-effect="non-scaling-stroke" d="
  M 65.96 228.00
  Q 64.43 227.00 61.81 223.94
  Q 59.05 220.71 56.41 218.25
  Q 54.43 216.41 55.25 218.99
  Q 57.74 226.85 61.63 234.02
  Q 64.41 239.16 70.72 247.36
  Q 75.65 253.78 80.66 260.13"
/>
<path stroke="#d2e0df" vector-effect="non-scaling-stroke" d="
  M 45.11 142.08
  Q 49.56 129.08 56.41 117.26
  Q 60.30 110.57 62.01 108.13
  Q 64.85 104.08 68.94 99.94
  Q 79.60 89.12 84.94 84.44
  Q 87.03 82.60 87.44 80.69
  Q 88.27 79.90 86.61 79.44"
/>
<path stroke="#e9c38e" vector-effect="non-scaling-stroke" d="
  M 277.43 103.06
  A 1.07 1.07 0.0 0 0 276.36 101.99
  L 272.62 101.99
  A 1.07 1.07 0.0 0 0 271.55 103.06
  L 271.55 278.88
  A 1.07 1.07 0.0 0 0 272.62 279.95
  L 276.36 279.95
  A 1.07 1.07 0.0 0 0 277.43 278.88
  L 277.43 103.06"
/>
<path stroke="#80909f" vector-effect="non-scaling-stroke" d="
  M 328.00 103.10
  Q 326.59 111.18 323.45 118.37
  Q 321.63 122.56 321.94 127.69
  Q 322.18 131.65 320.96 135.70
  Q 319.74 139.75 319.71 139.86
  Q 311.48 171.99 302.81 204.02
  Q 301.19 209.99 298.79 216.55
  A 0.52 0.52 -80.1 0 0 299.28 217.25
  L 319.58 217.21
  Q 322.29 217.20 322.11 214.48
  Q 321.63 207.06 323.90 201.62
  Q 324.87 199.29 324.90 199.23
  Q 326.09 196.11 327.37 193.02
  A 0.75 0.74 11.2 0 1 328.06 192.56
  L 357.24 192.50
  A 0.83 0.81 84.4 0 1 358.04 193.17
  Q 360.39 205.24 363.72 216.75
  A 0.69 0.68 -7.8 0 0 364.38 217.25
  L 385.92 217.25
  A 0.46 0.46 87.2 0 0 386.38 216.74
  Q 385.57 209.70 383.74 203.20
  Q 381.08 193.81 381.06 193.71
  Q 378.78 184.63 376.29 175.61
  Q 376.27 175.53 374.99 169.83
  Q 374.30 166.73 372.94 163.56
  Q 370.65 158.23 369.24 151.65
  Q 368.33 147.36 367.08 143.17
  Q 365.63 138.28 364.79 134.73
  Q 363.17 127.82 361.10 121.03
  Q 359.99 117.39 359.02 112.33
  Q 358.12 107.70 356.79 103.63
  A 2.38 2.37 80.8 0 0 354.54 102.00
  L 329.30 102.00
  A 1.33 1.32 -85.1 0 0 328.00 103.10"
/>
<path stroke="#80909f" vector-effect="non-scaling-stroke" d="
  M 421.31 123.31
  L 467.58 123.25
  A 0.62 0.60 0.5 0 0 468.20 122.66
  L 468.50 103.10
  A 0.86 0.84 0.3 0 0 467.64 102.25
  L 397.06 102.25
  A 0.56 0.56 0.0 0 0 396.50 102.81
  L 396.50 216.78
  A 0.54 0.54 0.0 0 0 397.04 217.32
  L 419.95 217.25
  A 0.55 0.55 0.0 0 0 420.50 216.70
  L 420.50 168.16
  A 0.66 0.66 -0.2 0 1 421.16 167.50
  L 455.46 167.50
  A 0.79 0.79 0.1 0 0 456.25 166.71
  L 456.19 147.06
  A 0.50 0.49 0.0 0 0 455.69 146.57
  L 421.48 146.75
  A 0.96 0.94 0.3 0 1 420.52 145.80
  L 420.79 123.82
  A 0.52 0.51 0.0 0 1 421.31 123.31"
/>
<path stroke="#80909f" vector-effect="non-scaling-stroke" d="
  M 544.68 156.24
  Q 548.58 153.81 551.74 150.57
  Q 554.89 147.35 556.51 143.08
  Q 561.43 130.06 555.24 117.56
  Q 553.70 114.46 550.78 111.71
  Q 547.63 108.75 545.06 106.94
  Q 542.05 104.82 538.20 103.96
  Q 536.75 103.63 530.92 102.89
  Q 525.86 102.24 520.75 102.24
  Q 501.13 102.25 480.74 102.25
  A 0.73 0.73 -0.3 0 0 480.01 102.98
  L 480.01 216.34
  A 0.90 0.89 90.0 0 0 480.90 217.24
  Q 501.22 217.37 520.50 217.14
  Q 530.34 217.02 531.62 216.88
  Q 537.32 216.25 542.42 213.79
  Q 549.43 210.42 553.69 206.14
  Q 558.69 201.11 560.04 193.46
  Q 560.81 189.14 560.75 181.75
  Q 560.67 171.83 555.25 164.45
  Q 553.92 162.64 550.44 160.81
  Q 549.16 160.14 544.65 156.80
  A 0.34 0.34 -42.1 0 1 544.68 156.24"
/>
<path stroke="#838b91" vector-effect="non-scaling-stroke" d="
  M 305.8073 236.9029
  A 0.26 0.26 0.0 0 0 305.5478 236.6424
  L 302.8078 236.6376
  A 0.26 0.26 0.0 0 0 302.5474 236.8972
  L 302.4727 279.6971
  A 0.26 0.26 0.0 0 0 302.7322 279.9576
  L 305.4722 279.9624
  A 0.26 0.26 0.0 0 0 305.7326 279.7028
  L 305.8073 236.9029"
/>
<path stroke="#818487" vector-effect="non-scaling-stroke" d="
  M 499.0313 237.5417
  A 0.96 0.96 0.0 0 0 498.1037 236.5504
  L 496.3646 236.4927
  A 0.96 0.96 0.0 0 0 495.3733 237.4204
  L 495.2487 241.1783
  A 0.96 0.96 0.0 0 0 496.1763 242.1696
  L 497.9154 242.2273
  A 0.96 0.96 0.0 0 0 498.9067 241.2996
  L 499.0313 237.5417"
/>
<path stroke="#838b91" vector-effect="non-scaling-stroke" d="
  M 601.69 236.96
  A 0.44 0.44 0.0 0 0 601.25 236.52
  L 598.39 236.52
  A 0.44 0.44 0.0 0 0 597.95 236.96
  L 597.95 279.76
  A 0.44 0.44 0.0 0 0 598.39 280.20
  L 601.25 280.20
  A 0.44 0.44 0.0 0 0 601.69 279.76
  L 601.69 236.96"
/>
<path stroke="#818181" vector-effect="non-scaling-stroke" d="
  M 618.4774 252.1497
  A 7.72 6.53 89.5 0 0 624.9398 244.3730
  A 7.72 6.53 89.5 0 0 618.3426 236.7103
  A 7.72 6.53 89.5 0 0 611.8802 244.4870
  A 7.72 6.53 89.5 0 0 618.4774 252.1497"
/>
<path stroke="#81878b" vector-effect="non-scaling-stroke" d="
  M 347.18 248.44
  L 343.29 249.02
  A 0.84 0.74 -85.4 0 0 342.66 249.63
  Q 341.71 253.29 344.76 252.53
  Q 348.20 251.67 347.88 254.51
  Q 347.73 255.90 347.72 256.00
  Q 347.42 264.82 347.66 273.64
  Q 347.76 277.50 348.92 279.08
  Q 350.83 281.69 354.97 281.14
  Q 358.81 280.63 357.42 277.36
  A 1.01 1.01 69.8 0 0 356.19 276.79
  Q 351.09 278.36 350.99 273.99
  Q 350.75 264.00 350.75 253.32
  A 0.86 0.83 -0.3 0 1 351.60 252.49
  L 356.70 252.46
  A 0.73 0.73 9.4 0 0 357.37 251.98
  Q 358.83 248.01 353.07 248.76
  Q 351.04 249.02 350.98 246.73
  L 350.80 240.49
  A 0.83 0.76 12.1 0 0 350.30 239.79
  Q 347.34 238.53 347.58 241.99
  Q 347.79 244.97 347.70 247.93
  A 0.62 0.51 -4.7 0 1 347.18 248.44"
/>
<path stroke="#818181" vector-effect="non-scaling-stroke" d="
  M 481.29 247.94
  L 481.57 241.13
  A 1.52 1.38 -83.8 0 0 480.45 239.59
  Q 478.56 239.22 477.25 239.82
  A 0.83 0.76 78.0 0 0 476.81 240.57
  L 477.01 247.22
  A 1.41 1.16 -9.2 0 1 475.94 248.44
  L 473.26 249.10
  A 0.87 0.66 89.8 0 0 472.73 249.80
  Q 472.24 253.34 476.38 252.69
  A 0.59 0.59 85.9 0 1 477.06 253.28
  Q 476.97 262.14 476.82 270.81
  Q 476.73 276.07 477.91 277.97
  Q 480.05 281.42 485.75 280.94
  A 1.59 1.59 -7.2 0 0 487.18 279.10
  Q 486.67 275.96 484.72 277.12
  A 1.68 1.67 -30.5 0 1 482.42 276.53
  Q 481.40 274.80 481.42 272.75
  Q 481.50 264.00 481.50 254.22
  Q 481.50 252.13 483.53 252.63
  Q 487.24 253.56 487.00 249.54
  A 1.15 1.11 -1.6 0 0 485.85 248.49
  L 481.81 248.46
  A 0.52 0.49 1.6 0 1 481.29 247.94"
/>
<path stroke="#838b91" vector-effect="non-scaling-stroke" d="
  M 319.68 252.96
  Q 319.34 251.74 319.10 250.50
  Q 318.87 249.31 318.41 248.75
  Q 317.44 247.57 316.49 248.86
  Q 316.06 249.44 316.05 250.39
  Q 315.91 264.79 316.06 279.19
  A 0.71 0.67 -81.6 0 0 316.53 279.86
  Q 319.32 280.72 319.00 277.25
  Q 318.54 272.24 319.28 258.56
  Q 319.30 258.25 319.65 257.70
  L 322.38 253.28
  A 1.54 0.56 -65.8 0 1 323.03 252.61
  Q 325.78 251.49 328.75 252.01
  Q 332.51 252.68 332.50 256.25
  Q 332.45 267.72 332.56 279.18
  A 0.71 0.66 -82.4 0 0 333.03 279.85
  Q 334.67 280.32 336.23 279.65
  A 0.75 0.73 78.5 0 0 336.68 278.95
  Q 336.57 269.16 336.34 259.37
  Q 336.23 254.32 334.76 251.95
  Q 331.71 247.02 324.75 248.25
  Q 321.90 248.75 321.44 251.44
  Q 321.22 252.69 320.27 253.23
  A 0.42 0.40 68.0 0 1 319.68 252.96"
/>
<path stroke="#81878b" vector-effect="non-scaling-stroke" d="
  M 396.99 253.45
  L 396.48 249.07
  A 0.89 0.73 -86.7 0 0 395.97 248.37
  Q 394.41 247.86 393.94 249.44
  Q 393.27 251.66 393.75 257.50
  Q 394.07 261.36 393.58 279.19
  A 0.70 0.65 -80.6 0 0 394.03 279.87
  Q 395.14 280.25 396.23 279.88
  A 0.76 0.68 81.4 0 0 396.69 279.18
  Q 396.77 273.00 396.76 266.82
  Q 396.76 261.96 397.90 259.36
  Q 399.51 255.72 402.69 253.19
  Q 404.29 251.91 406.45 252.32
  A 0.69 0.59 17.3 0 0 407.17 252.01
  Q 408.13 250.05 406.97 248.22
  A 0.88 0.85 -17.7 0 0 406.19 247.83
  Q 403.35 248.02 401.30 250.05
  Q 399.43 251.90 397.44 253.62
  Q 397.05 253.95 396.99 253.45"
/>
<path stroke="#81878b" vector-effect="non-scaling-stroke" d="
  M 418.84 252.94
  Q 418.89 250.99 418.19 249.20
  A 1.36 1.27 -89.1 0 0 417.56 248.50
  Q 415.80 247.60 415.75 249.75
  Q 415.45 262.83 415.70 270.75
  Q 415.84 275.10 415.59 279.44
  A 0.69 0.68 -78.8 0 0 416.04 280.13
  Q 419.04 281.19 418.75 277.75
  Q 418.20 271.24 418.58 262.31
  Q 418.76 258.10 420.16 256.02
  Q 422.20 252.97 426.04 252.23
  Q 428.73 251.71 430.46 252.00
  Q 433.33 252.46 433.75 255.75
  Q 434.47 261.38 434.26 279.01
  A 0.79 0.73 -78.1 0 0 434.69 279.73
  Q 436.04 280.35 437.48 279.87
  A 0.75 0.70 81.7 0 0 437.95 279.19
  Q 438.17 268.70 437.85 258.22
  Q 437.74 254.46 436.66 252.50
  Q 435.06 249.59 432.01 248.45
  Q 428.78 247.24 425.09 248.84
  Q 421.74 250.29 419.15 253.06
  Q 418.83 253.42 418.84 252.94"
/>
<path stroke="#818487" vector-effect="non-scaling-stroke" d="
  M 451.84 280.82
  Q 456.07 281.73 460.09 278.60
  Q 461.10 277.81 462.09 277.33
  A 1.29 1.29 70.4 0 1 463.91 278.20
  Q 464.41 280.36 466.98 279.92
  A 0.65 0.65 84.2 0 0 467.51 279.27
  Q 467.28 268.73 467.06 258.59
  Q 466.98 254.92 466.11 253.06
  Q 464.75 250.17 461.99 248.84
  Q 458.56 247.19 454.31 248.51
  Q 450.40 249.73 447.47 252.95
  Q 445.67 254.92 447.09 256.92
  A 0.61 0.60 -46.4 0 0 448.10 256.89
  Q 450.21 253.57 453.49 252.50
  Q 456.87 251.41 460.05 252.08
  Q 464.52 253.02 463.69 259.22
  A 0.99 0.98 -1.3 0 1 462.89 260.05
  Q 456.68 261.16 451.63 263.21
  Q 448.71 264.39 448.25 264.65
  Q 446.47 265.63 445.56 267.31
  Q 442.74 272.54 445.40 276.50
  Q 447.71 279.93 451.84 280.82"
/>
<path stroke="#8a9197" vector-effect="non-scaling-stroke" d="
  M 511.19 277.81
  Q 518.00 283.34 524.90 279.20
  Q 527.11 277.87 528.17 276.84
  Q 529.65 275.39 530.28 273.26
  Q 532.44 265.85 530.87 258.49
  Q 530.02 254.48 527.93 252.12
  Q 525.51 249.39 521.78 248.16
  Q 518.54 247.09 515.42 248.40
  Q 509.53 250.88 507.75 257.00
  Q 506.17 262.42 507.66 271.92
  Q 508.21 275.39 511.19 277.81"
/>
<path stroke="#838b91" vector-effect="non-scaling-stroke" d="
  M 541.41 252.36
  L 541.21 249.75
  A 1.41 0.34 -89.8 0 0 540.99 248.82
  Q 540.27 247.80 539.11 248.42
  A 1.17 1.00 85.6 0 0 538.57 249.16
  Q 537.99 251.78 538.00 256.25
  Q 538.04 267.75 538.24 279.25
  A 0.73 0.69 -82.2 0 0 538.72 279.92
  Q 541.92 280.91 541.50 277.25
  Q 540.95 272.51 541.57 262.16
  Q 541.85 257.49 543.47 255.38
  Q 546.22 251.81 551.75 252.00
  Q 553.97 252.07 555.25 253.32
  Q 556.23 254.27 556.33 256.51
  Q 556.74 266.22 556.52 275.94
  Q 556.52 276.06 556.37 277.55
  Q 556.05 280.71 559.86 279.93
  A 1.15 1.15 82.9 0 0 560.77 278.76
  Q 560.37 268.75 560.69 259.26
  Q 560.83 255.12 559.19 252.31
  Q 556.57 247.85 551.70 247.80
  Q 549.11 247.78 546.68 249.21
  Q 544.44 250.52 542.52 252.63
  Q 541.51 253.74 541.41 252.36"
/>
<path stroke="#838b91" vector-effect="non-scaling-stroke" d="
  M 585.30 276.89
  Q 585.68 277.46 585.85 278.11
  Q 586.21 279.42 586.52 279.72
  Q 587.28 280.46 588.35 279.79
  A 0.92 0.78 74.5 0 0 588.72 279.00
  Q 588.00 267.89 588.08 256.75
  Q 588.13 249.57 581.75 248.00
  Q 575.01 246.34 570.12 251.62
  Q 568.67 253.18 567.17 254.98
  A 0.60 0.56 -59.4 0 0 567.37 255.91
  L 569.94 256.84
  A 0.55 0.47 -71.8 0 0 570.57 256.46
  Q 571.41 253.71 574.25 252.75
  Q 577.68 251.58 581.23 252.34
  Q 585.64 253.30 585.55 258.85
  A 1.30 1.30 87.5 0 1 584.39 260.12
  Q 575.91 261.07 569.56 264.81
  Q 566.11 266.85 565.79 270.91
  Q 565.53 274.35 567.49 277.26
  Q 570.58 281.84 576.75 280.75
  Q 580.44 280.10 584.61 276.81
  A 0.49 0.46 -36.6 0 1 585.30 276.89"
/>
<path stroke="#81878b" vector-effect="non-scaling-stroke" d="
  M 365.31 264.81
  L 384.57 264.75
  A 0.86 0.85 1.4 0 0 385.43 263.94
  Q 385.88 254.76 379.90 250.11
  Q 375.78 246.90 370.73 248.56
  Q 365.93 250.15 363.94 253.94
  Q 360.40 260.68 361.47 268.00
  Q 362.51 275.08 366.95 278.68
  Q 372.12 282.87 379.50 279.42
  Q 380.81 278.81 382.23 277.70
  Q 383.49 276.70 384.75 275.64
  Q 386.17 274.42 385.27 272.78
  Q 384.44 271.29 383.01 271.84
  A 1.53 1.04 -78.3 0 0 382.33 272.50
  Q 379.44 277.77 374.00 277.50
  Q 368.98 277.25 366.54 272.95
  Q 364.52 269.38 364.77 265.32
  A 0.54 0.54 -88.3 0 1 365.31 264.81"
/>
<path stroke="#838b91" vector-effect="non-scaling-stroke" d="
  M 498.9636 249.1967
  A 0.68 0.68 0.0 0 0 498.2824 248.5179
  L 495.8824 248.5221
  A 0.68 0.68 0.0 0 0 495.2036 249.2033
  L 495.2564 279.4833
  A 0.68 0.68 0.0 0 0 495.9376 280.1621
  L 498.3376 280.1579
  A 0.68 0.68 0.0 0 0 499.0164 279.4767
  L 498.9636 249.1967"
/>
<path stroke="#818181" vector-effect="non-scaling-stroke" d="
  M 239.74 272.48
  A 7.18 7.18 0.0 0 0 232.56 265.30
  A 7.18 7.18 0.0 0 0 225.38 272.48
  A 7.18 7.18 0.0 0 0 232.56 279.66
  A 7.18 7.18 0.0 0 0 239.74 272.48"
/>
<path stroke="#80909f" vector-effect="non-scaling-stroke" d="
  M 341.68 133.00
  Q 340.75 137.22 339.56 141.41
  Q 338.26 145.97 337.45 149.82
  Q 335.54 158.89 332.96 167.81
  Q 332.45 169.59 332.11 171.98
  A 0.46 0.45 -86.1 0 0 332.56 172.50
  L 352.45 172.44
  A 0.37 0.37 81.7 0 0 352.80 171.97
  Q 350.27 163.55 348.60 154.93
  Q 347.72 150.42 346.08 145.81
  Q 343.83 139.50 342.25 132.99
  Q 341.95 131.76 341.68 133.00"
/>
<path stroke="#80909f" vector-effect="non-scaling-stroke" d="
  M 503.44 123.42
  L 503.25 145.55
  A 0.97 0.95 -0.0 0 0 504.22 146.50
  Q 512.13 146.50 520.19 146.50
  Q 526.27 146.50 528.69 145.47
  Q 533.27 143.52 534.50 138.25
  Q 535.79 132.75 532.84 127.33
  Q 531.95 125.68 530.57 124.67
  Q 528.79 123.37 527.25 123.25
  Q 515.51 122.37 503.86 122.99
  A 0.45 0.43 -2.1 0 0 503.44 123.42"
/>
<path stroke="#80909f" vector-effect="non-scaling-stroke" d="
  M 533.06 193.06
  Q 540.84 184.53 536.05 174.93
  Q 534.14 171.10 531.52 169.35
  Q 528.53 167.37 524.25 167.25
  Q 510.75 166.87 503.81 167.28
  A 0.53 0.53 -1.7 0 0 503.31 167.81
  L 503.25 195.76
  A 0.99 0.99 0.0 0 0 504.24 196.75
  Q 511.67 196.75 519.10 196.75
  Q 525.86 196.75 526.40 196.67
  Q 530.33 196.06 533.06 193.06"
/>
<path stroke="#7a7b7d" vector-effect="non-scaling-stroke" d="
  M 613.66 244.76
  Q 613.70 248.25 617.96 249.74
  A 2.00 1.99 -56.2 0 0 619.95 249.34
  Q 622.82 246.78 623.61 243.56
  A 1.09 1.09 -56.8 0 0 623.42 242.65
  Q 619.86 238.03 616.36 240.05
  Q 613.62 241.63 613.66 244.76"
/>
<path stroke="#7a7b7d" vector-effect="non-scaling-stroke" d="
  M 616.25 243.21
  Q 613.66 244.88 617.19 246.17
  A 2.65 2.41 34.9 0 0 619.58 245.86
  L 622.27 243.84
  A 0.93 0.89 39.8 0 0 622.10 242.30
  Q 620.42 241.45 619.25 241.54"
/>
<path stroke="#cbdadb" vector-effect="non-scaling-stroke" d="
  M 619.25 241.54
  Q 616.96 240.99 616.25 243.21"
/>
<path stroke="#536261" vector-effect="non-scaling-stroke" d="
  M 619.25 241.54
  Q 619.56 245.66 616.25 243.21"
/>
<path stroke="#818487" vector-effect="non-scaling-stroke" d="
  M 449.96 276.32
  Q 456.57 279.00 461.69 274.19
  Q 463.47 272.51 463.77 270.64
  Q 463.82 270.30 463.82 267.34
  Q 463.82 265.68 463.53 264.04
  A 0.56 0.54 -7.5 0 0 462.94 263.60
  Q 457.74 263.99 453.09 266.14
  Q 450.11 267.51 449.04 269.15
  Q 447.55 271.45 448.46 274.65
  A 2.56 2.55 3.2 0 0 449.96 276.32"
/>
<path stroke="#8a9197" vector-effect="non-scaling-stroke" d="
  M 514.44 275.56
  Q 518.05 278.12 521.67 276.77
  Q 524.63 275.66 526.47 272.28
  Q 529.54 266.65 527.50 259.50
  Q 525.25 251.60 517.87 252.22
  Q 515.66 252.41 514.33 253.41
  Q 512.75 254.59 512.13 256.67
  Q 510.46 262.24 511.17 267.93
  Q 511.53 270.89 511.90 272.05
  Q 512.61 274.27 514.44 275.56"
/>
<path stroke="#838b91" vector-effect="non-scaling-stroke" d="
  M 571.67 276.56
  Q 579.50 278.78 584.02 273.11
  Q 585.18 271.66 585.23 269.41
  Q 585.28 267.26 585.34 264.57
  A 0.93 0.92 86.3 0 0 584.28 263.63
  Q 580.10 264.26 576.75 265.01
  Q 568.46 266.87 570.29 275.10
  A 1.98 1.97 -88.5 0 0 571.67 276.56"
/>
<path stroke="#81878b" vector-effect="non-scaling-stroke" d="
  M 368.28 254.02
  Q 365.74 256.65 364.90 260.72
  A 0.64 0.62 -84.7 0 0 365.51 261.48
  L 380.82 261.33
  A 0.54 0.53 -88.3 0 0 381.35 260.82
  Q 381.87 253.47 374.73 252.09
  Q 370.87 251.34 368.28 254.02"
/>
<path stroke="#7a7b7d" vector-effect="non-scaling-stroke" d="
  M 230.44 277.06
  Q 233.60 278.76 236.32 276.57
  Q 237.95 275.26 238.11 273.28
  Q 238.28 271.08 236.86 269.39
  Q 235.63 267.92 234.36 266.89
  Q 232.19 265.12 230.25 267.81
  Q 229.18 269.28 228.52 270.97
  Q 226.89 275.16 230.44 277.06"
/>
<path stroke="#cbdadb" vector-effect="non-scaling-stroke" d="
  M 234.75 270.21
  L 234.21 268.75"
/>
<path stroke="#7a7b7d" vector-effect="non-scaling-stroke" d="
  M 234.21 268.75
  Q 233.77 268.15 233.08 268.15
  Q 231.93 268.16 231.92 268.16
  Q 229.41 267.88 230.51 270.07
  Q 230.73 270.51 230.72 271.00
  Q 230.63 274.49 233.69 275.11
  A 0.55 0.47 8.9 0 0 234.34 274.71
  L 234.75 270.21"
/>
<path stroke="#536261" vector-effect="non-scaling-stroke" d="
  M 234.21 268.75
  Q 232.20 270.80 234.75 270.21"
/>
</g>
<path fill="#ffffff" d="
  M 0.00 0.00
  L 656.00 0.00
  L 656.00 402.00
  L 0.00 402.00
  L 0.00 0.00
  Z
  M 121.50 68.26
  Q 114.32 68.96 107.54 71.22
  Q 97.26 74.65 96.81 74.79
  Q 90.02 76.95 83.65 80.15
  Q 80.77 81.61 76.82 84.53
  Q 73.54 86.97 70.15 89.22
  Q 63.07 93.93 60.74 95.78
  Q 56.82 98.90 51.94 103.19
  Q 29.82 122.63 22.39 150.19
  Q 20.48 157.24 19.67 161.81
  Q 18.68 167.33 18.50 173.75
  Q 18.17 185.42 19.16 194.85
  Q 19.42 197.38 20.31 200.56
  Q 21.09 203.38 21.78 206.21
  Q 23.24 212.29 24.03 214.69
  Q 28.56 228.37 36.91 240.13
  Q 38.39 242.22 40.69 244.81
  Q 42.69 247.05 44.68 249.31
  Q 51.02 256.52 58.71 262.17
  Q 59.92 263.06 64.59 265.93
  Q 67.60 267.78 70.35 269.94
  Q 78.39 277.26 83.44 280.56
  Q 88.88 284.12 94.00 286.25
  Q 101.07 289.19 111.19 292.92
  Q 117.46 295.23 127.00 295.75
  Q 140.60 296.48 151.07 295.31
  Q 154.72 294.91 159.29 293.47
  Q 163.32 292.21 167.37 290.99
  Q 174.96 288.70 179.31 286.80
  Q 190.55 281.87 199.06 275.31
  Q 213.55 264.15 226.04 247.25
  Q 239.94 229.75 245.03 207.96
  Q 246.27 202.70 247.55 197.45
  Q 252.42 177.59 247.63 157.72
  Q 246.59 153.42 244.06 144.94
  Q 237.73 123.68 224.95 106.68
  Q 222.52 103.44 218.10 99.23
  Q 215.32 96.58 210.81 92.19
  Q 200.03 81.68 185.46 75.49
  Q 183.73 74.76 177.90 71.88
  Q 174.01 69.96 169.94 69.06
  Q 165.40 68.06 160.05 67.31
  Q 151.19 66.07 150.10 65.95
  Q 135.68 64.27 121.50 68.26
  Z
  M 277.43 103.06
  A 1.07 1.07 0.0 0 0 276.36 101.99
  L 272.62 101.99
  A 1.07 1.07 0.0 0 0 271.55 103.06
  L 271.55 278.88
  A 1.07 1.07 0.0 0 0 272.62 279.95
  L 276.36 279.95
  A 1.07 1.07 0.0 0 0 277.43 278.88
  L 277.43 103.06
  Z
  M 328.00 103.10
  Q 326.59 111.18 323.45 118.37
  Q 321.63 122.56 321.94 127.69
  Q 322.18 131.65 320.96 135.70
  Q 319.74 139.75 319.71 139.86
  Q 311.48 171.99 302.81 204.02
  Q 301.19 209.99 298.79 216.55
  A 0.52 0.52 -80.1 0 0 299.28 217.25
  L 319.58 217.21
  Q 322.29 217.20 322.11 214.48
  Q 321.63 207.06 323.90 201.62
  Q 324.87 199.29 324.90 199.23
  Q 326.09 196.11 327.37 193.02
  A 0.75 0.74 11.2 0 1 328.06 192.56
  L 357.24 192.50
  A 0.83 0.81 84.4 0 1 358.04 193.17
  Q 360.39 205.24 363.72 216.75
  A 0.69 0.68 -7.8 0 0 364.38 217.25
  L 385.92 217.25
  A 0.46 0.46 87.2 0 0 386.38 216.74
  Q 385.57 209.70 383.74 203.20
  Q 381.08 193.81 381.06 193.71
  Q 378.78 184.63 376.29 175.61
  Q 376.27 175.53 374.99 169.83
  Q 374.30 166.73 372.94 163.56
  Q 370.65 158.23 369.24 151.65
  Q 368.33 147.36 367.08 143.17
  Q 365.63 138.28 364.79 134.73
  Q 363.17 127.82 361.10 121.03
  Q 359.99 117.39 359.02 112.33
  Q 358.12 107.70 356.79 103.63
  A 2.38 2.37 80.8 0 0 354.54 102.00
  L 329.30 102.00
  A 1.33 1.32 -85.1 0 0 328.00 103.10
  Z
  M 421.31 123.31
  L 467.58 123.25
  A 0.62 0.60 0.5 0 0 468.20 122.66
  L 468.50 103.10
  A 0.86 0.84 0.3 0 0 467.64 102.25
  L 397.06 102.25
  A 0.56 0.56 0.0 0 0 396.50 102.81
  L 396.50 216.78
  A 0.54 0.54 0.0 0 0 397.04 217.32
  L 419.95 217.25
  A 0.55 0.55 0.0 0 0 420.50 216.70
  L 420.50 168.16
  A 0.66 0.66 -0.2 0 1 421.16 167.50
  L 455.46 167.50
  A 0.79 0.79 0.1 0 0 456.25 166.71
  L 456.19 147.06
  A 0.50 0.49 0.0 0 0 455.69 146.57
  L 421.48 146.75
  A 0.96 0.94 0.3 0 1 420.52 145.80
  L 420.79 123.82
  A 0.52 0.51 0.0 0 1 421.31 123.31
  Z
  M 544.68 156.24
  Q 548.58 153.81 551.74 150.57
  Q 554.89 147.35 556.51 143.08
  Q 561.43 130.06 555.24 117.56
  Q 553.70 114.46 550.78 111.71
  Q 547.63 108.75 545.06 106.94
  Q 542.05 104.82 538.20 103.96
  Q 536.75 103.63 530.92 102.89
  Q 525.86 102.24 520.75 102.24
  Q 501.13 102.25 480.74 102.25
  A 0.73 0.73 -0.3 0 0 480.01 102.98
  L 480.01 216.34
  A 0.90 0.89 90.0 0 0 480.90 217.24
  Q 501.22 217.37 520.50 217.14
  Q 530.34 217.02 531.62 216.88
  Q 537.32 216.25 542.42 213.79
  Q 549.43 210.42 553.69 206.14
  Q 558.69 201.11 560.04 193.46
  Q 560.81 189.14 560.75 181.75
  Q 560.67 171.83 555.25 164.45
  Q 553.92 162.64 550.44 160.81
  Q 549.16 160.14 544.65 156.80
  A 0.34 0.34 -42.1 0 1 544.68 156.24
  Z
  M 305.8073 236.9029
  A 0.26 0.26 0.0 0 0 305.5478 236.6424
  L 302.8078 236.6376
  A 0.26 0.26 0.0 0 0 302.5474 236.8972
  L 302.4727 279.6971
  A 0.26 0.26 0.0 0 0 302.7322 279.9576
  L 305.4722 279.9624
  A 0.26 0.26 0.0 0 0 305.7326 279.7028
  L 305.8073 236.9029
  Z
  M 499.0313 237.5417
  A 0.96 0.96 0.0 0 0 498.1037 236.5504
  L 496.3646 236.4927
  A 0.96 0.96 0.0 0 0 495.3733 237.4204
  L 495.2487 241.1783
  A 0.96 0.96 0.0 0 0 496.1763 242.1696
  L 497.9154 242.2273
  A 0.96 0.96 0.0 0 0 498.9067 241.2996
  L 499.0313 237.5417
  Z
  M 601.69 236.96
  A 0.44 0.44 0.0 0 0 601.25 236.52
  L 598.39 236.52
  A 0.44 0.44 0.0 0 0 597.95 236.96
  L 597.95 279.76
  A 0.44 0.44 0.0 0 0 598.39 280.20
  L 601.25 280.20
  A 0.44 0.44 0.0 0 0 601.69 279.76
  L 601.69 236.96
  Z
  M 618.4774 252.1497
  A 7.72 6.53 89.5 0 0 624.9398 244.3730
  A 7.72 6.53 89.5 0 0 618.3426 236.7103
  A 7.72 6.53 89.5 0 0 611.8802 244.4870
  A 7.72 6.53 89.5 0 0 618.4774 252.1497
  Z
  M 347.18 248.44
  L 343.29 249.02
  A 0.84 0.74 -85.4 0 0 342.66 249.63
  Q 341.71 253.29 344.76 252.53
  Q 348.20 251.67 347.88 254.51
  Q 347.73 255.90 347.72 256.00
  Q 347.42 264.82 347.66 273.64
  Q 347.76 277.50 348.92 279.08
  Q 350.83 281.69 354.97 281.14
  Q 358.81 280.63 357.42 277.36
  A 1.01 1.01 69.8 0 0 356.19 276.79
  Q 351.09 278.36 350.99 273.99
  Q 350.75 264.00 350.75 253.32
  A 0.86 0.83 -0.3 0 1 351.60 252.49
  L 356.70 252.46
  A 0.73 0.73 9.4 0 0 357.37 251.98
  Q 358.83 248.01 353.07 248.76
  Q 351.04 249.02 350.98 246.73
  L 350.80 240.49
  A 0.83 0.76 12.1 0 0 350.30 239.79
  Q 347.34 238.53 347.58 241.99
  Q 347.79 244.97 347.70 247.93
  A 0.62 0.51 -4.7 0 1 347.18 248.44
  Z
  M 481.29 247.94
  L 481.57 241.13
  A 1.52 1.38 -83.8 0 0 480.45 239.59
  Q 478.56 239.22 477.25 239.82
  A 0.83 0.76 78.0 0 0 476.81 240.57
  L 477.01 247.22
  A 1.41 1.16 -9.2 0 1 475.94 248.44
  L 473.26 249.10
  A 0.87 0.66 89.8 0 0 472.73 249.80
  Q 472.24 253.34 476.38 252.69
  A 0.59 0.59 85.9 0 1 477.06 253.28
  Q 476.97 262.14 476.82 270.81
  Q 476.73 276.07 477.91 277.97
  Q 480.05 281.42 485.75 280.94
  A 1.59 1.59 -7.2 0 0 487.18 279.10
  Q 486.67 275.96 484.72 277.12
  A 1.68 1.67 -30.5 0 1 482.42 276.53
  Q 481.40 274.80 481.42 272.75
  Q 481.50 264.00 481.50 254.22
  Q 481.50 252.13 483.53 252.63
  Q 487.24 253.56 487.00 249.54
  A 1.15 1.11 -1.6 0 0 485.85 248.49
  L 481.81 248.46
  A 0.52 0.49 1.6 0 1 481.29 247.94
  Z
  M 319.68 252.96
  Q 319.34 251.74 319.10 250.50
  Q 318.87 249.31 318.41 248.75
  Q 317.44 247.57 316.49 248.86
  Q 316.06 249.44 316.05 250.39
  Q 315.91 264.79 316.06 279.19
  A 0.71 0.67 -81.6 0 0 316.53 279.86
  Q 319.32 280.72 319.00 277.25
  Q 318.54 272.24 319.28 258.56
  Q 319.30 258.25 319.65 257.70
  L 322.38 253.28
  A 1.54 0.56 -65.8 0 1 323.03 252.61
  Q 325.78 251.49 328.75 252.01
  Q 332.51 252.68 332.50 256.25
  Q 332.45 267.72 332.56 279.18
  A 0.71 0.66 -82.4 0 0 333.03 279.85
  Q 334.67 280.32 336.23 279.65
  A 0.75 0.73 78.5 0 0 336.68 278.95
  Q 336.57 269.16 336.34 259.37
  Q 336.23 254.32 334.76 251.95
  Q 331.71 247.02 324.75 248.25
  Q 321.90 248.75 321.44 251.44
  Q 321.22 252.69 320.27 253.23
  A 0.42 0.40 68.0 0 1 319.68 252.96
  Z
  M 396.99 253.45
  L 396.48 249.07
  A 0.89 0.73 -86.7 0 0 395.97 248.37
  Q 394.41 247.86 393.94 249.44
  Q 393.27 251.66 393.75 257.50
  Q 394.07 261.36 393.58 279.19
  A 0.70 0.65 -80.6 0 0 394.03 279.87
  Q 395.14 280.25 396.23 279.88
  A 0.76 0.68 81.4 0 0 396.69 279.18
  Q 396.77 273.00 396.76 266.82
  Q 396.76 261.96 397.90 259.36
  Q 399.51 255.72 402.69 253.19
  Q 404.29 251.91 406.45 252.32
  A 0.69 0.59 17.3 0 0 407.17 252.01
  Q 408.13 250.05 406.97 248.22
  A 0.88 0.85 -17.7 0 0 406.19 247.83
  Q 403.35 248.02 401.30 250.05
  Q 399.43 251.90 397.44 253.62
  Q 397.05 253.95 396.99 253.45
  Z
  M 418.84 252.94
  Q 418.89 250.99 418.19 249.20
  A 1.36 1.27 -89.1 0 0 417.56 248.50
  Q 415.80 247.60 415.75 249.75
  Q 415.45 262.83 415.70 270.75
  Q 415.84 275.10 415.59 279.44
  A 0.69 0.68 -78.8 0 0 416.04 280.13
  Q 419.04 281.19 418.75 277.75
  Q 418.20 271.24 418.58 262.31
  Q 418.76 258.10 420.16 256.02
  Q 422.20 252.97 426.04 252.23
  Q 428.73 251.71 430.46 252.00
  Q 433.33 252.46 433.75 255.75
  Q 434.47 261.38 434.26 279.01
  A 0.79 0.73 -78.1 0 0 434.69 279.73
  Q 436.04 280.35 437.48 279.87
  A 0.75 0.70 81.7 0 0 437.95 279.19
  Q 438.17 268.70 437.85 258.22
  Q 437.74 254.46 436.66 252.50
  Q 435.06 249.59 432.01 248.45
  Q 428.78 247.24 425.09 248.84
  Q 421.74 250.29 419.15 253.06
  Q 418.83 253.42 418.84 252.94
  Z
  M 451.84 280.82
  Q 456.07 281.73 460.09 278.60
  Q 461.10 277.81 462.09 277.33
  A 1.29 1.29 70.4 0 1 463.91 278.20
  Q 464.41 280.36 466.98 279.92
  A 0.65 0.65 84.2 0 0 467.51 279.27
  Q 467.28 268.73 467.06 258.59
  Q 466.98 254.92 466.11 253.06
  Q 464.75 250.17 461.99 248.84
  Q 458.56 247.19 454.31 248.51
  Q 450.40 249.73 447.47 252.95
  Q 445.67 254.92 447.09 256.92
  A 0.61 0.60 -46.4 0 0 448.10 256.89
  Q 450.21 253.57 453.49 252.50
  Q 456.87 251.41 460.05 252.08
  Q 464.52 253.02 463.69 259.22
  A 0.99 0.98 -1.3 0 1 462.89 260.05
  Q 456.68 261.16 451.63 263.21
  Q 448.71 264.39 448.25 264.65
  Q 446.47 265.63 445.56 267.31
  Q 442.74 272.54 445.40 276.50
  Q 447.71 279.93 451.84 280.82
  Z
  M 511.19 277.81
  Q 518.00 283.34 524.90 279.20
  Q 527.11 277.87 528.17 276.84
  Q 529.65 275.39 530.28 273.26
  Q 532.44 265.85 530.87 258.49
  Q 530.02 254.48 527.93 252.12
  Q 525.51 249.39 521.78 248.16
  Q 518.54 247.09 515.42 248.40
  Q 509.53 250.88 507.75 257.00
  Q 506.17 262.42 507.66 271.92
  Q 508.21 275.39 511.19 277.81
  Z
  M 541.41 252.36
  L 541.21 249.75
  A 1.41 0.34 -89.8 0 0 540.99 248.82
  Q 540.27 247.80 539.11 248.42
  A 1.17 1.00 85.6 0 0 538.57 249.16
  Q 537.99 251.78 538.00 256.25
  Q 538.04 267.75 538.24 279.25
  A 0.73 0.69 -82.2 0 0 538.72 279.92
  Q 541.92 280.91 541.50 277.25
  Q 540.95 272.51 541.57 262.16
  Q 541.85 257.49 543.47 255.38
  Q 546.22 251.81 551.75 252.00
  Q 553.97 252.07 555.25 253.32
  Q 556.23 254.27 556.33 256.51
  Q 556.74 266.22 556.52 275.94
  Q 556.52 276.06 556.37 277.55
  Q 556.05 280.71 559.86 279.93
  A 1.15 1.15 82.9 0 0 560.77 278.76
  Q 560.37 268.75 560.69 259.26
  Q 560.83 255.12 559.19 252.31
  Q 556.57 247.85 551.70 247.80
  Q 549.11 247.78 546.68 249.21
  Q 544.44 250.52 542.52 252.63
  Q 541.51 253.74 541.41 252.36
  Z
  M 585.30 276.89
  Q 585.68 277.46 585.85 278.11
  Q 586.21 279.42 586.52 279.72
  Q 587.28 280.46 588.35 279.79
  A 0.92 0.78 74.5 0 0 588.72 279.00
  Q 588.00 267.89 588.08 256.75
  Q 588.13 249.57 581.75 248.00
  Q 575.01 246.34 570.12 251.62
  Q 568.67 253.18 567.17 254.98
  A 0.60 0.56 -59.4 0 0 567.37 255.91
  L 569.94 256.84
  A 0.55 0.47 -71.8 0 0 570.57 256.46
  Q 571.41 253.71 574.25 252.75
  Q 577.68 251.58 581.23 252.34
  Q 585.64 253.30 585.55 258.85
  A 1.30 1.30 87.5 0 1 584.39 260.12
  Q 575.91 261.07 569.56 264.81
  Q 566.11 266.85 565.79 270.91
  Q 565.53 274.35 567.49 277.26
  Q 570.58 281.84 576.75 280.75
  Q 580.44 280.10 584.61 276.81
  A 0.49 0.46 -36.6 0 1 585.30 276.89
  Z
  M 365.31 264.81
  L 384.57 264.75
  A 0.86 0.85 1.4 0 0 385.43 263.94
  Q 385.88 254.76 379.90 250.11
  Q 375.78 246.90 370.73 248.56
  Q 365.93 250.15 363.94 253.94
  Q 360.40 260.68 361.47 268.00
  Q 362.51 275.08 366.95 278.68
  Q 372.12 282.87 379.50 279.42
  Q 380.81 278.81 382.23 277.70
  Q 383.49 276.70 384.75 275.64
  Q 386.17 274.42 385.27 272.78
  Q 384.44 271.29 383.01 271.84
  A 1.53 1.04 -78.3 0 0 382.33 272.50
  Q 379.44 277.77 374.00 277.50
  Q 368.98 277.25 366.54 272.95
  Q 364.52 269.38 364.77 265.32
  A 0.54 0.54 -88.3 0 1 365.31 264.81
  Z
  M 498.9636 249.1967
  A 0.68 0.68 0.0 0 0 498.2824 248.5179
  L 495.8824 248.5221
  A 0.68 0.68 0.0 0 0 495.2036 249.2033
  L 495.2564 279.4833
  A 0.68 0.68 0.0 0 0 495.9376 280.1621
  L 498.3376 280.1579
  A 0.68 0.68 0.0 0 0 499.0164 279.4767
  L 498.9636 249.1967
  Z
  M 239.74 272.48
  A 7.18 7.18 0.0 0 0 232.56 265.30
  A 7.18 7.18 0.0 0 0 225.38 272.48
  A 7.18 7.18 0.0 0 0 232.56 279.66
  A 7.18 7.18 0.0 0 0 239.74 272.48
  Z"
/>
<path fill="#a4c0bf" d="
  M 226.04 247.25
  Q 225.78 246.19 225.76 245.14
  Q 225.75 244.17 226.40 243.17
  Q 232.13 234.35 236.00 222.25
  Q 242.99 200.39 244.33 180.26
  Q 244.46 178.20 243.64 177.95
  Q 244.71 160.02 238.25 142.75
  Q 234.07 131.59 228.30 121.73
  Q 223.99 114.36 217.58 107.12
  Q 211.56 100.31 204.91 94.09
  Q 199.73 89.24 194.44 86.56
  Q 192.44 85.55 191.00 84.54
  Q 187.76 82.28 187.74 82.27
  Q 179.40 77.32 169.98 74.84
  Q 163.98 73.26 158.16 71.13
  Q 151.77 68.78 145.04 68.63
  Q 136.58 68.44 136.47 68.43
  Q 129.00 67.98 121.50 68.26
  Q 135.68 64.27 150.10 65.95
  Q 151.19 66.07 160.05 67.31
  Q 165.40 68.06 169.94 69.06
  Q 174.01 69.96 177.90 71.88
  Q 183.73 74.76 185.46 75.49
  Q 200.03 81.68 210.81 92.19
  Q 215.32 96.58 218.10 99.23
  Q 222.52 103.44 224.95 106.68
  Q 237.73 123.68 244.06 144.94
  Q 246.59 153.42 247.63 157.72
  Q 252.42 177.59 247.55 197.45
  Q 246.27 202.70 245.03 207.96
  Q 239.94 229.75 226.04 247.25
  Z"
/>
<path fill="#031d37" d="
  M 243.64 177.95
  Q 240.36 179.83 239.31 182.06
  Q 237.81 185.27 235.54 187.00
  Q 234.96 180.57 234.24 174.15
  Q 233.49 167.40 231.64 161.58
  Q 228.18 150.70 223.54 140.26
  Q 222.73 138.43 220.66 135.81
  Q 219.14 133.89 217.69 131.31
  Q 212.07 121.37 203.37 112.50
  Q 203.05 112.17 200.19 110.03
  Q 198.55 108.80 197.53 106.87
  A 2.83 2.79 88.4 0 0 196.24 105.63
  Q 192.35 103.77 188.96 101.88
  Q 186.00 100.22 181.71 98.15
  Q 179.20 96.94 176.80 95.52
  Q 174.19 93.98 171.77 93.27
  Q 155.08 88.33 149.75 87.75
  Q 132.67 85.90 115.73 88.33
  Q 113.28 88.68 110.36 89.61
  Q 107.73 90.44 105.07 91.21
  Q 100.40 92.55 97.28 94.04
  Q 89.05 97.97 81.51 103.12
  Q 81.42 103.18 79.80 104.16
  Q 78.09 105.20 76.56 107.06
  Q 74.43 109.65 66.46 117.72
  Q 69.44 111.50 74.40 106.87
  Q 75.92 105.46 79.52 103.18
  Q 82.21 101.48 84.75 99.54
  Q 86.98 98.32 89.44 96.19
  Q 91.89 94.06 95.06 92.82
  Q 98.68 91.41 98.75 91.38
  Q 101.75 90.06 104.77 88.80
  Q 107.44 87.70 110.98 86.72
  Q 115.99 85.33 120.93 83.65
  Q 126.72 81.68 132.74 81.05
  Q 137.61 80.54 144.76 80.40
  Q 157.92 80.16 170.51 84.48
  Q 170.78 84.58 170.98 84.51
  Q 171.40 84.35 170.93 84.03
  Q 167.11 81.43 162.74 80.19
  Q 156.10 78.31 156.00 78.27
  Q 147.47 75.49 139.25 75.00
  Q 134.19 74.70 125.25 74.96
  Q 111.94 73.77 98.76 76.03
  Q 92.54 77.10 86.61 79.44
  Q 67.97 88.92 56.44 103.19
  Q 49.50 111.76 42.82 123.99
  Q 38.35 132.17 36.00 139.31
  Q 33.21 147.78 32.25 155.75
  Q 30.35 171.51 33.06 189.24
  Q 33.10 189.50 33.24 189.51
  A 0.28 0.18 -89.6 0 0 33.43 189.22
  Q 33.11 179.19 33.81 174.31
  Q 34.76 167.70 37.77 157.70
  Q 39.00 153.62 41.03 149.71
  Q 43.01 145.90 45.11 142.08
  Q 43.86 151.89 42.25 158.75
  Q 38.21 175.98 41.17 192.67
  Q 42.80 201.89 44.75 211.05
  Q 47.38 223.41 53.06 234.69
  Q 55.67 239.87 59.91 243.86
  Q 62.47 246.27 68.44 251.31
  Q 75.19 257.02 80.66 260.13
  Q 90.61 267.24 102.15 271.52
  Q 108.25 273.78 112.35 274.94
  Q 117.85 276.50 123.00 276.75
  Q 132.65 277.23 142.25 277.87
  Q 137.30 283.04 130.50 284.25
  Q 128.40 284.62 118.25 283.96
  L 114.00 283.54
  Q 105.56 283.43 97.06 280.19
  Q 92.26 278.36 85.06 276.44
  Q 81.98 275.62 70.35 269.94
  Q 67.60 267.78 64.59 265.93
  Q 59.92 263.06 58.71 262.17
  Q 51.02 256.52 44.68 249.31
  Q 42.69 247.05 40.69 244.81
  Q 38.39 242.22 36.91 240.13
  Q 28.56 228.37 24.03 214.69
  Q 23.24 212.29 21.78 206.21
  Q 21.09 203.38 20.31 200.56
  Q 19.42 197.38 19.16 194.85
  Q 18.17 185.42 18.50 173.75
  Q 18.68 167.33 19.67 161.81
  Q 20.48 157.24 22.39 150.19
  Q 29.82 122.63 51.94 103.19
  Q 56.82 98.90 60.74 95.78
  Q 63.07 93.93 70.15 89.22
  Q 73.54 86.97 76.82 84.53
  Q 80.77 81.61 83.65 80.15
  Q 90.02 76.95 96.81 74.79
  Q 97.26 74.65 107.54 71.22
  Q 114.32 68.96 121.50 68.26
  Q 129.00 67.98 136.47 68.43
  Q 136.58 68.44 145.04 68.63
  Q 151.77 68.78 158.16 71.13
  Q 163.98 73.26 169.98 74.84
  Q 179.40 77.32 187.74 82.27
  Q 187.76 82.28 191.00 84.54
  Q 192.44 85.55 194.44 86.56
  Q 199.73 89.24 204.91 94.09
  Q 211.56 100.31 217.58 107.12
  Q 223.99 114.36 228.30 121.73
  Q 234.07 131.59 238.25 142.75
  Q 244.71 160.02 243.64 177.95
  Z"
/>
<path fill="#a4c0bf" d="
  M 125.25 74.96
  Q 111.87 78.07 100.31 85.25
  Q 98.37 86.46 93.89 88.65
  Q 87.54 91.77 84.06 97.31
  Q 83.32 98.49 84.75 99.54
  Q 82.21 101.48 79.52 103.18
  Q 75.92 105.46 74.40 106.87
  Q 69.44 111.50 66.46 117.72
  Q 62.14 123.26 59.15 129.67
  Q 51.68 145.68 49.72 163.25
  Q 47.88 179.75 49.70 196.26
  Q 50.58 204.22 53.44 211.66
  Q 54.35 214.04 56.44 216.27
  Q 61.61 221.80 65.96 228.00
  Q 64.43 227.00 61.81 223.94
  Q 59.05 220.71 56.41 218.25
  Q 54.43 216.41 55.25 218.99
  Q 57.74 226.85 61.63 234.02
  Q 64.41 239.16 70.72 247.36
  Q 75.65 253.78 80.66 260.13
  Q 75.19 257.02 68.44 251.31
  Q 62.47 246.27 59.91 243.86
  Q 55.67 239.87 53.06 234.69
  Q 47.38 223.41 44.75 211.05
  Q 42.80 201.89 41.17 192.67
  Q 38.21 175.98 42.25 158.75
  Q 43.86 151.89 45.11 142.08
  Q 49.56 129.08 56.41 117.26
  Q 60.30 110.57 62.01 108.13
  Q 64.85 104.08 68.94 99.94
  Q 79.60 89.12 84.94 84.44
  Q 87.03 82.60 87.44 80.69
  Q 88.27 79.90 86.61 79.44
  Q 92.54 77.10 98.76 76.03
  Q 111.94 73.77 125.25 74.96
  Z"
/>
<path fill="#ffffff" d="
  M 84.75 99.54
  Q 83.32 98.49 84.06 97.31
  Q 87.54 91.77 93.89 88.65
  Q 98.37 86.46 100.31 85.25
  Q 111.87 78.07 125.25 74.96
  Q 134.19 74.70 139.25 75.00
  Q 147.47 75.49 156.00 78.27
  Q 156.10 78.31 162.74 80.19
  Q 167.11 81.43 170.93 84.03
  Q 171.40 84.35 170.98 84.51
  Q 170.78 84.58 170.51 84.48
  Q 157.92 80.16 144.76 80.40
  Q 137.61 80.54 132.74 81.05
  Q 126.72 81.68 120.93 83.65
  Q 115.99 85.33 110.98 86.72
  Q 107.44 87.70 104.77 88.80
  Q 101.75 90.06 98.75 91.38
  Q 98.68 91.41 95.06 92.82
  Q 91.89 94.06 89.44 96.19
  Q 86.98 98.32 84.75 99.54
  Z"
/>
<path fill="#ffffff" d="
  M 86.61 79.44
  Q 88.27 79.90 87.44 80.69
  Q 87.03 82.60 84.94 84.44
  Q 79.60 89.12 68.94 99.94
  Q 64.85 104.08 62.01 108.13
  Q 60.30 110.57 56.41 117.26
  Q 49.56 129.08 45.11 142.08
  Q 43.01 145.90 41.03 149.71
  Q 39.00 153.62 37.77 157.70
  Q 34.76 167.70 33.81 174.31
  Q 33.11 179.19 33.43 189.22
  A 0.28 0.18 -89.6 0 1 33.24 189.51
  Q 33.10 189.50 33.06 189.24
  Q 30.35 171.51 32.25 155.75
  Q 33.21 147.78 36.00 139.31
  Q 38.35 132.17 42.82 123.99
  Q 49.50 111.76 56.44 103.19
  Q 67.97 88.92 86.61 79.44
  Z"
/>
<path fill="#ffffff" d="
  M 235.54 187.00
  Q 235.26 207.38 233.00 218.25
  Q 230.92 228.23 224.32 241.30
  Q 223.10 243.70 220.60 247.30
  Q 218.97 249.65 216.69 253.19
  Q 211.98 260.47 204.21 268.28
  Q 200.40 272.11 196.17 274.99
  Q 191.83 277.93 187.21 280.47
  Q 178.64 285.17 169.31 287.60
  Q 160.97 289.77 150.38 290.01
  Q 134.43 290.38 118.75 286.75
  Q 117.21 286.39 115.71 285.00
  Q 116.27 283.39 118.25 283.96
  Q 128.40 284.62 130.50 284.25
  Q 137.30 283.04 142.25 277.87
  Q 143.32 277.57 147.25 277.25
  Q 168.20 275.55 185.21 261.96
  Q 192.71 255.97 195.17 246.82
  Q 195.59 245.27 195.36 244.16
  Q 194.95 242.12 193.28 242.11
  Q 191.94 242.09 190.48 243.52
  Q 189.50 244.48 188.06 246.06
  Q 168.78 267.27 139.25 264.24
  Q 123.85 262.66 112.94 258.56
  Q 97.90 252.92 82.70 242.23
  Q 79.09 239.70 74.23 235.26
  Q 70.16 231.55 65.96 228.00
  Q 61.61 221.80 56.44 216.27
  Q 54.35 214.04 53.44 211.66
  Q 50.58 204.22 49.70 196.26
  Q 47.88 179.75 49.72 163.25
  Q 51.68 145.68 59.15 129.67
  Q 62.14 123.26 66.46 117.72
  Q 74.43 109.65 76.56 107.06
  Q 78.09 105.20 79.80 104.16
  Q 81.42 103.18 81.51 103.12
  Q 89.05 97.97 97.28 94.04
  Q 100.40 92.55 105.07 91.21
  Q 107.73 90.44 110.36 89.61
  Q 113.28 88.68 115.73 88.33
  Q 132.67 85.90 149.75 87.75
  Q 155.08 88.33 171.77 93.27
  Q 174.19 93.98 176.80 95.52
  Q 179.20 96.94 181.71 98.15
  Q 186.00 100.22 188.96 101.88
  Q 192.35 103.77 196.24 105.63
  A 2.83 2.79 88.4 0 1 197.53 106.87
  Q 198.55 108.80 200.19 110.03
  Q 203.05 112.17 203.37 112.50
  Q 212.07 121.37 217.69 131.31
  Q 219.14 133.89 220.66 135.81
  Q 222.73 138.43 223.54 140.26
  Q 228.18 150.70 231.64 161.58
  Q 233.49 167.40 234.24 174.15
  Q 234.96 180.57 235.54 187.00
  Z"
/>
<rect fill="#d3871c" x="271.55" y="101.99" width="5.88" height="177.96" rx="1.07"/>
<path fill="#01203e" d="
  M 328.00 103.10
  A 1.33 1.32 -85.1 0 1 329.30 102.00
  L 354.54 102.00
  A 2.38 2.37 80.8 0 1 356.79 103.63
  Q 358.12 107.70 359.02 112.33
  Q 359.99 117.39 361.10 121.03
  Q 363.17 127.82 364.79 134.73
  Q 365.63 138.28 367.08 143.17
  Q 368.33 147.36 369.24 151.65
  Q 370.65 158.23 372.94 163.56
  Q 374.30 166.73 374.99 169.83
  Q 376.27 175.53 376.29 175.61
  Q 378.78 184.63 381.06 193.71
  Q 381.08 193.81 383.74 203.20
  Q 385.57 209.70 386.38 216.74
  A 0.46 0.46 87.2 0 1 385.92 217.25
  L 364.38 217.25
  A 0.69 0.68 -7.8 0 1 363.72 216.75
  Q 360.39 205.24 358.04 193.17
  A 0.83 0.81 84.4 0 0 357.24 192.50
  L 328.06 192.56
  A 0.75 0.74 11.2 0 0 327.37 193.02
  Q 326.09 196.11 324.90 199.23
  Q 324.87 199.29 323.90 201.62
  Q 321.63 207.06 322.11 214.48
  Q 322.29 217.20 319.58 217.21
  L 299.28 217.25
  A 0.52 0.52 -80.1 0 1 298.79 216.55
  Q 301.19 209.99 302.81 204.02
  Q 311.48 171.99 319.71 139.86
  Q 319.74 139.75 320.96 135.70
  Q 322.18 131.65 321.94 127.69
  Q 321.63 122.56 323.45 118.37
  Q 326.59 111.18 328.00 103.10
  Z
  M 341.68 133.00
  Q 340.75 137.22 339.56 141.41
  Q 338.26 145.97 337.45 149.82
  Q 335.54 158.89 332.96 167.81
  Q 332.45 169.59 332.11 171.98
  A 0.46 0.45 -86.1 0 0 332.56 172.50
  L 352.45 172.44
  A 0.37 0.37 81.7 0 0 352.80 171.97
  Q 350.27 163.55 348.60 154.93
  Q 347.72 150.42 346.08 145.81
  Q 343.83 139.50 342.25 132.99
  Q 341.95 131.76 341.68 133.00
  Z"
/>
<path fill="#01203e" d="
  M 420.79 123.82
  L 420.52 145.80
  A 0.96 0.94 0.3 0 0 421.48 146.75
  L 455.69 146.57
  A 0.50 0.49 0.0 0 1 456.19 147.06
  L 456.25 166.71
  A 0.79 0.79 0.3 0 1 455.46 167.50
  L 421.16 167.50
  A 0.66 0.66 0.1 0 0 420.50 168.16
  L 420.50 216.70
  A 0.55 0.55 0.0 0 1 419.95 217.25
  L 397.04 217.32
  A 0.54 0.54 0.2 0 1 396.50 216.78
  L 396.50 102.81
  A 0.56 0.56 0.0 0 1 397.06 102.25
  L 467.64 102.25
  A 0.86 0.84 0.3 0 1 468.50 103.10
  L 468.20 122.66
  A 0.62 0.60 0.5 0 1 467.58 123.25
  L 421.31 123.31
  A 0.52 0.51 0.0 0 0 420.79 123.82
  Z"
/>
<path fill="#01203e" d="
  M 544.65 156.80
  Q 549.16 160.14 550.44 160.81
  Q 553.92 162.64 555.25 164.45
  Q 560.67 171.83 560.75 181.75
  Q 560.81 189.14 560.04 193.46
  Q 558.69 201.11 553.69 206.14
  Q 549.43 210.42 542.42 213.79
  Q 537.32 216.25 531.62 216.88
  Q 530.34 217.02 520.50 217.14
  Q 501.22 217.37 480.90 217.24
  A 0.90 0.89 -90.0 0 1 480.01 216.34
  L 480.01 102.98
  A 0.73 0.73 -0.6 0 1 480.74 102.25
  Q 501.13 102.25 520.75 102.24
  Q 525.86 102.24 530.92 102.89
  Q 536.75 103.63 538.20 103.96
  Q 542.05 104.82 545.06 106.94
  Q 547.63 108.75 550.78 111.71
  Q 553.70 114.46 555.24 117.56
  Q 561.43 130.06 556.51 143.08
  Q 554.89 147.35 551.74 150.57
  Q 548.58 153.81 544.68 156.24
  A 0.34 0.34 -42.1 0 0 544.65 156.80
  Z
  M 503.44 123.42
  L 503.25 145.55
  A 0.97 0.95 -0.0 0 0 504.22 146.50
  Q 512.13 146.50 520.19 146.50
  Q 526.27 146.50 528.69 145.47
  Q 533.27 143.52 534.50 138.25
  Q 535.79 132.75 532.84 127.33
  Q 531.95 125.68 530.57 124.67
  Q 528.79 123.37 527.25 123.25
  Q 515.51 122.37 503.86 122.99
  A 0.45 0.43 -2.1 0 0 503.44 123.42
  Z
  M 533.06 193.06
  Q 540.84 184.53 536.05 174.93
  Q 534.14 171.10 531.52 169.35
  Q 528.53 167.37 524.25 167.25
  Q 510.75 166.87 503.81 167.28
  A 0.53 0.53 -1.7 0 0 503.31 167.81
  L 503.25 195.76
  A 0.99 0.99 0.0 0 0 504.24 196.75
  Q 511.67 196.75 519.10 196.75
  Q 525.86 196.75 526.40 196.67
  Q 530.33 196.06 533.06 193.06
  Z"
/>
<path fill="#ffffff" d="
  M 503.44 123.42
  A 0.45 0.43 -2.1 0 1 503.86 122.99
  Q 515.51 122.37 527.25 123.25
  Q 528.79 123.37 530.57 124.67
  Q 531.95 125.68 532.84 127.33
  Q 535.79 132.75 534.50 138.25
  Q 533.27 143.52 528.69 145.47
  Q 526.27 146.50 520.19 146.50
  Q 512.13 146.50 504.22 146.50
  A 0.97 0.95 0.0 0 1 503.25 145.55
  L 503.44 123.42
  Z"
/>
<path fill="#ffffff" d="
  M 341.68 133.00
  Q 341.95 131.76 342.25 132.99
  Q 343.83 139.50 346.08 145.81
  Q 347.72 150.42 348.60 154.93
  Q 350.27 163.55 352.80 171.97
  A 0.37 0.37 81.7 0 1 352.45 172.44
  L 332.56 172.50
  A 0.46 0.45 -86.1 0 1 332.11 171.98
  Q 332.45 169.59 332.96 167.81
  Q 335.54 158.89 337.45 149.82
  Q 338.26 145.97 339.56 141.41
  Q 340.75 137.22 341.68 133.00
  Z"
/>
<path fill="#ffffff" d="
  M 533.06 193.06
  Q 530.33 196.06 526.40 196.67
  Q 525.86 196.75 519.10 196.75
  Q 511.67 196.75 504.24 196.75
  A 0.99 0.99 0.0 0 1 503.25 195.76
  L 503.31 167.81
  A 0.53 0.53 -1.7 0 1 503.81 167.28
  Q 510.75 166.87 524.25 167.25
  Q 528.53 167.37 531.52 169.35
  Q 534.14 171.10 536.05 174.93
  Q 540.84 184.53 533.06 193.06
  Z"
/>
<path fill="#d68311" d="
  M 243.64 177.95
  Q 244.46 178.20 244.33 180.26
  Q 242.99 200.39 236.00 222.25
  Q 232.13 234.35 226.40 243.17
  Q 225.75 244.17 225.76 245.14
  Q 225.78 246.19 226.04 247.25
  Q 213.55 264.15 199.06 275.31
  Q 190.55 281.87 179.31 286.80
  Q 174.96 288.70 167.37 290.99
  Q 163.32 292.21 159.29 293.47
  Q 154.72 294.91 151.07 295.31
  Q 140.60 296.48 127.00 295.75
  Q 117.46 295.23 111.19 292.92
  Q 101.07 289.19 94.00 286.25
  Q 88.88 284.12 83.44 280.56
  Q 78.39 277.26 70.35 269.94
  Q 81.98 275.62 85.06 276.44
  Q 92.26 278.36 97.06 280.19
  Q 105.56 283.43 114.00 283.54
  Q 114.52 284.65 115.71 285.00
  Q 117.21 286.39 118.75 286.75
  Q 134.43 290.38 150.38 290.01
  Q 160.97 289.77 169.31 287.60
  Q 178.64 285.17 187.21 280.47
  Q 191.83 277.93 196.17 274.99
  Q 200.40 272.11 204.21 268.28
  Q 211.98 260.47 216.69 253.19
  Q 218.97 249.65 220.60 247.30
  Q 223.10 243.70 224.32 241.30
  Q 230.92 228.23 233.00 218.25
  Q 235.26 207.38 235.54 187.00
  Q 237.81 185.27 239.31 182.06
  Q 240.36 179.83 243.64 177.95
  Z"
/>
<path fill="#dd8106" d="
  M 65.96 228.00
  Q 70.16 231.55 74.23 235.26
  Q 79.09 239.70 82.70 242.23
  Q 97.90 252.92 112.94 258.56
  Q 123.85 262.66 139.25 264.24
  Q 168.78 267.27 188.06 246.06
  Q 189.50 244.48 190.48 243.52
  Q 191.94 242.09 193.28 242.11
  Q 194.95 242.12 195.36 244.16
  Q 195.59 245.27 195.17 246.82
  Q 192.71 255.97 185.21 261.96
  Q 168.20 275.55 147.25 277.25
  Q 143.32 277.57 142.25 277.87
  Q 132.65 277.23 123.00 276.75
  Q 117.85 276.50 112.35 274.94
  Q 108.25 273.78 102.15 271.52
  Q 90.61 267.24 80.66 260.13
  Q 75.65 253.78 70.72 247.36
  Q 64.41 239.16 61.63 234.02
  Q 57.74 226.85 55.25 218.99
  Q 54.43 216.41 56.41 218.25
  Q 59.05 220.71 61.81 223.94
  Q 64.43 227.00 65.96 228.00
  Z"
/>
<rect fill="#061622" x="-1.63" y="-21.66" transform="translate(304.14,258.30) rotate(0.1)" width="3.26" height="43.32" rx="0.26"/>
<rect fill="#02090f" x="-1.83" y="-2.84" transform="translate(497.14,239.36) rotate(1.9)" width="3.66" height="5.68" rx="0.96"/>
<rect fill="#061622" x="597.95" y="236.52" width="3.74" height="43.68" rx="0.44"/>
<path fill="#020303" d="
  M 618.4774 252.1497
  A 7.72 6.53 89.5 0 1 611.8802 244.4870
  A 7.72 6.53 89.5 0 1 618.3426 236.7103
  A 7.72 6.53 89.5 0 1 624.9398 244.3730
  A 7.72 6.53 89.5 0 1 618.4774 252.1497
  Z
  M 613.66 244.76
  Q 613.70 248.25 617.96 249.74
  A 2.00 1.99 -56.2 0 0 619.95 249.34
  Q 622.82 246.78 623.61 243.56
  A 1.09 1.09 -56.8 0 0 623.42 242.65
  Q 619.86 238.03 616.36 240.05
  Q 613.62 241.63 613.66 244.76
  Z"
/>
<path fill="#020e17" d="
  M 347.70 247.93
  Q 347.79 244.97 347.58 241.99
  Q 347.34 238.53 350.30 239.79
  A 0.83 0.76 12.1 0 1 350.80 240.49
  L 350.98 246.73
  Q 351.04 249.02 353.07 248.76
  Q 358.83 248.01 357.37 251.98
  A 0.73 0.73 9.4 0 1 356.70 252.46
  L 351.60 252.49
  A 0.86 0.83 -0.3 0 0 350.75 253.32
  Q 350.75 264.00 350.99 273.99
  Q 351.09 278.36 356.19 276.79
  A 1.01 1.01 69.8 0 1 357.42 277.36
  Q 358.81 280.63 354.97 281.14
  Q 350.83 281.69 348.92 279.08
  Q 347.76 277.50 347.66 273.64
  Q 347.42 264.82 347.72 256.00
  Q 347.73 255.90 347.88 254.51
  Q 348.20 251.67 344.76 252.53
  Q 341.71 253.29 342.66 249.63
  A 0.84 0.74 -85.4 0 1 343.29 249.02
  L 347.18 248.44
  A 0.62 0.51 -4.7 0 0 347.70 247.93
  Z"
/>
<path fill="#020303" d="
  M 481.81 248.46
  L 485.85 248.49
  A 1.15 1.11 -1.6 0 1 487.00 249.54
  Q 487.24 253.56 483.53 252.63
  Q 481.50 252.13 481.50 254.22
  Q 481.50 264.00 481.42 272.75
  Q 481.40 274.80 482.42 276.53
  A 1.68 1.67 -30.5 0 0 484.72 277.12
  Q 486.67 275.96 487.18 279.10
  A 1.59 1.59 -7.2 0 1 485.75 280.94
  Q 480.05 281.42 477.91 277.97
  Q 476.73 276.07 476.82 270.81
  Q 476.97 262.14 477.06 253.28
  A 0.59 0.59 85.9 0 0 476.38 252.69
  Q 472.24 253.34 472.73 249.80
  A 0.87 0.66 89.8 0 1 473.26 249.10
  L 475.94 248.44
  A 1.41 1.16 -9.2 0 0 477.01 247.22
  L 476.81 240.57
  A 0.83 0.76 78.0 0 1 477.25 239.82
  Q 478.56 239.22 480.45 239.59
  A 1.52 1.38 -83.8 0 1 481.57 241.13
  L 481.29 247.94
  A 0.52 0.49 1.6 0 0 481.81 248.46
  Z"
/>
<path fill="#f1f3f6" d="
  M 616.36 240.05
  Q 619.86 238.03 623.42 242.65
  A 1.09 1.09 -56.8 0 1 623.61 243.56
  Q 622.82 246.78 619.95 249.34
  A 2.00 1.99 -56.2 0 1 617.96 249.74
  Q 613.70 248.25 613.66 244.76
  Q 613.62 241.63 616.36 240.05
  Z
  M 616.25 243.21
  Q 613.66 244.88 617.19 246.17
  A 2.65 2.41 34.9 0 0 619.58 245.86
  L 622.27 243.84
  A 0.93 0.89 39.8 0 0 622.10 242.30
  Q 620.42 241.45 619.25 241.54
  Q 616.96 240.99 616.25 243.21
  Z"
/>
<path fill="#a4c0bf" d="
  M 619.25 241.54
  Q 619.56 245.66 616.25 243.21
  Q 616.96 240.99 619.25 241.54
  Z"
/>
<path fill="#020303" d="
  M 619.25 241.54
  Q 620.42 241.45 622.10 242.30
  A 0.93 0.89 39.8 0 1 622.27 243.84
  L 619.58 245.86
  A 2.65 2.41 34.9 0 1 617.19 246.17
  Q 613.66 244.88 616.25 243.21
  Q 619.56 245.66 619.25 241.54
  Z"
/>
<path fill="#061622" d="
  M 320.27 253.23
  Q 321.22 252.69 321.44 251.44
  Q 321.90 248.75 324.75 248.25
  Q 331.71 247.02 334.76 251.95
  Q 336.23 254.32 336.34 259.37
  Q 336.57 269.16 336.68 278.95
  A 0.75 0.73 78.5 0 1 336.23 279.65
  Q 334.67 280.32 333.03 279.85
  A 0.71 0.66 -82.4 0 1 332.56 279.18
  Q 332.45 267.72 332.50 256.25
  Q 332.51 252.68 328.75 252.01
  Q 325.78 251.49 323.03 252.61
  A 1.54 0.56 -65.8 0 0 322.38 253.28
  L 319.65 257.70
  Q 319.30 258.25 319.28 258.56
  Q 318.54 272.24 319.00 277.25
  Q 319.32 280.72 316.53 279.86
  A 0.71 0.67 -81.6 0 1 316.06 279.19
  Q 315.91 264.79 316.05 250.39
  Q 316.06 249.44 316.49 248.86
  Q 317.44 247.57 318.41 248.75
  Q 318.87 249.31 319.10 250.50
  Q 319.34 251.74 319.68 252.96
  A 0.42 0.40 68.0 0 0 320.27 253.23
  Z"
/>
<path fill="#020e17" d="
  M 397.44 253.62
  Q 399.43 251.90 401.30 250.05
  Q 403.35 248.02 406.19 247.83
  A 0.88 0.85 -17.7 0 1 406.97 248.22
  Q 408.13 250.05 407.17 252.01
  A 0.69 0.59 17.3 0 1 406.45 252.32
  Q 404.29 251.91 402.69 253.19
  Q 399.51 255.72 397.90 259.36
  Q 396.76 261.96 396.76 266.82
  Q 396.77 273.00 396.69 279.18
  A 0.76 0.68 81.4 0 1 396.23 279.88
  Q 395.14 280.25 394.03 279.87
  A 0.70 0.65 -80.6 0 1 393.58 279.19
  Q 394.07 261.36 393.75 257.50
  Q 393.27 251.66 393.94 249.44
  Q 394.41 247.86 395.97 248.37
  A 0.89 0.73 -86.7 0 1 396.48 249.07
  L 396.99 253.45
  Q 397.05 253.95 397.44 253.62
  Z"
/>
<path fill="#020e17" d="
  M 419.15 253.06
  Q 421.74 250.29 425.09 248.84
  Q 428.78 247.24 432.01 248.45
  Q 435.06 249.59 436.66 252.50
  Q 437.74 254.46 437.85 258.22
  Q 438.17 268.70 437.95 279.19
  A 0.75 0.70 81.7 0 1 437.48 279.87
  Q 436.04 280.35 434.69 279.73
  A 0.79 0.73 -78.1 0 1 434.26 279.01
  Q 434.47 261.38 433.75 255.75
  Q 433.33 252.46 430.46 252.00
  Q 428.73 251.71 426.04 252.23
  Q 422.20 252.97 420.16 256.02
  Q 418.76 258.10 418.58 262.31
  Q 418.20 271.24 418.75 277.75
  Q 419.04 281.19 416.04 280.13
  A 0.69 0.68 -78.8 0 1 415.59 279.44
  Q 415.84 275.10 415.70 270.75
  Q 415.45 262.83 415.75 249.75
  Q 415.80 247.60 417.56 248.50
  A 1.36 1.27 -89.1 0 1 418.19 249.20
  Q 418.89 250.99 418.84 252.94
  Q 418.83 253.42 419.15 253.06
  Z"
/>
<path fill="#02090f" d="
  M 445.40 276.50
  Q 442.74 272.54 445.56 267.31
  Q 446.47 265.63 448.25 264.65
  Q 448.71 264.39 451.63 263.21
  Q 456.68 261.16 462.89 260.05
  A 0.99 0.98 -1.3 0 0 463.69 259.22
  Q 464.52 253.02 460.05 252.08
  Q 456.87 251.41 453.49 252.50
  Q 450.21 253.57 448.10 256.89
  A 0.61 0.60 -46.4 0 1 447.09 256.92
  Q 445.67 254.92 447.47 252.95
  Q 450.40 249.73 454.31 248.51
  Q 458.56 247.19 461.99 248.84
  Q 464.75 250.17 466.11 253.06
  Q 466.98 254.92 467.06 258.59
  Q 467.28 268.73 467.51 279.27
  A 0.65 0.65 84.2 0 1 466.98 279.92
  Q 464.41 280.36 463.91 278.20
  A 1.29 1.29 70.4 0 0 462.09 277.33
  Q 461.10 277.81 460.09 278.60
  Q 456.07 281.73 451.84 280.82
  Q 447.71 279.93 445.40 276.50
  Z
  M 449.96 276.32
  Q 456.57 279.00 461.69 274.19
  Q 463.47 272.51 463.77 270.64
  Q 463.82 270.30 463.82 267.34
  Q 463.82 265.68 463.53 264.04
  A 0.56 0.54 -7.5 0 0 462.94 263.60
  Q 457.74 263.99 453.09 266.14
  Q 450.11 267.51 449.04 269.15
  Q 447.55 271.45 448.46 274.65
  A 2.56 2.55 3.2 0 0 449.96 276.32
  Z"
/>
<path fill="#14222e" d="
  M 511.19 277.81
  Q 508.21 275.39 507.66 271.92
  Q 506.17 262.42 507.75 257.00
  Q 509.53 250.88 515.42 248.40
  Q 518.54 247.09 521.78 248.16
  Q 525.51 249.39 527.93 252.12
  Q 530.02 254.48 530.87 258.49
  Q 532.44 265.85 530.28 273.26
  Q 529.65 275.39 528.17 276.84
  Q 527.11 277.87 524.90 279.20
  Q 518.00 283.34 511.19 277.81
  Z
  M 514.44 275.56
  Q 518.05 278.12 521.67 276.77
  Q 524.63 275.66 526.47 272.28
  Q 529.54 266.65 527.50 259.50
  Q 525.25 251.60 517.87 252.22
  Q 515.66 252.41 514.33 253.41
  Q 512.75 254.59 512.13 256.67
  Q 510.46 262.24 511.17 267.93
  Q 511.53 270.89 511.90 272.05
  Q 512.61 274.27 514.44 275.56
  Z"
/>
<path fill="#061622" d="
  M 541.41 252.36
  Q 541.51 253.74 542.52 252.63
  Q 544.44 250.52 546.68 249.21
  Q 549.11 247.78 551.70 247.80
  Q 556.57 247.85 559.19 252.31
  Q 560.83 255.12 560.69 259.26
  Q 560.37 268.75 560.77 278.76
  A 1.15 1.15 83.4 0 1 559.86 279.93
  Q 556.05 280.71 556.37 277.55
  Q 556.52 276.06 556.52 275.94
  Q 556.74 266.22 556.33 256.51
  Q 556.23 254.27 555.25 253.32
  Q 553.97 252.07 551.75 252.00
  Q 546.22 251.81 543.47 255.38
  Q 541.85 257.49 541.57 262.16
  Q 540.95 272.51 541.50 277.25
  Q 541.92 280.91 538.72 279.92
  A 0.73 0.69 -82.2 0 1 538.24 279.25
  Q 538.04 267.75 538.00 256.25
  Q 537.99 251.78 538.57 249.16
  A 1.17 1.00 85.6 0 1 539.11 248.42
  Q 540.27 247.80 540.99 248.82
  A 1.41 0.34 -89.8 0 1 541.21 249.75
  L 541.41 252.36
  Z"
/>
<path fill="#061622" d="
  M 584.61 276.81
  Q 580.44 280.10 576.75 280.75
  Q 570.58 281.84 567.49 277.26
  Q 565.53 274.35 565.79 270.91
  Q 566.11 266.85 569.56 264.81
  Q 575.91 261.07 584.39 260.12
  A 1.30 1.30 87.5 0 0 585.55 258.85
  Q 585.64 253.30 581.23 252.34
  Q 577.68 251.58 574.25 252.75
  Q 571.41 253.71 570.57 256.46
  A 0.55 0.47 -71.8 0 1 569.94 256.84
  L 567.37 255.91
  A 0.60 0.56 -59.4 0 1 567.17 254.98
  Q 568.67 253.18 570.12 251.62
  Q 575.01 246.34 581.75 248.00
  Q 588.13 249.57 588.08 256.75
  Q 588.00 267.89 588.72 279.00
  A 0.92 0.78 74.5 0 1 588.35 279.79
  Q 587.28 280.46 586.52 279.72
  Q 586.21 279.42 585.85 278.11
  Q 585.68 277.46 585.30 276.89
  A 0.49 0.46 -36.6 0 0 584.61 276.81
  Z
  M 571.67 276.56
  Q 579.50 278.78 584.02 273.11
  Q 585.18 271.66 585.23 269.41
  Q 585.28 267.26 585.34 264.57
  A 0.93 0.92 86.3 0 0 584.28 263.63
  Q 580.10 264.26 576.75 265.01
  Q 568.46 266.87 570.29 275.10
  A 1.98 1.97 -88.5 0 0 571.67 276.56
  Z"
/>
<path fill="#020e17" d="
  M 364.77 265.32
  Q 364.52 269.38 366.54 272.95
  Q 368.98 277.25 374.00 277.50
  Q 379.44 277.77 382.33 272.50
  A 1.53 1.04 -78.3 0 1 383.01 271.84
  Q 384.44 271.29 385.27 272.78
  Q 386.17 274.42 384.75 275.64
  Q 383.49 276.70 382.23 277.70
  Q 380.81 278.81 379.50 279.42
  Q 372.12 282.87 366.95 278.68
  Q 362.51 275.08 361.47 268.00
  Q 360.40 260.68 363.94 253.94
  Q 365.93 250.15 370.73 248.56
  Q 375.78 246.90 379.90 250.11
  Q 385.88 254.76 385.43 263.94
  A 0.86 0.85 1.4 0 1 384.57 264.75
  L 365.31 264.81
  A 0.54 0.54 -88.3 0 0 364.77 265.32
  Z
  M 368.28 254.02
  Q 365.74 256.65 364.90 260.72
  A 0.64 0.62 -84.7 0 0 365.51 261.48
  L 380.82 261.33
  A 0.54 0.53 -88.3 0 0 381.35 260.82
  Q 381.87 253.47 374.73 252.09
  Q 370.87 251.34 368.28 254.02
  Z"
/>
<rect fill="#061622" x="-1.88" y="-15.82" transform="translate(497.11,264.34) rotate(-0.1)" width="3.76" height="31.64" rx="0.68"/>
<path fill="#ffffff" d="
  M 368.28 254.02
  Q 370.87 251.34 374.73 252.09
  Q 381.87 253.47 381.35 260.82
  A 0.54 0.53 -88.3 0 1 380.82 261.33
  L 365.51 261.48
  A 0.64 0.62 -84.7 0 1 364.90 260.72
  Q 365.74 256.65 368.28 254.02
  Z"
/>
<path fill="#ffffff" d="
  M 514.44 275.56
  Q 512.61 274.27 511.90 272.05
  Q 511.53 270.89 511.17 267.93
  Q 510.46 262.24 512.13 256.67
  Q 512.75 254.59 514.33 253.41
  Q 515.66 252.41 517.87 252.22
  Q 525.25 251.60 527.50 259.50
  Q 529.54 266.65 526.47 272.28
  Q 524.63 275.66 521.67 276.77
  Q 518.05 278.12 514.44 275.56
  Z"
/>
<path fill="#ffffff" d="
  M 449.96 276.32
  A 2.56 2.55 3.2 0 1 448.46 274.65
  Q 447.55 271.45 449.04 269.15
  Q 450.11 267.51 453.09 266.14
  Q 457.74 263.99 462.94 263.60
  A 0.56 0.54 -7.5 0 1 463.53 264.04
  Q 463.82 265.68 463.82 267.34
  Q 463.82 270.30 463.77 270.64
  Q 463.47 272.51 461.69 274.19
  Q 456.57 279.00 449.96 276.32
  Z"
/>
<path fill="#ffffff" d="
  M 571.67 276.56
  A 1.98 1.97 -88.5 0 1 570.29 275.10
  Q 568.46 266.87 576.75 265.01
  Q 580.10 264.26 584.28 263.63
  A 0.93 0.92 86.3 0 1 585.34 264.57
  Q 585.28 267.26 585.23 269.41
  Q 585.18 271.66 584.02 273.11
  Q 579.50 278.78 571.67 276.56
  Z"
/>
<path fill="#020303" d="
  M 239.74 272.48
  A 7.18 7.18 0.0 0 1 232.56 279.66
  A 7.18 7.18 0.0 0 1 225.38 272.48
  A 7.18 7.18 0.0 0 1 232.56 265.30
  A 7.18 7.18 0.0 0 1 239.74 272.48
  Z
  M 230.44 277.06
  Q 233.60 278.76 236.32 276.57
  Q 237.95 275.26 238.11 273.28
  Q 238.28 271.08 236.86 269.39
  Q 235.63 267.92 234.36 266.89
  Q 232.19 265.12 230.25 267.81
  Q 229.18 269.28 228.52 270.97
  Q 226.89 275.16 230.44 277.06
  Z"
/>
<path fill="#f1f3f6" d="
  M 230.44 277.06
  Q 226.89 275.16 228.52 270.97
  Q 229.18 269.28 230.25 267.81
  Q 232.19 265.12 234.36 266.89
  Q 235.63 267.92 236.86 269.39
  Q 238.28 271.08 238.11 273.28
  Q 237.95 275.26 236.32 276.57
  Q 233.60 278.76 230.44 277.06
  Z
  M 234.75 270.21
  L 234.21 268.75
  Q 233.77 268.15 233.08 268.15
  Q 231.93 268.16 231.92 268.16
  Q 229.41 267.88 230.51 270.07
  Q 230.73 270.51 230.72 271.00
  Q 230.63 274.49 233.69 275.11
  A 0.55 0.47 8.9 0 0 234.34 274.71
  L 234.75 270.21
  Z"
/>
<path fill="#020303" d="
  M 234.21 268.75
  Q 232.20 270.80 234.75 270.21
  L 234.34 274.71
  A 0.55 0.47 8.9 0 1 233.69 275.11
  Q 230.63 274.49 230.72 271.00
  Q 230.73 270.51 230.51 270.07
  Q 229.41 267.88 231.92 268.16
  Q 231.93 268.16 233.08 268.15
  Q 233.77 268.15 234.21 268.75
  Z"
/>
<path fill="#a4c0bf" d="
  M 234.21 268.75
  L 234.75 270.21
  Q 232.20 270.80 234.21 268.75
  Z"
/>
<path fill="#a4c0bf" d="
  M 114.00 283.54
  L 118.25 283.96
  Q 116.27 283.39 115.71 285.00
  Q 114.52 284.65 114.00 283.54
  Z"
/>
</svg>
