<?xml version="1.0" encoding="UTF-8" standalone="no"?>
<!DOCTYPE svg PUBLIC "-//W3C//DTD SVG 1.1//EN" "http://www.w3.org/Graphics/SVG/1.1/DTD/svg11.dtd">
<svg xmlns="http://www.w3.org/2000/svg" version="1.1" viewBox="0 0 545 215">
<g stroke-width="2.00" fill="none" stroke-linecap="butt">
<path stroke="#acb9cf" vector-effect="non-scaling-stroke" d="
  M 174.50 83.46
  Q 161.88 92.74 152.72 105.46
  Q 145.51 115.47 142.83 127.20
  Q 140.73 136.38 142.27 144.36
  Q 143.94 153.05 149.25 160.54"
/>
<path stroke="#acb9cf" vector-effect="non-scaling-stroke" d="
  M 149.25 160.54
  L 153.50 166.04"
/>
<path stroke="#cdd2d5" vector-effect="non-scaling-stroke" d="
  M 153.50 166.04
  Q 161.38 174.35 171.77 179.20
  Q 182.11 184.02 193.28 186.35
  Q 217.55 191.39 241.93 188.54
  Q 251.25 187.45 261.63 185.19
  Q 293.40 178.28 321.14 160.86
  Q 334.36 152.56 346.19 139.94
  Q 359.14 126.11 363.42 108.48
  Q 365.30 100.71 363.75 92.50
  Q 360.83 77.09 349.08 67.17
  Q 343.33 62.31 340.19 60.56
  Q 324.96 52.09 307.77 49.15
  Q 291.73 46.42 276.25 47.25
  Q 239.39 49.22 205.44 64.69
  Q 188.06 72.60 174.50 83.46"
/>
<path stroke="#798ca5" vector-effect="non-scaling-stroke" d="
  M 153.50 166.04
  Q 154.09 166.08 154.00 165.54"
/>
<path stroke="#cdd2d5" vector-effect="non-scaling-stroke" d="
  M 154.00 165.54
  Q 162.69 173.88 172.56 178.44
  Q 191.20 187.05 212.75 188.04
  Q 241.90 189.37 269.75 181.72
  Q 279.98 178.91 288.80 175.70
  Q 299.59 171.79 309.68 166.34
  Q 319.29 161.15 326.73 155.92
  Q 338.99 147.31 348.76 135.76
  Q 359.27 123.35 362.50 109.75
  Q 367.65 88.10 352.08 71.41
  Q 343.01 61.69 330.72 56.56
  Q 316.78 50.73 301.74 49.05
  Q 294.02 48.19 285.10 47.68
  Q 284.52 47.65 283.95 47.67
  Q 261.93 48.53 242.31 52.80
  Q 205.16 60.89 174.75 83.54"
/>
<path stroke="#798ca5" vector-effect="non-scaling-stroke" d="
  M 174.75 83.54
  L 174.50 83.46"
/>
<path stroke="#acb9cf" vector-effect="non-scaling-stroke" d="
  M 154.00 165.54
  L 149.54 160.25"
/>
<path stroke="#acb9cf" vector-effect="non-scaling-stroke" d="
  M 149.54 160.25
  Q 135.58 137.32 148.25 114.00
  Q 157.79 96.45 174.75 83.54"
/>
<path stroke="#58739e" vector-effect="non-scaling-stroke" d="
  M 149.54 160.25
  Q 149.48 160.48 149.25 160.54"
/>
<path stroke="#9aa6c0" vector-effect="non-scaling-stroke" d="
  M 256.75 52.96
  L 255.75 53.04"
/>
<path stroke="#bccde8" vector-effect="non-scaling-stroke" d="
  M 255.75 53.04
  Q 246.90 53.40 238.75 56.79"
/>
<path stroke="#9aa6c0" vector-effect="non-scaling-stroke" d="
  M 238.75 56.79
  Q 223.15 60.99 214.56 64.56
  Q 208.12 67.24 198.38 72.44
  Q 189.18 77.35 183.06 81.81
  Q 172.89 89.23 164.21 98.45
  Q 162.42 100.35 160.96 102.50"
/>
<path stroke="#d9ecf6" vector-effect="non-scaling-stroke" d="
  M 160.96 102.50
  Q 151.74 110.81 150.32 123.27"
/>
<path stroke="#9aa6c0" vector-effect="non-scaling-stroke" d="
  M 150.32 123.27
  Q 148.16 130.01 149.09 136.90
  Q 149.51 139.97 150.60 141.35
  Q 152.25 143.41 155.43 143.24
  Q 159.13 143.05 161.94 141.19
  Q 168.03 137.14 172.31 130.97
  Q 174.84 127.33 174.91 127.23
  Q 177.16 124.13 179.13 121.10
  Q 179.89 119.93 178.52 120.25
  L 171.99 121.75
  Q 169.54 122.32 171.17 120.38
  Q 174.77 116.13 181.06 116.00
  A 2.78 2.77 -74.2 0 0 183.34 114.72
  Q 189.29 105.41 194.44 94.94
  Q 195.44 92.91 196.44 88.80
  A 1.30 1.22 82.8 0 1 196.99 88.04
  Q 202.21 84.78 207.96 84.98
  A 1.43 1.43 4.3 0 1 209.33 86.57
  Q 208.15 96.89 205.81 106.31
  Q 203.58 115.31 201.51 131.97
  Q 200.97 136.26 201.98 141.78
  A 1.27 1.26 68.0 0 1 201.44 143.06
  Q 197.44 145.74 192.11 146.49"
/>
<path stroke="#a0aaba" vector-effect="non-scaling-stroke" d="
  M 192.11 146.49
  Q 189.87 142.52 190.89 138.04
  Q 191.47 135.52 191.48 135.44
  Q 192.91 127.43 194.70 119.98"
/>
<path stroke="#989ca0" vector-effect="non-scaling-stroke" d="
  M 194.70 119.98
  Q 195.44 118.66 195.15 117.75
  A 0.65 0.59 -12.7 0 0 194.44 117.35
  L 186.25 118.75
  A 2.95 2.42 -78.0 0 0 184.34 120.27
  Q 178.72 131.22 172.16 140.88
  Q 166.04 149.87 154.99 153.50
  A 0.34 0.30 55.7 0 0 154.92 154.05
  L 156.25 155.29"
/>
<path stroke="#d1d6b4" vector-effect="non-scaling-stroke" d="
  M 156.25 155.29
  Q 167.54 168.00 183.82 173.16
  Q 204.42 179.68 225.79 178.97
  Q 234.50 178.68 245.69 177.25
  Q 275.83 173.40 303.25 159.80
  Q 323.51 149.75 339.51 133.77
  Q 352.26 121.03 356.75 105.25
  Q 358.38 99.52 357.73 93.03
  Q 357.05 86.23 354.09 81.60
  Q 348.07 72.19 335.00 73.50
  Q 334.29 73.57 332.25 74.71"
/>
<path stroke="#99a2bd" vector-effect="non-scaling-stroke" d="
  M 332.25 74.71
  L 328.75 75.71"
/>
<path stroke="#a5b6d6" vector-effect="non-scaling-stroke" d="
  M 328.75 75.71
  Q 330.00 74.18 331.79 73.25"
/>
<path stroke="#9aa6c0" vector-effect="non-scaling-stroke" d="
  M 331.79 73.25
  Q 339.25 69.00 347.19 71.31
  Q 347.71 71.46 347.66 71.18
  A 0.68 0.31 24.5 0 0 347.33 70.80
  Q 346.60 70.33 346.14 69.56"
/>
<path stroke="#afc3d9" vector-effect="non-scaling-stroke" d="
  M 346.14 69.56
  Q 336.90 60.59 324.54 57.00"
/>
<path stroke="#acb9cf" vector-effect="non-scaling-stroke" d="
  M 324.54 57.00
  Q 313.05 52.05 300.50 51.54"
/>
<path stroke="#9aa6c0" vector-effect="non-scaling-stroke" d="
  M 300.50 51.54
  Q 291.42 50.00 282.26 50.48"
/>
<path stroke="#bccde8" vector-effect="non-scaling-stroke" d="
  M 282.26 50.48
  Q 279.01 49.98 275.84 50.41
  Q 272.38 50.89 270.10 50.86
  Q 263.29 50.78 256.75 52.96"
/>
<path stroke="#5674a9" vector-effect="non-scaling-stroke" d="
  M 282.26 50.48
  Q 274.08 51.26 265.94 52.16
  Q 261.35 52.67 256.75 52.96"
/>
<path stroke="#466090" vector-effect="non-scaling-stroke" d="
  M 300.50 51.54
  Q 304.17 52.79 307.99 53.13
  Q 309.79 53.29 311.80 54.17
  Q 313.72 55.01 315.79 55.32
  Q 318.36 55.70 320.07 56.29
  Q 322.20 57.02 324.37 57.43"
/>
<path stroke="#4a6a9a" vector-effect="non-scaling-stroke" d="
  M 324.37 57.43
  Q 334.49 61.86 339.19 65.56
  Q 342.99 68.56 346.14 69.56"
/>
<path stroke="#405d97" vector-effect="non-scaling-stroke" d="
  M 331.79 73.25
  Q 332.30 70.24 331.40 66.68
  Q 331.31 66.34 331.11 66.06
  Q 329.86 64.36 327.92 63.49
  Q 324.91 62.14 324.83 62.09
  Q 321.11 60.10 317.00 59.00
  Q 316.34 58.82 314.79 57.75
  Q 313.66 56.97 312.50 56.71
  Q 308.16 55.74 296.19 53.56
  Q 292.20 52.83 288.91 53.15
  Q 283.16 53.70 282.91 53.71
  Q 277.97 53.79 273.04 54.18
  Q 272.93 54.19 271.52 54.55
  Q 270.49 54.80 269.61 54.09
  A 1.31 1.07 58.3 0 0 268.74 53.79
  Q 257.70 54.79 246.92 57.35
  Q 232.09 60.88 227.50 62.50
  Q 223.93 63.77 206.15 71.48
  Q 205.51 71.76 203.38 72.40
  Q 201.96 72.82 200.70 73.60
  Q 197.33 75.67 197.23 75.72
  Q 195.22 76.79 193.35 78.12
  Q 186.94 82.66 180.69 87.43
  Q 180.64 87.47 176.32 90.54
  Q 172.69 93.13 170.69 95.94
  Q 168.02 99.68 166.35 101.40
  A 0.92 0.90 -29.7 0 0 166.11 102.24
  L 166.79 105.00"
/>
<path stroke="#49619b" vector-effect="non-scaling-stroke" d="
  M 166.79 105.00
  Q 159.33 114.41 156.25 126.02
  Q 155.38 129.26 157.88 127.02
  Q 159.96 125.15 162.80 124.03
  Q 167.86 122.03 172.61 117.26
  Q 173.26 116.61 174.07 116.32
  L 181.72 113.60
  A 1.58 1.40 3.5 0 0 182.46 113.02
  L 187.25 105.54"
/>
<path stroke="#5674a9" vector-effect="non-scaling-stroke" d="
  M 187.25 105.54
  Q 191.01 100.55 192.90 94.59
  Q 193.81 91.69 196.07 87.46
  A 4.61 4.58 -0.3 0 1 197.94 85.58
  Q 202.80 82.89 207.98 83.56
  Q 209.72 83.78 210.41 84.91
  Q 211.21 86.20 210.96 88.00"
/>
<path stroke="#3d5a92" vector-effect="non-scaling-stroke" d="
  M 210.96 88.00
  Q 209.00 101.67 207.50 109.75
  Q 205.00 123.22 203.81 131.81
  Q 203.52 133.91 204.21 143.25"
/>
<path stroke="#3b517b" vector-effect="non-scaling-stroke" d="
  M 204.21 143.25
  Q 199.62 148.03 193.07 148.42
  A 1.05 0.95 -19.6 0 1 192.23 148.07
  Q 191.35 146.99 192.11 146.49"
/>
<path stroke="#7393b7" vector-effect="non-scaling-stroke" d="
  M 150.32 123.27
  Q 154.26 112.18 160.96 102.50"
/>
<path stroke="#5674a9" vector-effect="non-scaling-stroke" d="
  M 238.75 56.79
  L 255.75 53.04"
/>
<path stroke="#bccde8" vector-effect="non-scaling-stroke" d="
  M 252.50 76.29
  Q 250.85 76.78 249.61 77.90
  A 0.81 0.74 61.4 0 0 249.41 78.72
  Q 250.24 81.39 249.75 85.00
  Q 248.22 96.27 247.21 101.00"
/>
<path stroke="#5f82ba" vector-effect="non-scaling-stroke" d="
  M 247.21 101.00
  Q 246.41 100.70 245.68 101.00
  A 1.03 0.71 87.5 0 0 245.21 101.75
  Q 245.01 103.42 243.66 103.20
  Q 242.87 103.08 242.12 102.36
  Q 240.15 100.44 240.69 97.44
  Q 240.99 95.78 241.56 94.81
  Q 245.34 88.42 240.53 83.17
  A 1.32 1.32 70.8 0 0 239.69 82.75
  Q 235.29 82.32 232.68 85.66
  A 0.91 0.90 -47.3 0 1 231.30 85.72
  L 228.29 82.50"
/>
<path stroke="#59739d" vector-effect="non-scaling-stroke" d="
  M 228.29 82.50
  Q 228.28 81.51 227.50 80.96"
/>
<path stroke="#5f82ba" vector-effect="non-scaling-stroke" d="
  M 227.50 80.96
  Q 222.85 79.45 217.98 81.92
  Q 215.93 82.96 216.01 85.26
  Q 216.24 91.59 215.17 98.05
  Q 215.15 98.14 214.99 99.97
  Q 214.76 102.51 212.44 103.69
  Q 209.98 104.93 210.50 102.00
  Q 211.29 97.55 211.81 93.06
  Q 212.20 89.73 210.96 88.00"
/>
<path stroke="#6b88c3" vector-effect="non-scaling-stroke" d="
  M 187.25 105.54
  Q 184.82 107.44 183.49 105.16
  Q 183.32 104.86 183.69 104.91
  Q 184.25 104.99 183.94 104.37
  Q 181.06 98.58 184.19 92.94
  Q 184.53 92.32 184.28 92.09
  A 0.94 0.22 41.5 0 1 183.82 91.44
  L 183.96 90.18
  Q 183.98 90.02 184.39 89.34
  Q 184.64 88.93 184.00 88.71"
/>
<path stroke="#3f5986" vector-effect="non-scaling-stroke" d="
  M 227.50 80.96
  L 226.96 81.75"
/>
<path stroke="#a2b4d1" vector-effect="non-scaling-stroke" d="
  M 226.96 81.75
  Q 222.79 81.26 217.84 83.41
  A 0.91 0.90 -19.1 0 0 217.32 84.46
  Q 217.99 87.17 217.64 89.99
  Q 216.17 101.65 214.15 113.23
  Q 211.85 126.43 210.43 140.47
  A 1.11 1.01 0.2 0 0 211.64 141.57
  L 215.00 141.29"
/>
<path stroke="#3f5986" vector-effect="non-scaling-stroke" d="
  M 215.00 141.29
  Q 213.55 141.86 211.99 141.98
  Q 211.72 142.01 211.57 142.14
  Q 211.33 142.34 211.31 142.55
  A 0.81 0.46 11.0 0 0 211.98 143.12
  Q 214.48 143.70 216.50 143.25
  Q 221.73 142.08 221.47 136.50
  Q 221.18 130.35 222.76 124.46
  Q 223.35 122.24 223.55 119.82
  Q 223.75 117.45 224.28 115.15
  Q 225.29 110.74 225.53 108.23
  Q 225.96 103.72 226.74 99.25
  Q 226.82 98.83 226.71 98.46
  A 1.73 0.63 65.1 0 1 226.63 97.52
  Q 228.64 90.15 228.29 82.50"
/>
<path stroke="#435f8c" vector-effect="non-scaling-stroke" d="
  M 243.17 135.33
  Q 243.80 138.70 247.07 137.62
  Q 248.83 137.04 248.98 137.00
  Q 256.04 135.16 262.50 131.71"
/>
<path stroke="#3d5a92" vector-effect="non-scaling-stroke" d="
  M 262.50 131.71
  Q 265.11 130.62 266.25 128.04"
/>
<path stroke="#435f8c" vector-effect="non-scaling-stroke" d="
  M 266.25 128.04
  Q 269.08 124.98 271.25 120.97
  A 0.83 0.83 41.3 0 1 272.66 120.88
  Q 273.88 122.58 274.37 125.03
  Q 275.71 131.59 281.94 130.49"
/>
<path stroke="#7ca1c8" vector-effect="non-scaling-stroke" d="
  M 285.75 138.79
  L 287.22 138.50
  Q 288.09 138.33 287.19 138.29
  Q 255.76 136.84 226.18 147.41
  Q 215.17 151.34 196.44 160.44
  Q 192.98 162.12 191.99 164.33"
/>
<path stroke="#3c5d99" vector-effect="non-scaling-stroke" d="
  M 191.99 164.33
  L 189.89 166.03"
/>
<path stroke="#435f8c" vector-effect="non-scaling-stroke" d="
  M 179.61 138.76
  Q 179.41 140.14 178.57 141.40
  Q 178.16 142.03 178.10 142.59
  Q 177.89 144.55 179.33 140.31
  A 1.80 1.78 89.1 0 1 180.39 139.20
  Q 182.00 138.60 182.50 137.00
  Q 183.70 133.13 185.71 129.62
  Q 186.62 128.04 186.69 126.19
  Q 186.79 123.57 189.06 122.06
  Q 192.94 119.48 192.16 124.08
  Q 191.10 130.36 189.19 136.44
  Q 187.82 140.79 188.52 144.28
  Q 188.56 144.51 188.90 147.39
  Q 189.20 150.03 192.52 149.14
  A 1.36 1.36 -40.0 0 1 193.45 149.22
  Q 196.68 150.74 199.18 148.82
  Q 200.32 147.95 202.03 146.42
  Q 203.47 145.15 204.21 143.25"
/>
<path stroke="#5c7da8" vector-effect="non-scaling-stroke" d="
  M 324.54 57.00
  L 324.37 57.43"
/>
<path stroke="#3f5994" vector-effect="non-scaling-stroke" d="
  M 328.75 75.71
  Q 326.08 77.70 320.00 81.00
  Q 316.71 82.79 314.11 86.23
  Q 312.42 88.48 311.05 88.75
  Q 308.58 89.23 307.02 86.06"
/>
<path stroke="#a5b6d6" vector-effect="non-scaling-stroke" d="
  M 307.02 86.06
  Q 302.65 85.45 299.18 87.44
  A 1.91 1.90 78.8 0 0 298.24 88.85
  Q 296.21 104.18 288.29 117.50"
/>
<path stroke="#425c8b" vector-effect="non-scaling-stroke" d="
  M 288.29 117.50
  L 286.95 115.20
  A 1.37 0.89 -61.3 0 1 286.88 114.26
  Q 288.18 109.43 288.31 104.46
  Q 288.37 102.54 289.06 99.80
  Q 290.10 95.71 289.00 91.25
  Q 288.54 89.40 287.60 90.42"
/>
<path stroke="#a5b6d6" vector-effect="non-scaling-stroke" d="
  M 287.60 90.42
  Q 282.74 89.10 278.61 91.66
  A 1.06 0.96 -15.2 0 0 278.12 92.43
  Q 278.01 93.86 278.94 95.27"
/>
<path stroke="#466191" vector-effect="non-scaling-stroke" d="
  M 278.94 95.27
  Q 277.66 95.36 277.41 96.18
  Q 277.01 97.51 275.75 97.54
  A 1.10 0.97 16.9 0 0 274.96 97.90
  Q 273.79 99.40 273.22 97.05
  Q 272.58 94.43 270.96 96.00"
/>
<path stroke="#a5b6d6" vector-effect="non-scaling-stroke" d="
  M 270.96 96.00
  Q 266.08 90.42 260.88 96.15"
/>
<path stroke="#466191" vector-effect="non-scaling-stroke" d="
  M 260.88 96.15
  L 259.41 94.78
  A 1.07 0.67 32.0 0 1 259.03 94.00
  L 260.50 81.00
  Q 260.80 78.35 260.25 77.25
  Q 259.88 76.51 259.04 76.75"
/>
<path stroke="#a5b6d6" vector-effect="non-scaling-stroke" d="
  M 259.04 76.75
  Q 259.06 74.82 257.57 75.19
  Q 256.21 75.52 255.88 75.55
  Q 254.15 75.70 252.50 76.29"
/>
<path stroke="#6284bf" vector-effect="non-scaling-stroke" d="
  M 252.50 76.29
  Q 251.70 76.31 251.69 75.80
  A 0.96 0.64 -16.6 0 1 252.27 75.10
  Q 255.48 73.69 258.94 74.23
  A 1.52 1.50 71.2 0 1 259.80 74.66
  Q 260.77 75.61 261.59 76.69
  Q 262.52 77.91 262.54 79.60
  Q 262.61 84.32 262.00 89.01
  Q 261.64 91.79 264.35 91.09
  Q 269.98 89.62 278.28 89.55
  Q 278.83 89.55 279.36 89.38
  Q 282.89 88.23 286.37 88.56
  Q 289.53 88.85 291.03 88.78
  Q 293.38 88.67 295.75 88.73
  A 1.19 0.97 -63.2 0 0 296.58 88.36
  L 299.57 85.27
  A 1.80 1.22 -26.6 0 0 300.03 84.45
  Q 301.34 76.69 297.75 71.25
  Q 294.69 66.61 293.14 64.04
  Q 291.42 61.19 289.69 60.03
  Q 286.69 58.03 283.25 57.50
  Q 275.95 56.37 268.54 58.09
  Q 264.80 58.97 261.84 59.10
  Q 248.74 59.72 236.21 63.62
  Q 234.18 64.25 232.23 64.69
  Q 229.36 65.35 228.25 65.75
  Q 223.99 67.30 219.50 67.93
  A 1.80 1.79 21.3 0 0 218.61 68.32
  Q 213.30 72.58 206.50 73.44
  A 2.01 1.86 20.7 0 0 205.61 73.80
  Q 202.40 76.25 197.81 79.06
  Q 191.28 83.07 184.00 88.71"
/>
<path stroke="#5471b1" vector-effect="non-scaling-stroke" d="
  M 184.00 88.71
  Q 174.26 95.64 166.79 105.00"
/>
<path stroke="#a0aaba" vector-effect="non-scaling-stroke" d="
  M 259.04 76.75
  L 254.99 102.03
  Q 254.27 106.55 256.26 102.45
  Q 257.76 99.35 260.88 96.15"
/>
<path stroke="#a0aaba" vector-effect="non-scaling-stroke" d="
  M 270.96 96.00
  Q 273.32 105.51 270.99 114.37
  Q 268.50 123.81 261.73 129.34
  Q 254.21 135.47 243.17 135.33"
/>
<path stroke="#a2b4d1" vector-effect="non-scaling-stroke" d="
  M 243.17 135.33
  Q 242.61 134.73 242.71 133.00
  Q 243.02 127.36 244.03 121.81
  Q 245.89 111.45 247.21 101.00"
/>
<path stroke="#9ca5b4" vector-effect="non-scaling-stroke" d="
  M 215.00 141.29
  L 219.03 139.59
  A 1.17 1.16 -12.3 0 0 219.75 138.49
  Q 219.68 134.27 219.92 130.16
  Q 220.12 126.79 220.95 121.90
  Q 224.17 102.73 227.00 83.50
  Q 227.07 83.05 226.96 81.75"
/>
<path stroke="#7396bd" vector-effect="non-scaling-stroke" d="
  M 253.00 141.79
  Q 245.41 142.81 238.12 144.99
  Q 234.22 146.15 223.69 149.66
  Q 207.08 155.19 191.99 164.33"
/>
<path stroke="#3b517b" vector-effect="non-scaling-stroke" d="
  M 266.25 128.04
  Q 263.55 129.00 262.50 131.71"
/>
<path stroke="#717548" vector-effect="non-scaling-stroke" d="
  M 349.33 94.11
  Q 348.53 109.22 339.25 121.46"
/>
<path stroke="#8f9153" vector-effect="non-scaling-stroke" d="
  M 339.25 121.46
  Q 329.50 133.96 316.25 142.71"
/>
<path stroke="#93966e" vector-effect="non-scaling-stroke" d="
  M 316.25 142.71
  Q 300.91 153.07 281.56 160.31
  Q 247.22 173.18 211.75 172.00
  Q 183.69 171.07 161.25 156.21"
/>
<path stroke="#39475b" vector-effect="non-scaling-stroke" d="
  M 194.70 119.98
  Q 187.90 119.13 184.64 124.29
  Q 183.70 125.78 182.83 129.30
  Q 181.85 133.25 181.19 134.44
  Q 179.70 137.10 179.61 138.76"
/>
<path stroke="#3b5172" vector-effect="non-scaling-stroke" d="
  M 179.61 138.76
  L 167.43 154.40
  A 0.65 0.62 41.9 0 0 167.50 155.24
  Q 172.23 160.03 178.03 161.86
  Q 178.43 161.98 178.83 162.37
  Q 180.04 163.54 182.25 163.25
  Q 183.27 163.12 184.17 163.95
  Q 185.14 164.85 185.71 165.08
  Q 187.76 165.89 189.89 166.03"
/>
<path stroke="#324667" vector-effect="non-scaling-stroke" d="
  M 189.89 166.03
  Q 200.37 169.61 211.44 169.57
  Q 211.92 169.56 212.37 169.81
  Q 212.59 169.93 212.81 170.04
  Q 213.23 170.25 213.75 170.27
  Q 225.05 170.70 236.26 169.30
  Q 236.41 169.28 240.76 169.02
  Q 245.46 168.74 249.12 165.69"
/>
<path stroke="#5d5f3e" vector-effect="non-scaling-stroke" d="
  M 249.12 165.69
  Q 257.41 164.07 265.50 161.50
  Q 267.64 160.82 273.14 159.54
  Q 277.02 158.63 280.67 157.00
  Q 281.81 156.49 283.98 156.11
  Q 285.40 155.87 287.35 155.20
  A 0.83 0.82 -10.8 0 0 287.91 154.38
  Q 287.70 150.80 288.54 146.75"
/>
<path stroke="#466396" vector-effect="non-scaling-stroke" d="
  M 250.50 145.96
  L 245.25 147.71"
/>
<path stroke="#7396bd" vector-effect="non-scaling-stroke" d="
  M 245.25 147.71
  Q 243.41 148.57 241.42 148.61
  Q 239.11 148.65 238.11 148.86
  Q 235.39 149.42 234.75 149.25
  Q 233.17 148.84 231.72 149.32
  Q 231.24 149.48 230.76 149.40
  Q 228.49 149.02 225.75 150.50
  Q 217.59 154.90 214.75 162.71"
/>
<path stroke="#7396bd" vector-effect="non-scaling-stroke" d="
  M 214.75 162.71
  Q 214.41 162.75 214.48 163.47"
/>
<path stroke="#496da0" vector-effect="non-scaling-stroke" d="
  M 214.48 163.47
  Q 213.13 165.18 213.27 167.69
  A 0.71 0.70 5.7 0 0 213.80 168.33
  Q 216.20 168.95 220.00 168.75
  Q 225.60 168.46 231.19 167.98
  A 0.93 0.73 -76.0 0 0 231.84 167.47
  Q 231.96 167.24 232.14 167.05
  Q 232.41 166.76 232.97 166.69
  Q 238.88 165.99 244.69 164.79
  A 0.61 0.49 84.9 0 0 245.09 164.20
  Q 245.07 163.37 246.62 163.93
  A 0.23 0.22 -59.4 0 1 246.71 164.29
  Q 244.81 166.44 248.21 164.75"
/>
<path stroke="#323f5e" vector-effect="non-scaling-stroke" d="
  M 334.00 75.46
  L 333.26 76.73
  A 0.34 0.31 14.9 0 0 333.56 77.20
  Q 340.83 77.49 344.61 82.49
  Q 347.64 86.49 347.74 93.24
  Q 347.84 100.60 344.70 107.27
  Q 343.11 110.65 340.65 115.41
  Q 338.54 119.49 335.49 122.99
  Q 327.91 131.70 318.88 138.84
  Q 316.63 140.62 313.44 142.32
  Q 309.58 144.38 307.81 145.56
  Q 304.45 147.81 295.31 152.56
  Q 292.60 153.97 290.44 153.86
  A 0.69 0.67 85.4 0 1 289.82 153.32
  Q 289.33 150.94 289.84 148.52
  Q 290.33 146.18 288.54 146.75"
/>
<path stroke="#5e655c" vector-effect="non-scaling-stroke" d="
  M 288.54 146.75
  Q 288.72 144.52 289.00 144.00
  Q 289.65 142.81 288.71 143.08
  A 0.90 0.86 -31.2 0 1 287.89 142.90
  Q 286.75 141.90 285.26 141.94
  Q 283.43 141.99 283.35 141.99
  Q 274.23 141.27 265.36 141.80
  Q 264.88 141.82 262.97 142.08
  L 252.75 143.46"
/>
<path stroke="#334c85" vector-effect="non-scaling-stroke" d="
  M 252.75 143.46
  Q 252.59 142.56 253.00 141.79"
/>
<path stroke="#738fb4" vector-effect="non-scaling-stroke" d="
  M 253.00 141.79
  Q 269.20 138.45 285.75 138.79"
/>
<path stroke="#3c578f" vector-effect="non-scaling-stroke" d="
  M 285.75 138.79
  L 309.48 140.97
  Q 311.17 141.12 312.62 140.47
  Q 316.21 138.86 319.34 135.81
  Q 319.45 135.70 321.81 133.92
  Q 323.66 132.54 322.88 130.20
  Q 322.16 128.02 321.96 127.60
  Q 321.20 126.01 318.99 126.39
  Q 318.47 126.48 318.04 126.33
  Q 313.74 124.81 309.18 125.15
  A 1.73 1.59 -63.3 0 0 308.28 125.49
  Q 306.81 126.57 305.40 127.73
  Q 303.58 129.22 301.77 129.41
  Q 296.99 129.94 293.57 127.37
  Q 291.77 126.01 290.12 127.55
  Q 286.40 131.00 281.94 130.49"
/>
<path stroke="#3a4d78" vector-effect="non-scaling-stroke" d="
  M 281.94 130.49
  Q 287.13 128.00 289.81 125.31
  Q 292.16 122.97 294.51 122.09"
/>
<path stroke="#99a2bd" vector-effect="non-scaling-stroke" d="
  M 294.51 122.09
  Q 294.31 123.57 295.29 124.42
  Q 296.03 125.07 297.38 124.93
  Q 300.69 124.58 303.30 122.51
  A 0.85 0.83 66.0 0 0 303.60 121.70
  Q 302.56 116.02 303.00 111.75
  Q 304.02 101.96 307.02 86.06"
/>
<path stroke="#a0aaba" vector-effect="non-scaling-stroke" d="
  M 294.51 122.09
  Q 294.50 116.25 295.59 110.72
  Q 295.94 108.92 295.11 109.55
  Q 294.83 109.76 294.68 110.19
  Q 291.88 118.40 286.33 125.05
  Q 285.22 126.37 283.70 127.18
  Q 278.99 129.69 276.89 126.55
  Q 275.63 124.66 275.63 121.11
  Q 275.63 118.40 276.25 115.25
  Q 277.86 107.10 278.94 95.27"
/>
<path stroke="#9ca5b4" vector-effect="non-scaling-stroke" d="
  M 287.60 90.42
  Q 287.16 101.25 284.82 111.19
  Q 284.33 113.31 284.25 115.48
  Q 283.99 123.01 288.29 117.50"
/>
<path stroke="#6a7355" vector-effect="non-scaling-stroke" d="
  M 156.25 155.29
  L 157.20 155.33
  A 0.54 0.48 5.8 0 0 157.73 154.95
  Q 157.88 154.15 158.69 154.17
  Q 159.18 154.17 159.68 154.59
  Q 160.55 155.31 161.25 156.21"
/>
<path stroke="#ccd083" vector-effect="non-scaling-stroke" d="
  M 161.25 156.21
  Q 158.91 156.57 160.67 158.33
  Q 167.93 165.55 177.48 169.31
  Q 194.35 175.95 212.50 177.05
  Q 237.13 178.55 260.90 172.91
  Q 270.64 170.60 280.13 167.40
  Q 296.09 162.04 311.56 153.31
  Q 317.23 150.12 320.54 147.50"
/>
<path stroke="#c8ca68" vector-effect="non-scaling-stroke" d="
  M 320.54 147.50
  Q 333.78 139.08 343.77 126.97"
/>
<path stroke="#aaaf5d" vector-effect="non-scaling-stroke" d="
  M 343.77 126.97
  Q 353.81 115.59 355.25 101.75
  Q 355.58 98.62 356.01 97.28
  A 0.52 0.52 19.9 0 0 355.71 96.64
  L 349.33 94.11"
/>
<path stroke="#6a7355" vector-effect="non-scaling-stroke" d="
  M 349.33 94.11
  Q 349.15 87.90 347.00 83.25
  Q 343.23 75.10 334.00 75.46"
/>
<path stroke="#6b7972" vector-effect="non-scaling-stroke" d="
  M 334.00 75.46
  L 332.25 74.71"
/>
<path stroke="#cfcd5b" vector-effect="non-scaling-stroke" d="
  M 343.77 126.97
  Q 343.70 124.82 341.31 124.19
  A 0.91 0.72 25.2 0 1 340.69 122.94
  Q 341.35 122.19 340.61 122.35
  A 0.44 0.43 -24.3 0 1 340.15 122.18
  Q 339.80 121.71 339.25 121.46"
/>
<path stroke="#5e6c65" vector-effect="non-scaling-stroke" d="
  M 249.12 165.69
  Q 248.28 165.09 248.21 164.75"
/>
<path stroke="#748677" vector-effect="non-scaling-stroke" d="
  M 248.21 164.75
  L 246.45 162.99
  A 0.34 0.31 -39.8 0 1 246.52 162.51
  Q 246.85 162.27 246.79 161.75"
/>
<path stroke="#9eaf94" vector-effect="non-scaling-stroke" d="
  M 246.79 161.75
  Q 247.08 162.11 247.46 162.29
  Q 247.90 162.50 247.77 161.96
  Q 247.53 161.01 248.25 160.21"
/>
<path stroke="#bdb43d" vector-effect="non-scaling-stroke" d="
  M 248.25 160.21
  L 248.71 160.25"
/>
<path stroke="#969953" vector-effect="non-scaling-stroke" d="
  M 248.71 160.25
  Q 249.36 162.05 250.25 160.46"
/>
<path stroke="#9d9b46" vector-effect="non-scaling-stroke" d="
  M 250.25 160.46
  L 255.25 159.50"
/>
<path stroke="#9d9b46" vector-effect="non-scaling-stroke" d="
  M 255.25 159.50
  Q 254.86 160.39 256.14 159.82
  Q 257.50 159.21 259.00 159.54"
/>
<path stroke="#89853c" vector-effect="non-scaling-stroke" d="
  M 259.00 159.54
  L 259.04 160.00"
/>
<path stroke="#89853c" vector-effect="non-scaling-stroke" d="
  M 259.04 160.00
  Q 258.07 160.73 259.65 160.55
  Q 259.97 160.51 260.33 160.36
  Q 262.97 159.23 265.81 158.81
  Q 266.40 158.73 267.00 158.00"
/>
<path stroke="#89853c" vector-effect="non-scaling-stroke" d="
  M 267.00 158.00
  Q 269.26 157.73 271.21 156.50"
/>
<path stroke="#89853c" vector-effect="non-scaling-stroke" d="
  M 271.21 156.50
  Q 272.35 155.85 273.44 155.15
  Q 275.13 154.06 272.25 154.54"
/>
<path stroke="#9d9b46" vector-effect="non-scaling-stroke" d="
  M 272.25 154.54
  L 269.00 155.21"
/>
<path stroke="#969953" vector-effect="non-scaling-stroke" d="
  M 269.00 155.21
  L 274.27 152.21
  A 1.27 1.04 -12.9 0 0 274.85 151.46
  L 275.21 149.75"
/>
<path stroke="#bdb43d" vector-effect="non-scaling-stroke" d="
  M 275.21 149.75
  Q 275.44 148.75 274.86 148.08
  A 1.69 1.29 27.5 0 1 274.47 147.25
  Q 274.23 145.42 272.37 145.32
  A 0.40 0.28 69.4 0 1 272.11 145.14
  L 272.01 144.99
  A 0.84 0.49 -7.0 0 0 271.40 144.73
  Q 267.14 144.56 262.97 145.29
  Q 260.37 145.74 256.84 146.19
  Q 253.74 146.58 250.75 147.54"
/>
<path stroke="#717c6d" vector-effect="non-scaling-stroke" d="
  M 250.75 147.54
  Q 249.30 147.24 250.50 145.96"
/>
<path stroke="#5e6c65" vector-effect="non-scaling-stroke" d="
  M 250.50 145.96
  Q 249.41 143.70 252.75 143.46"
/>
<path stroke="#f1ee81" vector-effect="non-scaling-stroke" d="
  M 320.54 147.50
  L 316.25 142.71"
/>
<path stroke="#89b0cf" vector-effect="non-scaling-stroke" d="
  M 214.48 163.47
  Q 215.99 163.17 217.49 163.17
  Q 218.77 163.17 220.46 162.88
  Q 222.74 162.49 225.04 163.25"
/>
<path stroke="#89b0cf" vector-effect="non-scaling-stroke" d="
  M 225.04 163.25
  L 219.55 163.78
  Q 218.64 163.87 219.52 164.01
  L 220.75 164.21"
/>
<path stroke="#89b0cf" vector-effect="non-scaling-stroke" d="
  M 220.75 164.21
  L 228.25 164.29"
/>
<path stroke="#6c91c1" vector-effect="non-scaling-stroke" d="
  M 228.25 164.29
  L 222.80 164.84
  A 0.55 0.27 -11.3 0 0 222.22 165.28
  Q 222.39 165.53 223.26 165.48
  Q 226.69 165.30 230.04 164.50"
/>
<path stroke="#6c91c1" vector-effect="non-scaling-stroke" d="
  M 230.04 164.50
  Q 231.45 164.71 232.75 164.21"
/>
<path stroke="#6c91c1" vector-effect="non-scaling-stroke" d="
  M 232.75 164.21
  Q 235.81 164.14 238.77 163.31
  Q 239.28 163.16 239.50 162.87
  Q 240.01 162.20 238.04 162.50"
/>
<path stroke="#6c91c1" vector-effect="non-scaling-stroke" d="
  M 238.04 162.50
  Q 237.61 162.10 237.00 162.21"
/>
<path stroke="#b2d9ec" vector-effect="non-scaling-stroke" d="
  M 228.00 162.54
  Q 228.01 162.92 227.75 163.21"
/>
<path stroke="#b2d9ec" vector-effect="non-scaling-stroke" d="
  M 227.75 163.21
  L 225.04 163.25"
/>
<path stroke="#a6bfcc" vector-effect="non-scaling-stroke" d="
  M 247.04 148.00
  Q 246.84 149.01 246.25 149.00
  Q 244.48 148.98 245.23 149.96"
/>
<path stroke="#b2d9ec" vector-effect="non-scaling-stroke" d="
  M 245.23 149.96
  L 245.46 157.75"
/>
<path stroke="#b2d9ec" vector-effect="non-scaling-stroke" d="
  M 245.46 157.75
  L 245.00 157.79"
/>
<path stroke="#b2d9ec" vector-effect="non-scaling-stroke" d="
  M 245.00 157.79
  L 244.50 157.71"
/>
<path stroke="#b2d9ec" vector-effect="non-scaling-stroke" d="
  M 244.50 157.71
  Q 244.28 156.73 243.30 157.02
  Q 237.46 158.73 231.51 160.03
  Q 227.88 160.83 224.24 160.36
  Q 223.60 160.28 222.85 159.92
  Q 220.18 158.65 221.38 160.93"
/>
<path stroke="#b2d9ec" vector-effect="non-scaling-stroke" d="
  M 221.38 160.93
  Q 219.69 161.14 218.01 161.96
  Q 217.56 162.18 218.04 162.06
  Q 220.76 161.40 223.46 161.93
  Q 225.04 162.24 226.08 162.24
  Q 227.41 162.24 228.75 162.29"
/>
<path stroke="#b2d9ec" vector-effect="non-scaling-stroke" d="
  M 228.75 162.29
  Q 228.49 162.62 228.00 162.54"
/>
<path stroke="#b2d9ec" vector-effect="non-scaling-stroke" d="
  M 228.00 162.54
  Q 221.37 162.12 214.75 162.71"
/>
<path stroke="#85a6c5" vector-effect="non-scaling-stroke" d="
  M 250.00 148.04
  Q 249.29 147.83 248.75 148.29"
/>
<path stroke="#798ca5" vector-effect="non-scaling-stroke" d="
  M 248.75 148.29
  Q 247.93 147.92 247.04 148.00"
/>
<path stroke="#85a6c5" vector-effect="non-scaling-stroke" d="
  M 247.04 148.00
  Q 246.21 147.59 245.25 147.71"
/>
<path stroke="#89853c" vector-effect="non-scaling-stroke" d="
  M 271.21 156.50
  Q 268.63 156.22 267.00 158.00"
/>
<path stroke="#89853c" vector-effect="non-scaling-stroke" d="
  M 267.00 158.00
  L 265.04 158.00"
/>
<path stroke="#9d9b46" vector-effect="non-scaling-stroke" d="
  M 265.04 158.00
  L 268.25 156.54"
/>
<path stroke="#9d9b46" vector-effect="non-scaling-stroke" d="
  M 262.25 158.46
  L 259.00 159.54"
/>
<path stroke="#b1b150" vector-effect="non-scaling-stroke" d="
  M 255.25 159.50
  L 260.25 158.29"
/>
<path stroke="#89b0cf" vector-effect="non-scaling-stroke" d="
  M 246.79 161.75
  L 245.18 160.77
  A 1.18 1.16 52.7 0 0 244.27 160.64
  Q 241.37 161.44 238.37 161.72
  Q 238.28 161.73 237.65 161.68
  Q 237.09 161.63 237.00 162.21"
/>
<path stroke="#95bade" vector-effect="non-scaling-stroke" d="
  M 237.00 162.21
  Q 236.47 162.23 236.00 162.46"
/>
<path stroke="#b2d9ec" vector-effect="non-scaling-stroke" d="
  M 236.00 162.46
  Q 235.45 162.12 234.75 162.21"
/>
<path stroke="#b2d9ec" vector-effect="non-scaling-stroke" d="
  M 234.75 162.21
  Q 239.80 160.04 245.25 159.29"
/>
<path stroke="#b2d9ec" vector-effect="non-scaling-stroke" d="
  M 245.25 159.29
  Q 246.46 158.89 245.46 157.75"
/>
<path stroke="#aaaf5d" vector-effect="non-scaling-stroke" d="
  M 256.75 158.25
  Q 254.52 159.41 252.50 159.25
  Q 250.86 159.12 250.25 160.46"
/>
<path stroke="#aaaf5d" vector-effect="non-scaling-stroke" d="
  M 269.00 155.21
  L 268.00 155.21"
/>
<path stroke="#a3ac69" vector-effect="non-scaling-stroke" d="
  M 268.00 155.21
  Q 268.18 154.99 268.21 154.75"
/>
<path stroke="#a3ac69" vector-effect="non-scaling-stroke" d="
  M 268.21 154.75
  Q 271.92 154.09 274.00 151.04"
/>
<path stroke="#89853c" vector-effect="non-scaling-stroke" d="
  M 259.04 160.00
  Q 261.80 159.84 264.21 158.50"
/>
<path stroke="#9d9b46" vector-effect="non-scaling-stroke" d="
  M 272.25 154.54
  L 268.25 156.54"
/>
<path stroke="#b1b150" vector-effect="non-scaling-stroke" d="
  M 268.25 156.54
  L 264.25 156.96"
/>
<path stroke="#b1b150" vector-effect="non-scaling-stroke" d="
  M 264.25 156.96
  Q 264.22 156.12 263.00 156.46"
/>
<path stroke="#aaaf5d" vector-effect="non-scaling-stroke" d="
  M 263.00 156.46
  L 268.00 155.21"
/>
<path stroke="#cac754" vector-effect="non-scaling-stroke" d="
  M 275.21 149.75
  Q 274.74 150.56 274.00 151.04"
/>
<path stroke="#cac754" vector-effect="non-scaling-stroke" d="
  M 274.00 151.04
  Q 270.41 153.59 266.25 155.00"
/>
<path stroke="#cac754" vector-effect="non-scaling-stroke" d="
  M 266.25 155.00
  Q 262.96 154.74 260.29 156.50"
/>
<path stroke="#cac754" vector-effect="non-scaling-stroke" d="
  M 260.29 156.50
  L 260.29 156.75"
/>
<path stroke="#cac754" vector-effect="non-scaling-stroke" d="
  M 260.29 156.75
  L 256.75 158.25"
/>
<path stroke="#cac754" vector-effect="non-scaling-stroke" d="
  M 256.75 158.25
  Q 253.59 158.50 250.50 159.25
  Q 249.03 159.60 248.71 160.25"
/>
<path stroke="#d2de95" vector-effect="non-scaling-stroke" d="
  M 248.25 160.21
  Q 247.15 155.49 248.04 150.75"
/>
<path stroke="#d2de95" vector-effect="non-scaling-stroke" d="
  M 248.04 150.75
  L 250.00 148.04"
/>
<path stroke="#a5ab6e" vector-effect="non-scaling-stroke" d="
  M 250.00 148.04
  L 250.75 147.54"
/>
<path stroke="#b1b150" vector-effect="non-scaling-stroke" d="
  M 258.25 158.29
  Q 256.55 158.50 255.25 159.50"
/>
<path stroke="#789bd0" vector-effect="non-scaling-stroke" d="
  M 238.04 162.50
  L 232.75 164.21"
/>
<path stroke="#789bd0" vector-effect="non-scaling-stroke" d="
  M 230.04 164.50
  Q 229.61 164.10 229.00 164.21"
/>
<path stroke="#95bade" vector-effect="non-scaling-stroke" d="
  M 229.00 164.21
  Q 230.25 164.14 231.25 163.50"
/>
<path stroke="#95bade" vector-effect="non-scaling-stroke" d="
  M 229.00 164.21
  L 228.25 164.29"
/>
<path stroke="#b2d9ec" vector-effect="non-scaling-stroke" d="
  M 234.00 162.46
  L 231.25 163.50"
/>
<path stroke="#b2d9ec" vector-effect="non-scaling-stroke" d="
  M 231.25 163.50
  L 220.75 164.21"
/>
<path stroke="#b2d9ec" vector-effect="non-scaling-stroke" d="
  M 231.75 162.54
  Q 229.89 163.55 227.75 163.21"
/>
<path stroke="#b2d9ec" vector-effect="non-scaling-stroke" d="
  M 245.00 157.79
  L 240.00 159.46"
/>
<path stroke="#b2d9ec" vector-effect="non-scaling-stroke" d="
  M 240.00 159.46
  Q 238.49 160.35 236.75 160.29"
/>
<path stroke="#b2d9ec" vector-effect="non-scaling-stroke" d="
  M 236.75 160.29
  Q 233.88 160.46 231.29 161.75"
/>
<path stroke="#b2d9ec" vector-effect="non-scaling-stroke" d="
  M 231.29 161.75
  L 230.50 162.46"
/>
<path stroke="#b2d9ec" vector-effect="non-scaling-stroke" d="
  M 230.50 162.46
  L 228.75 162.29"
/>
<path stroke="#b2d9ec" vector-effect="non-scaling-stroke" d="
  M 245.25 159.29
  L 240.00 159.46"
/>
<path stroke="#b2d9ec" vector-effect="non-scaling-stroke" d="
  M 244.50 157.71
  Q 241.53 158.49 238.53 159.16
  Q 238.45 159.17 233.06 160.68
  Q 227.46 162.23 221.38 160.93"
/>
<path stroke="#a6bfcc" vector-effect="non-scaling-stroke" d="
  M 248.75 148.29
  L 247.25 149.96"
/>
<path stroke="#a6bfcc" vector-effect="non-scaling-stroke" d="
  M 247.25 149.96
  Q 246.57 150.62 245.23 149.96"
/>
<path stroke="#b2d9ec" vector-effect="non-scaling-stroke" d="
  M 248.04 150.75
  Q 248.29 149.47 247.25 149.96"
/>
<path stroke="#9d9b46" vector-effect="non-scaling-stroke" d="
  M 265.04 158.00
  L 264.21 158.50"
/>
<path stroke="#9d9b46" vector-effect="non-scaling-stroke" d="
  M 264.21 158.50
  L 262.25 158.46"
/>
<path stroke="#b1b150" vector-effect="non-scaling-stroke" d="
  M 262.25 158.46
  Q 263.53 157.68 261.04 158.00"
/>
<path stroke="#b1b150" vector-effect="non-scaling-stroke" d="
  M 264.25 156.96
  L 261.04 158.00"
/>
<path stroke="#b1b150" vector-effect="non-scaling-stroke" d="
  M 261.04 158.00
  Q 260.77 158.37 260.25 158.29"
/>
<path stroke="#b1b150" vector-effect="non-scaling-stroke" d="
  M 260.25 158.29
  L 259.00 158.21"
/>
<path stroke="#aaaf5d" vector-effect="non-scaling-stroke" d="
  M 262.75 156.54
  L 259.00 158.21"
/>
<path stroke="#aaaf5d" vector-effect="non-scaling-stroke" d="
  M 259.00 158.21
  L 258.25 158.29"
/>
<path stroke="#aaaf5d" vector-effect="non-scaling-stroke" d="
  M 258.25 158.29
  L 256.75 158.25"
/>
<path stroke="#b2d9ec" vector-effect="non-scaling-stroke" d="
  M 234.75 162.21
  L 234.00 162.46"
/>
<path stroke="#b2d9ec" vector-effect="non-scaling-stroke" d="
  M 234.00 162.46
  Q 232.88 162.05 231.75 162.54"
/>
<path stroke="#b2d9ec" vector-effect="non-scaling-stroke" d="
  M 231.75 162.54
  L 230.50 162.46"
/>
<path stroke="#b2d9ec" vector-effect="non-scaling-stroke" d="
  M 231.29 161.75
  Q 234.22 161.72 236.75 160.29"
/>
<path stroke="#95bade" vector-effect="non-scaling-stroke" d="
  M 236.00 162.46
  Q 233.76 163.60 231.25 163.50"
/>
<path stroke="#aaaf5d" vector-effect="non-scaling-stroke" d="
  M 263.00 156.46
  L 262.75 156.54"
/>
<path stroke="#a3ac69" vector-effect="non-scaling-stroke" d="
  M 262.75 156.54
  L 260.29 156.75"
/>
<path stroke="#a3ac69" vector-effect="non-scaling-stroke" d="
  M 260.29 156.50
  L 266.25 155.00"
/>
<path stroke="#a3ac69" vector-effect="non-scaling-stroke" d="
  M 268.21 154.75
  Q 267.26 155.10 266.25 155.00"
/>
<path stroke="#a0aaba" vector-effect="non-scaling-stroke" d="
  M 197.45 97.67
  L 188.04 114.00
  Q 187.76 114.49 188.31 114.36
  L 195.59 112.71
  A 0.89 0.77 -87.9 0 0 196.18 112.08
  Q 198.02 104.57 198.78 98.15
  Q 199.19 94.65 197.45 97.67"
/>
<path stroke="#99a2bd" vector-effect="non-scaling-stroke" d="
  M 315.19 87.44
  Q 307.54 96.89 307.97 108.75
  Q 308.17 114.23 310.81 117.69
  Q 315.05 123.24 322.29 120.62
  Q 332.23 117.03 333.86 106.52
  Q 334.30 103.71 332.29 104.17
  A 0.96 0.81 -85.8 0 0 331.67 104.80
  Q 330.66 108.08 329.10 111.14
  Q 327.67 113.95 324.44 114.94
  Q 321.94 115.70 320.20 114.56
  Q 318.84 113.67 318.10 111.35
  Q 316.96 107.77 317.60 103.93
  A 0.71 0.70 -0.6 0 1 318.17 103.35
  Q 324.14 102.27 329.19 98.93
  Q 334.89 95.16 336.25 89.75
  Q 337.56 84.52 334.02 81.86
  Q 331.33 79.84 327.10 80.44
  Q 320.05 81.43 315.19 87.44"
/>
<path stroke="#acb9cf" vector-effect="non-scaling-stroke" d="
  M 253.73 131.36
  Q 264.95 120.89 263.11 104.46"
/>
<path stroke="#9ca5b4" vector-effect="non-scaling-stroke" d="
  M 263.11 104.46
  Q 263.85 99.14 260.70 101.19
  Q 259.65 101.87 258.83 103.28
  Q 252.13 114.64 251.05 127.86
  Q 251.04 127.98 250.86 129.12
  Q 250.47 131.68 253.73 131.36"
/>
<path stroke="#495f84" vector-effect="non-scaling-stroke" d="
  M 263.11 104.46
  Q 256.96 108.16 255.61 115.08
  Q 254.59 120.31 254.36 121.32
  Q 253.28 126.03 253.73 131.36"
/>
<path stroke="#a2b4d1" vector-effect="non-scaling-stroke" d="
  M 234.6748 93.8326
  A 5.14 4.36 117.9 0 0 240.9332 91.3302
  A 5.14 4.36 117.9 0 0 239.4852 84.7474
  A 5.14 4.36 117.9 0 0 233.2268 87.2498
  A 5.14 4.36 117.9 0 0 234.6748 93.8326"
/>
<path stroke="#3f5986" vector-effect="non-scaling-stroke" d="
  M 229.16 138.72
  Q 236.21 142.55 238.05 136.75
  Q 238.51 135.30 238.15 131.62
  Q 237.88 128.85 238.37 126.11
  Q 239.28 120.91 239.29 120.83
  Q 239.72 117.05 240.20 113.24
  Q 240.29 112.46 240.41 111.68
  Q 241.22 106.37 240.77 103.30
  A 0.51 0.48 -8.2 0 0 240.20 102.90
  L 239.54 103.00"
/>
<path stroke="#a2b4d1" vector-effect="non-scaling-stroke" d="
  M 239.54 103.00
  Q 240.06 101.37 239.60 99.79
  A 0.71 0.67 -7.6 0 0 238.93 99.31
  Q 234.48 99.37 230.50 101.34
  A 0.62 0.60 69.5 0 0 230.19 102.05
  Q 231.15 105.81 230.75 108.25
  Q 229.13 118.23 226.81 135.56
  Q 226.43 138.44 229.16 138.72"
/>
<path stroke="#9ca5b4" vector-effect="non-scaling-stroke" d="
  M 239.54 103.00
  Q 238.05 115.04 236.00 127.00
  Q 235.46 130.18 236.35 135.19
  A 0.72 0.57 75.8 0 1 236.01 135.94
  L 229.16 138.72"
/>
<path stroke="#486ba8" vector-effect="non-scaling-stroke" d="
  M 264.98 133.13
  Q 261.80 134.46 263.94 134.25
  A 1.61 1.20 13.0 0 0 264.83 133.86
  L 267.13 131.45
  Q 267.61 130.95 266.95 131.19
  Q 266.02 131.54 265.61 132.47
  A 1.36 1.03 -83.5 0 1 264.98 133.13"
/>
<path stroke="#989fb1" vector-effect="non-scaling-stroke" d="
  M 322.22 86.71
  Q 318.83 92.27 317.88 99.70
  A 0.65 0.65 89.4 0 0 318.62 100.43
  Q 322.80 99.78 324.73 97.45
  Q 329.48 91.72 328.77 84.47
  Q 328.54 82.04 326.32 83.06
  Q 323.71 84.26 322.22 86.71"
/>
<path stroke="#89853c" vector-effect="non-scaling-stroke" d="
  M 270.90 158.08
  Q 270.50 158.22 270.93 158.18
  Q 273.79 157.91 276.27 156.34
  Q 276.97 155.89 276.19 156.17
  L 270.90 158.08"
/>
<path stroke="#f1e23e" vector-effect="non-scaling-stroke" d="
  M 270.96 151.70
  Q 272.34 150.67 270.83 151.50
  Q 267.08 153.56 262.81 154.57
  Q 262.29 154.70 262.81 154.67
  Q 267.26 154.48 270.96 151.70"
/>
<path stroke="#5e7eb4" vector-effect="non-scaling-stroke" d="
  M 231.1594 166.0358
  A 3.39 0.22 -7.7 0 0 227.7705 166.2720
  A 3.39 0.22 -7.7 0 0 224.4406 166.9442
  A 3.39 0.22 -7.7 0 0 227.8295 166.7080
  A 3.39 0.22 -7.7 0 0 231.1594 166.0358"
/>
</g>
<path fill="#ffffff" d="
  M 0.00 0.00
  L 545.00 0.00
  L 545.00 215.00
  L 0.00 215.00
  L 0.00 0.00
  Z
  M 174.50 83.46
  Q 161.88 92.74 152.72 105.46
  Q 145.51 115.47 142.83 127.20
  Q 140.73 136.38 142.27 144.36
  Q 143.94 153.05 149.25 160.54
  L 153.50 166.04
  Q 161.38 174.35 171.77 179.20
  Q 182.11 184.02 193.28 186.35
  Q 217.55 191.39 241.93 188.54
  Q 251.25 187.45 261.63 185.19
  Q 293.40 178.28 321.14 160.86
  Q 334.36 152.56 346.19 139.94
  Q 359.14 126.11 363.42 108.48
  Q 365.30 100.71 363.75 92.50
  Q 360.83 77.09 349.08 67.17
  Q 343.33 62.31 340.19 60.56
  Q 324.96 52.09 307.77 49.15
  Q 291.73 46.42 276.25 47.25
  Q 239.39 49.22 205.44 64.69
  Q 188.06 72.60 174.50 83.46
  Z"
/>
<path fill="#9aa4ab" d="
  M 153.50 166.04
  Q 154.09 166.08 154.00 165.54
  Q 162.69 173.88 172.56 178.44
  Q 191.20 187.05 212.75 188.04
  Q 241.90 189.37 269.75 181.72
  Q 279.98 178.91 288.80 175.70
  Q 299.59 171.79 309.68 166.34
  Q 319.29 161.15 326.73 155.92
  Q 338.99 147.31 348.76 135.76
  Q 359.27 123.35 362.50 109.75
  Q 367.65 88.10 352.08 71.41
  Q 343.01 61.69 330.72 56.56
  Q 316.78 50.73 301.74 49.05
  Q 294.02 48.19 285.10 47.68
  Q 284.52 47.65 283.95 47.67
  Q 261.93 48.53 242.31 52.80
  Q 205.16 60.89 174.75 83.54
  L 174.50 83.46
  Q 188.06 72.60 205.44 64.69
  Q 239.39 49.22 276.25 47.25
  Q 291.73 46.42 307.77 49.15
  Q 324.96 52.09 340.19 60.56
  Q 343.33 62.31 349.08 67.17
  Q 360.83 77.09 363.75 92.50
  Q 365.30 100.71 363.42 108.48
  Q 359.14 126.11 346.19 139.94
  Q 334.36 152.56 321.14 160.86
  Q 293.40 178.28 261.63 185.19
  Q 251.25 187.45 241.93 188.54
  Q 217.55 191.39 193.28 186.35
  Q 182.11 184.02 171.77 179.20
  Q 161.38 174.35 153.50 166.04
  Z"
/>
<path fill="#ffffff" d="
  M 154.00 165.54
  L 149.54 160.25
  Q 135.58 137.32 148.25 114.00
  Q 157.79 96.45 174.75 83.54
  Q 205.16 60.89 242.31 52.80
  Q 261.93 48.53 283.95 47.67
  Q 284.52 47.65 285.10 47.68
  Q 294.02 48.19 301.74 49.05
  Q 316.78 50.73 330.72 56.56
  Q 343.01 61.69 352.08 71.41
  Q 367.65 88.10 362.50 109.75
  Q 359.27 123.35 348.76 135.76
  Q 338.99 147.31 326.73 155.92
  Q 319.29 161.15 309.68 166.34
  Q 299.59 171.79 288.80 175.70
  Q 279.98 178.91 269.75 181.72
  Q 241.90 189.37 212.75 188.04
  Q 191.20 187.05 172.56 178.44
  Q 162.69 173.88 154.00 165.54
  Z
  M 256.75 52.96
  L 255.75 53.04
  Q 246.90 53.40 238.75 56.79
  Q 223.15 60.99 214.56 64.56
  Q 208.12 67.24 198.38 72.44
  Q 189.18 77.35 183.06 81.81
  Q 172.89 89.23 164.21 98.45
  Q 162.42 100.35 160.96 102.50
  Q 151.74 110.81 150.32 123.27
  Q 148.16 130.01 149.09 136.90
  Q 149.51 139.97 150.60 141.35
  Q 152.25 143.41 155.43 143.24
  Q 159.13 143.05 161.94 141.19
  Q 168.03 137.14 172.31 130.97
  Q 174.84 127.33 174.91 127.23
  Q 177.16 124.13 179.13 121.10
  Q 179.89 119.93 178.52 120.25
  L 171.99 121.75
  Q 169.54 122.32 171.17 120.38
  Q 174.77 116.13 181.06 116.00
  A 2.78 2.77 -74.2 0 0 183.34 114.72
  Q 189.29 105.41 194.44 94.94
  Q 195.44 92.91 196.44 88.80
  A 1.30 1.22 82.8 0 1 196.99 88.04
  Q 202.21 84.78 207.96 84.98
  A 1.43 1.43 4.3 0 1 209.33 86.57
  Q 208.15 96.89 205.81 106.31
  Q 203.58 115.31 201.51 131.97
  Q 200.97 136.26 201.98 141.78
  A 1.27 1.26 68.0 0 1 201.44 143.06
  Q 197.44 145.74 192.11 146.49
  Q 189.87 142.52 190.89 138.04
  Q 191.47 135.52 191.48 135.44
  Q 192.91 127.43 194.70 119.98
  Q 195.44 118.66 195.15 117.75
  A 0.65 0.59 -12.7 0 0 194.44 117.35
  L 186.25 118.75
  A 2.95 2.42 -78.0 0 0 184.34 120.27
  Q 178.72 131.22 172.16 140.88
  Q 166.04 149.87 154.99 153.50
  A 0.34 0.30 55.7 0 0 154.92 154.05
  L 156.25 155.29
  Q 167.54 168.00 183.82 173.16
  Q 204.42 179.68 225.79 178.97
  Q 234.50 178.68 245.69 177.25
  Q 275.83 173.40 303.25 159.80
  Q 323.51 149.75 339.51 133.77
  Q 352.26 121.03 356.75 105.25
  Q 358.38 99.52 357.73 93.03
  Q 357.05 86.23 354.09 81.60
  Q 348.07 72.19 335.00 73.50
  Q 334.29 73.57 332.25 74.71
  L 328.75 75.71
  Q 330.00 74.18 331.79 73.25
  Q 339.25 69.00 347.19 71.31
  Q 347.71 71.46 347.66 71.18
  A 0.68 0.31 24.5 0 0 347.33 70.80
  Q 346.60 70.33 346.14 69.56
  Q 336.90 60.59 324.54 57.00
  Q 313.05 52.05 300.50 51.54
  Q 291.42 50.00 282.26 50.48
  Q 279.01 49.98 275.84 50.41
  Q 272.38 50.89 270.10 50.86
  Q 263.29 50.78 256.75 52.96
  Z
  M 197.45 97.67
  L 188.04 114.00
  Q 187.76 114.49 188.31 114.36
  L 195.59 112.71
  A 0.89 0.77 -87.9 0 0 196.18 112.08
  Q 198.02 104.57 198.78 98.15
  Q 199.19 94.65 197.45 97.67
  Z"
/>
<path fill="#789bd0" d="
  M 282.26 50.48
  Q 274.08 51.26 265.94 52.16
  Q 261.35 52.67 256.75 52.96
  Q 263.29 50.78 270.10 50.86
  Q 272.38 50.89 275.84 50.41
  Q 279.01 49.98 282.26 50.48
  Z"
/>
<path fill="#344c81" d="
  M 300.50 51.54
  Q 304.17 52.79 307.99 53.13
  Q 309.79 53.29 311.80 54.17
  Q 313.72 55.01 315.79 55.32
  Q 318.36 55.70 320.07 56.29
  Q 322.20 57.02 324.37 57.43
  Q 334.49 61.86 339.19 65.56
  Q 342.99 68.56 346.14 69.56
  Q 346.60 70.33 347.33 70.80
  A 0.68 0.31 24.5 0 1 347.66 71.18
  Q 347.71 71.46 347.19 71.31
  Q 339.25 69.00 331.79 73.25
  Q 332.30 70.24 331.40 66.68
  Q 331.31 66.34 331.11 66.06
  Q 329.86 64.36 327.92 63.49
  Q 324.91 62.14 324.83 62.09
  Q 321.11 60.10 317.00 59.00
  Q 316.34 58.82 314.79 57.75
  Q 313.66 56.97 312.50 56.71
  Q 308.16 55.74 296.19 53.56
  Q 292.20 52.83 288.91 53.15
  Q 283.16 53.70 282.91 53.71
  Q 277.97 53.79 273.04 54.18
  Q 272.93 54.19 271.52 54.55
  Q 270.49 54.80 269.61 54.09
  A 1.31 1.07 58.3 0 0 268.74 53.79
  Q 257.70 54.79 246.92 57.35
  Q 232.09 60.88 227.50 62.50
  Q 223.93 63.77 206.15 71.48
  Q 205.51 71.76 203.38 72.40
  Q 201.96 72.82 200.70 73.60
  Q 197.33 75.67 197.23 75.72
  Q 195.22 76.79 193.35 78.12
  Q 186.94 82.66 180.69 87.43
  Q 180.64 87.47 176.32 90.54
  Q 172.69 93.13 170.69 95.94
  Q 168.02 99.68 166.35 101.40
  A 0.92 0.90 -29.7 0 0 166.11 102.24
  L 166.79 105.00
  Q 159.33 114.41 156.25 126.02
  Q 155.38 129.26 157.88 127.02
  Q 159.96 125.15 162.80 124.03
  Q 167.86 122.03 172.61 117.26
  Q 173.26 116.61 174.07 116.32
  L 181.72 113.60
  A 1.58 1.40 3.5 0 0 182.46 113.02
  L 187.25 105.54
  Q 191.01 100.55 192.90 94.59
  Q 193.81 91.69 196.07 87.46
  A 4.61 4.58 -0.3 0 1 197.94 85.58
  Q 202.80 82.89 207.98 83.56
  Q 209.72 83.78 210.41 84.91
  Q 211.21 86.20 210.96 88.00
  Q 209.00 101.67 207.50 109.75
  Q 205.00 123.22 203.81 131.81
  Q 203.52 133.91 204.21 143.25
  Q 199.62 148.03 193.07 148.42
  A 1.05 0.95 -19.6 0 1 192.23 148.07
  Q 191.35 146.99 192.11 146.49
  Q 197.44 145.74 201.44 143.06
  A 1.27 1.26 68.0 0 0 201.98 141.78
  Q 200.97 136.26 201.51 131.97
  Q 203.58 115.31 205.81 106.31
  Q 208.15 96.89 209.33 86.57
  A 1.43 1.43 4.3 0 0 207.96 84.98
  Q 202.21 84.78 196.99 88.04
  A 1.30 1.22 82.8 0 0 196.44 88.80
  Q 195.44 92.91 194.44 94.94
  Q 189.29 105.41 183.34 114.72
  A 2.78 2.77 -74.2 0 1 181.06 116.00
  Q 174.77 116.13 171.17 120.38
  Q 169.54 122.32 171.99 121.75
  L 178.52 120.25
  Q 179.89 119.93 179.13 121.10
  Q 177.16 124.13 174.91 127.23
  Q 174.84 127.33 172.31 130.97
  Q 168.03 137.14 161.94 141.19
  Q 159.13 143.05 155.43 143.24
  Q 152.25 143.41 150.60 141.35
  Q 149.51 139.97 149.09 136.90
  Q 148.16 130.01 150.32 123.27
  Q 154.26 112.18 160.96 102.50
  Q 162.42 100.35 164.21 98.45
  Q 172.89 89.23 183.06 81.81
  Q 189.18 77.35 198.38 72.44
  Q 208.12 67.24 214.56 64.56
  Q 223.15 60.99 238.75 56.79
  L 255.75 53.04
  L 256.75 52.96
  Q 261.35 52.67 265.94 52.16
  Q 274.08 51.26 282.26 50.48
  Q 291.42 50.00 300.50 51.54
  Z"
/>
<path fill="#58739e" d="
  M 300.50 51.54
  Q 313.05 52.05 324.54 57.00
  L 324.37 57.43
  Q 322.20 57.02 320.07 56.29
  Q 318.36 55.70 315.79 55.32
  Q 313.72 55.01 311.80 54.17
  Q 309.79 53.29 307.99 53.13
  Q 304.17 52.79 300.50 51.54
  Z"
/>
<path fill="#789bd0" d="
  M 255.75 53.04
  L 238.75 56.79
  Q 246.90 53.40 255.75 53.04
  Z"
/>
<path fill="#4b6dad" d="
  M 331.79 73.25
  Q 330.00 74.18 328.75 75.71
  Q 326.08 77.70 320.00 81.00
  Q 316.71 82.79 314.11 86.23
  Q 312.42 88.48 311.05 88.75
  Q 308.58 89.23 307.02 86.06
  Q 302.65 85.45 299.18 87.44
  A 1.91 1.90 78.8 0 0 298.24 88.85
  Q 296.21 104.18 288.29 117.50
  L 286.95 115.20
  A 1.37 0.89 -61.3 0 1 286.88 114.26
  Q 288.18 109.43 288.31 104.46
  Q 288.37 102.54 289.06 99.80
  Q 290.10 95.71 289.00 91.25
  Q 288.54 89.40 287.60 90.42
  Q 282.74 89.10 278.61 91.66
  A 1.06 0.96 -15.2 0 0 278.12 92.43
  Q 278.01 93.86 278.94 95.27
  Q 277.66 95.36 277.41 96.18
  Q 277.01 97.51 275.75 97.54
  A 1.10 0.97 16.9 0 0 274.96 97.90
  Q 273.79 99.40 273.22 97.05
  Q 272.58 94.43 270.96 96.00
  Q 266.08 90.42 260.88 96.15
  L 259.41 94.78
  A 1.07 0.67 32.0 0 1 259.03 94.00
  L 260.50 81.00
  Q 260.80 78.35 260.25 77.25
  Q 259.88 76.51 259.04 76.75
  Q 259.06 74.82 257.57 75.19
  Q 256.21 75.52 255.88 75.55
  Q 254.15 75.70 252.50 76.29
  Q 251.70 76.31 251.69 75.80
  A 0.96 0.64 -16.6 0 1 252.27 75.10
  Q 255.48 73.69 258.94 74.23
  A 1.52 1.50 71.2 0 1 259.80 74.66
  Q 260.77 75.61 261.59 76.69
  Q 262.52 77.91 262.54 79.60
  Q 262.61 84.32 262.00 89.01
  Q 261.64 91.79 264.35 91.09
  Q 269.98 89.62 278.28 89.55
  Q 278.83 89.55 279.36 89.38
  Q 282.89 88.23 286.37 88.56
  Q 289.53 88.85 291.03 88.78
  Q 293.38 88.67 295.75 88.73
  A 1.19 0.97 -63.2 0 0 296.58 88.36
  L 299.57 85.27
  A 1.80 1.22 -26.6 0 0 300.03 84.45
  Q 301.34 76.69 297.75 71.25
  Q 294.69 66.61 293.14 64.04
  Q 291.42 61.19 289.69 60.03
  Q 286.69 58.03 283.25 57.50
  Q 275.95 56.37 268.54 58.09
  Q 264.80 58.97 261.84 59.10
  Q 248.74 59.72 236.21 63.62
  Q 234.18 64.25 232.23 64.69
  Q 229.36 65.35 228.25 65.75
  Q 223.99 67.30 219.50 67.93
  A 1.80 1.79 21.3 0 0 218.61 68.32
  Q 213.30 72.58 206.50 73.44
  A 2.01 1.86 20.7 0 0 205.61 73.80
  Q 202.40 76.25 197.81 79.06
  Q 191.28 83.07 184.00 88.71
  Q 174.26 95.64 166.79 105.00
  L 166.11 102.24
  A 0.92 0.90 -29.7 0 1 166.35 101.40
  Q 168.02 99.68 170.69 95.94
  Q 172.69 93.13 176.32 90.54
  Q 180.64 87.47 180.69 87.43
  Q 186.94 82.66 193.35 78.12
  Q 195.22 76.79 197.23 75.72
  Q 197.33 75.67 200.70 73.60
  Q 201.96 72.82 203.38 72.40
  Q 205.51 71.76 206.15 71.48
  Q 223.93 63.77 227.50 62.50
  Q 232.09 60.88 246.92 57.35
  Q 257.70 54.79 268.74 53.79
  A 1.31 1.07 58.3 0 1 269.61 54.09
  Q 270.49 54.80 271.52 54.55
  Q 272.93 54.19 273.04 54.18
  Q 277.97 53.79 282.91 53.71
  Q 283.16 53.70 288.91 53.15
  Q 292.20 52.83 296.19 53.56
  Q 308.16 55.74 312.50 56.71
  Q 313.66 56.97 314.79 57.75
  Q 316.34 58.82 317.00 59.00
  Q 321.11 60.10 324.83 62.09
  Q 324.91 62.14 327.92 63.49
  Q 329.86 64.36 331.11 66.06
  Q 331.31 66.34 331.40 66.68
  Q 332.30 70.24 331.79 73.25
  Z"
/>
<path fill="#5f87b2" d="
  M 324.54 57.00
  Q 336.90 60.59 346.14 69.56
  Q 342.99 68.56 339.19 65.56
  Q 334.49 61.86 324.37 57.43
  L 324.54 57.00
  Z"
/>
<path fill="#789bd0" d="
  M 252.50 76.29
  Q 250.85 76.78 249.61 77.90
  A 0.81 0.74 61.4 0 0 249.41 78.72
  Q 250.24 81.39 249.75 85.00
  Q 248.22 96.27 247.21 101.00
  Q 246.41 100.70 245.68 101.00
  A 1.03 0.71 87.5 0 0 245.21 101.75
  Q 245.01 103.42 243.66 103.20
  Q 242.87 103.08 242.12 102.36
  Q 240.15 100.44 240.69 97.44
  Q 240.99 95.78 241.56 94.81
  Q 245.34 88.42 240.53 83.17
  A 1.32 1.32 70.8 0 0 239.69 82.75
  Q 235.29 82.32 232.68 85.66
  A 0.91 0.90 -47.3 0 1 231.30 85.72
  L 228.29 82.50
  Q 228.28 81.51 227.50 80.96
  Q 222.85 79.45 217.98 81.92
  Q 215.93 82.96 216.01 85.26
  Q 216.24 91.59 215.17 98.05
  Q 215.15 98.14 214.99 99.97
  Q 214.76 102.51 212.44 103.69
  Q 209.98 104.93 210.50 102.00
  Q 211.29 97.55 211.81 93.06
  Q 212.20 89.73 210.96 88.00
  Q 211.21 86.20 210.41 84.91
  Q 209.72 83.78 207.98 83.56
  Q 202.80 82.89 197.94 85.58
  A 4.61 4.58 -0.3 0 0 196.07 87.46
  Q 193.81 91.69 192.90 94.59
  Q 191.01 100.55 187.25 105.54
  Q 184.82 107.44 183.49 105.16
  Q 183.32 104.86 183.69 104.91
  Q 184.25 104.99 183.94 104.37
  Q 181.06 98.58 184.19 92.94
  Q 184.53 92.32 184.28 92.09
  A 0.94 0.22 41.5 0 1 183.82 91.44
  L 183.96 90.18
  Q 183.98 90.02 184.39 89.34
  Q 184.64 88.93 184.00 88.71
  Q 191.28 83.07 197.81 79.06
  Q 202.40 76.25 205.61 73.80
  A 2.01 1.86 20.7 0 1 206.50 73.44
  Q 213.30 72.58 218.61 68.32
  A 1.80 1.79 21.3 0 1 219.50 67.93
  Q 223.99 67.30 228.25 65.75
  Q 229.36 65.35 232.23 64.69
  Q 234.18 64.25 236.21 63.62
  Q 248.74 59.72 261.84 59.10
  Q 264.80 58.97 268.54 58.09
  Q 275.95 56.37 283.25 57.50
  Q 286.69 58.03 289.69 60.03
  Q 291.42 61.19 293.14 64.04
  Q 294.69 66.61 297.75 71.25
  Q 301.34 76.69 300.03 84.45
  A 1.80 1.22 -26.6 0 1 299.57 85.27
  L 296.58 88.36
  A 1.19 0.97 -63.2 0 1 295.75 88.73
  Q 293.38 88.67 291.03 88.78
  Q 289.53 88.85 286.37 88.56
  Q 282.89 88.23 279.36 89.38
  Q 278.83 89.55 278.28 89.55
  Q 269.98 89.62 264.35 91.09
  Q 261.64 91.79 262.00 89.01
  Q 262.61 84.32 262.54 79.60
  Q 262.52 77.91 261.59 76.69
  Q 260.77 75.61 259.80 74.66
  A 1.52 1.50 71.2 0 0 258.94 74.23
  Q 255.48 73.69 252.27 75.10
  A 0.96 0.64 -16.6 0 0 251.69 75.80
  Q 251.70 76.31 252.50 76.29
  Z"
/>
<path fill="#a3ac69" d="
  M 156.25 155.29
  L 157.20 155.33
  A 0.54 0.48 5.8 0 0 157.73 154.95
  Q 157.88 154.15 158.69 154.17
  Q 159.18 154.17 159.68 154.59
  Q 160.55 155.31 161.25 156.21
  Q 158.91 156.57 160.67 158.33
  Q 167.93 165.55 177.48 169.31
  Q 194.35 175.95 212.50 177.05
  Q 237.13 178.55 260.90 172.91
  Q 270.64 170.60 280.13 167.40
  Q 296.09 162.04 311.56 153.31
  Q 317.23 150.12 320.54 147.50
  Q 333.78 139.08 343.77 126.97
  Q 353.81 115.59 355.25 101.75
  Q 355.58 98.62 356.01 97.28
  A 0.52 0.52 19.9 0 0 355.71 96.64
  L 349.33 94.11
  Q 349.15 87.90 347.00 83.25
  Q 343.23 75.10 334.00 75.46
  L 332.25 74.71
  Q 334.29 73.57 335.00 73.50
  Q 348.07 72.19 354.09 81.60
  Q 357.05 86.23 357.73 93.03
  Q 358.38 99.52 356.75 105.25
  Q 352.26 121.03 339.51 133.77
  Q 323.51 149.75 303.25 159.80
  Q 275.83 173.40 245.69 177.25
  Q 234.50 178.68 225.79 178.97
  Q 204.42 179.68 183.82 173.16
  Q 167.54 168.00 156.25 155.29
  Z"
/>
<path fill="#33457b" d="
  M 332.25 74.71
  L 334.00 75.46
  L 333.26 76.73
  A 0.34 0.31 14.9 0 0 333.56 77.20
  Q 340.83 77.49 344.61 82.49
  Q 347.64 86.49 347.74 93.24
  Q 347.84 100.60 344.70 107.27
  Q 343.11 110.65 340.65 115.41
  Q 338.54 119.49 335.49 122.99
  Q 327.91 131.70 318.88 138.84
  Q 316.63 140.62 313.44 142.32
  Q 309.58 144.38 307.81 145.56
  Q 304.45 147.81 295.31 152.56
  Q 292.60 153.97 290.44 153.86
  A 0.69 0.67 85.4 0 1 289.82 153.32
  Q 289.33 150.94 289.84 148.52
  Q 290.33 146.18 288.54 146.75
  Q 288.72 144.52 289.00 144.00
  Q 289.65 142.81 288.71 143.08
  A 0.90 0.86 -31.2 0 1 287.89 142.90
  Q 286.75 141.90 285.26 141.94
  Q 283.43 141.99 283.35 141.99
  Q 274.23 141.27 265.36 141.80
  Q 264.88 141.82 262.97 142.08
  L 252.75 143.46
  Q 252.59 142.56 253.00 141.79
  Q 269.20 138.45 285.75 138.79
  L 309.48 140.97
  Q 311.17 141.12 312.62 140.47
  Q 316.21 138.86 319.34 135.81
  Q 319.45 135.70 321.81 133.92
  Q 323.66 132.54 322.88 130.20
  Q 322.16 128.02 321.96 127.60
  Q 321.20 126.01 318.99 126.39
  Q 318.47 126.48 318.04 126.33
  Q 313.74 124.81 309.18 125.15
  A 1.73 1.59 -63.3 0 0 308.28 125.49
  Q 306.81 126.57 305.40 127.73
  Q 303.58 129.22 301.77 129.41
  Q 296.99 129.94 293.57 127.37
  Q 291.77 126.01 290.12 127.55
  Q 286.40 131.00 281.94 130.49
  Q 287.13 128.00 289.81 125.31
  Q 292.16 122.97 294.51 122.09
  Q 294.31 123.57 295.29 124.42
  Q 296.03 125.07 297.38 124.93
  Q 300.69 124.58 303.30 122.51
  A 0.85 0.83 66.0 0 0 303.60 121.70
  Q 302.56 116.02 303.00 111.75
  Q 304.02 101.96 307.02 86.06
  Q 308.58 89.23 311.05 88.75
  Q 312.42 88.48 314.11 86.23
  Q 316.71 82.79 320.00 81.00
  Q 326.08 77.70 328.75 75.71
  L 332.25 74.71
  Z
  M 315.19 87.44
  Q 307.54 96.89 307.97 108.75
  Q 308.17 114.23 310.81 117.69
  Q 315.05 123.24 322.29 120.62
  Q 332.23 117.03 333.86 106.52
  Q 334.30 103.71 332.29 104.17
  A 0.96 0.81 -85.8 0 0 331.67 104.80
  Q 330.66 108.08 329.10 111.14
  Q 327.67 113.95 324.44 114.94
  Q 321.94 115.70 320.20 114.56
  Q 318.84 113.67 318.10 111.35
  Q 316.96 107.77 317.60 103.93
  A 0.71 0.70 -0.6 0 1 318.17 103.35
  Q 324.14 102.27 329.19 98.93
  Q 334.89 95.16 336.25 89.75
  Q 337.56 84.52 334.02 81.86
  Q 331.33 79.84 327.10 80.44
  Q 320.05 81.43 315.19 87.44
  Z"
/>
<path fill="#ffffff" d="
  M 259.04 76.75
  L 254.99 102.03
  Q 254.27 106.55 256.26 102.45
  Q 257.76 99.35 260.88 96.15
  Q 266.08 90.42 270.96 96.00
  Q 273.32 105.51 270.99 114.37
  Q 268.50 123.81 261.73 129.34
  Q 254.21 135.47 243.17 135.33
  Q 242.61 134.73 242.71 133.00
  Q 243.02 127.36 244.03 121.81
  Q 245.89 111.45 247.21 101.00
  Q 248.22 96.27 249.75 85.00
  Q 250.24 81.39 249.41 78.72
  A 0.81 0.74 61.4 0 1 249.61 77.90
  Q 250.85 76.78 252.50 76.29
  Q 254.15 75.70 255.88 75.55
  Q 256.21 75.52 257.57 75.19
  Q 259.06 74.82 259.04 76.75
  Z
  M 253.73 131.36
  Q 264.95 120.89 263.11 104.46
  Q 263.85 99.14 260.70 101.19
  Q 259.65 101.87 258.83 103.28
  Q 252.13 114.64 251.05 127.86
  Q 251.04 127.98 250.86 129.12
  Q 250.47 131.68 253.73 131.36
  Z"
/>
<path fill="#313940" d="
  M 349.33 94.11
  Q 348.53 109.22 339.25 121.46
  Q 329.50 133.96 316.25 142.71
  Q 300.91 153.07 281.56 160.31
  Q 247.22 173.18 211.75 172.00
  Q 183.69 171.07 161.25 156.21
  Q 160.55 155.31 159.68 154.59
  Q 159.18 154.17 158.69 154.17
  Q 157.88 154.15 157.73 154.95
  A 0.54 0.48 5.8 0 1 157.20 155.33
  L 156.25 155.29
  L 154.92 154.05
  A 0.34 0.30 55.7 0 1 154.99 153.50
  Q 166.04 149.87 172.16 140.88
  Q 178.72 131.22 184.34 120.27
  A 2.95 2.42 -78.0 0 1 186.25 118.75
  L 194.44 117.35
  A 0.65 0.59 -12.7 0 1 195.15 117.75
  Q 195.44 118.66 194.70 119.98
  Q 187.90 119.13 184.64 124.29
  Q 183.70 125.78 182.83 129.30
  Q 181.85 133.25 181.19 134.44
  Q 179.70 137.10 179.61 138.76
  L 167.43 154.40
  A 0.65 0.62 41.9 0 0 167.50 155.24
  Q 172.23 160.03 178.03 161.86
  Q 178.43 161.98 178.83 162.37
  Q 180.04 163.54 182.25 163.25
  Q 183.27 163.12 184.17 163.95
  Q 185.14 164.85 185.71 165.08
  Q 187.76 165.89 189.89 166.03
  Q 200.37 169.61 211.44 169.57
  Q 211.92 169.56 212.37 169.81
  Q 212.59 169.93 212.81 170.04
  Q 213.23 170.25 213.75 170.27
  Q 225.05 170.70 236.26 169.30
  Q 236.41 169.28 240.76 169.02
  Q 245.46 168.74 249.12 165.69
  Q 257.41 164.07 265.50 161.50
  Q 267.64 160.82 273.14 159.54
  Q 277.02 158.63 280.67 157.00
  Q 281.81 156.49 283.98 156.11
  Q 285.40 155.87 287.35 155.20
  A 0.83 0.82 -10.8 0 0 287.91 154.38
  Q 287.70 150.80 288.54 146.75
  Q 290.33 146.18 289.84 148.52
  Q 289.33 150.94 289.82 153.32
  A 0.69 0.67 85.4 0 0 290.44 153.86
  Q 292.60 153.97 295.31 152.56
  Q 304.45 147.81 307.81 145.56
  Q 309.58 144.38 313.44 142.32
  Q 316.63 140.62 318.88 138.84
  Q 327.91 131.70 335.49 122.99
  Q 338.54 119.49 340.65 115.41
  Q 343.11 110.65 344.70 107.27
  Q 347.84 100.60 347.74 93.24
  Q 347.64 86.49 344.61 82.49
  Q 340.83 77.49 333.56 77.20
  A 0.34 0.31 14.9 0 1 333.26 76.73
  L 334.00 75.46
  Q 343.23 75.10 347.00 83.25
  Q 349.15 87.90 349.33 94.11
  Z"
/>
<path fill="#415575" d="
  M 259.04 76.75
  Q 259.88 76.51 260.25 77.25
  Q 260.80 78.35 260.50 81.00
  L 259.03 94.00
  A 1.07 0.67 32.0 0 0 259.41 94.78
  L 260.88 96.15
  Q 257.76 99.35 256.26 102.45
  Q 254.27 106.55 254.99 102.03
  L 259.04 76.75
  Z"
/>
<path fill="#4568a3" d="
  M 227.50 80.96
  L 226.96 81.75
  Q 222.79 81.26 217.84 83.41
  A 0.91 0.90 -19.1 0 0 217.32 84.46
  Q 217.99 87.17 217.64 89.99
  Q 216.17 101.65 214.15 113.23
  Q 211.85 126.43 210.43 140.47
  A 1.11 1.01 0.2 0 0 211.64 141.57
  L 215.00 141.29
  Q 213.55 141.86 211.99 141.98
  Q 211.72 142.01 211.57 142.14
  Q 211.33 142.34 211.31 142.55
  A 0.81 0.46 11.0 0 0 211.98 143.12
  Q 214.48 143.70 216.50 143.25
  Q 221.73 142.08 221.47 136.50
  Q 221.18 130.35 222.76 124.46
  Q 223.35 122.24 223.55 119.82
  Q 223.75 117.45 224.28 115.15
  Q 225.29 110.74 225.53 108.23
  Q 225.96 103.72 226.74 99.25
  Q 226.82 98.83 226.71 98.46
  A 1.73 0.63 65.1 0 1 226.63 97.52
  Q 228.64 90.15 228.29 82.50
  L 231.30 85.72
  A 0.91 0.90 -47.3 0 0 232.68 85.66
  Q 235.29 82.32 239.69 82.75
  A 1.32 1.32 65.9 0 1 240.53 83.17
  Q 245.34 88.42 241.56 94.81
  Q 240.99 95.78 240.69 97.44
  Q 240.15 100.44 242.12 102.36
  Q 242.87 103.08 243.66 103.20
  Q 245.01 103.42 245.21 101.75
  A 1.03 0.71 87.5 0 1 245.68 101.00
  Q 246.41 100.70 247.21 101.00
  Q 245.89 111.45 244.03 121.81
  Q 243.02 127.36 242.71 133.00
  Q 242.61 134.73 243.17 135.33
  Q 243.80 138.70 247.07 137.62
  Q 248.83 137.04 248.98 137.00
  Q 256.04 135.16 262.50 131.71
  Q 265.11 130.62 266.25 128.04
  Q 269.08 124.98 271.25 120.97
  A 0.83 0.83 41.3 0 1 272.66 120.88
  Q 273.88 122.58 274.37 125.03
  Q 275.71 131.59 281.94 130.49
  Q 286.40 131.00 290.12 127.55
  Q 291.77 126.01 293.57 127.37
  Q 296.99 129.94 301.77 129.41
  Q 303.58 129.22 305.40 127.73
  Q 306.81 126.57 308.28 125.49
  A 1.73 1.59 -63.3 0 1 309.18 125.15
  Q 313.74 124.81 318.04 126.33
  Q 318.47 126.48 318.99 126.39
  Q 321.20 126.01 321.96 127.60
  Q 322.16 128.02 322.88 130.20
  Q 323.66 132.54 321.81 133.92
  Q 319.45 135.70 319.34 135.81
  Q 316.21 138.86 312.62 140.47
  Q 311.17 141.12 309.48 140.97
  L 285.75 138.79
  L 287.22 138.50
  Q 288.09 138.33 287.19 138.29
  Q 255.76 136.84 226.18 147.41
  Q 215.17 151.34 196.44 160.44
  Q 192.98 162.12 191.99 164.33
  L 189.89 166.03
  Q 187.76 165.89 185.71 165.08
  Q 185.14 164.85 184.17 163.95
  Q 183.27 163.12 182.25 163.25
  Q 180.04 163.54 178.83 162.37
  Q 178.43 161.98 178.03 161.86
  Q 172.23 160.03 167.50 155.24
  A 0.65 0.62 41.9 0 1 167.43 154.40
  L 179.61 138.76
  Q 179.41 140.14 178.57 141.40
  Q 178.16 142.03 178.10 142.59
  Q 177.89 144.55 179.33 140.31
  A 1.80 1.78 89.1 0 1 180.39 139.20
  Q 182.00 138.60 182.50 137.00
  Q 183.70 133.13 185.71 129.62
  Q 186.62 128.04 186.69 126.19
  Q 186.79 123.57 189.06 122.06
  Q 192.94 119.48 192.16 124.08
  Q 191.10 130.36 189.19 136.44
  Q 187.82 140.79 188.52 144.28
  Q 188.56 144.51 188.90 147.39
  Q 189.20 150.03 192.52 149.14
  A 1.36 1.36 -40.0 0 1 193.45 149.22
  Q 196.68 150.74 199.18 148.82
  Q 200.32 147.95 202.03 146.42
  Q 203.47 145.15 204.21 143.25
  Q 203.52 133.91 203.81 131.81
  Q 205.00 123.22 207.50 109.75
  Q 209.00 101.67 210.96 88.00
  Q 212.20 89.73 211.81 93.06
  Q 211.29 97.55 210.50 102.00
  Q 209.98 104.93 212.44 103.69
  Q 214.76 102.51 214.99 99.97
  Q 215.15 98.14 215.17 98.05
  Q 216.24 91.59 216.01 85.26
  Q 215.93 82.96 217.98 81.92
  Q 222.85 79.45 227.50 80.96
  Z
  M 234.6748 93.8326
  A 5.14 4.36 117.9 0 0 240.9332 91.3302
  A 5.14 4.36 117.9 0 0 239.4852 84.7474
  A 5.14 4.36 117.9 0 0 233.2268 87.2498
  A 5.14 4.36 117.9 0 0 234.6748 93.8326
  Z
  M 229.16 138.72
  Q 236.21 142.55 238.05 136.75
  Q 238.51 135.30 238.15 131.62
  Q 237.88 128.85 238.37 126.11
  Q 239.28 120.91 239.29 120.83
  Q 239.72 117.05 240.20 113.24
  Q 240.29 112.46 240.41 111.68
  Q 241.22 106.37 240.77 103.30
  A 0.51 0.48 -8.2 0 0 240.20 102.90
  L 239.54 103.00
  Q 240.06 101.37 239.60 99.79
  A 0.71 0.67 -7.6 0 0 238.93 99.31
  Q 234.48 99.37 230.50 101.34
  A 0.62 0.60 69.5 0 0 230.19 102.05
  Q 231.15 105.81 230.75 108.25
  Q 229.13 118.23 226.81 135.56
  Q 226.43 138.44 229.16 138.72
  Z
  M 264.98 133.13
  Q 261.80 134.46 263.94 134.25
  A 1.61 1.20 13.0 0 0 264.83 133.86
  L 267.13 131.45
  Q 267.61 130.95 266.95 131.19
  Q 266.02 131.54 265.61 132.47
  A 1.36 1.03 -83.5 0 1 264.98 133.13
  Z"
/>
<path fill="#ffffff" d="
  M 315.19 87.44
  Q 320.05 81.43 327.10 80.44
  Q 331.33 79.84 334.02 81.86
  Q 337.56 84.52 336.25 89.75
  Q 334.89 95.16 329.19 98.93
  Q 324.14 102.27 318.17 103.35
  A 0.71 0.70 -0.6 0 0 317.60 103.93
  Q 316.96 107.77 318.10 111.35
  Q 318.84 113.67 320.20 114.56
  Q 321.94 115.70 324.44 114.94
  Q 327.67 113.95 329.10 111.14
  Q 330.66 108.08 331.67 104.80
  A 0.96 0.81 -85.8 0 1 332.29 104.17
  Q 334.30 103.71 333.86 106.52
  Q 332.23 117.03 322.29 120.62
  Q 315.05 123.24 310.81 117.69
  Q 308.17 114.23 307.97 108.75
  Q 307.54 96.89 315.19 87.44
  Z
  M 322.22 86.71
  Q 318.83 92.27 317.88 99.70
  A 0.65 0.65 89.4 0 0 318.62 100.43
  Q 322.80 99.78 324.73 97.45
  Q 329.48 91.72 328.77 84.47
  Q 328.54 82.04 326.32 83.06
  Q 323.71 84.26 322.22 86.71
  Z"
/>
<path fill="#394a69" d="
  M 227.50 80.96
  Q 228.28 81.51 228.29 82.50
  Q 228.64 90.15 226.63 97.52
  A 1.73 0.63 65.1 0 0 226.71 98.46
  Q 226.82 98.83 226.74 99.25
  Q 225.96 103.72 225.53 108.23
  Q 225.29 110.74 224.28 115.15
  Q 223.75 117.45 223.55 119.82
  Q 223.35 122.24 222.76 124.46
  Q 221.18 130.35 221.47 136.50
  Q 221.73 142.08 216.50 143.25
  Q 214.48 143.70 211.98 143.12
  A 0.81 0.46 11.0 0 1 211.31 142.55
  Q 211.33 142.34 211.57 142.14
  Q 211.72 142.01 211.99 141.98
  Q 213.55 141.86 215.00 141.29
  L 219.03 139.59
  A 1.17 1.16 -12.3 0 0 219.75 138.49
  Q 219.68 134.27 219.92 130.16
  Q 220.12 126.79 220.95 121.90
  Q 224.17 102.73 227.00 83.50
  Q 227.07 83.05 226.96 81.75
  L 227.50 80.96
  Z"
/>
<path fill="#ffffff" d="
  M 226.96 81.75
  Q 227.07 83.05 227.00 83.50
  Q 224.17 102.73 220.95 121.90
  Q 220.12 126.79 219.92 130.16
  Q 219.68 134.27 219.75 138.49
  A 1.17 1.16 -12.3 0 1 219.03 139.59
  L 215.00 141.29
  L 211.64 141.57
  A 1.11 1.01 0.2 0 1 210.43 140.47
  Q 211.85 126.43 214.15 113.23
  Q 216.17 101.65 217.64 89.99
  Q 217.99 87.17 217.32 84.46
  A 0.91 0.90 -19.1 0 1 217.84 83.41
  Q 222.79 81.26 226.96 81.75
  Z"
/>
<path fill="#303e63" d="
  M 322.22 86.71
  Q 323.71 84.26 326.32 83.06
  Q 328.54 82.04 328.77 84.47
  Q 329.48 91.72 324.73 97.45
  Q 322.80 99.78 318.62 100.43
  A 0.65 0.65 89.4 0 1 317.88 99.70
  Q 318.83 92.27 322.22 86.71
  Z"
/>
<path fill="#58739e" d="
  M 174.50 83.46
  L 174.75 83.54
  Q 157.79 96.45 148.25 114.00
  Q 135.58 137.32 149.54 160.25
  Q 149.48 160.48 149.25 160.54
  Q 143.94 153.05 142.27 144.36
  Q 140.73 136.38 142.83 127.20
  Q 145.51 115.47 152.72 105.46
  Q 161.88 92.74 174.50 83.46
  Z"
/>
<ellipse fill="#ffffff" cx="0.00" cy="0.00" transform="translate(237.08,89.29) rotate(117.9)" rx="5.14" ry="4.36"/>
<path fill="#ffffff" d="
  M 307.02 86.06
  Q 304.02 101.96 303.00 111.75
  Q 302.56 116.02 303.60 121.70
  A 0.85 0.83 66.0 0 1 303.30 122.51
  Q 300.69 124.58 297.38 124.93
  Q 296.03 125.07 295.29 124.42
  Q 294.31 123.57 294.51 122.09
  Q 294.50 116.25 295.59 110.72
  Q 295.94 108.92 295.11 109.55
  Q 294.83 109.76 294.68 110.19
  Q 291.88 118.40 286.33 125.05
  Q 285.22 126.37 283.70 127.18
  Q 278.99 129.69 276.89 126.55
  Q 275.63 124.66 275.63 121.11
  Q 275.63 118.40 276.25 115.25
  Q 277.86 107.10 278.94 95.27
  Q 278.01 93.86 278.12 92.43
  A 1.06 0.96 -15.2 0 1 278.61 91.66
  Q 282.74 89.10 287.60 90.42
  Q 287.16 101.25 284.82 111.19
  Q 284.33 113.31 284.25 115.48
  Q 283.99 123.01 288.29 117.50
  Q 296.21 104.18 298.24 88.85
  A 1.91 1.90 78.8 0 1 299.18 87.44
  Q 302.65 85.45 307.02 86.06
  Z"
/>
<path fill="#5d75b5" d="
  M 184.00 88.71
  Q 184.64 88.93 184.39 89.34
  Q 183.98 90.02 183.96 90.18
  L 183.82 91.44
  A 0.94 0.22 41.5 0 0 184.28 92.09
  Q 184.53 92.32 184.19 92.94
  Q 181.06 98.58 183.94 104.37
  Q 184.25 104.99 183.69 104.91
  Q 183.32 104.86 183.49 105.16
  Q 184.82 107.44 187.25 105.54
  L 182.46 113.02
  A 1.58 1.40 3.5 0 1 181.72 113.60
  L 174.07 116.32
  Q 173.26 116.61 172.61 117.26
  Q 167.86 122.03 162.80 124.03
  Q 159.96 125.15 157.88 127.02
  Q 155.38 129.26 156.25 126.02
  Q 159.33 114.41 166.79 105.00
  Q 174.26 95.64 184.00 88.71
  Z"
/>
<path fill="#394a69" d="
  M 288.29 117.50
  Q 283.99 123.01 284.25 115.48
  Q 284.33 113.31 284.82 111.19
  Q 287.16 101.25 287.60 90.42
  Q 288.54 89.40 289.00 91.25
  Q 290.10 95.71 289.06 99.80
  Q 288.37 102.54 288.31 104.46
  Q 288.18 109.43 286.88 114.26
  A 1.37 0.89 -61.3 0 0 286.95 115.20
  L 288.29 117.50
  Z"
/>
<path fill="#b1b150" d="
  M 349.33 94.11
  L 355.71 96.64
  A 0.52 0.52 19.9 0 1 356.01 97.28
  Q 355.58 98.62 355.25 101.75
  Q 353.81 115.59 343.77 126.97
  Q 343.70 124.82 341.31 124.19
  A 0.91 0.72 25.2 0 1 340.69 122.94
  Q 341.35 122.19 340.61 122.35
  A 0.44 0.43 -24.3 0 1 340.15 122.18
  Q 339.80 121.71 339.25 121.46
  Q 348.53 109.22 349.33 94.11
  Z"
/>
<path fill="#415575" d="
  M 278.94 95.27
  Q 277.86 107.10 276.25 115.25
  Q 275.63 118.40 275.63 121.11
  Q 275.63 124.66 276.89 126.55
  Q 278.99 129.69 283.70 127.18
  Q 285.22 126.37 286.33 125.05
  Q 291.88 118.40 294.68 110.19
  Q 294.83 109.76 295.11 109.55
  Q 295.94 108.92 295.59 110.72
  Q 294.50 116.25 294.51 122.09
  Q 292.16 122.97 289.81 125.31
  Q 287.13 128.00 281.94 130.49
  Q 275.71 131.59 274.37 125.03
  Q 273.88 122.58 272.66 120.88
  A 0.83 0.83 41.3 0 0 271.25 120.97
  Q 269.08 124.98 266.25 128.04
  Q 263.55 129.00 262.50 131.71
  Q 256.04 135.16 248.98 137.00
  Q 248.83 137.04 247.07 137.62
  Q 243.80 138.70 243.17 135.33
  Q 254.21 135.47 261.73 129.34
  Q 268.50 123.81 270.99 114.37
  Q 273.32 105.51 270.96 96.00
  Q 272.58 94.43 273.22 97.05
  Q 273.79 99.40 274.96 97.90
  A 1.10 0.97 16.9 0 1 275.75 97.54
  Q 277.01 97.51 277.41 96.18
  Q 277.66 95.36 278.94 95.27
  Z"
/>
<path fill="#415575" d="
  M 197.45 97.67
  Q 199.19 94.65 198.78 98.15
  Q 198.02 104.57 196.18 112.08
  A 0.89 0.77 -87.9 0 1 195.59 112.71
  L 188.31 114.36
  Q 187.76 114.49 188.04 114.00
  L 197.45 97.67
  Z"
/>
<path fill="#ffffff" d="
  M 239.54 103.00
  Q 238.05 115.04 236.00 127.00
  Q 235.46 130.18 236.35 135.19
  A 0.72 0.57 75.8 0 1 236.01 135.94
  L 229.16 138.72
  Q 226.43 138.44 226.81 135.56
  Q 229.13 118.23 230.75 108.25
  Q 231.15 105.81 230.19 102.05
  A 0.62 0.60 69.5 0 1 230.50 101.34
  Q 234.48 99.37 238.93 99.31
  A 0.71 0.67 -7.6 0 1 239.60 99.79
  Q 240.06 101.37 239.54 103.00
  Z"
/>
<path fill="#394a69" d="
  M 263.11 104.46
  Q 256.96 108.16 255.61 115.08
  Q 254.59 120.31 254.36 121.32
  Q 253.28 126.03 253.73 131.36
  Q 250.47 131.68 250.86 129.12
  Q 251.04 127.98 251.05 127.86
  Q 252.13 114.64 258.83 103.28
  Q 259.65 101.87 260.70 101.19
  Q 263.85 99.14 263.11 104.46
  Z"
/>
<path fill="#b2d9ec" d="
  M 160.96 102.50
  Q 154.26 112.18 150.32 123.27
  Q 151.74 110.81 160.96 102.50
  Z"
/>
<path fill="#394a69" d="
  M 229.16 138.72
  L 236.01 135.94
  A 0.72 0.57 75.8 0 0 236.35 135.19
  Q 235.46 130.18 236.00 127.00
  Q 238.05 115.04 239.54 103.00
  L 240.20 102.90
  A 0.51 0.48 -8.2 0 1 240.77 103.30
  Q 241.22 106.37 240.41 111.68
  Q 240.29 112.46 240.20 113.24
  Q 239.72 117.05 239.29 120.83
  Q 239.28 120.91 238.37 126.11
  Q 237.88 128.85 238.15 131.62
  Q 238.51 135.30 238.05 136.75
  Q 236.21 142.55 229.16 138.72
  Z"
/>
<path fill="#58739e" d="
  M 263.11 104.46
  Q 264.95 120.89 253.73 131.36
  Q 253.28 126.03 254.36 121.32
  Q 254.59 120.31 255.61 115.08
  Q 256.96 108.16 263.11 104.46
  Z"
/>
<path fill="#415575" d="
  M 194.70 119.98
  Q 192.91 127.43 191.48 135.44
  Q 191.47 135.52 190.89 138.04
  Q 189.87 142.52 192.11 146.49
  Q 191.35 146.99 192.23 148.07
  A 1.05 0.95 -19.6 0 0 193.07 148.42
  Q 199.62 148.03 204.21 143.25
  Q 203.47 145.15 202.03 146.42
  Q 200.32 147.95 199.18 148.82
  Q 196.68 150.74 193.45 149.22
  A 1.36 1.36 -40.0 0 0 192.52 149.14
  Q 189.20 150.03 188.90 147.39
  Q 188.56 144.51 188.52 144.28
  Q 187.82 140.79 189.19 136.44
  Q 191.10 130.36 192.16 124.08
  Q 192.94 119.48 189.06 122.06
  Q 186.79 123.57 186.69 126.19
  Q 186.62 128.04 185.71 129.62
  Q 183.70 133.13 182.50 137.00
  Q 182.00 138.60 180.39 139.20
  A 1.80 1.78 89.1 0 0 179.33 140.31
  Q 177.89 144.55 178.10 142.59
  Q 178.16 142.03 178.57 141.40
  Q 179.41 140.14 179.61 138.76
  Q 179.70 137.10 181.19 134.44
  Q 181.85 133.25 182.83 129.30
  Q 183.70 125.78 184.64 124.29
  Q 187.90 119.13 194.70 119.98
  Z"
/>
<path fill="#ede866" d="
  M 339.25 121.46
  Q 339.80 121.71 340.15 122.18
  A 0.44 0.43 -24.3 0 0 340.61 122.35
  Q 341.35 122.19 340.69 122.94
  A 0.91 0.72 25.2 0 0 341.31 124.19
  Q 343.70 124.82 343.77 126.97
  Q 333.78 139.08 320.54 147.50
  L 316.25 142.71
  Q 329.50 133.96 339.25 121.46
  Z"
/>
<path fill="#344c81" d="
  M 266.25 128.04
  Q 265.11 130.62 262.50 131.71
  Q 263.55 129.00 266.25 128.04
  Z"
/>
<path fill="#4b6dad" d="
  M 265.61 132.47
  Q 266.02 131.54 266.95 131.19
  Q 267.61 130.95 267.13 131.45
  L 264.83 133.86
  A 1.61 1.20 13.0 0 1 263.94 134.25
  Q 261.80 134.46 264.98 133.13
  A 1.36 1.03 -83.5 0 0 265.61 132.47
  Z"
/>
<path fill="#b2d9ec" d="
  M 285.75 138.79
  Q 269.20 138.45 253.00 141.79
  Q 245.41 142.81 238.12 144.99
  Q 234.22 146.15 223.69 149.66
  Q 207.08 155.19 191.99 164.33
  Q 192.98 162.12 196.44 160.44
  Q 215.17 151.34 226.18 147.41
  Q 255.76 136.84 287.19 138.29
  Q 288.09 138.33 287.22 138.50
  L 285.75 138.79
  Z"
/>
<path fill="#89853c" d="
  M 288.54 146.75
  Q 287.70 150.80 287.91 154.38
  A 0.83 0.82 -10.8 0 1 287.35 155.20
  Q 285.40 155.87 283.98 156.11
  Q 281.81 156.49 280.67 157.00
  Q 277.02 158.63 273.14 159.54
  Q 267.64 160.82 265.50 161.50
  Q 257.41 164.07 249.12 165.69
  Q 248.28 165.09 248.21 164.75
  L 246.45 162.99
  A 0.34 0.31 -39.8 0 1 246.52 162.51
  Q 246.85 162.27 246.79 161.75
  Q 247.08 162.11 247.46 162.29
  Q 247.90 162.50 247.77 161.96
  Q 247.53 161.01 248.25 160.21
  L 248.71 160.25
  Q 249.36 162.05 250.25 160.46
  L 255.25 159.50
  Q 254.86 160.39 256.14 159.82
  Q 257.50 159.21 259.00 159.54
  L 259.04 160.00
  Q 258.07 160.73 259.65 160.55
  Q 259.97 160.51 260.33 160.36
  Q 262.97 159.23 265.81 158.81
  Q 266.40 158.73 267.00 158.00
  Q 269.26 157.73 271.21 156.50
  Q 272.35 155.85 273.44 155.15
  Q 275.13 154.06 272.25 154.54
  L 269.00 155.21
  L 274.27 152.21
  A 1.27 1.04 -12.9 0 0 274.85 151.46
  L 275.21 149.75
  Q 275.44 148.75 274.86 148.08
  A 1.69 1.29 27.5 0 1 274.47 147.25
  Q 274.23 145.42 272.37 145.32
  A 0.40 0.28 69.4 0 1 272.11 145.14
  L 272.01 144.99
  A 0.84 0.49 -7.0 0 0 271.40 144.73
  Q 267.14 144.56 262.97 145.29
  Q 260.37 145.74 256.84 146.19
  Q 253.74 146.58 250.75 147.54
  Q 249.30 147.24 250.50 145.96
  Q 249.41 143.70 252.75 143.46
  L 262.97 142.08
  Q 264.88 141.82 265.36 141.80
  Q 274.23 141.27 283.35 141.99
  Q 283.43 141.99 285.26 141.94
  Q 286.75 141.90 287.89 142.90
  A 0.90 0.86 -31.2 0 0 288.71 143.08
  Q 289.65 142.81 289.00 144.00
  Q 288.72 144.52 288.54 146.75
  Z
  M 270.90 158.08
  Q 270.50 158.22 270.93 158.18
  Q 273.79 157.91 276.27 156.34
  Q 276.97 155.89 276.19 156.17
  L 270.90 158.08
  Z"
/>
<path fill="#33528e" d="
  M 253.00 141.79
  Q 252.59 142.56 252.75 143.46
  Q 249.41 143.70 250.50 145.96
  L 245.25 147.71
  Q 243.41 148.57 241.42 148.61
  Q 239.11 148.65 238.11 148.86
  Q 235.39 149.42 234.75 149.25
  Q 233.17 148.84 231.72 149.32
  Q 231.24 149.48 230.76 149.40
  Q 228.49 149.02 225.75 150.50
  Q 217.59 154.90 214.75 162.71
  Q 214.41 162.75 214.48 163.47
  Q 213.13 165.18 213.27 167.69
  A 0.71 0.70 5.7 0 0 213.80 168.33
  Q 216.20 168.95 220.00 168.75
  Q 225.60 168.46 231.19 167.98
  A 0.93 0.73 -76.0 0 0 231.84 167.47
  Q 231.96 167.24 232.14 167.05
  Q 232.41 166.76 232.97 166.69
  Q 238.88 165.99 244.69 164.79
  A 0.61 0.49 84.9 0 0 245.09 164.20
  Q 245.07 163.37 246.62 163.93
  A 0.23 0.22 -59.4 0 1 246.71 164.29
  Q 244.81 166.44 248.21 164.75
  Q 248.28 165.09 249.12 165.69
  Q 245.46 168.74 240.76 169.02
  Q 236.41 169.28 236.26 169.30
  Q 225.05 170.70 213.75 170.27
  Q 213.23 170.25 212.81 170.04
  Q 212.59 169.93 212.37 169.81
  Q 211.92 169.56 211.44 169.57
  Q 200.37 169.61 189.89 166.03
  L 191.99 164.33
  Q 207.08 155.19 223.69 149.66
  Q 234.22 146.15 238.12 144.99
  Q 245.41 142.81 253.00 141.79
  Z"
/>
<path fill="#f4f39c" d="
  M 316.25 142.71
  L 320.54 147.50
  Q 317.23 150.12 311.56 153.31
  Q 296.09 162.04 280.13 167.40
  Q 270.64 170.60 260.90 172.91
  Q 237.13 178.55 212.50 177.05
  Q 194.35 175.95 177.48 169.31
  Q 167.93 165.55 160.67 158.33
  Q 158.91 156.57 161.25 156.21
  Q 183.69 171.07 211.75 172.00
  Q 247.22 173.18 281.56 160.31
  Q 300.91 153.07 316.25 142.71
  Z"
/>
<path fill="#f1e23e" d="
  M 275.21 149.75
  Q 274.74 150.56 274.00 151.04
  Q 270.41 153.59 266.25 155.00
  Q 262.96 154.74 260.29 156.50
  L 260.29 156.75
  L 256.75 158.25
  Q 253.59 158.50 250.50 159.25
  Q 249.03 159.60 248.71 160.25
  L 248.25 160.21
  Q 247.15 155.49 248.04 150.75
  L 250.00 148.04
  L 250.75 147.54
  Q 253.74 146.58 256.84 146.19
  Q 260.37 145.74 262.97 145.29
  Q 267.14 144.56 271.40 144.73
  A 0.84 0.49 -7.0 0 1 272.01 144.99
  L 272.11 145.14
  A 0.40 0.28 69.4 0 0 272.37 145.32
  Q 274.23 145.42 274.47 147.25
  A 1.69 1.29 27.5 0 0 274.86 148.08
  Q 275.44 148.75 275.21 149.75
  Z
  M 270.96 151.70
  Q 272.34 150.67 270.83 151.50
  Q 267.08 153.56 262.81 154.57
  Q 262.29 154.70 262.81 154.67
  Q 267.26 154.48 270.96 151.70
  Z"
/>
<path fill="#58739e" d="
  M 250.50 145.96
  Q 249.30 147.24 250.75 147.54
  L 250.00 148.04
  Q 249.29 147.83 248.75 148.29
  Q 247.93 147.92 247.04 148.00
  Q 246.21 147.59 245.25 147.71
  L 250.50 145.96
  Z"
/>
<path fill="#b2d9ec" d="
  M 245.25 147.71
  Q 246.21 147.59 247.04 148.00
  Q 246.84 149.01 246.25 149.00
  Q 244.48 148.98 245.23 149.96
  L 245.46 157.75
  L 245.00 157.79
  L 244.50 157.71
  Q 244.28 156.73 243.30 157.02
  Q 237.46 158.73 231.51 160.03
  Q 227.88 160.83 224.24 160.36
  Q 223.60 160.28 222.85 159.92
  Q 220.18 158.65 221.38 160.93
  Q 219.69 161.14 218.01 161.96
  Q 217.56 162.18 218.04 162.06
  Q 220.76 161.40 223.46 161.93
  Q 225.04 162.24 226.08 162.24
  Q 227.41 162.24 228.75 162.29
  Q 228.49 162.62 228.00 162.54
  Q 221.37 162.12 214.75 162.71
  Q 217.59 154.90 225.75 150.50
  Q 228.49 149.02 230.76 149.40
  Q 231.24 149.48 231.72 149.32
  Q 233.17 148.84 234.75 149.25
  Q 235.39 149.42 238.11 148.86
  Q 239.11 148.65 241.42 148.61
  Q 243.41 148.57 245.25 147.71
  Z"
/>
<path fill="#9aa4ab" d="
  M 247.04 148.00
  Q 247.93 147.92 248.75 148.29
  L 247.25 149.96
  Q 246.57 150.62 245.23 149.96
  Q 244.48 148.98 246.25 149.00
  Q 246.84 149.01 247.04 148.00
  Z"
/>
<path fill="#b2d9ec" d="
  M 250.00 148.04
  L 248.04 150.75
  Q 248.29 149.47 247.25 149.96
  L 248.75 148.29
  Q 249.29 147.83 250.00 148.04
  Z"
/>
<path fill="#b2d9ec" d="
  M 248.04 150.75
  Q 247.15 155.49 248.25 160.21
  Q 247.53 161.01 247.77 161.96
  Q 247.90 162.50 247.46 162.29
  Q 247.08 162.11 246.79 161.75
  L 245.18 160.77
  A 1.18 1.16 52.7 0 0 244.27 160.64
  Q 241.37 161.44 238.37 161.72
  Q 238.28 161.73 237.65 161.68
  Q 237.09 161.63 237.00 162.21
  Q 236.47 162.23 236.00 162.46
  Q 235.45 162.12 234.75 162.21
  Q 239.80 160.04 245.25 159.29
  Q 246.46 158.89 245.46 157.75
  L 245.23 149.96
  Q 246.57 150.62 247.25 149.96
  Q 248.29 149.47 248.04 150.75
  Z"
/>
<path fill="#a3ac69" d="
  M 275.21 149.75
  L 274.85 151.46
  A 1.27 1.04 -12.9 0 1 274.27 152.21
  L 269.00 155.21
  L 268.00 155.21
  Q 268.18 154.99 268.21 154.75
  Q 271.92 154.09 274.00 151.04
  Q 274.74 150.56 275.21 149.75
  Z"
/>
<path fill="#f1e23e" d="
  M 270.96 151.70
  Q 267.26 154.48 262.81 154.67
  Q 262.29 154.70 262.81 154.57
  Q 267.08 153.56 270.83 151.50
  Q 272.34 150.67 270.96 151.70
  Z"
/>
<path fill="#a3ac69" d="
  M 274.00 151.04
  Q 271.92 154.09 268.21 154.75
  Q 267.26 155.10 266.25 155.00
  Q 270.41 153.59 274.00 151.04
  Z"
/>
<path fill="#b1b150" d="
  M 272.25 154.54
  L 268.25 156.54
  L 264.25 156.96
  Q 264.22 156.12 263.00 156.46
  L 268.00 155.21
  L 269.00 155.21
  L 272.25 154.54
  Z"
/>
<path fill="#89853c" d="
  M 272.25 154.54
  Q 275.13 154.06 273.44 155.15
  Q 272.35 155.85 271.21 156.50
  Q 268.63 156.22 267.00 158.00
  L 265.04 158.00
  L 268.25 156.54
  L 272.25 154.54
  Z"
/>
<path fill="#a3ac69" d="
  M 268.21 154.75
  Q 268.18 154.99 268.00 155.21
  L 263.00 156.46
  L 262.75 156.54
  L 260.29 156.75
  L 260.29 156.50
  L 266.25 155.00
  Q 267.26 155.10 268.21 154.75
  Z"
/>
<path fill="#a3ac69" d="
  M 266.25 155.00
  L 260.29 156.50
  Q 262.96 154.74 266.25 155.00
  Z"
/>
<path fill="#89853c" d="
  M 270.90 158.08
  L 276.19 156.17
  Q 276.97 155.89 276.27 156.34
  Q 273.79 157.91 270.93 158.18
  Q 270.50 158.22 270.90 158.08
  Z"
/>
<path fill="#a3ac69" d="
  M 262.75 156.54
  L 259.00 158.21
  L 258.25 158.29
  L 256.75 158.25
  L 260.29 156.75
  L 262.75 156.54
  Z"
/>
<path fill="#b1b150" d="
  M 262.75 156.54
  L 263.00 156.46
  Q 264.22 156.12 264.25 156.96
  L 261.04 158.00
  Q 260.77 158.37 260.25 158.29
  L 259.00 158.21
  L 262.75 156.54
  Z"
/>
<path fill="#b1b150" d="
  M 268.25 156.54
  L 265.04 158.00
  L 264.21 158.50
  L 262.25 158.46
  Q 263.53 157.68 261.04 158.00
  L 264.25 156.96
  L 268.25 156.54
  Z"
/>
<path fill="#89853c" d="
  M 271.21 156.50
  Q 269.26 157.73 267.00 158.00
  Q 268.63 156.22 271.21 156.50
  Z"
/>
<path fill="#b2d9ec" d="
  M 244.50 157.71
  Q 241.53 158.49 238.53 159.16
  Q 238.45 159.17 233.06 160.68
  Q 227.46 162.23 221.38 160.93
  Q 220.18 158.65 222.85 159.92
  Q 223.60 160.28 224.24 160.36
  Q 227.88 160.83 231.51 160.03
  Q 237.46 158.73 243.30 157.02
  Q 244.28 156.73 244.50 157.71
  Z"
/>
<path fill="#b2d9ec" d="
  M 244.50 157.71
  L 245.00 157.79
  L 240.00 159.46
  Q 238.49 160.35 236.75 160.29
  Q 233.88 160.46 231.29 161.75
  L 230.50 162.46
  L 228.75 162.29
  Q 227.41 162.24 226.08 162.24
  Q 225.04 162.24 223.46 161.93
  Q 220.76 161.40 218.04 162.06
  Q 217.56 162.18 218.01 161.96
  Q 219.69 161.14 221.38 160.93
  Q 227.46 162.23 233.06 160.68
  Q 238.45 159.17 238.53 159.16
  Q 241.53 158.49 244.50 157.71
  Z"
/>
<path fill="#b2d9ec" d="
  M 245.00 157.79
  L 245.46 157.75
  Q 246.46 158.89 245.25 159.29
  L 240.00 159.46
  L 245.00 157.79
  Z"
/>
<path fill="#b1b150" d="
  M 261.04 158.00
  Q 263.53 157.68 262.25 158.46
  L 259.00 159.54
  Q 257.50 159.21 256.14 159.82
  Q 254.86 160.39 255.25 159.50
  L 260.25 158.29
  Q 260.77 158.37 261.04 158.00
  Z"
/>
<path fill="#89853c" d="
  M 265.04 158.00
  L 267.00 158.00
  Q 266.40 158.73 265.81 158.81
  Q 262.97 159.23 260.33 160.36
  Q 259.97 160.51 259.65 160.55
  Q 258.07 160.73 259.04 160.00
  Q 261.80 159.84 264.21 158.50
  L 265.04 158.00
  Z"
/>
<path fill="#a3ac69" d="
  M 256.75 158.25
  Q 254.52 159.41 252.50 159.25
  Q 250.86 159.12 250.25 160.46
  Q 249.36 162.05 248.71 160.25
  Q 249.03 159.60 250.50 159.25
  Q 253.59 158.50 256.75 158.25
  Z"
/>
<path fill="#b1b150" d="
  M 256.75 158.25
  L 258.25 158.29
  Q 256.55 158.50 255.25 159.50
  L 250.25 160.46
  Q 250.86 159.12 252.50 159.25
  Q 254.52 159.41 256.75 158.25
  Z"
/>
<path fill="#b1b150" d="
  M 258.25 158.29
  L 259.00 158.21
  L 260.25 158.29
  L 255.25 159.50
  Q 256.55 158.50 258.25 158.29
  Z"
/>
<path fill="#89853c" d="
  M 262.25 158.46
  L 264.21 158.50
  Q 261.80 159.84 259.04 160.00
  L 259.00 159.54
  L 262.25 158.46
  Z"
/>
<path fill="#b2d9ec" d="
  M 245.25 159.29
  Q 239.80 160.04 234.75 162.21
  L 234.00 162.46
  Q 232.88 162.05 231.75 162.54
  L 230.50 162.46
  L 231.29 161.75
  Q 234.22 161.72 236.75 160.29
  Q 238.49 160.35 240.00 159.46
  L 245.25 159.29
  Z"
/>
<path fill="#58739e" d="
  M 149.54 160.25
  L 154.00 165.54
  Q 154.09 166.08 153.50 166.04
  L 149.25 160.54
  Q 149.48 160.48 149.54 160.25
  Z"
/>
<path fill="#b2d9ec" d="
  M 236.75 160.29
  Q 234.22 161.72 231.29 161.75
  Q 233.88 160.46 236.75 160.29
  Z"
/>
<path fill="#5f87b2" d="
  M 246.79 161.75
  Q 246.85 162.27 246.52 162.51
  A 0.34 0.31 -39.8 0 0 246.45 162.99
  L 248.21 164.75
  Q 244.81 166.44 246.71 164.29
  A 0.23 0.22 -59.4 0 0 246.62 163.93
  Q 245.07 163.37 245.09 164.20
  A 0.61 0.49 84.9 0 1 244.69 164.79
  Q 238.88 165.99 232.97 166.69
  Q 232.41 166.76 232.14 167.05
  Q 231.96 167.24 231.84 167.47
  A 0.93 0.73 -76.0 0 1 231.19 167.98
  Q 225.60 168.46 220.00 168.75
  Q 216.20 168.95 213.80 168.33
  A 0.71 0.70 5.7 0 1 213.27 167.69
  Q 213.13 165.18 214.48 163.47
  Q 215.99 163.17 217.49 163.17
  Q 218.77 163.17 220.46 162.88
  Q 222.74 162.49 225.04 163.25
  L 219.55 163.78
  Q 218.64 163.87 219.52 164.01
  L 220.75 164.21
  L 228.25 164.29
  L 222.80 164.84
  A 0.55 0.27 -11.3 0 0 222.22 165.28
  Q 222.39 165.53 223.26 165.48
  Q 226.69 165.30 230.04 164.50
  Q 231.45 164.71 232.75 164.21
  Q 235.81 164.14 238.77 163.31
  Q 239.28 163.16 239.50 162.87
  Q 240.01 162.20 238.04 162.50
  Q 237.61 162.10 237.00 162.21
  Q 237.09 161.63 237.65 161.68
  Q 238.28 161.73 238.37 161.72
  Q 241.37 161.44 244.27 160.64
  A 1.18 1.16 52.7 0 1 245.18 160.77
  L 246.79 161.75
  Z
  M 231.1594 166.0358
  A 3.39 0.22 -7.7 0 0 227.7705 166.2720
  A 3.39 0.22 -7.7 0 0 224.4406 166.9442
  A 3.39 0.22 -7.7 0 0 227.8295 166.7080
  A 3.39 0.22 -7.7 0 0 231.1594 166.0358
  Z"
/>
<path fill="#b2d9ec" d="
  M 228.00 162.54
  Q 228.01 162.92 227.75 163.21
  L 225.04 163.25
  Q 222.74 162.49 220.46 162.88
  Q 218.77 163.17 217.49 163.17
  Q 215.99 163.17 214.48 163.47
  Q 214.41 162.75 214.75 162.71
  Q 221.37 162.12 228.00 162.54
  Z"
/>
<path fill="#b2d9ec" d="
  M 228.75 162.29
  L 230.50 162.46
  L 231.75 162.54
  Q 229.89 163.55 227.75 163.21
  Q 228.01 162.92 228.00 162.54
  Q 228.49 162.62 228.75 162.29
  Z"
/>
<path fill="#b2d9ec" d="
  M 234.00 162.46
  L 231.25 163.50
  L 220.75 164.21
  L 219.52 164.01
  Q 218.64 163.87 219.55 163.78
  L 225.04 163.25
  L 227.75 163.21
  Q 229.89 163.55 231.75 162.54
  Q 232.88 162.05 234.00 162.46
  Z"
/>
<path fill="#b2d9ec" d="
  M 234.75 162.21
  Q 235.45 162.12 236.00 162.46
  Q 233.76 163.60 231.25 163.50
  L 234.00 162.46
  L 234.75 162.21
  Z"
/>
<path fill="#789bd0" d="
  M 237.00 162.21
  Q 237.61 162.10 238.04 162.50
  L 232.75 164.21
  Q 231.45 164.71 230.04 164.50
  Q 229.61 164.10 229.00 164.21
  Q 230.25 164.14 231.25 163.50
  Q 233.76 163.60 236.00 162.46
  Q 236.47 162.23 237.00 162.21
  Z"
/>
<path fill="#789bd0" d="
  M 238.04 162.50
  Q 240.01 162.20 239.50 162.87
  Q 239.28 163.16 238.77 163.31
  Q 235.81 164.14 232.75 164.21
  L 238.04 162.50
  Z"
/>
<path fill="#b2d9ec" d="
  M 231.25 163.50
  Q 230.25 164.14 229.00 164.21
  L 228.25 164.29
  L 220.75 164.21
  L 231.25 163.50
  Z"
/>
<path fill="#789bd0" d="
  M 228.25 164.29
  L 229.00 164.21
  Q 229.61 164.10 230.04 164.50
  Q 226.69 165.30 223.26 165.48
  Q 222.39 165.53 222.22 165.28
  A 0.55 0.27 -11.3 0 1 222.80 164.84
  L 228.25 164.29
  Z"
/>
<ellipse fill="#5d75b5" cx="0.00" cy="0.00" transform="translate(227.80,166.49) rotate(-7.7)" rx="3.39" ry="0.22"/>
</svg>
