<?xml version="1.0" encoding="UTF-8" standalone="no"?>
<!DOCTYPE svg PUBLIC "-//W3C//DTD SVG 1.1//EN" "http://www.w3.org/Graphics/SVG/1.1/DTD/svg11.dtd">
<svg xmlns="http://www.w3.org/2000/svg" version="1.1" viewBox="0 0 485 415">
<g stroke-width="2.00" fill="none" stroke-linecap="butt">
<path stroke="#d4393d" vector-effect="non-scaling-stroke" d="
  M 108.06 0.00
  Q 106.22 0.51 107.74 0.62
  Q 108.55 0.69 107.58 0.89
  Q 107.42 0.92 107.59 0.92
  Q 108.35 0.90 108.59 1.46
  Q 108.75 1.83 108.47 2.38
  Q 105.56 8.07 100.19 10.44
  Q 97.84 11.47 96.72 13.02
  A 1.75 1.53 -78.1 0 1 95.96 13.59
  Q 92.91 14.68 91.59 17.34
  Q 90.32 19.94 89.68 20.69
  Q 84.92 26.29 79.61 31.40
  A 1.66 0.65 -2.6 0 1 78.76 31.78
  Q 78.03 31.94 77.31 32.81
  Q 72.76 38.31 65.21 44.25
  Q 64.86 44.53 64.64 45.03
  Q 64.18 46.10 63.18 46.61
  Q 61.27 47.60 61.04 47.79
  Q 55.81 52.19 54.00 55.50
  Q 48.69 65.18 43.18 74.75
  Q 42.58 75.78 41.81 76.80
  Q 41.07 77.78 40.34 78.77
  Q 39.81 79.48 37.93 81.54
  Q 36.24 83.40 35.19 85.72
  Q 34.11 88.13 32.60 90.28
  Q 32.34 90.66 32.32 90.19
  Q 32.28 89.24 31.81 89.84
  Q 29.74 92.49 29.07 95.69
  Q 28.01 100.66 27.99 100.72
  Q 26.87 104.23 25.46 107.64
  Q 23.88 111.49 22.96 114.52
  Q 20.85 121.50 19.94 122.94
  Q 15.34 130.19 10.63 137.36
  Q 8.24 141.00 8.50 144.25
  Q 8.89 149.19 7.70 153.07
  Q 6.76 156.12 6.48 158.09
  Q 5.84 162.49 3.98 167.41
  A 2.23 2.21 -47.8 0 0 4.06 169.19
  Q 5.50 172.09 5.46 175.21
  Q 5.43 177.39 4.41 178.68
  Q 3.08 180.36 0.75 180.29
  A 0.47 0.46 1.8 0 0 0.26 180.74
  L 0.00 193.44"
/>
<path stroke="#8c413d" vector-effect="non-scaling-stroke" d="
  M 154.02 -0.01
  Q 154.32 2.99 151.84 4.12
  Q 151.25 4.38 150.78 4.82
  Q 150.37 5.20 149.96 5.33
  Q 145.88 6.62 142.12 8.60
  Q 135.76 11.95 135.63 12.02
  Q 126.43 16.63 118.41 23.10
  Q 118.33 23.16 117.17 24.45
  Q 116.45 25.25 115.32 25.32
  A 0.88 0.83 11.4 0 0 114.61 25.76
  Q 114.07 26.80 113.05 27.26
  Q 111.37 28.03 111.21 28.15
  Q 109.60 29.30 108.23 30.72
  Q 106.62 32.39 105.35 33.32
  Q 101.19 36.38 97.46 39.94
  Q 96.67 40.70 95.77 42.18
  Q 95.02 43.41 94.04 44.45
  Q 93.96 44.53 91.06 46.52
  Q 89.68 47.47 88.44 49.19
  Q 87.39 50.65 81.31 56.81
  Q 80.63 57.50 79.94 57.65
  A 1.75 0.85 0.0 0 0 79.09 58.06
  Q 69.46 68.54 62.56 79.81
  Q 61.77 81.11 60.75 81.80
  A 2.00 1.35 -13.8 0 0 60.10 82.52
  Q 58.16 86.72 55.59 90.55
  Q 54.34 92.42 52.51 95.86
  Q 50.99 98.70 48.94 100.94
  Q 41.58 108.96 38.73 119.05
  Q 37.96 121.75 36.72 124.77
  Q 35.60 127.47 34.81 130.56
  Q 33.57 135.43 29.67 149.05
  Q 29.46 149.81 27.42 154.88
  Q 25.93 158.59 25.99 162.75
  Q 26.04 166.43 24.71 169.74
  Q 23.73 172.15 23.61 173.98
  Q 23.31 178.39 22.82 182.78
  Q 22.57 184.99 22.62 188.23
  Q 22.66 190.98 22.37 193.70
  Q 21.75 199.44 21.82 201.84
  Q 21.92 206.06 22.19 210.28
  Q 22.39 213.49 22.22 218.71
  Q 21.94 227.43 24.05 235.91
  Q 24.54 237.89 24.73 241.19
  Q 24.89 243.90 25.75 246.51
  Q 26.61 249.10 26.45 251.81
  Q 26.21 255.85 27.15 260.52
  A 1.30 1.27 -36.3 0 1 27.00 261.43
  L 26.50 262.31
  A 1.11 0.68 2.7 0 1 25.75 262.72
  L 21.50 263.29"
/>
<path stroke="#ca8284" vector-effect="non-scaling-stroke" d="
  M 21.50 263.29
  L 17.25 263.71"
/>
<path stroke="#db9193" vector-effect="non-scaling-stroke" d="
  M 17.25 263.71
  L 0.29 263.50"
/>
<path stroke="#e49b9d" vector-effect="non-scaling-stroke" d="
  M 0.29 263.50
  Q 0.40 262.76 0.00 262.19"
/>
<path stroke="#a7a6a0" vector-effect="non-scaling-stroke" d="
  M 160.06 0.00
  L 178.26 0.49
  Q 178.94 0.51 178.45 0.90
  Q 178.16 1.12 177.69 1.16
  Q 169.52 1.80 162.08 4.74
  Q 158.88 6.01 147.84 11.73
  Q 115.54 28.46 90.94 52.94
  Q 81.65 62.18 71.25 75.86
  Q 69.28 78.45 66.86 82.18
  Q 64.76 85.40 62.60 88.58
  Q 59.08 93.74 56.58 98.38
  Q 49.65 111.25 48.25 114.00
  Q 38.76 132.65 33.75 155.75
  Q 20.78 215.59 38.29 272.75"
/>
<path stroke="#3b6452" vector-effect="non-scaling-stroke" d="
  M 38.29 272.75
  Q 37.43 276.79 35.04 273.25"
/>
<path stroke="#8c8d87" vector-effect="non-scaling-stroke" d="
  M 35.04 273.25
  L 32.02 263.75
  A 1.24 1.19 -9.9 0 0 30.80 262.93
  L 21.50 263.29"
/>
<path stroke="#ffffff" vector-effect="non-scaling-stroke" d="
  M 331.56 0.00
  L 331.50 0.21"
/>
<path stroke="#a1a29c" vector-effect="non-scaling-stroke" d="
  M 331.50 0.21
  Q 321.89 0.41 312.27 0.50
  Q 311.87 0.50 311.23 0.44
  Q 310.11 0.34 310.17 0.63
  A 0.96 0.44 0.8 0 0 311.01 1.03
  Q 321.10 1.75 328.50 5.00
  Q 334.50 7.63 353.60 17.65
  Q 357.91 19.91 362.34 23.17
  Q 366.52 26.24 370.79 29.18
  Q 379.08 34.87 383.28 38.40
  Q 401.66 53.83 416.58 72.70"
/>
<path stroke="#9abdb3" vector-effect="non-scaling-stroke" d="
  M 416.58 72.70
  Q 419.85 79.14 425.12 84.15"
/>
<path stroke="#a1a29c" vector-effect="non-scaling-stroke" d="
  M 425.12 84.15
  Q 440.36 107.47 449.91 133.56
  Q 452.17 139.72 454.07 147.52
  Q 455.80 154.61 457.42 161.70"
/>
<path stroke="#d4d3d4" vector-effect="non-scaling-stroke" d="
  M 457.42 161.70
  Q 457.50 165.37 459.25 168.46"
/>
<path stroke="#a1a29c" vector-effect="non-scaling-stroke" d="
  M 459.25 168.46
  Q 462.29 179.50 462.44 190.92"
/>
<path stroke="#d4d3d4" vector-effect="non-scaling-stroke" d="
  M 462.44 190.92
  Q 461.35 193.67 461.94 196.44
  Q 462.70 200.04 462.71 203.75"
/>
<path stroke="#a1a29c" vector-effect="non-scaling-stroke" d="
  M 462.71 203.75
  Q 463.27 211.75 462.75 218.00
  Q 462.73 218.29 462.49 218.43
  A 0.97 0.55 -21.8 0 0 462.03 219.00
  L 459.71 237.25"
/>
<path stroke="#eadfcc" vector-effect="non-scaling-stroke" d="
  M 459.71 237.25
  L 458.06 243.46"
/>
<path stroke="#9abdb3" vector-effect="non-scaling-stroke" d="
  M 458.06 243.46
  Q 454.15 268.49 445.56 288.31
  Q 441.00 298.83 431.58 315.44
  Q 431.52 315.55 429.46 319.51
  Q 427.40 323.47 423.94 327.44
  Q 419.80 332.18 413.94 340.94
  Q 411.67 344.32 408.37 347.55
  Q 403.58 352.25 402.31 353.63
  Q 387.48 369.70 369.42 382.16
  Q 354.63 392.38 338.57 400.47
  Q 336.61 401.46 334.22 401.94
  Q 331.94 402.40 329.68 402.94
  Q 327.97 403.35 329.72 403.52
  Q 335.86 404.14 342.25 403.71"
/>
<path stroke="#d4d3d4" vector-effect="non-scaling-stroke" d="
  M 342.25 403.71
  L 366.00 403.71"
/>
<path stroke="#efefef" vector-effect="non-scaling-stroke" d="
  M 366.00 403.71
  Q 389.28 403.71 412.56 403.94
  Q 414.05 403.95 414.42 402.24
  A 1.82 1.36 80.4 0 1 414.85 401.40
  Q 421.13 395.13 427.31 390.56
  Q 431.90 387.17 435.08 383.32
  A 0.16 0.14 33.0 0 0 435.02 383.10
  L 434.87 383.02
  A 0.33 0.31 -56.0 0 1 434.79 382.53
  Q 437.96 378.47 441.71 374.96
  Q 443.73 373.08 445.28 371.06
  Q 447.62 368.03 448.81 367.06
  Q 451.39 364.97 452.57 361.89
  Q 453.35 359.88 455.50 356.75
  Q 462.91 345.99 465.43 342.47
  Q 470.11 335.96 471.25 332.25
  Q 472.53 328.09 474.43 324.18
  Q 476.46 320.01 478.15 315.69
  Q 479.37 312.55 481.28 309.85
  Q 483.20 307.13 485.00 304.31"
/>
<path stroke="#f6f6f6" vector-effect="non-scaling-stroke" d="
  M 0.29 263.50
  Q 0.80 265.39 2.55 264.71
  Q 2.97 264.54 3.50 264.52
  L 7.44 264.37
  A 0.39 0.37 3.4 0 1 7.85 264.80
  Q 6.96 269.75 7.70 274.76
  Q 8.28 278.63 9.11 282.45
  Q 9.69 285.14 11.41 289.90
  Q 12.45 292.79 13.28 295.74
  Q 14.20 298.99 15.45 301.41
  Q 16.94 304.29 18.48 307.15
  Q 19.85 309.68 20.49 312.78
  Q 21.98 319.93 24.56 325.44
  Q 27.15 330.94 33.06 340.94
  Q 35.48 345.02 37.29 347.65
  Q 40.09 351.73 41.61 354.27
  Q 45.06 360.06 51.06 367.69
  Q 54.10 371.55 56.56 373.84
  Q 59.28 376.36 60.54 378.06
  Q 62.28 380.40 64.12 382.67
  A 1.57 1.50 24.6 0 1 64.47 383.55
  L 64.52 384.18
  A 1.72 1.68 -66.6 0 0 64.87 385.09
  Q 72.36 394.80 84.25 401.13
  A 2.15 2.10 5.6 0 1 85.28 402.36
  Q 85.70 403.66 87.04 403.20
  Q 87.59 403.01 87.99 403.05
  Q 98.26 404.05 108.44 403.70"
/>
<path stroke="#e5e6e6" vector-effect="non-scaling-stroke" d="
  M 108.44 403.70
  Q 126.94 404.14 145.25 403.21"
/>
<path stroke="#94beb1" vector-effect="non-scaling-stroke" d="
  M 145.25 403.21
  Q 152.59 404.34 159.93 403.38
  Q 160.43 403.31 159.95 403.22
  Q 152.85 401.87 146.19 398.06
  Q 134.81 391.56 124.64 384.98
  Q 116.07 379.43 108.53 373.15
  Q 89.89 357.62 76.81 341.94
  Q 52.10 312.31 38.29 272.75"
/>
<path stroke="#82b9ae" vector-effect="non-scaling-stroke" d="
  M 105.94 58.94
  Q 90.82 73.75 81.91 84.94
  Q 76.51 91.73 72.29 99.30
  Q 66.54 109.61 61.25 120.16
  Q 56.44 129.75 53.30 140.02
  Q 49.54 152.32 46.24 164.75
  Q 44.71 170.54 44.03 176.50
  Q 43.04 185.32 42.24 194.17
  Q 41.39 203.69 41.91 211.87
  Q 42.66 223.62 44.50 235.25
  Q 45.94 244.27 48.82 254.55
  Q 52.00 265.89 54.81 273.44
  Q 64.87 300.41 84.49 324.51
  Q 92.77 334.68 100.19 342.56
  Q 110.22 353.23 123.78 359.76
  Q 129.73 362.63 138.25 363.25
  Q 146.72 363.86 154.11 362.76
  Q 161.64 361.64 168.99 357.79
  Q 181.61 351.17 189.44 340.44
  Q 196.52 330.72 197.95 318.74
  Q 198.54 313.75 198.75 302.50
  Q 198.99 289.73 200.87 234.00
  Q 201.42 217.88 201.25 201.73
  Q 201.22 199.18 203.24 197.62
  Q 206.27 195.27 209.24 193.00
  Q 217.65 186.58 227.93 185.65
  Q 232.31 185.25 236.55 185.36
  Q 240.95 185.48 245.14 186.65
  Q 250.17 188.05 256.22 192.04
  Q 262.27 196.04 265.81 199.94
  Q 269.03 203.48 271.31 208.44
  Q 276.85 220.45 280.37 230.79
  Q 283.69 240.54 285.02 250.75
  Q 288.64 278.57 291.82 306.44
  Q 291.83 306.54 292.45 314.08
  Q 294.02 333.33 307.25 346.89
  Q 310.71 350.44 315.95 353.77
  Q 320.66 356.77 325.60 359.37
  Q 330.61 362.02 338.75 363.00
  Q 360.36 365.60 377.11 354.14
  Q 384.19 349.31 392.81 340.56
  Q 424.37 308.58 438.68 267.70
  Q 442.39 257.11 444.12 250.25
  Q 446.15 242.24 447.50 232.25
  Q 453.66 186.68 440.01 145.04
  Q 436.10 133.11 431.30 121.51
  Q 429.77 117.79 425.81 110.69
  Q 415.72 92.56 403.82 78.15
  Q 397.88 70.96 395.36 68.18
  Q 391.38 63.78 386.06 58.94
  Q 361.56 36.65 333.49 22.95
  Q 323.84 18.25 310.56 14.19
  Q 294.64 9.32 285.53 7.14
  Q 276.97 5.10 268.24 4.36
  Q 256.08 3.33 255.78 3.30
  Q 246.47 2.43 240.25 3.00
  Q 231.88 3.76 223.49 4.38
  Q 214.07 5.08 204.91 7.33
  Q 188.87 11.26 173.26 16.67
  Q 162.31 20.46 153.94 24.94
  Q 143.30 30.62 128.94 39.69
  Q 119.52 45.64 105.94 58.94"
/>
<path stroke="#eb9d9e" vector-effect="non-scaling-stroke" d="
  M 238.38 210.85
  A 10.88 10.88 0.0 0 0 227.50 199.97
  A 10.88 10.88 0.0 0 0 216.62 210.85
  A 10.88 10.88 0.0 0 0 227.50 221.73
  A 10.88 10.88 0.0 0 0 238.38 210.85"
/>
<path stroke="#df9a9b" vector-effect="non-scaling-stroke" d="
  M 336.81 0.00
  L 332.00 0.29"
/>
<path stroke="#a1a29c" vector-effect="non-scaling-stroke" d="
  M 332.00 0.29
  L 331.50 0.21"
/>
<path stroke="#cf393c" vector-effect="non-scaling-stroke" d="
  M 389.81 0.00
  Q 392.15 0.15 391.18 0.52
  A 0.09 0.08 54.2 0 0 391.16 0.66
  L 391.25 0.75
  A 0.17 0.16 -32.7 0 1 391.19 1.02
  Q 390.02 1.47 391.35 2.02
  A 1.97 1.67 78.3 0 1 392.09 2.60
  Q 393.12 3.97 395.25 4.25
  Q 397.71 4.58 400.37 6.61
  Q 404.84 10.01 409.63 12.93
  A 1.74 1.36 87.7 0 1 410.25 13.66
  Q 410.66 14.59 411.19 14.81
  Q 419.71 18.40 426.14 24.99
  Q 426.24 25.09 427.61 26.21
  Q 429.13 27.44 428.81 29.69
  A 1.72 0.99 -86.7 0 0 429.81 31.69
  Q 430.96 31.48 431.52 32.18
  Q 432.21 33.02 432.26 33.07
  Q 436.67 36.83 440.31 41.30
  Q 443.34 45.02 446.35 48.11
  Q 451.24 53.10 454.81 58.69
  Q 456.65 61.56 458.87 63.44
  A 1.61 1.56 13.1 0 1 459.38 64.23
  Q 460.14 67.02 461.25 68.25
  Q 464.64 71.99 466.99 76.42
  Q 467.94 78.20 469.22 79.99
  Q 470.45 81.72 471.45 83.58
  Q 472.91 86.30 474.53 89.09
  Q 476.67 92.77 477.19 96.06
  Q 478.59 104.93 481.81 110.69
  Q 482.25 111.46 483.39 112.19
  A 1.04 0.61 -32.5 0 0 484.22 112.16
  Q 485.00 111.84 485.00 113.81"
/>
<path stroke="#df9a9b" vector-effect="non-scaling-stroke" d="
  M 485.00 261.81
  Q 484.75 261.73 484.71 262.00"
/>
<path stroke="#b46e70" vector-effect="non-scaling-stroke" d="
  M 484.71 262.00
  Q 481.77 262.79 478.77 262.77
  Q 474.85 262.75 472.87 262.92
  Q 469.82 263.17 466.75 262.96"
/>
<path stroke="#ac3234" vector-effect="non-scaling-stroke" d="
  M 466.75 262.96
  L 470.81 262.60
  Q 471.29 262.56 470.99 262.17
  Q 469.56 260.29 470.00 258.25
  Q 471.05 253.42 470.98 250.50
  Q 470.77 242.33 472.13 234.27
  Q 473.98 223.30 473.75 219.75
  Q 473.20 211.35 473.62 202.94
  Q 473.89 197.66 472.50 190.75
  Q 471.69 186.72 471.77 181.75
  Q 471.86 175.88 471.48 172.78
  Q 469.70 158.13 467.75 151.25
  Q 463.93 137.74 453.37 112.76
  A 1.06 0.42 13.8 0 0 452.72 112.30
  Q 452.42 112.18 452.43 111.74
  A 1.67 0.74 -77.9 0 0 452.24 110.83
  Q 448.15 104.09 443.55 97.69
  Q 443.45 97.55 441.67 94.66
  Q 440.59 92.90 439.19 92.06
  Q 435.84 90.06 433.97 87.48
  Q 431.84 84.56 431.64 84.31
  Q 429.73 82.00 429.56 80.94
  Q 429.06 77.78 426.37 75.86"
/>
<path stroke="#813d38" vector-effect="non-scaling-stroke" d="
  M 426.37 75.86
  L 412.46 59.75"
/>
<path stroke="#87413c" vector-effect="non-scaling-stroke" d="
  M 412.46 59.75
  L 410.29 57.50"
/>
<path stroke="#813d38" vector-effect="non-scaling-stroke" d="
  M 410.29 57.50
  Q 401.95 49.07 393.23 41.01
  Q 384.80 33.21 375.30 26.78
  Q 372.23 24.69 368.84 22.00
  Q 365.67 19.48 362.33 17.22
  Q 358.76 14.81 353.65 12.62
  Q 349.13 10.69 344.61 8.75
  Q 342.14 7.69 341.83 7.60
  Q 338.79 6.71 336.05 5.12
  Q 332.76 3.20 332.00 0.29"
/>
<path stroke="#48493c" vector-effect="non-scaling-stroke" d="
  M 410.29 57.50
  Q 410.59 59.34 412.46 59.75"
/>
<path stroke="#6e3a34" vector-effect="non-scaling-stroke" d="
  M 426.37 75.86
  Q 428.16 80.14 430.74 83.95
  Q 433.32 87.75 434.56 90.46
  Q 439.90 102.20 442.69 106.06
  Q 444.43 108.48 446.81 113.69
  Q 450.90 122.61 453.75 132.01
  Q 454.78 135.38 456.65 138.36
  Q 458.03 140.55 458.87 146.54
  Q 459.63 151.91 460.19 153.81
  Q 462.57 161.86 463.00 170.25
  Q 463.07 171.60 463.97 174.17
  Q 464.61 175.98 464.68 178.08
  Q 464.78 181.11 465.57 184.05
  Q 466.02 185.75 466.12 187.00
  Q 466.24 188.50 466.35 190.01
  Q 466.47 191.80 466.05 194.45
  Q 465.50 197.90 465.91 201.34
  Q 466.45 205.78 466.38 207.72
  Q 466.04 216.89 465.72 226.06
  Q 465.66 227.72 466.13 226.21
  Q 466.89 223.81 466.77 226.85
  Q 466.75 227.24 466.61 227.62
  Q 465.19 231.35 465.25 233.25
  Q 465.43 239.23 463.69 244.19
  Q 461.18 251.33 460.03 257.19
  Q 459.94 257.65 459.62 258.08
  Q 457.85 260.44 459.50 263.04"
/>
<path stroke="#767671" vector-effect="non-scaling-stroke" d="
  M 459.50 263.04
  Q 459.35 263.34 459.00 263.29"
/>
<path stroke="#3b604f" vector-effect="non-scaling-stroke" d="
  M 459.00 263.29
  Q 457.55 263.99 456.20 263.46
  A 0.69 0.65 -77.0 0 1 455.79 262.76
  Q 456.29 257.54 458.94 251.69
  Q 459.34 250.80 458.68 250.03
  A 1.30 1.02 -70.5 0 1 458.40 249.20
  L 458.46 243.50"
/>
<path stroke="#8b8268" vector-effect="non-scaling-stroke" d="
  M 458.46 243.50
  L 459.71 237.25"
/>
<path stroke="#767671" vector-effect="non-scaling-stroke" d="
  M 462.71 203.75
  Q 463.51 197.31 462.44 190.92"
/>
<path stroke="#767671" vector-effect="non-scaling-stroke" d="
  M 459.25 168.46
  Q 459.24 164.79 457.42 161.70"
/>
<path stroke="#3b604f" vector-effect="non-scaling-stroke" d="
  M 425.12 84.15
  Q 422.42 77.25 416.58 72.70"
/>
<path stroke="#82b9ae" vector-effect="non-scaling-stroke" d="
  M 248.44 103.81
  Q 272.29 104.45 290.94 113.31
  Q 301.13 118.16 313.01 128.15
  Q 313.07 128.20 316.82 130.96
  Q 319.66 133.06 322.31 136.69
  Q 327.95 144.40 331.52 149.51
  Q 336.72 156.95 339.49 163.12
  Q 345.63 176.81 347.25 192.75
  Q 349.38 213.74 344.25 232.75
  Q 341.90 241.46 337.18 249.81
  Q 335.23 253.25 330.71 259.22
  Q 327.26 263.78 323.94 268.44
  Q 320.84 272.77 315.15 276.99
  Q 312.21 279.17 310.67 281.33
  Q 305.98 287.91 303.23 295.41
  Q 300.52 302.80 300.69 310.90
  Q 301.19 335.17 320.71 347.58
  Q 329.48 353.15 339.22 354.70
  Q 352.03 356.73 364.37 351.72
  Q 369.58 349.61 372.68 347.78
  Q 376.70 345.42 379.88 341.89
  Q 382.67 338.79 385.69 335.94
  Q 400.45 322.04 411.56 305.06
  Q 418.25 294.85 424.47 282.29
  Q 429.07 273.00 431.94 263.78
  Q 437.66 245.42 440.03 226.25
  Q 442.64 205.12 440.04 184.00
  Q 438.72 173.24 434.50 154.50
  Q 431.43 140.86 425.58 128.18
  Q 414.52 104.18 397.91 83.69
  Q 397.82 83.58 394.44 79.03
  Q 392.15 75.96 388.81 72.94
  Q 385.34 69.79 380.04 64.00
  Q 376.99 60.66 373.44 58.09
  Q 365.98 52.69 358.69 47.06
  Q 349.53 40.00 337.01 33.77
  Q 327.61 29.10 318.84 25.41
  Q 302.07 18.37 284.15 15.20
  Q 274.52 13.49 264.32 12.54
  Q 249.83 11.19 233.75 12.00
  Q 198.45 13.79 167.46 27.61
  Q 157.98 31.84 149.52 36.44
  Q 136.62 43.46 125.15 52.71
  Q 122.76 54.63 119.55 56.93
  Q 115.71 59.69 114.19 61.44
  Q 108.69 67.76 102.65 73.55
  Q 97.53 78.45 94.40 82.45
  Q 89.23 89.04 84.32 95.82
  Q 76.60 106.49 71.03 118.41
  Q 68.46 123.89 65.89 129.35
  Q 62.80 135.91 61.14 140.46
  Q 51.90 165.69 50.85 192.66
  Q 50.77 194.70 50.19 199.79
  Q 49.78 203.37 49.98 207.00
  Q 50.73 220.03 52.37 232.98
  Q 54.02 246.03 57.74 258.58
  Q 60.06 266.38 64.28 275.44
  Q 68.11 283.65 72.36 291.66
  Q 80.38 306.80 91.10 320.09
  Q 94.31 324.06 100.85 331.00
  Q 108.74 339.36 110.69 341.81
  Q 113.01 344.73 117.06 347.19
  Q 141.40 361.94 167.01 349.83
  Q 177.22 345.01 183.44 334.44
  Q 190.81 321.91 190.38 308.46
  Q 190.07 298.71 185.32 289.56
  Q 180.70 280.65 172.95 273.81
  Q 166.06 267.74 158.94 257.06
  Q 153.97 249.62 150.82 242.99
  Q 147.63 236.27 145.72 227.66
  Q 139.77 200.83 147.53 173.94
  Q 149.17 168.23 152.02 163.01
  Q 157.65 152.71 164.30 143.03
  Q 168.04 137.60 175.19 131.19
  Q 185.10 122.31 195.47 116.21
  Q 203.86 111.28 213.79 108.39
  Q 231.11 103.35 248.44 103.81"
/>
<path stroke="#72574e" vector-effect="non-scaling-stroke" d="
  M 190.04 192.25
  Q 191.83 193.45 194.00 193.46"
/>
<path stroke="#6d987a" vector-effect="non-scaling-stroke" d="
  M 194.00 193.46
  Q 195.44 195.10 196.71 193.46
  Q 198.91 190.61 201.54 187.89"
/>
<path stroke="#72574e" vector-effect="non-scaling-stroke" d="
  M 201.54 187.89
  Q 204.62 185.58 207.31 184.31
  Q 231.67 172.82 256.94 183.06
  Q 266.04 186.75 270.97 194.22"
/>
<path stroke="#82b9ae" vector-effect="non-scaling-stroke" d="
  M 270.97 194.22
  Q 280.42 205.94 285.13 219.79
  Q 289.19 231.74 291.36 244.18
  Q 294.60 262.75 296.43 281.51
  Q 296.65 283.76 297.67 285.46
  A 0.59 0.58 44.2 0 0 298.68 285.45
  Q 303.41 277.25 310.34 270.86
  Q 322.53 259.63 330.19 244.94
  Q 331.00 243.38 334.01 237.92
  Q 336.13 234.09 337.16 230.64
  Q 344.63 205.79 337.73 181.14
  Q 335.87 174.48 331.90 166.19
  Q 327.81 157.66 324.19 152.06
  Q 317.29 141.41 306.47 132.72
  Q 301.08 128.39 293.48 124.03
  Q 285.71 119.57 279.44 117.06
  Q 251.53 105.87 221.22 113.90
  Q 216.13 115.25 209.25 118.50
  Q 197.32 124.13 189.30 129.60
  Q 184.97 132.55 181.35 136.35
  Q 176.97 140.93 172.62 145.53
  Q 168.39 150.00 165.91 154.29
  Q 159.16 165.93 154.19 181.19
  Q 150.93 191.18 150.51 199.99
  Q 150.29 204.59 150.49 210.02
  Q 150.68 215.24 151.75 220.00
  Q 153.74 228.84 157.54 237.50
  Q 160.79 244.90 163.49 249.54
  Q 166.90 255.40 171.54 260.38
  Q 176.36 265.55 176.43 265.64
  Q 183.10 273.18 190.07 280.45
  Q 190.63 281.03 190.75 280.23
  Q 191.36 276.09 191.83 271.92
  Q 192.25 268.06 192.35 263.56
  Q 192.67 247.57 192.44 231.62
  A 1.28 1.28 -81.1 0 0 191.58 230.44
  Q 188.72 229.47 186.27 227.73
  Q 178.71 222.36 172.72 215.29
  Q 170.23 212.36 171.81 209.56
  Q 176.57 201.13 186.44 196.19
  Q 189.34 194.73 190.04 192.25"
/>
<path stroke="#ef9ea0" vector-effect="non-scaling-stroke" d="
  M 270.97 194.22
  Q 288.57 191.99 301.37 179.87
  Q 303.80 177.57 304.44 175.69
  Q 308.28 164.33 304.94 152.77
  Q 304.06 149.72 302.50 147.75
  Q 297.61 141.58 290.87 137.58
  Q 284.91 134.04 276.57 132.54
  Q 255.47 128.74 235.17 137.13
  Q 229.39 139.52 223.80 142.29
  Q 205.17 151.55 195.44 169.94
  Q 190.56 179.16 190.04 192.25"
/>
<path stroke="#da7d6c" vector-effect="non-scaling-stroke" d="
  M 201.54 187.89
  Q 196.00 188.33 194.00 193.46"
/>
<path stroke="#78b9ae" vector-effect="non-scaling-stroke" d="
  M 180.57 209.65
  Q 183.82 210.00 187.82 209.58
  Q 187.92 209.57 189.18 209.52
  Q 191.34 209.43 191.37 207.42
  Q 191.41 205.32 191.43 205.08
  Q 191.74 202.14 190.42 199.51
  A 0.53 0.51 64.2 0 0 189.74 199.26
  Q 183.60 201.96 179.55 207.32
  Q 178.00 209.38 180.57 209.65"
/>
<path stroke="#78b9ae" vector-effect="non-scaling-stroke" d="
  M 189.87 214.44
  L 179.28 213.31
  Q 178.71 213.24 178.95 213.76
  Q 182.37 221.15 188.83 223.69
  Q 191.64 224.80 191.46 221.95
  L 191.04 215.53
  A 1.32 1.15 2.0 0 0 189.87 214.44"
/>
<path stroke="#ec9d9e" vector-effect="non-scaling-stroke" d="
  M 243.66 68.37
  A 2.04 1.83 17.1 0 1 245.33 67.60
  L 258.45 67.97
  A 2.39 2.19 -6.1 0 1 260.65 69.59
  Q 261.55 72.83 263.39 76.38
  Q 263.43 76.46 264.34 77.92
  Q 266.04 80.63 263.25 82.50
  Q 262.53 82.98 258.80 83.72
  A 0.93 0.82 2.6 0 0 258.12 84.27
  Q 257.61 85.71 258.25 87.06
  A 0.88 0.83 -11.3 0 0 258.99 87.52
  Q 273.49 88.03 276.25 88.75
  Q 281.32 90.07 286.51 89.58
  Q 287.39 89.50 287.82 89.03
  Q 288.37 88.43 288.36 87.57
  Q 288.35 86.64 287.44 85.86
  Q 285.81 84.48 283.78 83.84
  Q 281.86 83.24 281.50 81.27
  Q 280.95 78.26 279.83 75.43
  Q 272.73 57.57 267.75 39.00
  Q 267.37 37.59 265.57 32.69
  Q 264.38 29.47 262.78 28.68
  Q 260.64 27.62 257.27 28.49
  A 2.66 2.66 4.6 0 0 255.48 30.01
  Q 252.98 35.69 250.45 41.45
  Q 248.39 46.15 245.06 52.73
  Q 240.73 61.28 236.95 70.09
  Q 236.91 70.19 235.68 73.46
  Q 231.76 83.87 220.07 83.46
  A 0.93 0.90 -13.5 0 1 219.31 83.01
  Q 216.77 78.57 214.75 70.75
  Q 210.62 54.75 204.86 38.61
  A 0.95 0.95 72.4 0 1 205.50 37.37
  Q 210.15 36.11 214.29 36.25
  A 2.63 2.61 -22.9 0 1 215.96 36.92
  Q 219.28 39.86 222.18 41.77
  Q 224.48 43.28 225.60 41.21
  Q 226.41 39.70 225.28 38.42
  Q 222.13 34.83 219.94 30.45
  Q 218.71 27.99 216.08 28.77
  Q 200.47 33.42 183.87 37.70
  Q 181.87 38.22 179.56 38.42
  Q 177.37 38.61 175.18 38.88
  A 0.59 0.58 87.7 0 0 174.67 39.44
  Q 174.45 46.10 174.08 52.75
  Q 173.83 57.27 177.47 55.59
  A 2.76 2.72 83.9 0 0 178.99 53.68
  Q 180.54 46.55 185.26 42.74
  Q 188.76 39.92 190.38 44.11
  Q 193.20 51.37 195.67 60.77
  Q 198.62 72.00 201.92 84.89
  Q 202.32 86.47 201.29 87.72
  Q 200.31 88.92 198.32 90.58
  Q 196.28 92.28 197.33 94.50
  A 0.61 0.57 -20.9 0 0 198.05 94.79
  Q 211.72 90.50 225.67 87.26
  Q 228.86 86.52 232.40 86.75
  Q 240.31 87.28 248.25 87.25
  A 0.62 0.46 -0.8 0 0 248.88 86.77
  L 248.78 83.25
  A 1.84 1.51 5.5 0 0 247.28 81.76
  L 241.51 80.68
  A 1.85 1.76 -81.1 0 1 240.10 78.64
  Q 240.94 72.16 243.66 68.37"
/>
<path stroke="#eadfcc" vector-effect="non-scaling-stroke" d="
  M 156.75 58.54
  Q 159.48 59.74 161.46 62.00"
/>
<path stroke="#ec9d9e" vector-effect="non-scaling-stroke" d="
  M 161.46 62.00
  Q 163.36 65.21 166.02 63.27
  A 2.03 2.02 60.4 0 0 166.69 60.83
  Q 165.35 57.70 163.16 55.11
  Q 159.24 50.46 153.24 52.59
  Q 144.16 55.82 139.49 63.51
  Q 135.98 69.29 135.55 74.36
  Q 135.03 80.63 139.81 85.95
  Q 144.56 91.22 151.76 90.99
  Q 157.05 90.81 162.09 89.16
  Q 165.99 87.88 169.00 87.75
  Q 178.43 87.34 179.55 94.52
  Q 180.33 99.57 177.31 103.44
  Q 174.20 107.42 168.25 108.00
  Q 166.37 108.18 164.79 108.11
  Q 163.24 108.04 161.69 106.88
  Q 157.09 103.43 154.25 102.75
  Q 150.11 101.76 151.46 104.63
  Q 151.86 105.48 152.92 106.56
  Q 156.67 110.40 160.05 114.14
  A 1.77 1.76 -26.0 0 0 161.69 114.70
  Q 168.20 113.47 173.60 110.83
  Q 179.97 107.71 183.15 103.16
  Q 186.00 99.09 186.63 94.02
  Q 187.24 89.13 186.50 84.48
  Q 185.30 76.87 178.76 73.11
  Q 175.03 70.97 169.84 71.13
  Q 164.70 71.28 159.70 72.74
  Q 156.75 73.60 153.76 74.32
  Q 149.89 75.24 147.75 74.34
  Q 145.07 73.22 144.30 70.25
  Q 143.72 67.98 144.62 65.30
  Q 147.26 57.38 156.75 58.54"
/>
<path stroke="#d77c6b" vector-effect="non-scaling-stroke" d="
  M 161.46 62.00
  Q 160.25 58.70 156.75 58.54"
/>
<path stroke="#eb9d9e" vector-effect="non-scaling-stroke" d="
  M 317.69 89.94
  Q 315.69 92.41 310.93 95.02
  A 1.67 1.21 27.4 0 1 310.01 95.16
  L 304.99 94.54
  A 1.32 1.22 -58.0 0 0 304.08 94.79
  Q 301.45 96.75 303.94 98.74
  Q 305.08 99.65 305.13 99.70
  Q 313.91 107.60 323.76 114.80
  A 1.53 1.53 31.1 0 0 326.03 114.24
  Q 327.20 111.88 324.99 109.99
  Q 322.99 108.28 324.34 106.02
  Q 326.55 102.30 329.20 98.86
  Q 332.42 94.67 332.62 94.47
  Q 334.61 92.41 337.50 91.50
  Q 340.73 90.49 339.76 93.73
  Q 336.38 105.02 332.55 116.15
  Q 331.36 119.64 331.35 119.72
  Q 331.11 121.82 333.31 123.44
  Q 340.23 128.51 347.06 133.69
  Q 348.79 134.99 347.94 133.06
  Q 346.55 129.90 346.26 126.57
  Q 346.05 124.07 347.06 120.03
  Q 349.46 110.54 351.84 100.55
  A 1.69 1.69 -73.5 0 1 354.04 99.35
  Q 359.98 101.46 364.51 98.60
  Q 368.66 95.97 371.05 91.49
  Q 373.22 87.42 371.87 82.60
  Q 371.23 80.33 368.98 78.17
  Q 355.95 65.73 341.34 54.09
  Q 338.76 52.03 338.87 55.33
  Q 338.95 57.45 340.05 60.13
  Q 341.04 62.53 339.31 64.47
  Q 327.82 77.36 317.69 89.94"
/>
<path stroke="#eadfcc" vector-effect="non-scaling-stroke" d="
  M 109.25 209.04
  L 110.00 209.54"
/>
<path stroke="#eadfcc" vector-effect="non-scaling-stroke" d="
  M 110.00 209.54
  Q 114.02 211.49 115.06 212.69
  Q 119.16 217.38 120.25 218.25
  Q 123.31 220.68 122.79 224.00"
/>
<path stroke="#eb9d9e" vector-effect="non-scaling-stroke" d="
  M 122.79 224.00
  Q 121.94 228.69 117.81 232.56
  Q 111.13 238.83 102.99 240.71
  Q 97.27 242.04 90.96 241.63
  Q 84.83 241.24 79.07 238.68
  Q 70.05 234.67 70.49 225.57
  Q 70.61 223.02 72.33 220.49
  Q 75.33 216.11 78.95 212.18
  Q 80.58 210.40 78.30 209.59
  Q 75.96 208.76 73.27 210.04
  Q 67.13 212.95 65.92 218.75
  Q 65.14 222.45 66.36 229.25
  Q 67.86 237.61 72.61 244.71
  Q 75.28 248.71 76.80 250.40
  Q 79.13 252.99 82.44 254.81
  Q 88.82 258.33 95.69 258.50
  Q 100.44 258.62 104.80 257.88
  Q 109.66 257.07 113.44 254.44
  Q 127.19 244.87 127.63 227.25
  Q 127.75 222.14 125.89 217.41
  Q 124.05 212.71 122.40 208.40
  Q 121.66 206.46 122.18 204.45
  Q 123.41 199.73 124.12 194.92
  Q 124.61 191.55 125.34 189.18
  Q 126.21 186.37 127.16 183.60
  Q 128.22 180.49 127.75 177.25
  Q 127.42 175.02 125.50 176.75
  Q 124.44 177.71 123.72 178.95
  Q 121.85 182.19 118.02 181.62
  Q 109.74 180.38 101.93 177.31
  Q 98.40 175.92 101.78 174.20
  Q 107.35 171.37 113.66 170.53
  Q 119.74 169.73 119.81 169.72
  Q 124.39 168.90 128.95 167.93
  Q 130.63 167.58 130.78 165.86
  Q 131.43 158.59 135.82 152.88
  Q 140.15 147.26 140.19 147.19
  Q 145.04 139.86 149.56 132.31
  Q 150.58 130.61 157.07 123.85
  Q 158.63 122.23 158.83 120.50
  Q 159.05 118.52 158.56 116.53
  A 1.08 0.96 7.9 0 0 157.98 115.85
  Q 152.66 113.37 148.31 109.40
  A 0.86 0.76 52.9 0 0 147.47 109.23
  Q 144.91 110.29 146.50 113.00
  Q 153.88 125.61 142.15 133.05
  A 2.82 2.81 -49.0 0 1 139.49 133.24
  Q 133.01 130.33 127.82 126.39
  Q 125.15 124.37 125.04 124.25
  Q 123.75 122.80 124.25 120.50
  Q 125.15 116.42 128.63 114.31
  A 1.59 1.39 28.9 0 1 129.56 114.11
  Q 133.16 114.48 136.76 114.96
  Q 140.56 115.47 139.44 112.46
  A 1.64 1.06 15.6 0 0 138.82 111.76
  L 124.00 102.21"
/>
<path stroke="#eadfcc" vector-effect="non-scaling-stroke" d="
  M 124.00 102.21
  Q 120.19 99.45 120.71 104.00"
/>
<path stroke="#eb9d9e" vector-effect="non-scaling-stroke" d="
  M 120.71 104.00
  L 123.91 109.00
  Q 124.85 110.47 123.77 112.21
  Q 121.47 115.92 118.11 119.16
  A 0.59 0.58 42.1 0 1 117.35 119.19
  Q 111.58 114.68 105.56 110.50
  Q 102.97 108.71 104.94 105.69
  Q 108.77 99.81 111.84 97.07
  Q 114.06 95.09 116.27 96.09
  Q 118.73 97.21 119.08 97.24
  Q 122.15 97.45 122.03 93.51
  A 0.84 0.80 11.3 0 0 121.53 92.80
  Q 116.80 90.81 113.52 88.21
  Q 111.48 86.61 110.02 88.75
  Q 103.55 98.25 96.85 107.12
  Q 92.91 112.33 86.81 121.56
  Q 85.44 123.63 86.27 125.55
  A 0.47 0.44 -27.7 0 0 86.93 125.73
  Q 90.57 123.46 94.76 122.60
  A 1.35 1.29 52.9 0 1 95.68 122.75
  Q 105.57 128.43 114.70 135.25
  Q 123.22 141.62 131.45 147.88
  A 0.78 0.78 -50.0 0 1 131.55 149.03
  Q 129.35 151.43 126.88 152.89
  Q 125.09 153.96 121.24 154.73
  Q 111.03 156.77 101.00 161.05
  Q 100.22 161.39 100.42 160.56
  Q 101.31 156.94 99.69 154.00
  Q 94.48 144.54 83.53 146.40
  Q 79.18 147.13 77.06 149.81
  Q 73.06 154.88 71.82 162.76
  Q 69.71 176.18 66.05 189.26
  Q 65.55 191.07 65.66 191.88
  Q 65.96 193.95 67.43 192.45
  L 72.71 187.04
  A 2.83 2.78 29.0 0 1 75.41 186.29
  Q 92.85 190.66 109.53 194.93
  Q 113.87 196.04 113.96 196.08
  Q 116.45 197.16 117.06 199.90
  Q 117.48 201.82 116.29 202.77
  Q 115.02 203.79 112.75 203.25
  Q 107.56 202.02 106.36 206.77
  A 0.81 0.80 27.7 0 0 106.62 207.59
  Q 107.76 208.60 109.25 209.04"
/>
<path stroke="#d57c6b" vector-effect="non-scaling-stroke" d="
  M 120.71 104.00
  Q 120.69 102.77 121.46 101.91
  A 0.58 0.45 38.9 0 1 122.17 101.92
  Q 122.91 102.49 124.00 102.21"
/>
<path stroke="#d57c6b" vector-effect="non-scaling-stroke" d="
  M 122.79 224.00
  Q 123.92 219.89 121.02 216.73
  Q 117.09 212.47 112.00 209.71"
/>
<path stroke="#d57c6b" vector-effect="non-scaling-stroke" d="
  M 112.00 209.71
  Q 110.82 208.72 109.25 209.04"
/>
<path stroke="#d4be98" vector-effect="non-scaling-stroke" d="
  M 112.00 209.71
  Q 110.98 209.83 110.00 209.54"
/>
<path stroke="#eb9d9e" vector-effect="non-scaling-stroke" d="
  M 358.23 118.47
  Q 347.91 130.03 349.83 144.96
  Q 350.31 148.74 351.98 152.29
  Q 353.46 155.45 355.69 159.06
  Q 361.59 168.65 372.25 170.75
  Q 374.75 171.24 376.46 171.76
  Q 379.24 172.59 380.67 172.60
  Q 385.93 172.62 391.56 170.56
  Q 405.90 165.33 409.87 150.97
  Q 414.01 136.02 405.03 123.68
  Q 400.69 117.71 397.19 115.06
  Q 391.63 110.86 384.46 110.22
  Q 378.45 109.68 373.03 110.41
  Q 364.39 111.58 358.23 118.47"
/>
<path stroke="#eb9d9e" vector-effect="non-scaling-stroke" d="
  M 416.16 187.28
  A 1.71 1.70 6.3 0 1 414.71 188.43
  Q 403.84 189.53 393.00 190.75
  Q 381.13 192.08 373.35 191.80
  Q 371.96 191.75 371.23 191.35
  Q 369.50 190.39 371.33 188.58
  Q 372.76 187.17 374.22 185.79
  Q 376.07 184.06 376.53 182.61
  Q 377.56 179.37 375.55 175.70
  A 3.65 3.64 83.3 0 0 373.33 173.94
  Q 366.06 171.92 362.86 178.34
  Q 361.20 181.68 361.50 184.75
  Q 361.83 188.10 363.04 192.76
  Q 363.68 195.22 364.55 196.43
  Q 365.69 198.01 367.56 199.19
  Q 373.94 203.21 380.95 204.45
  Q 384.99 205.17 395.08 205.22
  Q 404.42 205.26 413.72 204.03
  Q 418.93 203.34 419.81 208.44
  Q 420.35 211.53 423.44 211.90
  A 0.53 0.52 -82.8 0 0 424.02 211.44
  Q 424.40 208.83 423.75 204.00
  Q 423.13 199.38 422.05 182.51
  Q 421.99 181.58 421.55 181.13
  Q 420.85 180.43 419.91 180.80
  Q 419.17 181.10 418.55 182.16
  Q 417.00 184.82 416.16 187.28"
/>
<path stroke="#eb9d9e" vector-effect="non-scaling-stroke" d="
  M 372.33 217.90
  A 1.68 1.43 -65.0 0 1 374.17 217.06
  Q 379.57 218.95 383.87 222.67
  A 1.00 0.97 23.3 0 1 384.21 223.49
  Q 383.61 230.28 381.38 236.71
  Q 380.53 239.17 377.56 239.81
  Q 373.07 240.78 367.53 240.14
  A 2.22 2.04 89.5 0 1 365.72 238.20
  L 365.27 234.30
  A 0.68 0.62 88.7 0 0 364.70 233.70
  Q 363.85 233.64 363.35 234.58
  Q 360.73 239.59 360.25 245.25
  Q 359.87 249.80 357.73 258.55
  Q 357.72 258.60 357.14 260.42
  Q 356.60 262.08 357.00 263.67
  A 1.03 1.03 62.2 0 0 358.68 264.19
  Q 361.17 261.99 363.42 259.57
  Q 364.71 258.18 366.19 257.86
  Q 367.43 257.59 369.50 257.25
  Q 380.77 255.39 418.00 248.00
  Q 422.50 247.11 422.28 243.23
  Q 422.18 241.38 420.48 239.99
  Q 419.19 238.95 417.31 237.69
  Q 395.73 223.26 377.96 213.07
  Q 373.82 210.70 372.77 206.04
  Q 372.25 203.78 370.21 202.73
  A 1.14 1.14 25.2 0 0 368.65 203.29
  Q 367.05 206.91 367.25 211.00
  Q 367.37 213.51 364.41 221.81
  Q 363.28 224.94 367.04 224.19
  Q 369.11 223.78 369.89 222.36
  L 372.33 217.90"
/>
<path stroke="#ec9899" vector-effect="non-scaling-stroke" d="
  M 247.33 61.35
  Q 252.53 62.64 257.38 62.76
  A 0.83 0.80 83.6 0 0 258.17 61.73
  L 255.29 49.94
  Q 254.39 46.25 252.45 49.43
  Q 249.15 54.81 247.00 60.74
  A 0.47 0.47 17.0 0 0 247.33 61.35"
/>
<path stroke="#eb9d9e" vector-effect="non-scaling-stroke" d="
  M 348.39 76.40
  Q 344.62 81.01 340.82 85.61
  A 0.82 0.78 -38.3 0 0 340.70 86.46
  Q 341.77 88.73 343.75 89.99
  Q 345.73 91.24 348.46 90.70
  Q 354.54 89.48 357.81 83.82
  Q 361.45 77.52 356.19 72.56
  Q 353.93 70.44 352.14 72.37
  Q 351.24 73.34 351.15 73.43
  Q 349.67 74.82 348.39 76.40"
/>
<path stroke="#a16b6d" vector-effect="non-scaling-stroke" d="
  M 466.75 262.96
  L 459.50 263.04"
/>
<path stroke="#eb9d9e" vector-effect="non-scaling-stroke" d="
  M 91.85 163.64
  Q 89.09 161.85 85.98 161.74
  Q 82.59 161.62 80.08 162.60
  Q 76.83 163.86 75.51 167.72
  Q 74.77 169.86 76.62 171.15
  Q 78.46 172.45 81.07 172.87
  Q 87.69 173.93 94.64 176.58
  A 0.58 0.58 -77.8 0 0 95.43 176.07
  Q 95.53 174.42 95.75 172.85
  Q 96.04 170.71 95.87 169.63
  Q 95.25 165.85 91.85 163.64"
/>
<path stroke="#eb9d9e" vector-effect="non-scaling-stroke" d="
  M 362.57 135.56
  Q 359.16 139.11 357.69 142.94
  Q 352.92 155.37 364.75 160.25
  Q 367.39 161.33 371.50 160.50
  Q 388.50 157.05 399.31 145.31
  Q 402.08 142.30 403.49 138.36
  Q 404.96 134.23 403.68 130.60
  Q 402.14 126.26 398.07 124.26
  Q 395.09 122.79 390.22 123.00
  Q 374.02 123.67 362.57 135.56"
/>
<path stroke="#eb9899" vector-effect="non-scaling-stroke" d="
  M 388.96 226.13
  L 387.45 237.08
  A 1.00 0.90 -0.6 0 0 388.59 238.08
  L 400.81 236.52
  Q 404.17 236.09 401.58 234.20
  L 389.97 225.71
  A 0.64 0.64 22.1 0 0 388.96 226.13"
/>
<path stroke="#849d7f" vector-effect="non-scaling-stroke" d="
  M 458.46 243.50
  L 458.06 243.46"
/>
<path stroke="#6f9188" vector-effect="non-scaling-stroke" d="
  M 459.00 263.29
  Q 459.00 263.68 459.23 263.88
  A 0.33 0.28 44.5 0 1 459.28 264.35
  Q 458.30 265.15 458.06 266.37
  Q 457.74 268.07 457.53 268.53
  Q 453.36 277.70 451.25 285.25
  Q 450.57 287.69 449.53 289.51
  Q 448.23 291.82 447.79 293.42
  Q 446.18 299.31 443.25 303.25
  Q 441.44 305.68 440.89 307.28
  Q 440.74 307.72 440.36 308.07
  Q 439.62 308.77 439.37 309.70
  Q 438.85 311.69 438.84 311.72
  Q 437.07 315.72 434.61 319.30
  Q 431.25 324.19 429.91 326.53
  Q 423.88 337.01 416.00 346.23
  Q 414.02 348.54 412.03 350.85
  Q 410.83 352.24 408.46 354.09
  Q 406.55 355.59 404.93 357.43
  Q 399.01 364.17 391.94 369.68
  Q 390.88 370.51 386.75 375.00
  Q 385.23 376.66 380.01 380.62
  Q 377.37 382.64 372.71 385.47
  Q 365.39 389.92 358.71 395.29
  Q 355.91 397.55 354.23 398.56
  Q 351.29 400.34 349.19 400.94
  Q 346.90 401.59 345.60 402.41
  A 1.63 1.42 27.5 0 1 344.69 402.63
  Q 343.17 402.55 342.25 403.71"
/>
<path stroke="#efefef" vector-effect="non-scaling-stroke" d="
  M 485.00 294.56
  L 484.71 265.75"
/>
<path stroke="#d4d3d4" vector-effect="non-scaling-stroke" d="
  M 484.71 265.75
  L 484.71 262.00"
/>
<path stroke="#c4c3c4" vector-effect="non-scaling-stroke" d="
  M 484.71 265.75
  Q 477.58 264.50 470.43 265.29
  Q 467.79 265.58 466.61 266.85
  Q 465.29 268.27 464.50 270.75
  Q 463.75 273.11 463.43 274.68
  Q 462.90 277.28 462.36 278.54
  Q 460.55 282.80 459.45 287.31
  Q 458.33 291.93 456.07 296.08
  Q 455.35 297.39 454.76 299.07
  Q 454.21 300.62 453.45 302.08
  Q 451.68 305.45 451.24 306.45
  Q 446.91 316.41 440.19 325.69
  Q 438.36 328.21 436.84 331.29
  Q 434.70 335.62 433.82 337.03
  Q 427.94 346.46 420.39 354.62
  Q 419.84 355.22 416.73 358.96
  Q 415.30 360.69 412.94 363.19
  Q 402.72 374.01 396.19 379.44
  Q 390.96 383.79 388.61 386.14
  A 1.51 0.37 -9.7 0 1 387.75 386.51
  Q 387.38 386.60 386.94 386.94
  Q 379.99 392.27 369.31 399.06
  Q 366.74 400.70 366.00 403.71"
/>
<path stroke="#79a598" vector-effect="non-scaling-stroke" d="
  M 35.04 273.25
  Q 39.03 284.90 43.63 296.34
  Q 44.34 298.12 45.41 299.68
  Q 46.90 301.86 47.42 302.87
  Q 56.83 321.34 68.86 338.17
  Q 74.98 346.72 81.38 353.73
  Q 89.77 362.89 99.23 371.01
  Q 104.77 375.76 110.35 380.48
  Q 113.13 382.83 117.28 385.15
  Q 122.57 388.11 127.40 391.78
  Q 132.09 395.35 135.68 397.44
  Q 140.51 400.24 145.25 403.21"
/>
<path stroke="#dbdddd" vector-effect="non-scaling-stroke" d="
  M 108.44 403.70
  Q 106.80 402.06 105.33 400.19
  Q 103.74 398.17 102.06 396.90
  Q 97.94 393.80 93.84 390.64
  Q 92.65 389.72 91.32 388.18
  Q 90.16 386.84 88.85 385.64
  Q 86.54 383.53 85.21 381.83
  Q 81.16 376.65 76.46 372.04
  Q 74.38 370.01 72.06 366.69
  Q 69.67 363.27 65.02 358.73
  Q 62.44 356.22 60.25 352.50
  Q 57.58 347.97 53.83 343.52
  Q 51.83 341.14 49.96 337.89
  Q 48.20 334.84 45.00 330.00
  Q 42.06 325.55 36.89 314.32
  Q 35.35 310.98 32.75 303.84
  Q 30.81 298.53 28.42 293.41
  Q 27.83 292.16 27.36 290.50
  Q 26.93 289.01 26.36 287.56
  Q 26.31 287.43 26.21 287.36
  Q 26.08 287.29 25.94 287.24
  A 0.83 0.59 3.8 0 1 25.43 286.82
  Q 21.60 276.26 22.40 265.05
  A 0.67 0.67 12.8 0 0 21.97 264.37
  Q 19.72 263.51 17.25 263.71"
/>
</g>
<path fill="#df3c40" d="
  M 0.00 0.00
  L 108.06 0.00
  Q 106.22 0.51 107.74 0.62
  Q 108.55 0.69 107.58 0.89
  Q 107.42 0.92 107.59 0.92
  Q 108.35 0.90 108.59 1.46
  Q 108.75 1.83 108.47 2.38
  Q 105.56 8.07 100.19 10.44
  Q 97.84 11.47 96.72 13.02
  A 1.75 1.53 -78.1 0 1 95.96 13.59
  Q 92.91 14.68 91.59 17.34
  Q 90.32 19.94 89.68 20.69
  Q 84.92 26.29 79.61 31.40
  A 1.66 0.65 -2.6 0 1 78.76 31.78
  Q 78.03 31.94 77.31 32.81
  Q 72.76 38.31 65.21 44.25
  Q 64.86 44.53 64.64 45.03
  Q 64.18 46.10 63.18 46.61
  Q 61.27 47.60 61.04 47.79
  Q 55.81 52.19 54.00 55.50
  Q 48.69 65.18 43.18 74.75
  Q 42.58 75.78 41.81 76.80
  Q 41.07 77.78 40.34 78.77
  Q 39.81 79.48 37.93 81.54
  Q 36.24 83.40 35.19 85.72
  Q 34.11 88.13 32.60 90.28
  Q 32.34 90.66 32.32 90.19
  Q 32.28 89.24 31.81 89.84
  Q 29.74 92.49 29.07 95.69
  Q 28.01 100.66 27.99 100.72
  Q 26.87 104.23 25.46 107.64
  Q 23.88 111.49 22.96 114.52
  Q 20.85 121.50 19.94 122.94
  Q 15.34 130.19 10.63 137.36
  Q 8.24 141.00 8.50 144.25
  Q 8.89 149.19 7.70 153.07
  Q 6.76 156.12 6.48 158.09
  Q 5.84 162.49 3.98 167.41
  A 2.23 2.21 -47.8 0 0 4.06 169.19
  Q 5.50 172.09 5.46 175.21
  Q 5.43 177.39 4.41 178.68
  Q 3.08 180.36 0.75 180.29
  A 0.47 0.46 1.8 0 0 0.26 180.74
  L 0.00 193.44
  L 0.00 0.00
  Z"
/>
<path fill="#c9363a" d="
  M 108.06 0.00
  L 154.02 -0.01
  Q 154.32 2.99 151.84 4.12
  Q 151.25 4.38 150.78 4.82
  Q 150.37 5.20 149.96 5.33
  Q 145.88 6.62 142.12 8.60
  Q 135.76 11.95 135.63 12.02
  Q 126.43 16.63 118.41 23.10
  Q 118.33 23.16 117.17 24.45
  Q 116.45 25.25 115.32 25.32
  A 0.88 0.83 11.4 0 0 114.61 25.76
  Q 114.07 26.80 113.05 27.26
  Q 111.37 28.03 111.21 28.15
  Q 109.60 29.30 108.23 30.72
  Q 106.62 32.39 105.35 33.32
  Q 101.19 36.38 97.46 39.94
  Q 96.67 40.70 95.77 42.18
  Q 95.02 43.41 94.04 44.45
  Q 93.96 44.53 91.06 46.52
  Q 89.68 47.47 88.44 49.19
  Q 87.39 50.65 81.31 56.81
  Q 80.63 57.50 79.94 57.65
  A 1.75 0.85 0.0 0 0 79.09 58.06
  Q 69.46 68.54 62.56 79.81
  Q 61.77 81.11 60.75 81.80
  A 2.00 1.35 -13.8 0 0 60.10 82.52
  Q 58.16 86.72 55.59 90.55
  Q 54.34 92.42 52.51 95.86
  Q 50.99 98.70 48.94 100.94
  Q 41.58 108.96 38.73 119.05
  Q 37.96 121.75 36.72 124.77
  Q 35.60 127.47 34.81 130.56
  Q 33.57 135.43 29.67 149.05
  Q 29.46 149.81 27.42 154.88
  Q 25.93 158.59 25.99 162.75
  Q 26.04 166.43 24.71 169.74
  Q 23.73 172.15 23.61 173.98
  Q 23.31 178.39 22.82 182.78
  Q 22.57 184.99 22.62 188.23
  Q 22.66 190.98 22.37 193.70
  Q 21.75 199.44 21.82 201.84
  Q 21.92 206.06 22.19 210.28
  Q 22.39 213.49 22.22 218.71
  Q 21.94 227.43 24.05 235.91
  Q 24.54 237.89 24.73 241.19
  Q 24.89 243.90 25.75 246.51
  Q 26.61 249.10 26.45 251.81
  Q 26.21 255.85 27.15 260.52
  A 1.30 1.27 -36.3 0 1 27.00 261.43
  L 26.50 262.31
  A 1.11 0.68 2.7 0 1 25.75 262.72
  L 21.50 263.29
  L 17.25 263.71
  L 0.29 263.50
  Q 0.40 262.76 0.00 262.19
  L 0.00 193.44
  L 0.26 180.74
  A 0.47 0.46 1.8 0 1 0.75 180.29
  Q 3.08 180.36 4.41 178.68
  Q 5.43 177.39 5.46 175.21
  Q 5.50 172.09 4.06 169.19
  A 2.23 2.21 -47.8 0 1 3.98 167.41
  Q 5.84 162.49 6.48 158.09
  Q 6.76 156.12 7.70 153.07
  Q 8.89 149.19 8.50 144.25
  Q 8.24 141.00 10.63 137.36
  Q 15.34 130.19 19.94 122.94
  Q 20.85 121.50 22.96 114.52
  Q 23.88 111.49 25.46 107.64
  Q 26.87 104.23 27.99 100.72
  Q 28.01 100.66 29.07 95.69
  Q 29.74 92.49 31.81 89.84
  Q 32.28 89.24 32.32 90.19
  Q 32.34 90.66 32.60 90.28
  Q 34.11 88.13 35.19 85.72
  Q 36.24 83.40 37.93 81.54
  Q 39.81 79.48 40.34 78.77
  Q 41.07 77.78 41.81 76.80
  Q 42.58 75.78 43.18 74.75
  Q 48.69 65.18 54.00 55.50
  Q 55.81 52.19 61.04 47.79
  Q 61.27 47.60 63.18 46.61
  Q 64.18 46.10 64.64 45.03
  Q 64.86 44.53 65.21 44.25
  Q 72.76 38.31 77.31 32.81
  Q 78.03 31.94 78.76 31.78
  A 1.66 0.65 -2.6 0 0 79.61 31.40
  Q 84.92 26.29 89.68 20.69
  Q 90.32 19.94 91.59 17.34
  Q 92.91 14.68 95.96 13.59
  A 1.75 1.53 -78.1 0 0 96.72 13.02
  Q 97.84 11.47 100.19 10.44
  Q 105.56 8.07 108.47 2.38
  Q 108.75 1.83 108.59 1.46
  Q 108.35 0.90 107.59 0.92
  Q 107.42 0.92 107.58 0.89
  Q 108.55 0.69 107.74 0.62
  Q 106.22 0.51 108.06 0.00
  Z"
/>
<path fill="#4e4c40" d="
  M 154.02 -0.01
  L 160.06 0.00
  L 178.26 0.49
  Q 178.94 0.51 178.45 0.90
  Q 178.16 1.12 177.69 1.16
  Q 169.52 1.80 162.08 4.74
  Q 158.88 6.01 147.84 11.73
  Q 115.54 28.46 90.94 52.94
  Q 81.65 62.18 71.25 75.86
  Q 69.28 78.45 66.86 82.18
  Q 64.76 85.40 62.60 88.58
  Q 59.08 93.74 56.58 98.38
  Q 49.65 111.25 48.25 114.00
  Q 38.76 132.65 33.75 155.75
  Q 20.78 215.59 38.29 272.75
  Q 37.43 276.79 35.04 273.25
  L 32.02 263.75
  A 1.24 1.19 -9.9 0 0 30.80 262.93
  L 21.50 263.29
  L 25.75 262.72
  A 1.11 0.68 2.7 0 0 26.50 262.31
  L 27.00 261.43
  A 1.30 1.27 -36.3 0 0 27.15 260.52
  Q 26.21 255.85 26.45 251.81
  Q 26.61 249.10 25.75 246.51
  Q 24.89 243.90 24.73 241.19
  Q 24.54 237.89 24.05 235.91
  Q 21.94 227.43 22.22 218.71
  Q 22.39 213.49 22.19 210.28
  Q 21.92 206.06 21.82 201.84
  Q 21.75 199.44 22.37 193.70
  Q 22.66 190.98 22.62 188.23
  Q 22.57 184.99 22.82 182.78
  Q 23.31 178.39 23.61 173.98
  Q 23.73 172.15 24.71 169.74
  Q 26.04 166.43 25.99 162.75
  Q 25.93 158.59 27.42 154.88
  Q 29.46 149.81 29.67 149.05
  Q 33.57 135.43 34.81 130.56
  Q 35.60 127.47 36.72 124.77
  Q 37.96 121.75 38.73 119.05
  Q 41.58 108.96 48.94 100.94
  Q 50.99 98.70 52.51 95.86
  Q 54.34 92.42 55.59 90.55
  Q 58.16 86.72 60.10 82.52
  A 2.00 1.35 -13.8 0 1 60.75 81.80
  Q 61.77 81.11 62.56 79.81
  Q 69.46 68.54 79.09 58.06
  A 1.75 0.85 0.0 0 1 79.94 57.65
  Q 80.63 57.50 81.31 56.81
  Q 87.39 50.65 88.44 49.19
  Q 89.68 47.47 91.06 46.52
  Q 93.96 44.53 94.04 44.45
  Q 95.02 43.41 95.77 42.18
  Q 96.67 40.70 97.46 39.94
  Q 101.19 36.38 105.35 33.32
  Q 106.62 32.39 108.23 30.72
  Q 109.60 29.30 111.21 28.15
  Q 111.37 28.03 113.05 27.26
  Q 114.07 26.80 114.61 25.76
  A 0.88 0.83 11.4 0 1 115.32 25.32
  Q 116.45 25.25 117.17 24.45
  Q 118.33 23.16 118.41 23.10
  Q 126.43 16.63 135.63 12.02
  Q 135.76 11.95 142.12 8.60
  Q 145.88 6.62 149.96 5.33
  Q 150.37 5.20 150.78 4.82
  Q 151.25 4.38 151.84 4.12
  Q 154.32 2.99 154.02 -0.01
  Z"
/>
<path fill="#ffffff" d="
  M 160.06 0.00
  L 331.56 0.00
  L 331.50 0.21
  Q 321.89 0.41 312.27 0.50
  Q 311.87 0.50 311.23 0.44
  Q 310.11 0.34 310.17 0.63
  A 0.96 0.44 0.8 0 0 311.01 1.03
  Q 321.10 1.75 328.50 5.00
  Q 334.50 7.63 353.60 17.65
  Q 357.91 19.91 362.34 23.17
  Q 366.52 26.24 370.79 29.18
  Q 379.08 34.87 383.28 38.40
  Q 401.66 53.83 416.58 72.70
  Q 419.85 79.14 425.12 84.15
  Q 440.36 107.47 449.91 133.56
  Q 452.17 139.72 454.07 147.52
  Q 455.80 154.61 457.42 161.70
  Q 457.50 165.37 459.25 168.46
  Q 462.29 179.50 462.44 190.92
  Q 461.35 193.67 461.94 196.44
  Q 462.70 200.04 462.71 203.75
  Q 463.27 211.75 462.75 218.00
  Q 462.73 218.29 462.49 218.43
  A 0.97 0.55 -21.8 0 0 462.03 219.00
  L 459.71 237.25
  L 458.06 243.46
  Q 454.15 268.49 445.56 288.31
  Q 441.00 298.83 431.58 315.44
  Q 431.52 315.55 429.46 319.51
  Q 427.40 323.47 423.94 327.44
  Q 419.80 332.18 413.94 340.94
  Q 411.67 344.32 408.37 347.55
  Q 403.58 352.25 402.31 353.63
  Q 387.48 369.70 369.42 382.16
  Q 354.63 392.38 338.57 400.47
  Q 336.61 401.46 334.22 401.94
  Q 331.94 402.40 329.68 402.94
  Q 327.97 403.35 329.72 403.52
  Q 335.86 404.14 342.25 403.71
  L 366.00 403.71
  Q 389.28 403.71 412.56 403.94
  Q 414.05 403.95 414.42 402.24
  A 1.82 1.36 80.4 0 1 414.85 401.40
  Q 421.13 395.13 427.31 390.56
  Q 431.90 387.17 435.08 383.32
  A 0.16 0.14 33.0 0 0 435.02 383.10
  L 434.87 383.02
  A 0.33 0.31 -56.0 0 1 434.79 382.53
  Q 437.96 378.47 441.71 374.96
  Q 443.73 373.08 445.28 371.06
  Q 447.62 368.03 448.81 367.06
  Q 451.39 364.97 452.57 361.89
  Q 453.35 359.88 455.50 356.75
  Q 462.91 345.99 465.43 342.47
  Q 470.11 335.96 471.25 332.25
  Q 472.53 328.09 474.43 324.18
  Q 476.46 320.01 478.15 315.69
  Q 479.37 312.55 481.28 309.85
  Q 483.20 307.13 485.00 304.31
  L 485.00 415.00
  L 0.00 415.00
  L 0.00 262.19
  Q 0.40 262.76 0.29 263.50
  Q 0.80 265.39 2.55 264.71
  Q 2.97 264.54 3.50 264.52
  L 7.44 264.37
  A 0.39 0.37 3.4 0 1 7.85 264.80
  Q 6.96 269.75 7.70 274.76
  Q 8.28 278.63 9.11 282.45
  Q 9.69 285.14 11.41 289.90
  Q 12.45 292.79 13.28 295.74
  Q 14.20 298.99 15.45 301.41
  Q 16.94 304.29 18.48 307.15
  Q 19.85 309.68 20.49 312.78
  Q 21.98 319.93 24.56 325.44
  Q 27.15 330.94 33.06 340.94
  Q 35.48 345.02 37.29 347.65
  Q 40.09 351.73 41.61 354.27
  Q 45.06 360.06 51.06 367.69
  Q 54.10 371.55 56.56 373.84
  Q 59.28 376.36 60.54 378.06
  Q 62.28 380.40 64.12 382.67
  A 1.57 1.50 24.6 0 1 64.47 383.55
  L 64.52 384.18
  A 1.72 1.68 -66.6 0 0 64.87 385.09
  Q 72.36 394.80 84.25 401.13
  A 2.15 2.10 5.6 0 1 85.28 402.36
  Q 85.70 403.66 87.04 403.20
  Q 87.59 403.01 87.99 403.05
  Q 98.26 404.05 108.44 403.70
  Q 126.94 404.14 145.25 403.21
  Q 152.59 404.34 159.93 403.38
  Q 160.43 403.31 159.95 403.22
  Q 152.85 401.87 146.19 398.06
  Q 134.81 391.56 124.64 384.98
  Q 116.07 379.43 108.53 373.15
  Q 89.89 357.62 76.81 341.94
  Q 52.10 312.31 38.29 272.75
  Q 20.78 215.59 33.75 155.75
  Q 38.76 132.65 48.25 114.00
  Q 49.65 111.25 56.58 98.38
  Q 59.08 93.74 62.60 88.58
  Q 64.76 85.40 66.86 82.18
  Q 69.28 78.45 71.25 75.86
  Q 81.65 62.18 90.94 52.94
  Q 115.54 28.46 147.84 11.73
  Q 158.88 6.01 162.08 4.74
  Q 169.52 1.80 177.69 1.16
  Q 178.16 1.12 178.45 0.90
  Q 178.94 0.51 178.26 0.49
  L 160.06 0.00
  Z
  M 105.94 58.94
  Q 90.82 73.75 81.91 84.94
  Q 76.51 91.73 72.29 99.30
  Q 66.54 109.61 61.25 120.16
  Q 56.44 129.75 53.30 140.02
  Q 49.54 152.32 46.24 164.75
  Q 44.71 170.54 44.03 176.50
  Q 43.04 185.32 42.24 194.17
  Q 41.39 203.69 41.91 211.87
  Q 42.66 223.62 44.50 235.25
  Q 45.94 244.27 48.82 254.55
  Q 52.00 265.89 54.81 273.44
  Q 64.87 300.41 84.49 324.51
  Q 92.77 334.68 100.19 342.56
  Q 110.22 353.23 123.78 359.76
  Q 129.73 362.63 138.25 363.25
  Q 146.72 363.86 154.11 362.76
  Q 161.64 361.64 168.99 357.79
  Q 181.61 351.17 189.44 340.44
  Q 196.52 330.72 197.95 318.74
  Q 198.54 313.75 198.75 302.50
  Q 198.99 289.73 200.87 234.00
  Q 201.42 217.88 201.25 201.73
  Q 201.22 199.18 203.24 197.62
  Q 206.27 195.27 209.24 193.00
  Q 217.65 186.58 227.93 185.65
  Q 232.31 185.25 236.55 185.36
  Q 240.95 185.48 245.14 186.65
  Q 250.17 188.05 256.22 192.04
  Q 262.27 196.04 265.81 199.94
  Q 269.03 203.48 271.31 208.44
  Q 276.85 220.45 280.37 230.79
  Q 283.69 240.54 285.02 250.75
  Q 288.64 278.57 291.82 306.44
  Q 291.83 306.54 292.45 314.08
  Q 294.02 333.33 307.25 346.89
  Q 310.71 350.44 315.95 353.77
  Q 320.66 356.77 325.60 359.37
  Q 330.61 362.02 338.75 363.00
  Q 360.36 365.60 377.11 354.14
  Q 384.19 349.31 392.81 340.56
  Q 424.37 308.58 438.68 267.70
  Q 442.39 257.11 444.12 250.25
  Q 446.15 242.24 447.50 232.25
  Q 453.66 186.68 440.01 145.04
  Q 436.10 133.11 431.30 121.51
  Q 429.77 117.79 425.81 110.69
  Q 415.72 92.56 403.82 78.15
  Q 397.88 70.96 395.36 68.18
  Q 391.38 63.78 386.06 58.94
  Q 361.56 36.65 333.49 22.95
  Q 323.84 18.25 310.56 14.19
  Q 294.64 9.32 285.53 7.14
  Q 276.97 5.10 268.24 4.36
  Q 256.08 3.33 255.78 3.30
  Q 246.47 2.43 240.25 3.00
  Q 231.88 3.76 223.49 4.38
  Q 214.07 5.08 204.91 7.33
  Q 188.87 11.26 173.26 16.67
  Q 162.31 20.46 153.94 24.94
  Q 143.30 30.62 128.94 39.69
  Q 119.52 45.64 105.94 58.94
  Z
  M 238.38 210.85
  A 10.88 10.88 0.0 0 0 227.50 199.97
  A 10.88 10.88 0.0 0 0 216.62 210.85
  A 10.88 10.88 0.0 0 0 227.50 221.73
  A 10.88 10.88 0.0 0 0 238.38 210.85
  Z"
/>
<path fill="#ffffff" d="
  M 331.56 0.00
  L 336.81 0.00
  L 332.00 0.29
  L 331.50 0.21
  L 331.56 0.00
  Z"
/>
<path fill="#bf3537" d="
  M 336.81 0.00
  L 389.81 0.00
  Q 392.15 0.15 391.18 0.52
  A 0.09 0.08 54.2 0 0 391.16 0.66
  L 391.25 0.75
  A 0.17 0.16 -32.7 0 1 391.19 1.02
  Q 390.02 1.47 391.35 2.02
  A 1.97 1.67 78.3 0 1 392.09 2.60
  Q 393.12 3.97 395.25 4.25
  Q 397.71 4.58 400.37 6.61
  Q 404.84 10.01 409.63 12.93
  A 1.74 1.36 87.7 0 1 410.25 13.66
  Q 410.66 14.59 411.19 14.81
  Q 419.71 18.40 426.14 24.99
  Q 426.24 25.09 427.61 26.21
  Q 429.13 27.44 428.81 29.69
  A 1.72 0.99 -86.7 0 0 429.81 31.69
  Q 430.96 31.48 431.52 32.18
  Q 432.21 33.02 432.26 33.07
  Q 436.67 36.83 440.31 41.30
  Q 443.34 45.02 446.35 48.11
  Q 451.24 53.10 454.81 58.69
  Q 456.65 61.56 458.87 63.44
  A 1.61 1.56 13.1 0 1 459.38 64.23
  Q 460.14 67.02 461.25 68.25
  Q 464.64 71.99 466.99 76.42
  Q 467.94 78.20 469.22 79.99
  Q 470.45 81.72 471.45 83.58
  Q 472.91 86.30 474.53 89.09
  Q 476.67 92.77 477.19 96.06
  Q 478.59 104.93 481.81 110.69
  Q 482.25 111.46 483.39 112.19
  A 1.04 0.61 -32.5 0 0 484.22 112.16
  Q 485.00 111.84 485.00 113.81
  L 485.00 261.81
  Q 484.75 261.73 484.71 262.00
  Q 481.77 262.79 478.77 262.77
  Q 474.85 262.75 472.87 262.92
  Q 469.82 263.17 466.75 262.96
  L 470.81 262.60
  Q 471.29 262.56 470.99 262.17
  Q 469.56 260.29 470.00 258.25
  Q 471.05 253.42 470.98 250.50
  Q 470.77 242.33 472.13 234.27
  Q 473.98 223.30 473.75 219.75
  Q 473.20 211.35 473.62 202.94
  Q 473.89 197.66 472.50 190.75
  Q 471.69 186.72 471.77 181.75
  Q 471.86 175.88 471.48 172.78
  Q 469.70 158.13 467.75 151.25
  Q 463.93 137.74 453.37 112.76
  A 1.06 0.42 13.8 0 0 452.72 112.30
  Q 452.42 112.18 452.43 111.74
  A 1.67 0.74 -77.9 0 0 452.24 110.83
  Q 448.15 104.09 443.55 97.69
  Q 443.45 97.55 441.67 94.66
  Q 440.59 92.90 439.19 92.06
  Q 435.84 90.06 433.97 87.48
  Q 431.84 84.56 431.64 84.31
  Q 429.73 82.00 429.56 80.94
  Q 429.06 77.78 426.37 75.86
  L 412.46 59.75
  L 410.29 57.50
  Q 401.95 49.07 393.23 41.01
  Q 384.80 33.21 375.30 26.78
  Q 372.23 24.69 368.84 22.00
  Q 365.67 19.48 362.33 17.22
  Q 358.76 14.81 353.65 12.62
  Q 349.13 10.69 344.61 8.75
  Q 342.14 7.69 341.83 7.60
  Q 338.79 6.71 336.05 5.12
  Q 332.76 3.20 332.00 0.29
  L 336.81 0.00
  Z"
/>
<path fill="#df3c40" d="
  M 389.81 0.00
  L 485.00 0.00
  L 485.00 113.81
  Q 485.00 111.84 484.22 112.16
  A 1.04 0.61 -32.5 0 1 483.39 112.19
  Q 482.25 111.46 481.81 110.69
  Q 478.59 104.93 477.19 96.06
  Q 476.67 92.77 474.53 89.09
  Q 472.91 86.30 471.45 83.58
  Q 470.45 81.72 469.22 79.99
  Q 467.94 78.20 466.99 76.42
  Q 464.64 71.99 461.25 68.25
  Q 460.14 67.02 459.38 64.23
  A 1.61 1.56 13.1 0 0 458.87 63.44
  Q 456.65 61.56 454.81 58.69
  Q 451.24 53.10 446.35 48.11
  Q 443.34 45.02 440.31 41.30
  Q 436.67 36.83 432.26 33.07
  Q 432.21 33.02 431.52 32.18
  Q 430.96 31.48 429.81 31.69
  A 1.72 0.99 -86.7 0 1 428.81 29.69
  Q 429.13 27.44 427.61 26.21
  Q 426.24 25.09 426.14 24.99
  Q 419.71 18.40 411.19 14.81
  Q 410.66 14.59 410.25 13.66
  A 1.74 1.36 87.7 0 0 409.63 12.93
  Q 404.84 10.01 400.37 6.61
  Q 397.71 4.58 395.25 4.25
  Q 393.12 3.97 392.09 2.60
  A 1.97 1.67 78.3 0 0 391.35 2.02
  Q 390.02 1.47 391.19 1.02
  A 0.17 0.16 -32.7 0 0 391.25 0.75
  L 391.16 0.66
  A 0.09 0.08 54.2 0 1 391.18 0.52
  Q 392.15 0.15 389.81 0.00
  Z"
/>
<path fill="#424538" d="
  M 331.50 0.21
  L 332.00 0.29
  Q 332.76 3.20 336.05 5.12
  Q 338.79 6.71 341.83 7.60
  Q 342.14 7.69 344.61 8.75
  Q 349.13 10.69 353.65 12.62
  Q 358.76 14.81 362.33 17.22
  Q 365.67 19.48 368.84 22.00
  Q 372.23 24.69 375.30 26.78
  Q 384.80 33.21 393.23 41.01
  Q 401.95 49.07 410.29 57.50
  Q 410.59 59.34 412.46 59.75
  L 426.37 75.86
  Q 428.16 80.14 430.74 83.95
  Q 433.32 87.75 434.56 90.46
  Q 439.90 102.20 442.69 106.06
  Q 444.43 108.48 446.81 113.69
  Q 450.90 122.61 453.75 132.01
  Q 454.78 135.38 456.65 138.36
  Q 458.03 140.55 458.87 146.54
  Q 459.63 151.91 460.19 153.81
  Q 462.57 161.86 463.00 170.25
  Q 463.07 171.60 463.97 174.17
  Q 464.61 175.98 464.68 178.08
  Q 464.78 181.11 465.57 184.05
  Q 466.02 185.75 466.12 187.00
  Q 466.24 188.50 466.35 190.01
  Q 466.47 191.80 466.05 194.45
  Q 465.50 197.90 465.91 201.34
  Q 466.45 205.78 466.38 207.72
  Q 466.04 216.89 465.72 226.06
  Q 465.66 227.72 466.13 226.21
  Q 466.89 223.81 466.77 226.85
  Q 466.75 227.24 466.61 227.62
  Q 465.19 231.35 465.25 233.25
  Q 465.43 239.23 463.69 244.19
  Q 461.18 251.33 460.03 257.19
  Q 459.94 257.65 459.62 258.08
  Q 457.85 260.44 459.50 263.04
  Q 459.35 263.34 459.00 263.29
  Q 457.55 263.99 456.20 263.46
  A 0.69 0.65 -77.0 0 1 455.79 262.76
  Q 456.29 257.54 458.94 251.69
  Q 459.34 250.80 458.68 250.03
  A 1.30 1.02 -70.5 0 1 458.40 249.20
  L 458.46 243.50
  L 459.71 237.25
  L 462.03 219.00
  A 0.97 0.55 -21.8 0 1 462.49 218.43
  Q 462.73 218.29 462.75 218.00
  Q 463.27 211.75 462.71 203.75
  Q 463.51 197.31 462.44 190.92
  Q 462.29 179.50 459.25 168.46
  Q 459.24 164.79 457.42 161.70
  Q 455.80 154.61 454.07 147.52
  Q 452.17 139.72 449.91 133.56
  Q 440.36 107.47 425.12 84.15
  Q 422.42 77.25 416.58 72.70
  Q 401.66 53.83 383.28 38.40
  Q 379.08 34.87 370.79 29.18
  Q 366.52 26.24 362.34 23.17
  Q 357.91 19.91 353.60 17.65
  Q 334.50 7.63 328.50 5.00
  Q 321.10 1.75 311.01 1.03
  A 0.96 0.44 0.8 0 1 310.17 0.63
  Q 310.11 0.34 311.23 0.44
  Q 311.87 0.50 312.27 0.50
  Q 321.89 0.41 331.50 0.21
  Z"
/>
<path fill="#05725c" d="
  M 105.94 58.94
  Q 119.52 45.64 128.94 39.69
  Q 143.30 30.62 153.94 24.94
  Q 162.31 20.46 173.26 16.67
  Q 188.87 11.26 204.91 7.33
  Q 214.07 5.08 223.49 4.38
  Q 231.88 3.76 240.25 3.00
  Q 246.47 2.43 255.78 3.30
  Q 256.08 3.33 268.24 4.36
  Q 276.97 5.10 285.53 7.14
  Q 294.64 9.32 310.56 14.19
  Q 323.84 18.25 333.49 22.95
  Q 361.56 36.65 386.06 58.94
  Q 391.38 63.78 395.36 68.18
  Q 397.88 70.96 403.82 78.15
  Q 415.72 92.56 425.81 110.69
  Q 429.77 117.79 431.30 121.51
  Q 436.10 133.11 440.01 145.04
  Q 453.66 186.68 447.50 232.25
  Q 446.15 242.24 444.12 250.25
  Q 442.39 257.11 438.68 267.70
  Q 424.37 308.58 392.81 340.56
  Q 384.19 349.31 377.11 354.14
  Q 360.36 365.60 338.75 363.00
  Q 330.61 362.02 325.60 359.37
  Q 320.66 356.77 315.95 353.77
  Q 310.71 350.44 307.25 346.89
  Q 294.02 333.33 292.45 314.08
  Q 291.83 306.54 291.82 306.44
  Q 288.64 278.57 285.02 250.75
  Q 283.69 240.54 280.37 230.79
  Q 276.85 220.45 271.31 208.44
  Q 269.03 203.48 265.81 199.94
  Q 262.27 196.04 256.22 192.04
  Q 250.17 188.05 245.14 186.65
  Q 240.95 185.48 236.55 185.36
  Q 232.31 185.25 227.93 185.65
  Q 217.65 186.58 209.24 193.00
  Q 206.27 195.27 203.24 197.62
  Q 201.22 199.18 201.25 201.73
  Q 201.42 217.88 200.87 234.00
  Q 198.99 289.73 198.75 302.50
  Q 198.54 313.75 197.95 318.74
  Q 196.52 330.72 189.44 340.44
  Q 181.61 351.17 168.99 357.79
  Q 161.64 361.64 154.11 362.76
  Q 146.72 363.86 138.25 363.25
  Q 129.73 362.63 123.78 359.76
  Q 110.22 353.23 100.19 342.56
  Q 92.77 334.68 84.49 324.51
  Q 64.87 300.41 54.81 273.44
  Q 52.00 265.89 48.82 254.55
  Q 45.94 244.27 44.50 235.25
  Q 42.66 223.62 41.91 211.87
  Q 41.39 203.69 42.24 194.17
  Q 43.04 185.32 44.03 176.50
  Q 44.71 170.54 46.24 164.75
  Q 49.54 152.32 53.30 140.02
  Q 56.44 129.75 61.25 120.16
  Q 66.54 109.61 72.29 99.30
  Q 76.51 91.73 81.91 84.94
  Q 90.82 73.75 105.94 58.94
  Z
  M 248.44 103.81
  Q 272.29 104.45 290.94 113.31
  Q 301.13 118.16 313.01 128.15
  Q 313.07 128.20 316.82 130.96
  Q 319.66 133.06 322.31 136.69
  Q 327.95 144.40 331.52 149.51
  Q 336.72 156.95 339.49 163.12
  Q 345.63 176.81 347.25 192.75
  Q 349.38 213.74 344.25 232.75
  Q 341.90 241.46 337.18 249.81
  Q 335.23 253.25 330.71 259.22
  Q 327.26 263.78 323.94 268.44
  Q 320.84 272.77 315.15 276.99
  Q 312.21 279.17 310.67 281.33
  Q 305.98 287.91 303.23 295.41
  Q 300.52 302.80 300.69 310.90
  Q 301.19 335.17 320.71 347.58
  Q 329.48 353.15 339.22 354.70
  Q 352.03 356.73 364.37 351.72
  Q 369.58 349.61 372.68 347.78
  Q 376.70 345.42 379.88 341.89
  Q 382.67 338.79 385.69 335.94
  Q 400.45 322.04 411.56 305.06
  Q 418.25 294.85 424.47 282.29
  Q 429.07 273.00 431.94 263.78
  Q 437.66 245.42 440.03 226.25
  Q 442.64 205.12 440.04 184.00
  Q 438.72 173.24 434.50 154.50
  Q 431.43 140.86 425.58 128.18
  Q 414.52 104.18 397.91 83.69
  Q 397.82 83.58 394.44 79.03
  Q 392.15 75.96 388.81 72.94
  Q 385.34 69.79 380.04 64.00
  Q 376.99 60.66 373.44 58.09
  Q 365.98 52.69 358.69 47.06
  Q 349.53 40.00 337.01 33.77
  Q 327.61 29.10 318.84 25.41
  Q 302.07 18.37 284.15 15.20
  Q 274.52 13.49 264.32 12.54
  Q 249.83 11.19 233.75 12.00
  Q 198.45 13.79 167.46 27.61
  Q 157.98 31.84 149.52 36.44
  Q 136.62 43.46 125.15 52.71
  Q 122.76 54.63 119.55 56.93
  Q 115.71 59.69 114.19 61.44
  Q 108.69 67.76 102.65 73.55
  Q 97.53 78.45 94.40 82.45
  Q 89.23 89.04 84.32 95.82
  Q 76.60 106.49 71.03 118.41
  Q 68.46 123.89 65.89 129.35
  Q 62.80 135.91 61.14 140.46
  Q 51.90 165.69 50.85 192.66
  Q 50.77 194.70 50.19 199.79
  Q 49.78 203.37 49.98 207.00
  Q 50.73 220.03 52.37 232.98
  Q 54.02 246.03 57.74 258.58
  Q 60.06 266.38 64.28 275.44
  Q 68.11 283.65 72.36 291.66
  Q 80.38 306.80 91.10 320.09
  Q 94.31 324.06 100.85 331.00
  Q 108.74 339.36 110.69 341.81
  Q 113.01 344.73 117.06 347.19
  Q 141.40 361.94 167.01 349.83
  Q 177.22 345.01 183.44 334.44
  Q 190.81 321.91 190.38 308.46
  Q 190.07 298.71 185.32 289.56
  Q 180.70 280.65 172.95 273.81
  Q 166.06 267.74 158.94 257.06
  Q 153.97 249.62 150.82 242.99
  Q 147.63 236.27 145.72 227.66
  Q 139.77 200.83 147.53 173.94
  Q 149.17 168.23 152.02 163.01
  Q 157.65 152.71 164.30 143.03
  Q 168.04 137.60 175.19 131.19
  Q 185.10 122.31 195.47 116.21
  Q 203.86 111.28 213.79 108.39
  Q 231.11 103.35 248.44 103.81
  Z
  M 190.04 192.25
  Q 191.83 193.45 194.00 193.46
  Q 195.44 195.10 196.71 193.46
  Q 198.91 190.61 201.54 187.89
  Q 204.62 185.58 207.31 184.31
  Q 231.67 172.82 256.94 183.06
  Q 266.04 186.75 270.97 194.22
  Q 280.42 205.94 285.13 219.79
  Q 289.19 231.74 291.36 244.18
  Q 294.60 262.75 296.43 281.51
  Q 296.65 283.76 297.67 285.46
  A 0.59 0.58 44.2 0 0 298.68 285.45
  Q 303.41 277.25 310.34 270.86
  Q 322.53 259.63 330.19 244.94
  Q 331.00 243.38 334.01 237.92
  Q 336.13 234.09 337.16 230.64
  Q 344.63 205.79 337.73 181.14
  Q 335.87 174.48 331.90 166.19
  Q 327.81 157.66 324.19 152.06
  Q 317.29 141.41 306.47 132.72
  Q 301.08 128.39 293.48 124.03
  Q 285.71 119.57 279.44 117.06
  Q 251.53 105.87 221.22 113.90
  Q 216.13 115.25 209.25 118.50
  Q 197.32 124.13 189.30 129.60
  Q 184.97 132.55 181.35 136.35
  Q 176.97 140.93 172.62 145.53
  Q 168.39 150.00 165.91 154.29
  Q 159.16 165.93 154.19 181.19
  Q 150.93 191.18 150.51 199.99
  Q 150.29 204.59 150.49 210.02
  Q 150.68 215.24 151.75 220.00
  Q 153.74 228.84 157.54 237.50
  Q 160.79 244.90 163.49 249.54
  Q 166.90 255.40 171.54 260.38
  Q 176.36 265.55 176.43 265.64
  Q 183.10 273.18 190.07 280.45
  Q 190.63 281.03 190.75 280.23
  Q 191.36 276.09 191.83 271.92
  Q 192.25 268.06 192.35 263.56
  Q 192.67 247.57 192.44 231.62
  A 1.28 1.28 -81.1 0 0 191.58 230.44
  Q 188.72 229.47 186.27 227.73
  Q 178.71 222.36 172.72 215.29
  Q 170.23 212.36 171.81 209.56
  Q 176.57 201.13 186.44 196.19
  Q 189.34 194.73 190.04 192.25
  Z
  M 180.57 209.65
  Q 183.82 210.00 187.82 209.58
  Q 187.92 209.57 189.18 209.52
  Q 191.34 209.43 191.37 207.42
  Q 191.41 205.32 191.43 205.08
  Q 191.74 202.14 190.42 199.51
  A 0.53 0.51 64.2 0 0 189.74 199.26
  Q 183.60 201.96 179.55 207.32
  Q 178.00 209.38 180.57 209.65
  Z
  M 189.87 214.44
  L 179.28 213.31
  Q 178.71 213.24 178.95 213.76
  Q 182.37 221.15 188.83 223.69
  Q 191.64 224.80 191.46 221.95
  L 191.04 215.53
  A 1.32 1.15 2.0 0 0 189.87 214.44
  Z"
/>
<path fill="#ffffff" d="
  M 248.44 103.81
  Q 231.11 103.35 213.79 108.39
  Q 203.86 111.28 195.47 116.21
  Q 185.10 122.31 175.19 131.19
  Q 168.04 137.60 164.30 143.03
  Q 157.65 152.71 152.02 163.01
  Q 149.17 168.23 147.53 173.94
  Q 139.77 200.83 145.72 227.66
  Q 147.63 236.27 150.82 242.99
  Q 153.97 249.62 158.94 257.06
  Q 166.06 267.74 172.95 273.81
  Q 180.70 280.65 185.32 289.56
  Q 190.07 298.71 190.38 308.46
  Q 190.81 321.91 183.44 334.44
  Q 177.22 345.01 167.01 349.83
  Q 141.40 361.94 117.06 347.19
  Q 113.01 344.73 110.69 341.81
  Q 108.74 339.36 100.85 331.00
  Q 94.31 324.06 91.10 320.09
  Q 80.38 306.80 72.36 291.66
  Q 68.11 283.65 64.28 275.44
  Q 60.06 266.38 57.74 258.58
  Q 54.02 246.03 52.37 232.98
  Q 50.73 220.03 49.98 207.00
  Q 49.78 203.37 50.19 199.79
  Q 50.77 194.70 50.85 192.66
  Q 51.90 165.69 61.14 140.46
  Q 62.80 135.91 65.89 129.35
  Q 68.46 123.89 71.03 118.41
  Q 76.60 106.49 84.32 95.82
  Q 89.23 89.04 94.40 82.45
  Q 97.53 78.45 102.65 73.55
  Q 108.69 67.76 114.19 61.44
  Q 115.71 59.69 119.55 56.93
  Q 122.76 54.63 125.15 52.71
  Q 136.62 43.46 149.52 36.44
  Q 157.98 31.84 167.46 27.61
  Q 198.45 13.79 233.75 12.00
  Q 249.83 11.19 264.32 12.54
  Q 274.52 13.49 284.15 15.20
  Q 302.07 18.37 318.84 25.41
  Q 327.61 29.10 337.01 33.77
  Q 349.53 40.00 358.69 47.06
  Q 365.98 52.69 373.44 58.09
  Q 376.99 60.66 380.04 64.00
  Q 385.34 69.79 388.81 72.94
  Q 392.15 75.96 394.44 79.03
  Q 397.82 83.58 397.91 83.69
  Q 414.52 104.18 425.58 128.18
  Q 431.43 140.86 434.50 154.50
  Q 438.72 173.24 440.04 184.00
  Q 442.64 205.12 440.03 226.25
  Q 437.66 245.42 431.94 263.78
  Q 429.07 273.00 424.47 282.29
  Q 418.25 294.85 411.56 305.06
  Q 400.45 322.04 385.69 335.94
  Q 382.67 338.79 379.88 341.89
  Q 376.70 345.42 372.68 347.78
  Q 369.58 349.61 364.37 351.72
  Q 352.03 356.73 339.22 354.70
  Q 329.48 353.15 320.71 347.58
  Q 301.19 335.17 300.69 310.90
  Q 300.52 302.80 303.23 295.41
  Q 305.98 287.91 310.67 281.33
  Q 312.21 279.17 315.15 276.99
  Q 320.84 272.77 323.94 268.44
  Q 327.26 263.78 330.71 259.22
  Q 335.23 253.25 337.18 249.81
  Q 341.90 241.46 344.25 232.75
  Q 349.38 213.74 347.25 192.75
  Q 345.63 176.81 339.49 163.12
  Q 336.72 156.95 331.52 149.51
  Q 327.95 144.40 322.31 136.69
  Q 319.66 133.06 316.82 130.96
  Q 313.07 128.20 313.01 128.15
  Q 301.13 118.16 290.94 113.31
  Q 272.29 104.45 248.44 103.81
  Z
  M 243.66 68.37
  A 2.04 1.83 17.1 0 1 245.33 67.60
  L 258.45 67.97
  A 2.39 2.19 -6.1 0 1 260.65 69.59
  Q 261.55 72.83 263.39 76.38
  Q 263.43 76.46 264.34 77.92
  Q 266.04 80.63 263.25 82.50
  Q 262.53 82.98 258.80 83.72
  A 0.93 0.82 2.6 0 0 258.12 84.27
  Q 257.61 85.71 258.25 87.06
  A 0.88 0.83 -11.3 0 0 258.99 87.52
  Q 273.49 88.03 276.25 88.75
  Q 281.32 90.07 286.51 89.58
  Q 287.39 89.50 287.82 89.03
  Q 288.37 88.43 288.36 87.57
  Q 288.35 86.64 287.44 85.86
  Q 285.81 84.48 283.78 83.84
  Q 281.86 83.24 281.50 81.27
  Q 280.95 78.26 279.83 75.43
  Q 272.73 57.57 267.75 39.00
  Q 267.37 37.59 265.57 32.69
  Q 264.38 29.47 262.78 28.68
  Q 260.64 27.62 257.27 28.49
  A 2.66 2.66 4.6 0 0 255.48 30.01
  Q 252.98 35.69 250.45 41.45
  Q 248.39 46.15 245.06 52.73
  Q 240.73 61.28 236.95 70.09
  Q 236.91 70.19 235.68 73.46
  Q 231.76 83.87 220.07 83.46
  A 0.93 0.90 -13.5 0 1 219.31 83.01
  Q 216.77 78.57 214.75 70.75
  Q 210.62 54.75 204.86 38.61
  A 0.95 0.95 72.4 0 1 205.50 37.37
  Q 210.15 36.11 214.29 36.25
  A 2.63 2.61 -22.9 0 1 215.96 36.92
  Q 219.28 39.86 222.18 41.77
  Q 224.48 43.28 225.60 41.21
  Q 226.41 39.70 225.28 38.42
  Q 222.13 34.83 219.94 30.45
  Q 218.71 27.99 216.08 28.77
  Q 200.47 33.42 183.87 37.70
  Q 181.87 38.22 179.56 38.42
  Q 177.37 38.61 175.18 38.88
  A 0.59 0.58 87.7 0 0 174.67 39.44
  Q 174.45 46.10 174.08 52.75
  Q 173.83 57.27 177.47 55.59
  A 2.76 2.72 83.9 0 0 178.99 53.68
  Q 180.54 46.55 185.26 42.74
  Q 188.76 39.92 190.38 44.11
  Q 193.20 51.37 195.67 60.77
  Q 198.62 72.00 201.92 84.89
  Q 202.32 86.47 201.29 87.72
  Q 200.31 88.92 198.32 90.58
  Q 196.28 92.28 197.33 94.50
  A 0.61 0.57 -20.9 0 0 198.05 94.79
  Q 211.72 90.50 225.67 87.26
  Q 228.86 86.52 232.40 86.75
  Q 240.31 87.28 248.25 87.25
  A 0.62 0.46 -0.8 0 0 248.88 86.77
  L 248.78 83.25
  A 1.84 1.51 5.5 0 0 247.28 81.76
  L 241.51 80.68
  A 1.85 1.76 -81.1 0 1 240.10 78.64
  Q 240.94 72.16 243.66 68.37
  Z
  M 156.75 58.54
  Q 159.48 59.74 161.46 62.00
  Q 163.36 65.21 166.02 63.27
  A 2.03 2.02 60.4 0 0 166.69 60.83
  Q 165.35 57.70 163.16 55.11
  Q 159.24 50.46 153.24 52.59
  Q 144.16 55.82 139.49 63.51
  Q 135.98 69.29 135.55 74.36
  Q 135.03 80.63 139.81 85.95
  Q 144.56 91.22 151.76 90.99
  Q 157.05 90.81 162.09 89.16
  Q 165.99 87.88 169.00 87.75
  Q 178.43 87.34 179.55 94.52
  Q 180.33 99.57 177.31 103.44
  Q 174.20 107.42 168.25 108.00
  Q 166.37 108.18 164.79 108.11
  Q 163.24 108.04 161.69 106.88
  Q 157.09 103.43 154.25 102.75
  Q 150.11 101.76 151.46 104.63
  Q 151.86 105.48 152.92 106.56
  Q 156.67 110.40 160.05 114.14
  A 1.77 1.76 -26.0 0 0 161.69 114.70
  Q 168.20 113.47 173.60 110.83
  Q 179.97 107.71 183.15 103.16
  Q 186.00 99.09 186.63 94.02
  Q 187.24 89.13 186.50 84.48
  Q 185.30 76.87 178.76 73.11
  Q 175.03 70.97 169.84 71.13
  Q 164.70 71.28 159.70 72.74
  Q 156.75 73.60 153.76 74.32
  Q 149.89 75.24 147.75 74.34
  Q 145.07 73.22 144.30 70.25
  Q 143.72 67.98 144.62 65.30
  Q 147.26 57.38 156.75 58.54
  Z
  M 317.69 89.94
  Q 315.69 92.41 310.93 95.02
  A 1.67 1.21 27.4 0 1 310.01 95.16
  L 304.99 94.54
  A 1.32 1.22 -58.0 0 0 304.08 94.79
  Q 301.45 96.75 303.94 98.74
  Q 305.08 99.65 305.13 99.70
  Q 313.91 107.60 323.76 114.80
  A 1.53 1.53 31.1 0 0 326.03 114.24
  Q 327.20 111.88 324.99 109.99
  Q 322.99 108.28 324.34 106.02
  Q 326.55 102.30 329.20 98.86
  Q 332.42 94.67 332.62 94.47
  Q 334.61 92.41 337.50 91.50
  Q 340.73 90.49 339.76 93.73
  Q 336.38 105.02 332.55 116.15
  Q 331.36 119.64 331.35 119.72
  Q 331.11 121.82 333.31 123.44
  Q 340.23 128.51 347.06 133.69
  Q 348.79 134.99 347.94 133.06
  Q 346.55 129.90 346.26 126.57
  Q 346.05 124.07 347.06 120.03
  Q 349.46 110.54 351.84 100.55
  A 1.69 1.69 -73.5 0 1 354.04 99.35
  Q 359.98 101.46 364.51 98.60
  Q 368.66 95.97 371.05 91.49
  Q 373.22 87.42 371.87 82.60
  Q 371.23 80.33 368.98 78.17
  Q 355.95 65.73 341.34 54.09
  Q 338.76 52.03 338.87 55.33
  Q 338.95 57.45 340.05 60.13
  Q 341.04 62.53 339.31 64.47
  Q 327.82 77.36 317.69 89.94
  Z
  M 109.25 209.04
  L 110.00 209.54
  Q 114.02 211.49 115.06 212.69
  Q 119.16 217.38 120.25 218.25
  Q 123.31 220.68 122.79 224.00
  Q 121.94 228.69 117.81 232.56
  Q 111.13 238.83 102.99 240.71
  Q 97.27 242.04 90.96 241.63
  Q 84.83 241.24 79.07 238.68
  Q 70.05 234.67 70.49 225.57
  Q 70.61 223.02 72.33 220.49
  Q 75.33 216.11 78.95 212.18
  Q 80.58 210.40 78.30 209.59
  Q 75.96 208.76 73.27 210.04
  Q 67.13 212.95 65.92 218.75
  Q 65.14 222.45 66.36 229.25
  Q 67.86 237.61 72.61 244.71
  Q 75.28 248.71 76.80 250.40
  Q 79.13 252.99 82.44 254.81
  Q 88.82 258.33 95.69 258.50
  Q 100.44 258.62 104.80 257.88
  Q 109.66 257.07 113.44 254.44
  Q 127.19 244.87 127.63 227.25
  Q 127.75 222.14 125.89 217.41
  Q 124.05 212.71 122.40 208.40
  Q 121.66 206.46 122.18 204.45
  Q 123.41 199.73 124.12 194.92
  Q 124.61 191.55 125.34 189.18
  Q 126.21 186.37 127.16 183.60
  Q 128.22 180.49 127.75 177.25
  Q 127.42 175.02 125.50 176.75
  Q 124.44 177.71 123.72 178.95
  Q 121.85 182.19 118.02 181.62
  Q 109.74 180.38 101.93 177.31
  Q 98.40 175.92 101.78 174.20
  Q 107.35 171.37 113.66 170.53
  Q 119.74 169.73 119.81 169.72
  Q 124.39 168.90 128.95 167.93
  Q 130.63 167.58 130.78 165.86
  Q 131.43 158.59 135.82 152.88
  Q 140.15 147.26 140.19 147.19
  Q 145.04 139.86 149.56 132.31
  Q 150.58 130.61 157.07 123.85
  Q 158.63 122.23 158.83 120.50
  Q 159.05 118.52 158.56 116.53
  A 1.08 0.96 7.9 0 0 157.98 115.85
  Q 152.66 113.37 148.31 109.40
  A 0.86 0.76 52.9 0 0 147.47 109.23
  Q 144.91 110.29 146.50 113.00
  Q 153.88 125.61 142.15 133.05
  A 2.82 2.81 -49.0 0 1 139.49 133.24
  Q 133.01 130.33 127.82 126.39
  Q 125.15 124.37 125.04 124.25
  Q 123.75 122.80 124.25 120.50
  Q 125.15 116.42 128.63 114.31
  A 1.59 1.39 28.9 0 1 129.56 114.11
  Q 133.16 114.48 136.76 114.96
  Q 140.56 115.47 139.44 112.46
  A 1.64 1.06 15.6 0 0 138.82 111.76
  L 124.00 102.21
  Q 120.19 99.45 120.71 104.00
  L 123.91 109.00
  Q 124.85 110.47 123.77 112.21
  Q 121.47 115.92 118.11 119.16
  A 0.59 0.58 42.1 0 1 117.35 119.19
  Q 111.58 114.68 105.56 110.50
  Q 102.97 108.71 104.94 105.69
  Q 108.77 99.81 111.84 97.07
  Q 114.06 95.09 116.27 96.09
  Q 118.73 97.21 119.08 97.24
  Q 122.15 97.45 122.03 93.51
  A 0.84 0.80 11.3 0 0 121.53 92.80
  Q 116.80 90.81 113.52 88.21
  Q 111.48 86.61 110.02 88.75
  Q 103.55 98.25 96.85 107.12
  Q 92.91 112.33 86.81 121.56
  Q 85.44 123.63 86.27 125.55
  A 0.47 0.44 -27.7 0 0 86.93 125.73
  Q 90.57 123.46 94.76 122.60
  A 1.35 1.29 52.9 0 1 95.68 122.75
  Q 105.57 128.43 114.70 135.25
  Q 123.22 141.62 131.45 147.88
  A 0.78 0.78 -50.0 0 1 131.55 149.03
  Q 129.35 151.43 126.88 152.89
  Q 125.09 153.96 121.24 154.73
  Q 111.03 156.77 101.00 161.05
  Q 100.22 161.39 100.42 160.56
  Q 101.31 156.94 99.69 154.00
  Q 94.48 144.54 83.53 146.40
  Q 79.18 147.13 77.06 149.81
  Q 73.06 154.88 71.82 162.76
  Q 69.71 176.18 66.05 189.26
  Q 65.55 191.07 65.66 191.88
  Q 65.96 193.95 67.43 192.45
  L 72.71 187.04
  A 2.83 2.78 29.0 0 1 75.41 186.29
  Q 92.85 190.66 109.53 194.93
  Q 113.87 196.04 113.96 196.08
  Q 116.45 197.16 117.06 199.90
  Q 117.48 201.82 116.29 202.77
  Q 115.02 203.79 112.75 203.25
  Q 107.56 202.02 106.36 206.77
  A 0.81 0.80 27.7 0 0 106.62 207.59
  Q 107.76 208.60 109.25 209.04
  Z
  M 358.23 118.47
  Q 347.91 130.03 349.83 144.96
  Q 350.31 148.74 351.98 152.29
  Q 353.46 155.45 355.69 159.06
  Q 361.59 168.65 372.25 170.75
  Q 374.75 171.24 376.46 171.76
  Q 379.24 172.59 380.67 172.60
  Q 385.93 172.62 391.56 170.56
  Q 405.90 165.33 409.87 150.97
  Q 414.01 136.02 405.03 123.68
  Q 400.69 117.71 397.19 115.06
  Q 391.63 110.86 384.46 110.22
  Q 378.45 109.68 373.03 110.41
  Q 364.39 111.58 358.23 118.47
  Z
  M 416.16 187.28
  A 1.71 1.70 6.3 0 1 414.71 188.43
  Q 403.84 189.53 393.00 190.75
  Q 381.13 192.08 373.35 191.80
  Q 371.96 191.75 371.23 191.35
  Q 369.50 190.39 371.33 188.58
  Q 372.76 187.17 374.22 185.79
  Q 376.07 184.06 376.53 182.61
  Q 377.56 179.37 375.55 175.70
  A 3.65 3.64 83.3 0 0 373.33 173.94
  Q 366.06 171.92 362.86 178.34
  Q 361.20 181.68 361.50 184.75
  Q 361.83 188.10 363.04 192.76
  Q 363.68 195.22 364.55 196.43
  Q 365.69 198.01 367.56 199.19
  Q 373.94 203.21 380.95 204.45
  Q 384.99 205.17 395.08 205.22
  Q 404.42 205.26 413.72 204.03
  Q 418.93 203.34 419.81 208.44
  Q 420.35 211.53 423.44 211.90
  A 0.53 0.52 -82.8 0 0 424.02 211.44
  Q 424.40 208.83 423.75 204.00
  Q 423.13 199.38 422.05 182.51
  Q 421.99 181.58 421.55 181.13
  Q 420.85 180.43 419.91 180.80
  Q 419.17 181.10 418.55 182.16
  Q 417.00 184.82 416.16 187.28
  Z
  M 372.33 217.90
  A 1.68 1.43 -65.0 0 1 374.17 217.06
  Q 379.57 218.95 383.87 222.67
  A 1.00 0.97 23.3 0 1 384.21 223.49
  Q 383.61 230.28 381.38 236.71
  Q 380.53 239.17 377.56 239.81
  Q 373.07 240.78 367.53 240.14
  A 2.22 2.04 89.5 0 1 365.72 238.20
  L 365.27 234.30
  A 0.68 0.62 88.7 0 0 364.70 233.70
  Q 363.85 233.64 363.35 234.58
  Q 360.73 239.59 360.25 245.25
  Q 359.87 249.80 357.73 258.55
  Q 357.72 258.60 357.14 260.42
  Q 356.60 262.08 357.00 263.67
  A 1.03 1.03 62.2 0 0 358.68 264.19
  Q 361.17 261.99 363.42 259.57
  Q 364.71 258.18 366.19 257.86
  Q 367.43 257.59 369.50 257.25
  Q 380.77 255.39 418.00 248.00
  Q 422.50 247.11 422.28 243.23
  Q 422.18 241.38 420.48 239.99
  Q 419.19 238.95 417.31 237.69
  Q 395.73 223.26 377.96 213.07
  Q 373.82 210.70 372.77 206.04
  Q 372.25 203.78 370.21 202.73
  A 1.14 1.14 25.2 0 0 368.65 203.29
  Q 367.05 206.91 367.25 211.00
  Q 367.37 213.51 364.41 221.81
  Q 363.28 224.94 367.04 224.19
  Q 369.11 223.78 369.89 222.36
  L 372.33 217.90
  Z"
/>
<path fill="#d93a3d" d="
  M 243.66 68.37
  Q 240.94 72.16 240.10 78.64
  A 1.85 1.76 -81.1 0 0 241.51 80.68
  L 247.28 81.76
  A 1.84 1.51 5.5 0 1 248.78 83.25
  L 248.88 86.77
  A 0.62 0.46 -0.8 0 1 248.25 87.25
  Q 240.31 87.28 232.40 86.75
  Q 228.86 86.52 225.67 87.26
  Q 211.72 90.50 198.05 94.79
  A 0.61 0.57 -20.9 0 1 197.33 94.50
  Q 196.28 92.28 198.32 90.58
  Q 200.31 88.92 201.29 87.72
  Q 202.32 86.47 201.92 84.89
  Q 198.62 72.00 195.67 60.77
  Q 193.20 51.37 190.38 44.11
  Q 188.76 39.92 185.26 42.74
  Q 180.54 46.55 178.99 53.68
  A 2.76 2.72 83.9 0 1 177.47 55.59
  Q 173.83 57.27 174.08 52.75
  Q 174.45 46.10 174.67 39.44
  A 0.59 0.58 87.7 0 1 175.18 38.88
  Q 177.37 38.61 179.56 38.42
  Q 181.87 38.22 183.87 37.70
  Q 200.47 33.42 216.08 28.77
  Q 218.71 27.99 219.94 30.45
  Q 222.13 34.83 225.28 38.42
  Q 226.41 39.70 225.60 41.21
  Q 224.48 43.28 222.18 41.77
  Q 219.28 39.86 215.96 36.92
  A 2.63 2.61 -22.9 0 0 214.29 36.25
  Q 210.15 36.11 205.50 37.37
  A 0.95 0.95 72.4 0 0 204.86 38.61
  Q 210.62 54.75 214.75 70.75
  Q 216.77 78.57 219.31 83.01
  A 0.93 0.90 -13.5 0 0 220.07 83.46
  Q 231.76 83.87 235.68 73.46
  Q 236.91 70.19 236.95 70.09
  Q 240.73 61.28 245.06 52.73
  Q 248.39 46.15 250.45 41.45
  Q 252.98 35.69 255.48 30.01
  A 2.66 2.66 4.6 0 1 257.27 28.49
  Q 260.64 27.62 262.78 28.68
  Q 264.38 29.47 265.57 32.69
  Q 267.37 37.59 267.75 39.00
  Q 272.73 57.57 279.83 75.43
  Q 280.95 78.26 281.50 81.27
  Q 281.86 83.24 283.78 83.84
  Q 285.81 84.48 287.44 85.86
  Q 288.35 86.64 288.36 87.57
  Q 288.37 88.43 287.82 89.03
  Q 287.39 89.50 286.51 89.58
  Q 281.32 90.07 276.25 88.75
  Q 273.49 88.03 258.99 87.52
  A 0.88 0.83 -11.3 0 1 258.25 87.06
  Q 257.61 85.71 258.12 84.27
  A 0.93 0.82 2.6 0 1 258.80 83.72
  Q 262.53 82.98 263.25 82.50
  Q 266.04 80.63 264.34 77.92
  Q 263.43 76.46 263.39 76.38
  Q 261.55 72.83 260.65 69.59
  A 2.39 2.19 -6.1 0 0 258.45 67.97
  L 245.33 67.60
  A 2.04 1.83 17.1 0 0 243.66 68.37
  Z
  M 247.33 61.35
  Q 252.53 62.64 257.38 62.76
  A 0.83 0.80 83.6 0 0 258.17 61.73
  L 255.29 49.94
  Q 254.39 46.25 252.45 49.43
  Q 249.15 54.81 247.00 60.74
  A 0.47 0.47 17.0 0 0 247.33 61.35
  Z"
/>
<path fill="#fff5f5" d="
  M 247.33 61.35
  A 0.47 0.47 17.0 0 1 247.00 60.74
  Q 249.15 54.81 252.45 49.43
  Q 254.39 46.25 255.29 49.94
  L 258.17 61.73
  A 0.83 0.80 83.6 0 1 257.38 62.76
  Q 252.53 62.64 247.33 61.35
  Z"
/>
<path fill="#d93a3d" d="
  M 161.46 62.00
  Q 160.25 58.70 156.75 58.54
  Q 147.26 57.38 144.62 65.30
  Q 143.72 67.98 144.30 70.25
  Q 145.07 73.22 147.75 74.34
  Q 149.89 75.24 153.76 74.32
  Q 156.75 73.60 159.70 72.74
  Q 164.70 71.28 169.84 71.13
  Q 175.03 70.97 178.76 73.11
  Q 185.30 76.87 186.50 84.48
  Q 187.24 89.13 186.63 94.02
  Q 186.00 99.09 183.15 103.16
  Q 179.97 107.71 173.60 110.83
  Q 168.20 113.47 161.69 114.70
  A 1.77 1.76 -26.0 0 1 160.05 114.14
  Q 156.67 110.40 152.92 106.56
  Q 151.86 105.48 151.46 104.63
  Q 150.11 101.76 154.25 102.75
  Q 157.09 103.43 161.69 106.88
  Q 163.24 108.04 164.79 108.11
  Q 166.37 108.18 168.25 108.00
  Q 174.20 107.42 177.31 103.44
  Q 180.33 99.57 179.55 94.52
  Q 178.43 87.34 169.00 87.75
  Q 165.99 87.88 162.09 89.16
  Q 157.05 90.81 151.76 90.99
  Q 144.56 91.22 139.81 85.95
  Q 135.03 80.63 135.55 74.36
  Q 135.98 69.29 139.49 63.51
  Q 144.16 55.82 153.24 52.59
  Q 159.24 50.46 163.16 55.11
  Q 165.35 57.70 166.69 60.83
  A 2.03 2.02 60.4 0 1 166.02 63.27
  Q 163.36 65.21 161.46 62.00
  Z"
/>
<path fill="#d63a3d" d="
  M 317.69 89.94
  Q 327.82 77.36 339.31 64.47
  Q 341.04 62.53 340.05 60.13
  Q 338.95 57.45 338.87 55.33
  Q 338.76 52.03 341.34 54.09
  Q 355.95 65.73 368.98 78.17
  Q 371.23 80.33 371.87 82.60
  Q 373.22 87.42 371.05 91.49
  Q 368.66 95.97 364.51 98.60
  Q 359.98 101.46 354.04 99.35
  A 1.69 1.69 -73.5 0 0 351.84 100.55
  Q 349.46 110.54 347.06 120.03
  Q 346.05 124.07 346.26 126.57
  Q 346.55 129.90 347.94 133.06
  Q 348.79 134.99 347.06 133.69
  Q 340.23 128.51 333.31 123.44
  Q 331.11 121.82 331.35 119.72
  Q 331.36 119.64 332.55 116.15
  Q 336.38 105.02 339.76 93.73
  Q 340.73 90.49 337.50 91.50
  Q 334.61 92.41 332.62 94.47
  Q 332.42 94.67 329.20 98.86
  Q 326.55 102.30 324.34 106.02
  Q 322.99 108.28 324.99 109.99
  Q 327.20 111.88 326.03 114.24
  A 1.53 1.53 31.1 0 1 323.76 114.80
  Q 313.91 107.60 305.13 99.70
  Q 305.08 99.65 303.94 98.74
  Q 301.45 96.75 304.08 94.79
  A 1.32 1.22 -58.0 0 1 304.99 94.54
  L 310.01 95.16
  A 1.67 1.21 27.4 0 0 310.93 95.02
  Q 315.69 92.41 317.69 89.94
  Z
  M 348.39 76.40
  Q 344.62 81.01 340.82 85.61
  A 0.82 0.78 -38.3 0 0 340.70 86.46
  Q 341.77 88.73 343.75 89.99
  Q 345.73 91.24 348.46 90.70
  Q 354.54 89.48 357.81 83.82
  Q 361.45 77.52 356.19 72.56
  Q 353.93 70.44 352.14 72.37
  Q 351.24 73.34 351.15 73.43
  Q 349.67 74.82 348.39 76.40
  Z"
/>
<path fill="#4e4c40" d="
  M 410.29 57.50
  L 412.46 59.75
  Q 410.59 59.34 410.29 57.50
  Z"
/>
<path fill="#d4be98" d="
  M 156.75 58.54
  Q 160.25 58.70 161.46 62.00
  Q 159.48 59.74 156.75 58.54
  Z"
/>
<path fill="#ffffff" d="
  M 348.39 76.40
  Q 349.67 74.82 351.15 73.43
  Q 351.24 73.34 352.14 72.37
  Q 353.93 70.44 356.19 72.56
  Q 361.45 77.52 357.81 83.82
  Q 354.54 89.48 348.46 90.70
  Q 345.73 91.24 343.75 89.99
  Q 341.77 88.73 340.70 86.46
  A 0.82 0.78 -38.3 0 1 340.82 85.61
  Q 344.62 81.01 348.39 76.40
  Z"
/>
<path fill="#347b66" d="
  M 416.58 72.70
  Q 422.42 77.25 425.12 84.15
  Q 419.85 79.14 416.58 72.70
  Z"
/>
<path fill="#992f30" d="
  M 426.37 75.86
  Q 429.06 77.78 429.56 80.94
  Q 429.73 82.00 431.64 84.31
  Q 431.84 84.56 433.97 87.48
  Q 435.84 90.06 439.19 92.06
  Q 440.59 92.90 441.67 94.66
  Q 443.45 97.55 443.55 97.69
  Q 448.15 104.09 452.24 110.83
  A 1.67 0.74 -77.9 0 1 452.43 111.74
  Q 452.42 112.18 452.72 112.30
  A 1.06 0.42 13.8 0 1 453.37 112.76
  Q 463.93 137.74 467.75 151.25
  Q 469.70 158.13 471.48 172.78
  Q 471.86 175.88 471.77 181.75
  Q 471.69 186.72 472.50 190.75
  Q 473.89 197.66 473.62 202.94
  Q 473.20 211.35 473.75 219.75
  Q 473.98 223.30 472.13 234.27
  Q 470.77 242.33 470.98 250.50
  Q 471.05 253.42 470.00 258.25
  Q 469.56 260.29 470.99 262.17
  Q 471.29 262.56 470.81 262.60
  L 466.75 262.96
  L 459.50 263.04
  Q 457.85 260.44 459.62 258.08
  Q 459.94 257.65 460.03 257.19
  Q 461.18 251.33 463.69 244.19
  Q 465.43 239.23 465.25 233.25
  Q 465.19 231.35 466.61 227.62
  Q 466.75 227.24 466.77 226.85
  Q 466.89 223.81 466.13 226.21
  Q 465.66 227.72 465.72 226.06
  Q 466.04 216.89 466.38 207.72
  Q 466.45 205.78 465.91 201.34
  Q 465.50 197.90 466.05 194.45
  Q 466.47 191.80 466.35 190.01
  Q 466.24 188.50 466.12 187.00
  Q 466.02 185.75 465.57 184.05
  Q 464.78 181.11 464.68 178.08
  Q 464.61 175.98 463.97 174.17
  Q 463.07 171.60 463.00 170.25
  Q 462.57 161.86 460.19 153.81
  Q 459.63 151.91 458.87 146.54
  Q 458.03 140.55 456.65 138.36
  Q 454.78 135.38 453.75 132.01
  Q 450.90 122.61 446.81 113.69
  Q 444.43 108.48 442.69 106.06
  Q 439.90 102.20 434.56 90.46
  Q 433.32 87.75 430.74 83.95
  Q 428.16 80.14 426.37 75.86
  Z"
/>
<path fill="#d63a3d" d="
  M 120.71 104.00
  Q 120.69 102.77 121.46 101.91
  A 0.58 0.45 38.9 0 1 122.17 101.92
  Q 122.91 102.49 124.00 102.21
  L 138.82 111.76
  A 1.64 1.06 15.6 0 1 139.44 112.46
  Q 140.56 115.47 136.76 114.96
  Q 133.16 114.48 129.56 114.11
  A 1.59 1.39 28.9 0 0 128.63 114.31
  Q 125.15 116.42 124.25 120.50
  Q 123.75 122.80 125.04 124.25
  Q 125.15 124.37 127.82 126.39
  Q 133.01 130.33 139.49 133.24
  A 2.82 2.81 -49.0 0 0 142.15 133.05
  Q 153.88 125.61 146.50 113.00
  Q 144.91 110.29 147.47 109.23
  A 0.86 0.76 52.9 0 1 148.31 109.40
  Q 152.66 113.37 157.98 115.85
  A 1.08 0.96 7.9 0 1 158.56 116.53
  Q 159.05 118.52 158.83 120.50
  Q 158.63 122.23 157.07 123.85
  Q 150.58 130.61 149.56 132.31
  Q 145.04 139.86 140.19 147.19
  Q 140.15 147.26 135.82 152.88
  Q 131.43 158.59 130.78 165.86
  Q 130.63 167.58 128.95 167.93
  Q 124.39 168.90 119.81 169.72
  Q 119.74 169.73 113.66 170.53
  Q 107.35 171.37 101.78 174.20
  Q 98.40 175.92 101.93 177.31
  Q 109.74 180.38 118.02 181.62
  Q 121.85 182.19 123.72 178.95
  Q 124.44 177.71 125.50 176.75
  Q 127.42 175.02 127.75 177.25
  Q 128.22 180.49 127.16 183.60
  Q 126.21 186.37 125.34 189.18
  Q 124.61 191.55 124.12 194.92
  Q 123.41 199.73 122.18 204.45
  Q 121.66 206.46 122.40 208.40
  Q 124.05 212.71 125.89 217.41
  Q 127.75 222.14 127.63 227.25
  Q 127.19 244.87 113.44 254.44
  Q 109.66 257.07 104.80 257.88
  Q 100.44 258.62 95.69 258.50
  Q 88.82 258.33 82.44 254.81
  Q 79.13 252.99 76.80 250.40
  Q 75.28 248.71 72.61 244.71
  Q 67.86 237.61 66.36 229.25
  Q 65.14 222.45 65.92 218.75
  Q 67.13 212.95 73.27 210.04
  Q 75.96 208.76 78.30 209.59
  Q 80.58 210.40 78.95 212.18
  Q 75.33 216.11 72.33 220.49
  Q 70.61 223.02 70.49 225.57
  Q 70.05 234.67 79.07 238.68
  Q 84.83 241.24 90.96 241.63
  Q 97.27 242.04 102.99 240.71
  Q 111.13 238.83 117.81 232.56
  Q 121.94 228.69 122.79 224.00
  Q 123.92 219.89 121.02 216.73
  Q 117.09 212.47 112.00 209.71
  Q 110.82 208.72 109.25 209.04
  Q 107.76 208.60 106.62 207.59
  A 0.81 0.80 27.7 0 1 106.36 206.77
  Q 107.56 202.02 112.75 203.25
  Q 115.02 203.79 116.29 202.77
  Q 117.48 201.82 117.06 199.90
  Q 116.45 197.16 113.96 196.08
  Q 113.87 196.04 109.53 194.93
  Q 92.85 190.66 75.41 186.29
  A 2.83 2.78 29.0 0 0 72.71 187.04
  L 67.43 192.45
  Q 65.96 193.95 65.66 191.88
  Q 65.55 191.07 66.05 189.26
  Q 69.71 176.18 71.82 162.76
  Q 73.06 154.88 77.06 149.81
  Q 79.18 147.13 83.53 146.40
  Q 94.48 144.54 99.69 154.00
  Q 101.31 156.94 100.42 160.56
  Q 100.22 161.39 101.00 161.05
  Q 111.03 156.77 121.24 154.73
  Q 125.09 153.96 126.88 152.89
  Q 129.35 151.43 131.55 149.03
  A 0.78 0.78 -50.0 0 0 131.45 147.88
  Q 123.22 141.62 114.70 135.25
  Q 105.57 128.43 95.68 122.75
  A 1.35 1.29 52.9 0 0 94.76 122.60
  Q 90.57 123.46 86.93 125.73
  A 0.47 0.44 -27.7 0 1 86.27 125.55
  Q 85.44 123.63 86.81 121.56
  Q 92.91 112.33 96.85 107.12
  Q 103.55 98.25 110.02 88.75
  Q 111.48 86.61 113.52 88.21
  Q 116.80 90.81 121.53 92.80
  A 0.84 0.80 11.3 0 1 122.03 93.51
  Q 122.15 97.45 119.08 97.24
  Q 118.73 97.21 116.27 96.09
  Q 114.06 95.09 111.84 97.07
  Q 108.77 99.81 104.94 105.69
  Q 102.97 108.71 105.56 110.50
  Q 111.58 114.68 117.35 119.19
  A 0.59 0.58 42.1 0 0 118.11 119.16
  Q 121.47 115.92 123.77 112.21
  Q 124.85 110.47 123.91 109.00
  L 120.71 104.00
  Z
  M 91.85 163.64
  Q 89.09 161.85 85.98 161.74
  Q 82.59 161.62 80.08 162.60
  Q 76.83 163.86 75.51 167.72
  Q 74.77 169.86 76.62 171.15
  Q 78.46 172.45 81.07 172.87
  Q 87.69 173.93 94.64 176.58
  A 0.58 0.58 -77.8 0 0 95.43 176.07
  Q 95.53 174.42 95.75 172.85
  Q 96.04 170.71 95.87 169.63
  Q 95.25 165.85 91.85 163.64
  Z"
/>
<path fill="#d4be98" d="
  M 124.00 102.21
  Q 122.91 102.49 122.17 101.92
  A 0.58 0.45 38.9 0 0 121.46 101.91
  Q 120.69 102.77 120.71 104.00
  Q 120.19 99.45 124.00 102.21
  Z"
/>
<path fill="#d63a3d" d="
  M 358.23 118.47
  Q 364.39 111.58 373.03 110.41
  Q 378.45 109.68 384.46 110.22
  Q 391.63 110.86 397.19 115.06
  Q 400.69 117.71 405.03 123.68
  Q 414.01 136.02 409.87 150.97
  Q 405.90 165.33 391.56 170.56
  Q 385.93 172.62 380.67 172.60
  Q 379.24 172.59 376.46 171.76
  Q 374.75 171.24 372.25 170.75
  Q 361.59 168.65 355.69 159.06
  Q 353.46 155.45 351.98 152.29
  Q 350.31 148.74 349.83 144.96
  Q 347.91 130.03 358.23 118.47
  Z
  M 362.57 135.56
  Q 359.16 139.11 357.69 142.94
  Q 352.92 155.37 364.75 160.25
  Q 367.39 161.33 371.50 160.50
  Q 388.50 157.05 399.31 145.31
  Q 402.08 142.30 403.49 138.36
  Q 404.96 134.23 403.68 130.60
  Q 402.14 126.26 398.07 124.26
  Q 395.09 122.79 390.22 123.00
  Q 374.02 123.67 362.57 135.56
  Z"
/>
<path fill="#ffffff" d="
  M 270.97 194.22
  Q 288.57 191.99 301.37 179.87
  Q 303.80 177.57 304.44 175.69
  Q 308.28 164.33 304.94 152.77
  Q 304.06 149.72 302.50 147.75
  Q 297.61 141.58 290.87 137.58
  Q 284.91 134.04 276.57 132.54
  Q 255.47 128.74 235.17 137.13
  Q 229.39 139.52 223.80 142.29
  Q 205.17 151.55 195.44 169.94
  Q 190.56 179.16 190.04 192.25
  Q 189.34 194.73 186.44 196.19
  Q 176.57 201.13 171.81 209.56
  Q 170.23 212.36 172.72 215.29
  Q 178.71 222.36 186.27 227.73
  Q 188.72 229.47 191.58 230.44
  A 1.28 1.28 -81.1 0 1 192.44 231.62
  Q 192.67 247.57 192.35 263.56
  Q 192.25 268.06 191.83 271.92
  Q 191.36 276.09 190.75 280.23
  Q 190.63 281.03 190.07 280.45
  Q 183.10 273.18 176.43 265.64
  Q 176.36 265.55 171.54 260.38
  Q 166.90 255.40 163.49 249.54
  Q 160.79 244.90 157.54 237.50
  Q 153.74 228.84 151.75 220.00
  Q 150.68 215.24 150.49 210.02
  Q 150.29 204.59 150.51 199.99
  Q 150.93 191.18 154.19 181.19
  Q 159.16 165.93 165.91 154.29
  Q 168.39 150.00 172.62 145.53
  Q 176.97 140.93 181.35 136.35
  Q 184.97 132.55 189.30 129.60
  Q 197.32 124.13 209.25 118.50
  Q 216.13 115.25 221.22 113.90
  Q 251.53 105.87 279.44 117.06
  Q 285.71 119.57 293.48 124.03
  Q 301.08 128.39 306.47 132.72
  Q 317.29 141.41 324.19 152.06
  Q 327.81 157.66 331.90 166.19
  Q 335.87 174.48 337.73 181.14
  Q 344.63 205.79 337.16 230.64
  Q 336.13 234.09 334.01 237.92
  Q 331.00 243.38 330.19 244.94
  Q 322.53 259.63 310.34 270.86
  Q 303.41 277.25 298.68 285.45
  A 0.59 0.58 44.2 0 1 297.67 285.46
  Q 296.65 283.76 296.43 281.51
  Q 294.60 262.75 291.36 244.18
  Q 289.19 231.74 285.13 219.79
  Q 280.42 205.94 270.97 194.22
  Z"
/>
<path fill="#ffffff" d="
  M 362.57 135.56
  Q 374.02 123.67 390.22 123.00
  Q 395.09 122.79 398.07 124.26
  Q 402.14 126.26 403.68 130.60
  Q 404.96 134.23 403.49 138.36
  Q 402.08 142.30 399.31 145.31
  Q 388.50 157.05 371.50 160.50
  Q 367.39 161.33 364.75 160.25
  Q 352.92 155.37 357.69 142.94
  Q 359.16 139.11 362.57 135.56
  Z"
/>
<path fill="#df3c40" d="
  M 270.97 194.22
  Q 266.04 186.75 256.94 183.06
  Q 231.67 172.82 207.31 184.31
  Q 204.62 185.58 201.54 187.89
  Q 196.00 188.33 194.00 193.46
  Q 191.83 193.45 190.04 192.25
  Q 190.56 179.16 195.44 169.94
  Q 205.17 151.55 223.80 142.29
  Q 229.39 139.52 235.17 137.13
  Q 255.47 128.74 276.57 132.54
  Q 284.91 134.04 290.87 137.58
  Q 297.61 141.58 302.50 147.75
  Q 304.06 149.72 304.94 152.77
  Q 308.28 164.33 304.44 175.69
  Q 303.80 177.57 301.37 179.87
  Q 288.57 191.99 270.97 194.22
  Z"
/>
<path fill="#ffffff" d="
  M 91.85 163.64
  Q 95.25 165.85 95.87 169.63
  Q 96.04 170.71 95.75 172.85
  Q 95.53 174.42 95.43 176.07
  A 0.58 0.58 -77.8 0 1 94.64 176.58
  Q 87.69 173.93 81.07 172.87
  Q 78.46 172.45 76.62 171.15
  Q 74.77 169.86 75.51 167.72
  Q 76.83 163.86 80.08 162.60
  Q 82.59 161.62 85.98 161.74
  Q 89.09 161.85 91.85 163.64
  Z"
/>
<path fill="#a9a7a9" d="
  M 457.42 161.70
  Q 459.24 164.79 459.25 168.46
  Q 457.50 165.37 457.42 161.70
  Z"
/>
<path fill="#d63a3d" d="
  M 416.16 187.28
  Q 417.00 184.82 418.55 182.16
  Q 419.17 181.10 419.91 180.80
  Q 420.85 180.43 421.55 181.13
  Q 421.99 181.58 422.05 182.51
  Q 423.13 199.38 423.75 204.00
  Q 424.40 208.83 424.02 211.44
  A 0.53 0.52 -82.8 0 1 423.44 211.90
  Q 420.35 211.53 419.81 208.44
  Q 418.93 203.34 413.72 204.03
  Q 404.42 205.26 395.08 205.22
  Q 384.99 205.17 380.95 204.45
  Q 373.94 203.21 367.56 199.19
  Q 365.69 198.01 364.55 196.43
  Q 363.68 195.22 363.04 192.76
  Q 361.83 188.10 361.50 184.75
  Q 361.20 181.68 362.86 178.34
  Q 366.06 171.92 373.33 173.94
  A 3.65 3.64 83.3 0 1 375.55 175.70
  Q 377.56 179.37 376.53 182.61
  Q 376.07 184.06 374.22 185.79
  Q 372.76 187.17 371.33 188.58
  Q 369.50 190.39 371.23 191.35
  Q 371.96 191.75 373.35 191.80
  Q 381.13 192.08 393.00 190.75
  Q 403.84 189.53 414.71 188.43
  A 1.71 1.70 6.3 0 0 416.16 187.28
  Z"
/>
<path fill="#d4be98" d="
  M 201.54 187.89
  Q 198.91 190.61 196.71 193.46
  Q 195.44 195.10 194.00 193.46
  Q 196.00 188.33 201.54 187.89
  Z"
/>
<path fill="#a9a7a9" d="
  M 462.44 190.92
  Q 463.51 197.31 462.71 203.75
  Q 462.70 200.04 461.94 196.44
  Q 461.35 193.67 462.44 190.92
  Z"
/>
<path fill="#eaffff" d="
  M 180.57 209.65
  Q 178.00 209.38 179.55 207.32
  Q 183.60 201.96 189.74 199.26
  A 0.53 0.51 64.2 0 1 190.42 199.51
  Q 191.74 202.14 191.43 205.08
  Q 191.41 205.32 191.37 207.42
  Q 191.34 209.43 189.18 209.52
  Q 187.92 209.57 187.82 209.58
  Q 183.82 210.00 180.57 209.65
  Z"
/>
<circle fill="#d63a3d" cx="227.50" cy="210.85" r="10.88"/>
<path fill="#d63a3d" d="
  M 372.33 217.90
  L 369.89 222.36
  Q 369.11 223.78 367.04 224.19
  Q 363.28 224.94 364.41 221.81
  Q 367.37 213.51 367.25 211.00
  Q 367.05 206.91 368.65 203.29
  A 1.14 1.14 25.2 0 1 370.21 202.73
  Q 372.25 203.78 372.77 206.04
  Q 373.82 210.70 377.96 213.07
  Q 395.73 223.26 417.31 237.69
  Q 419.19 238.95 420.48 239.99
  Q 422.18 241.38 422.28 243.23
  Q 422.50 247.11 418.00 248.00
  Q 380.77 255.39 369.50 257.25
  Q 367.43 257.59 366.19 257.86
  Q 364.71 258.18 363.42 259.57
  Q 361.17 261.99 358.68 264.19
  A 1.03 1.03 62.2 0 1 357.00 263.67
  Q 356.60 262.08 357.14 260.42
  Q 357.72 258.60 357.73 258.55
  Q 359.87 249.80 360.25 245.25
  Q 360.73 239.59 363.35 234.58
  Q 363.85 233.64 364.70 233.70
  A 0.68 0.62 88.7 0 1 365.27 234.30
  L 365.72 238.20
  A 2.22 2.04 89.5 0 0 367.53 240.14
  Q 373.07 240.78 377.56 239.81
  Q 380.53 239.17 381.38 236.71
  Q 383.61 230.28 384.21 223.49
  A 1.00 0.97 23.3 0 0 383.87 222.67
  Q 379.57 218.95 374.17 217.06
  A 1.68 1.43 -65.0 0 0 372.33 217.90
  Z
  M 388.96 226.13
  L 387.45 237.08
  A 1.00 0.90 -0.6 0 0 388.59 238.08
  L 400.81 236.52
  Q 404.17 236.09 401.58 234.20
  L 389.97 225.71
  A 0.64 0.64 22.1 0 0 388.96 226.13
  Z"
/>
<path fill="#d4be98" d="
  M 109.25 209.04
  Q 110.82 208.72 112.00 209.71
  Q 110.98 209.83 110.00 209.54
  L 109.25 209.04
  Z"
/>
<path fill="#d4be98" d="
  M 110.00 209.54
  Q 110.98 209.83 112.00 209.71
  Q 117.09 212.47 121.02 216.73
  Q 123.92 219.89 122.79 224.00
  Q 123.31 220.68 120.25 218.25
  Q 119.16 217.38 115.06 212.69
  Q 114.02 211.49 110.00 209.54
  Z"
/>
<path fill="#eaffff" d="
  M 189.87 214.44
  A 1.32 1.15 2.0 0 1 191.04 215.53
  L 191.46 221.95
  Q 191.64 224.80 188.83 223.69
  Q 182.37 221.15 178.95 213.76
  Q 178.71 213.24 179.28 213.31
  L 189.87 214.44
  Z"
/>
<path fill="#fff5f5" d="
  M 388.96 226.13
  A 0.64 0.64 22.1 0 1 389.97 225.71
  L 401.58 234.20
  Q 404.17 236.09 400.81 236.52
  L 388.59 238.08
  A 1.00 0.90 -0.6 0 1 387.45 237.08
  L 388.96 226.13
  Z"
/>
<path fill="#d4be98" d="
  M 459.71 237.25
  L 458.46 243.50
  L 458.06 243.46
  L 459.71 237.25
  Z"
/>
<path fill="#347b66" d="
  M 458.06 243.46
  L 458.46 243.50
  L 458.40 249.20
  A 1.30 1.02 -70.5 0 0 458.68 250.03
  Q 459.34 250.80 458.94 251.69
  Q 456.29 257.54 455.79 262.76
  A 0.69 0.65 -77.0 0 0 456.20 263.46
  Q 457.55 263.99 459.00 263.29
  Q 459.00 263.68 459.23 263.88
  A 0.33 0.28 44.5 0 1 459.28 264.35
  Q 458.30 265.15 458.06 266.37
  Q 457.74 268.07 457.53 268.53
  Q 453.36 277.70 451.25 285.25
  Q 450.57 287.69 449.53 289.51
  Q 448.23 291.82 447.79 293.42
  Q 446.18 299.31 443.25 303.25
  Q 441.44 305.68 440.89 307.28
  Q 440.74 307.72 440.36 308.07
  Q 439.62 308.77 439.37 309.70
  Q 438.85 311.69 438.84 311.72
  Q 437.07 315.72 434.61 319.30
  Q 431.25 324.19 429.91 326.53
  Q 423.88 337.01 416.00 346.23
  Q 414.02 348.54 412.03 350.85
  Q 410.83 352.24 408.46 354.09
  Q 406.55 355.59 404.93 357.43
  Q 399.01 364.17 391.94 369.68
  Q 390.88 370.51 386.75 375.00
  Q 385.23 376.66 380.01 380.62
  Q 377.37 382.64 372.71 385.47
  Q 365.39 389.92 358.71 395.29
  Q 355.91 397.55 354.23 398.56
  Q 351.29 400.34 349.19 400.94
  Q 346.90 401.59 345.60 402.41
  A 1.63 1.42 27.5 0 1 344.69 402.63
  Q 343.17 402.55 342.25 403.71
  Q 335.86 404.14 329.72 403.52
  Q 327.97 403.35 329.68 402.94
  Q 331.94 402.40 334.22 401.94
  Q 336.61 401.46 338.57 400.47
  Q 354.63 392.38 369.42 382.16
  Q 387.48 369.70 402.31 353.63
  Q 403.58 352.25 408.37 347.55
  Q 411.67 344.32 413.94 340.94
  Q 419.80 332.18 423.94 327.44
  Q 427.40 323.47 429.46 319.51
  Q 431.52 315.55 431.58 315.44
  Q 441.00 298.83 445.56 288.31
  Q 454.15 268.49 458.06 243.46
  Z"
/>
<path fill="#ffffff" d="
  M 485.00 261.81
  L 485.00 294.56
  L 484.71 265.75
  L 484.71 262.00
  Q 484.75 261.73 485.00 261.81
  Z"
/>
<path fill="#a9a7a9" d="
  M 484.71 262.00
  L 484.71 265.75
  Q 477.58 264.50 470.43 265.29
  Q 467.79 265.58 466.61 266.85
  Q 465.29 268.27 464.50 270.75
  Q 463.75 273.11 463.43 274.68
  Q 462.90 277.28 462.36 278.54
  Q 460.55 282.80 459.45 287.31
  Q 458.33 291.93 456.07 296.08
  Q 455.35 297.39 454.76 299.07
  Q 454.21 300.62 453.45 302.08
  Q 451.68 305.45 451.24 306.45
  Q 446.91 316.41 440.19 325.69
  Q 438.36 328.21 436.84 331.29
  Q 434.70 335.62 433.82 337.03
  Q 427.94 346.46 420.39 354.62
  Q 419.84 355.22 416.73 358.96
  Q 415.30 360.69 412.94 363.19
  Q 402.72 374.01 396.19 379.44
  Q 390.96 383.79 388.61 386.14
  A 1.51 0.37 -9.7 0 1 387.75 386.51
  Q 387.38 386.60 386.94 386.94
  Q 379.99 392.27 369.31 399.06
  Q 366.74 400.70 366.00 403.71
  L 342.25 403.71
  Q 343.17 402.55 344.69 402.63
  A 1.63 1.42 27.5 0 0 345.60 402.41
  Q 346.90 401.59 349.19 400.94
  Q 351.29 400.34 354.23 398.56
  Q 355.91 397.55 358.71 395.29
  Q 365.39 389.92 372.71 385.47
  Q 377.37 382.64 380.01 380.62
  Q 385.23 376.66 386.75 375.00
  Q 390.88 370.51 391.94 369.68
  Q 399.01 364.17 404.93 357.43
  Q 406.55 355.59 408.46 354.09
  Q 410.83 352.24 412.03 350.85
  Q 414.02 348.54 416.00 346.23
  Q 423.88 337.01 429.91 326.53
  Q 431.25 324.19 434.61 319.30
  Q 437.07 315.72 438.84 311.72
  Q 438.85 311.69 439.37 309.70
  Q 439.62 308.77 440.36 308.07
  Q 440.74 307.72 440.89 307.28
  Q 441.44 305.68 443.25 303.25
  Q 446.18 299.31 447.79 293.42
  Q 448.23 291.82 449.53 289.51
  Q 450.57 287.69 451.25 285.25
  Q 453.36 277.70 457.53 268.53
  Q 457.74 268.07 458.06 266.37
  Q 458.30 265.15 459.28 264.35
  A 0.33 0.28 44.5 0 0 459.23 263.88
  Q 459.00 263.68 459.00 263.29
  Q 459.35 263.34 459.50 263.04
  L 466.75 262.96
  Q 469.82 263.17 472.87 262.92
  Q 474.85 262.75 478.77 262.77
  Q 481.77 262.79 484.71 262.00
  Z"
/>
<path fill="#cacdcd" d="
  M 35.04 273.25
  Q 39.03 284.90 43.63 296.34
  Q 44.34 298.12 45.41 299.68
  Q 46.90 301.86 47.42 302.87
  Q 56.83 321.34 68.86 338.17
  Q 74.98 346.72 81.38 353.73
  Q 89.77 362.89 99.23 371.01
  Q 104.77 375.76 110.35 380.48
  Q 113.13 382.83 117.28 385.15
  Q 122.57 388.11 127.40 391.78
  Q 132.09 395.35 135.68 397.44
  Q 140.51 400.24 145.25 403.21
  Q 126.94 404.14 108.44 403.70
  Q 106.80 402.06 105.33 400.19
  Q 103.74 398.17 102.06 396.90
  Q 97.94 393.80 93.84 390.64
  Q 92.65 389.72 91.32 388.18
  Q 90.16 386.84 88.85 385.64
  Q 86.54 383.53 85.21 381.83
  Q 81.16 376.65 76.46 372.04
  Q 74.38 370.01 72.06 366.69
  Q 69.67 363.27 65.02 358.73
  Q 62.44 356.22 60.25 352.50
  Q 57.58 347.97 53.83 343.52
  Q 51.83 341.14 49.96 337.89
  Q 48.20 334.84 45.00 330.00
  Q 42.06 325.55 36.89 314.32
  Q 35.35 310.98 32.75 303.84
  Q 30.81 298.53 28.42 293.41
  Q 27.83 292.16 27.36 290.50
  Q 26.93 289.01 26.36 287.56
  Q 26.31 287.43 26.21 287.36
  Q 26.08 287.29 25.94 287.24
  A 0.83 0.59 3.8 0 1 25.43 286.82
  Q 21.60 276.26 22.40 265.05
  A 0.67 0.67 12.8 0 0 21.97 264.37
  Q 19.72 263.51 17.25 263.71
  L 21.50 263.29
  L 30.80 262.93
  A 1.24 1.19 -9.9 0 1 32.02 263.75
  L 35.04 273.25
  Z"
/>
<path fill="#ececec" d="
  M 0.29 263.50
  L 17.25 263.71
  Q 19.72 263.51 21.97 264.37
  A 0.67 0.67 12.8 0 1 22.40 265.05
  Q 21.60 276.26 25.43 286.82
  A 0.83 0.59 3.8 0 0 25.94 287.24
  Q 26.08 287.29 26.21 287.36
  Q 26.31 287.43 26.36 287.56
  Q 26.93 289.01 27.36 290.50
  Q 27.83 292.16 28.42 293.41
  Q 30.81 298.53 32.75 303.84
  Q 35.35 310.98 36.89 314.32
  Q 42.06 325.55 45.00 330.00
  Q 48.20 334.84 49.96 337.89
  Q 51.83 341.14 53.83 343.52
  Q 57.58 347.97 60.25 352.50
  Q 62.44 356.22 65.02 358.73
  Q 69.67 363.27 72.06 366.69
  Q 74.38 370.01 76.46 372.04
  Q 81.16 376.65 85.21 381.83
  Q 86.54 383.53 88.85 385.64
  Q 90.16 386.84 91.32 388.18
  Q 92.65 389.72 93.84 390.64
  Q 97.94 393.80 102.06 396.90
  Q 103.74 398.17 105.33 400.19
  Q 106.80 402.06 108.44 403.70
  Q 98.26 404.05 87.99 403.05
  Q 87.59 403.01 87.04 403.20
  Q 85.70 403.66 85.28 402.36
  A 2.15 2.10 5.6 0 0 84.25 401.13
  Q 72.36 394.80 64.87 385.09
  A 1.72 1.68 -66.6 0 1 64.52 384.18
  L 64.47 383.55
  A 1.57 1.50 24.6 0 0 64.12 382.67
  Q 62.28 380.40 60.54 378.06
  Q 59.28 376.36 56.56 373.84
  Q 54.10 371.55 51.06 367.69
  Q 45.06 360.06 41.61 354.27
  Q 40.09 351.73 37.29 347.65
  Q 35.48 345.02 33.06 340.94
  Q 27.15 330.94 24.56 325.44
  Q 21.98 319.93 20.49 312.78
  Q 19.85 309.68 18.48 307.15
  Q 16.94 304.29 15.45 301.41
  Q 14.20 298.99 13.28 295.74
  Q 12.45 292.79 11.41 289.90
  Q 9.69 285.14 9.11 282.45
  Q 8.28 278.63 7.70 274.76
  Q 6.96 269.75 7.85 264.80
  A 0.39 0.37 3.4 0 0 7.44 264.37
  L 3.50 264.52
  Q 2.97 264.54 2.55 264.71
  Q 0.80 265.39 0.29 263.50
  Z"
/>
<path fill="#dfdfdf" d="
  M 484.71 265.75
  L 485.00 294.56
  L 485.00 304.31
  Q 483.20 307.13 481.28 309.85
  Q 479.37 312.55 478.15 315.69
  Q 476.46 320.01 474.43 324.18
  Q 472.53 328.09 471.25 332.25
  Q 470.11 335.96 465.43 342.47
  Q 462.91 345.99 455.50 356.75
  Q 453.35 359.88 452.57 361.89
  Q 451.39 364.97 448.81 367.06
  Q 447.62 368.03 445.28 371.06
  Q 443.73 373.08 441.71 374.96
  Q 437.96 378.47 434.79 382.53
  A 0.33 0.31 -56.0 0 0 434.87 383.02
  L 435.02 383.10
  A 0.16 0.14 33.0 0 1 435.08 383.32
  Q 431.90 387.17 427.31 390.56
  Q 421.13 395.13 414.85 401.40
  A 1.82 1.36 80.4 0 0 414.42 402.24
  Q 414.05 403.95 412.56 403.94
  Q 389.28 403.71 366.00 403.71
  Q 366.74 400.70 369.31 399.06
  Q 379.99 392.27 386.94 386.94
  Q 387.38 386.60 387.75 386.51
  A 1.51 0.37 -9.7 0 0 388.61 386.14
  Q 390.96 383.79 396.19 379.44
  Q 402.72 374.01 412.94 363.19
  Q 415.30 360.69 416.73 358.96
  Q 419.84 355.22 420.39 354.62
  Q 427.94 346.46 433.82 337.03
  Q 434.70 335.62 436.84 331.29
  Q 438.36 328.21 440.19 325.69
  Q 446.91 316.41 451.24 306.45
  Q 451.68 305.45 453.45 302.08
  Q 454.21 300.62 454.76 299.07
  Q 455.35 297.39 456.07 296.08
  Q 458.33 291.93 459.45 287.31
  Q 460.55 282.80 462.36 278.54
  Q 462.90 277.28 463.43 274.68
  Q 463.75 273.11 464.50 270.75
  Q 465.29 268.27 466.61 266.85
  Q 467.79 265.58 470.43 265.29
  Q 477.58 264.50 484.71 265.75
  Z"
/>
<path fill="#287c63" d="
  M 38.29 272.75
  Q 52.10 312.31 76.81 341.94
  Q 89.89 357.62 108.53 373.15
  Q 116.07 379.43 124.64 384.98
  Q 134.81 391.56 146.19 398.06
  Q 152.85 401.87 159.95 403.22
  Q 160.43 403.31 159.93 403.38
  Q 152.59 404.34 145.25 403.21
  Q 140.51 400.24 135.68 397.44
  Q 132.09 395.35 127.40 391.78
  Q 122.57 388.11 117.28 385.15
  Q 113.13 382.83 110.35 380.48
  Q 104.77 375.76 99.23 371.01
  Q 89.77 362.89 81.38 353.73
  Q 74.98 346.72 68.86 338.17
  Q 56.83 321.34 47.42 302.87
  Q 46.90 301.86 45.41 299.68
  Q 44.34 298.12 43.63 296.34
  Q 39.03 284.90 35.04 273.25
  Q 37.43 276.79 38.29 272.75
  Z"
/>
</svg>
