<?xml version="1.0" encoding="UTF-8" standalone="no"?>
<!DOCTYPE svg PUBLIC "-//W3C//DTD SVG 1.1//EN" "http://www.w3.org/Graphics/SVG/1.1/DTD/svg11.dtd">
<svg xmlns="http://www.w3.org/2000/svg" version="1.1" viewBox="0 0 394 346">
<g stroke-width="2.00" fill="none" stroke-linecap="butt">
<path stroke="#fff980" vector-effect="non-scaling-stroke" d="
  M 78.79 113.50
  Q 78.98 114.68 77.52 114.72"
/>
<path stroke="#898983" vector-effect="non-scaling-stroke" d="
  M 77.52 114.72
  Q 77.30 118.64 81.31 120.19
  Q 99.87 127.34 117.14 120.76
  Q 117.17 120.75 123.88 117.67
  Q 131.86 114.01 139.25 113.50
  Q 147.22 112.95 148.88 119.69
  A 1.74 1.74 -7.3 0 0 150.60 121.02
  Q 158.13 120.91 163.99 122.62
  Q 168.49 123.93 171.83 127.17
  Q 172.38 127.71 172.58 127.47
  A 0.72 0.41 47.8 0 0 172.41 126.72
  Q 169.26 122.95 165.44 120.14"
/>
<path stroke="#fff980" vector-effect="non-scaling-stroke" d="
  M 165.44 120.14
  Q 163.15 118.32 162.21 115.75"
/>
<path stroke="#c1ba92" vector-effect="non-scaling-stroke" d="
  M 162.21 115.75
  Q 160.41 112.30 158.38 108.97
  Q 155.96 104.99 154.65 102.18
  Q 150.06 92.33 146.13 82.18"
/>
<path stroke="#fff980" vector-effect="non-scaling-stroke" d="
  M 146.13 82.18
  Q 146.06 80.71 145.61 79.17
  Q 144.73 76.16 147.75 75.96"
/>
<path stroke="#898983" vector-effect="non-scaling-stroke" d="
  M 147.75 75.96
  Q 148.25 76.62 148.78 76.45
  Q 149.14 76.33 149.35 75.72
  Q 151.68 69.21 154.08 62.72
  A 1.67 1.18 -51.0 0 0 154.14 61.77
  Q 153.72 60.42 152.42 60.39
  Q 151.57 60.38 150.47 61.31
  Q 147.87 63.49 145.75 64.00
  Q 143.64 64.50 143.79 66.25"
/>
<path stroke="#fff980" vector-effect="non-scaling-stroke" d="
  M 143.79 66.25
  Q 141.22 67.19 139.39 65.69"
/>
<path stroke="#898983" vector-effect="non-scaling-stroke" d="
  M 139.39 65.69
  Q 136.28 59.10 129.82 57.14
  Q 127.28 56.38 123.64 56.02
  Q 120.22 55.68 117.31 56.31
  Q 97.56 60.64 93.28 80.45
  Q 91.92 86.72 89.82 92.77
  Q 86.41 102.58 79.28 110.08
  A 1.43 0.72 -35.8 0 0 78.84 110.93
  L 78.79 113.50"
/>
<path stroke="#898204" vector-effect="non-scaling-stroke" d="
  M 139.39 65.69
  Q 125.10 54.40 109.56 63.31
  Q 103.34 66.88 99.87 73.36
  Q 98.66 75.61 97.48 79.70
  Q 96.15 84.32 95.75 86.25
  Q 92.64 101.24 83.37 113.36
  Q 81.15 116.27 78.79 113.50"
/>
<path stroke="#898204" vector-effect="non-scaling-stroke" d="
  M 143.79 66.25
  Q 145.73 68.18 148.27 66.74
  Q 150.31 65.58 149.04 67.56
  Q 146.72 71.14 147.75 75.96"
/>
<path stroke="#c1b313" vector-effect="non-scaling-stroke" d="
  M 146.13 82.18
  Q 144.90 82.60 145.25 83.37
  Q 145.58 84.09 145.60 84.19
  Q 149.71 101.35 160.28 115.47
  Q 161.21 116.71 162.21 115.75"
/>
<path stroke="#898204" vector-effect="non-scaling-stroke" d="
  M 165.44 120.14
  L 154.03 116.78
  A 4.42 3.28 -2.9 0 1 151.84 115.32
  Q 147.41 109.11 139.00 109.75
  Q 131.37 110.33 123.51 113.81
  Q 114.73 117.70 114.71 117.71
  Q 95.92 124.20 77.52 114.72"
/>
<path stroke="#8b8687" vector-effect="non-scaling-stroke" d="
  M 166.56 131.40
  Q 169.47 131.93 172.12 133.34
  Q 174.20 134.45 173.00 132.50
  Q 171.00 129.24 167.11 127.68
  Q 164.99 126.83 159.97 125.81
  Q 153.03 124.40 145.71 125.02
  Q 143.53 125.21 144.05 123.08
  Q 145.80 115.92 139.25 116.75
  Q 131.86 117.69 123.09 122.25
  Q 100.89 133.82 77.41 122.69
  Q 76.86 122.43 76.91 123.04
  Q 78.45 139.85 87.31 152.94
  Q 95.82 165.50 108.92 170.70
  Q 113.49 172.51 118.29 172.84
  Q 123.78 173.21 128.00 172.00
  Q 135.48 169.85 141.90 164.44
  Q 145.97 161.01 152.68 153.16
  Q 159.04 145.73 164.94 136.69
  Q 166.52 134.27 166.15 131.80
  A 0.35 0.35 -88.9 0 1 166.56 131.40"
/>
<path stroke="#e98d8f" vector-effect="non-scaling-stroke" d="
  M 203.94 157.77
  Q 198.93 158.57 195.56 155.69
  Q 191.75 152.42 192.53 148.08
  Q 193.09 144.91 196.08 141.57
  Q 200.62 136.49 207.58 134.92
  A 0.58 0.51 -11.2 0 0 208.04 134.32
  L 207.07 128.04
  A 0.51 0.47 -11.2 0 0 206.46 127.67
  Q 194.50 130.43 187.94 140.44
  Q 184.02 146.41 185.39 152.79
  Q 186.50 157.94 190.49 160.98
  Q 194.52 164.05 200.25 164.25
  Q 206.06 164.46 210.96 163.30
  A 0.67 0.64 84.9 0 0 211.46 162.68
  Q 211.67 157.54 211.53 152.40
  Q 211.53 152.29 211.63 150.61
  Q 211.78 148.09 209.08 147.94
  Q 207.55 147.86 205.15 148.08
  A 0.73 0.72 87.4 0 0 204.50 148.81
  L 204.45 157.19
  A 0.60 0.58 -4.6 0 1 203.94 157.77"
/>
<path stroke="#e88e8e" vector-effect="non-scaling-stroke" d="
  M 225.06 133.75
  Q 228.61 133.39 230.64 135.60
  Q 232.50 137.63 231.86 140.30
  Q 231.26 142.79 228.81 144.74
  Q 226.48 146.58 228.00 149.17
  L 236.50 163.57
  A 0.71 0.68 68.4 0 0 237.24 163.91
  Q 240.17 163.32 241.85 161.09
  Q 243.11 159.42 241.82 157.76
  Q 238.70 153.78 235.83 150.07
  Q 235.78 150.01 234.99 149.10
  Q 233.01 146.83 235.81 145.06
  Q 236.99 144.32 238.30 141.95
  Q 239.36 140.03 239.52 138.24
  Q 239.87 134.33 237.32 131.82
  Q 235.55 130.08 231.68 129.22
  Q 224.79 127.69 217.69 128.15
  A 0.54 0.53 -1.7 0 0 217.18 128.68
  L 217.01 162.98
  A 0.52 0.52 0.0 0 0 217.53 163.50
  L 223.99 163.50
  A 0.69 0.68 -1.6 0 0 224.68 162.78
  Q 223.93 148.62 224.54 134.31
  A 0.59 0.58 88.3 0 1 225.06 133.75"
/>
<path stroke="#eb8b8d" vector-effect="non-scaling-stroke" d="
  M 255.81 156.49
  L 268.09 155.24
  A 1.18 1.08 66.4 0 1 269.08 155.68
  Q 272.03 159.34 273.26 163.52
  A 0.91 0.91 71.5 0 0 274.44 164.11
  Q 277.54 162.99 279.18 161.42
  A 1.91 1.83 -36.7 0 0 279.56 159.16
  L 262.77 128.53
  Q 262.23 127.53 261.71 128.57
  L 246.08 159.88
  A 1.27 1.26 -52.5 0 0 246.26 161.29
  Q 247.98 163.21 250.77 164.26
  A 1.19 1.13 -67.9 0 0 252.22 163.61
  L 255.10 157.02
  A 0.89 0.88 8.1 0 1 255.81 156.49"
/>
<path stroke="#e88e8e" vector-effect="non-scaling-stroke" d="
  M 306.96 148.98
  Q 306.93 150.11 306.14 149.29
  Q 295.44 138.17 284.85 128.71
  Q 283.82 127.79 283.78 129.16
  L 282.83 161.51
  A 1.73 1.70 5.6 0 0 284.27 163.24
  Q 288.42 163.97 289.17 161.95
  Q 289.23 161.81 289.27 158.01
  Q 289.36 150.86 289.50 143.55
  Q 289.53 142.15 290.52 143.14
  L 309.55 162.18
  Q 312.11 164.73 312.25 161.13
  L 313.48 130.00
  A 0.76 0.71 -78.4 0 0 313.04 129.28
  Q 312.14 128.89 311.14 128.89
  Q 310.38 128.88 308.88 128.83
  Q 306.97 128.77 307.13 130.73
  Q 307.25 132.21 307.24 132.28
  Q 307.18 140.95 306.96 148.98"
/>
<path stroke="#e98d8f" vector-effect="non-scaling-stroke" d="
  M 345.69 128.48
  Q 337.39 143.28 329.72 159.72
  Q 328.86 161.58 330.33 162.30
  L 333.98 164.10
  A 1.81 1.46 -67.2 0 0 336.12 162.95
  L 338.35 157.01
  A 0.96 0.81 3.3 0 1 339.06 156.48
  Q 345.24 155.46 351.74 155.50
  A 1.86 1.82 -12.7 0 1 353.38 156.51
  L 357.07 163.95
  A 0.91 0.87 -29.5 0 0 358.36 164.28
  L 363.02 161.28
  A 1.15 1.06 -31.0 0 0 363.44 159.83
  L 346.20 128.48
  Q 345.95 128.03 345.69 128.48"
/>
<path stroke="#e98f92" vector-effect="non-scaling-stroke" d="
  M 320.44 130.10
  Q 320.53 139.97 320.48 149.50
  Q 320.46 153.88 318.53 157.65
  Q 318.32 158.05 316.13 160.61
  Q 313.56 163.63 317.24 167.10
  A 1.73 1.72 -41.8 0 0 319.47 167.22
  Q 324.42 163.45 326.36 157.79
  Q 327.46 154.58 327.64 146.60
  Q 327.83 138.45 327.93 130.30
  A 0.55 0.49 -88.9 0 0 327.45 129.74
  L 320.95 129.53
  A 0.56 0.49 -89.6 0 0 320.44 130.10"
/>
<path stroke="#ee9092" vector-effect="non-scaling-stroke" d="
  M 131.60 213.62
  L 138.81 218.18
  Q 140.66 219.36 141.43 217.43
  L 146.01 205.90
  A 0.76 0.76 -80.6 0 1 146.69 205.41
  L 166.43 204.47
  Q 168.56 204.37 169.40 206.25
  L 174.66 218.00
  A 0.87 0.84 64.9 0 0 175.80 218.44
  Q 180.65 216.10 184.53 212.72
  A 1.17 1.17 -34.0 0 0 184.81 211.31
  Q 172.73 187.76 158.13 162.27
  Q 157.31 160.85 156.54 162.30
  Q 143.81 186.17 131.15 212.21
  A 1.14 1.07 29.0 0 0 131.60 213.62"
/>
<path stroke="#f18e92" vector-effect="non-scaling-stroke" d="
  M 21.95 174.06
  Q 22.59 194.30 21.96 215.94
  A 1.03 1.03 -89.2 0 0 22.99 217.00
  L 33.56 217.00
  A 0.69 0.68 89.6 0 0 34.24 216.30
  L 33.76 174.14
  A 0.66 0.64 0.0 0 1 34.43 173.49
  L 49.94 173.68
  A 0.55 0.50 1.1 0 0 50.50 173.19
  L 50.68 164.29
  A 0.60 0.55 -0.0 0 0 50.07 163.73
  Q 28.13 164.31 5.84 163.73
  A 0.81 0.81 1.0 0 0 5.00 164.54
  L 5.00 173.26
  A 0.85 0.85 -3.1 0 0 5.94 174.10
  Q 14.17 173.29 21.44 173.54
  A 0.53 0.53 0.6 0 1 21.95 174.06"
/>
<path stroke="#e78b8b" vector-effect="non-scaling-stroke" d="
  M 53.06 187.26
  Q 56.15 186.95 58.25 187.75
  Q 61.91 189.15 61.10 193.47
  Q 60.41 197.18 57.45 199.03
  Q 55.43 200.28 56.68 202.30
  Q 60.80 208.94 64.94 215.56
  Q 66.36 217.85 67.94 217.15
  Q 68.79 216.79 70.19 215.49
  Q 71.70 214.11 71.28 212.27
  Q 71.05 211.27 69.71 209.57
  Q 66.71 205.78 63.59 201.95
  A 1.43 1.43 48.8 0 1 63.72 200.01
  Q 67.41 196.54 68.50 192.00
  Q 69.26 188.82 67.28 186.35
  Q 66.10 184.89 63.71 183.83
  Q 61.37 182.79 59.44 182.56
  Q 53.15 181.81 46.81 181.81
  A 0.51 0.50 -90.0 0 0 46.31 182.32
  L 46.56 216.18
  A 0.61 0.57 -86.7 0 0 47.05 216.77
  Q 50.06 217.25 52.96 216.34
  A 0.67 0.66 -9.7 0 0 53.43 215.68
  L 52.58 187.81
  A 0.54 0.53 86.5 0 1 53.06 187.26"
/>
<path stroke="#e88e8e" vector-effect="non-scaling-stroke" d="
  M 196.06 187.49
  Q 199.35 187.08 202.32 189.62
  A 2.72 2.71 25.5 0 1 203.22 192.15
  Q 202.45 196.51 198.56 200.02
  A 1.57 1.52 53.4 0 0 198.30 201.99
  L 207.57 216.95
  A 1.32 1.18 53.8 0 0 209.45 217.35
  L 213.31 213.96
  A 1.33 1.18 53.0 0 0 213.44 212.32
  Q 209.77 206.71 205.06 201.94
  A 0.63 0.63 -45.7 0 1 205.05 201.07
  Q 206.44 199.60 207.70 198.03
  Q 209.16 196.22 209.83 194.63
  Q 212.02 189.39 208.68 185.99
  Q 206.54 183.81 201.69 182.89
  Q 195.71 181.75 188.99 181.75
  A 0.75 0.74 0.8 0 0 188.24 182.47
  Q 187.88 195.97 188.43 209.67
  Q 188.49 211.13 188.39 212.83
  Q 188.29 214.42 188.25 216.02
  A 0.97 0.89 -88.1 0 0 189.10 217.01
  L 194.18 217.24
  A 1.48 1.32 -89.9 0 0 195.56 215.70
  Q 194.99 201.18 195.54 188.06
  A 0.60 0.59 87.8 0 1 196.06 187.49"
/>
<path stroke="#e98d8f" vector-effect="non-scaling-stroke" d="
  M 252.8912 216.2840
  A 18.17 16.74 111.6 0 0 275.1445 205.5524
  A 18.17 16.74 111.6 0 0 266.2688 182.4960
  A 18.17 16.74 111.6 0 0 244.0155 193.2276
  A 18.17 16.74 111.6 0 0 252.8912 216.2840"
/>
<path stroke="#e98f92" vector-effect="non-scaling-stroke" d="
  M 284.90 194.27
  Q 287.06 197.07 288.17 200.40
  Q 289.00 202.89 289.00 207.20
  Q 289.00 211.15 289.00 215.66
  A 1.12 1.12 4.1 0 0 289.96 216.77
  Q 293.71 217.33 296.03 216.65
  A 0.64 0.61 81.5 0 0 296.48 216.01
  Q 296.07 206.58 297.25 201.50
  Q 298.94 194.27 306.00 189.90
  Q 308.25 188.51 308.39 187.15
  Q 308.61 185.07 306.27 182.59
  A 1.43 1.41 -36.6 0 0 304.52 182.34
  Q 296.56 186.95 293.93 195.43
  Q 293.53 196.74 293.07 195.45
  Q 289.87 186.49 281.62 182.04
  A 0.63 0.62 -55.2 0 0 280.85 182.18
  Q 278.94 184.38 278.19 187.19
  A 0.90 0.89 -59.8 0 0 278.41 188.04
  Q 280.01 189.64 281.72 191.12
  Q 284.00 193.10 284.90 194.27"
/>
<path stroke="#e88e8e" vector-effect="non-scaling-stroke" d="
  M 319.2366 216.2569
  A 18.17 16.74 112.5 0 0 341.6557 205.8761
  A 18.17 16.74 112.5 0 0 333.1434 182.6831
  A 18.17 16.74 112.5 0 0 310.7243 193.0639
  A 18.17 16.74 112.5 0 0 319.2366 216.2569"
/>
<path stroke="#eb8b8d" vector-effect="non-scaling-stroke" d="
  M 81.99 209.70
  L 81.98 203.56
  A 0.63 0.56 -2.8 0 1 82.56 203.00
  L 89.04 202.49
  A 1.26 1.21 -0.4 0 0 90.19 201.37
  Q 90.36 199.00 89.67 197.50
  A 0.80 0.80 -13.1 0 0 88.93 197.04
  L 82.31 197.15
  A 0.47 0.45 -0.0 0 1 81.83 196.69
  L 81.94 188.94
  A 0.61 0.59 86.1 0 1 82.43 188.35
  Q 87.16 187.52 88.75 187.75
  Q 91.32 188.12 91.39 186.17
  Q 91.45 184.20 91.49 183.84
  Q 91.70 181.71 89.56 182.00
  Q 87.51 182.28 87.41 182.29
  Q 81.87 182.47 75.52 182.50
  A 0.79 0.79 89.5 0 0 74.74 183.30
  L 75.18 216.31
  A 0.55 0.52 90.0 0 0 75.69 216.85
  L 91.69 216.96
  A 0.61 0.57 -84.9 0 0 92.27 216.44
  Q 92.62 213.94 91.85 211.53
  A 0.80 0.64 -3.6 0 0 91.19 211.07
  L 82.56 210.29
  A 0.62 0.59 2.7 0 1 81.99 209.70"
/>
<path stroke="#e88e8e" vector-effect="non-scaling-stroke" d="
  M 109.06 211.56
  Q 117.22 202.94 107.26 196.99
  Q 103.65 194.84 102.94 193.81
  Q 100.73 190.64 104.39 189.26
  Q 107.25 188.19 110.05 186.95
  A 1.10 1.02 -5.6 0 0 110.65 186.27
  Q 111.35 183.62 109.68 182.58
  Q 108.48 181.82 106.24 182.31
  Q 100.45 183.56 96.81 187.81
  Q 93.06 192.20 95.28 196.33
  Q 96.17 197.98 100.00 200.90
  Q 102.66 202.92 105.14 205.17
  A 0.58 0.57 38.5 0 1 105.23 205.92
  Q 102.46 210.08 97.12 210.51
  A 1.15 1.01 -6.0 0 0 96.06 211.66
  L 96.69 216.20
  A 0.60 0.55 -4.3 0 0 97.30 216.68
  Q 104.41 216.49 109.06 211.56"
/>
<path stroke="#e88e8e" vector-effect="non-scaling-stroke" d="
  M 224.81 187.52
  Q 232.20 186.94 231.78 193.02
  Q 231.65 194.97 230.20 197.00
  Q 229.01 198.64 227.51 200.49
  A 1.46 1.46 48.6 0 0 227.41 202.19
  L 236.59 216.98
  A 1.24 1.17 55.8 0 0 238.32 217.36
  L 242.60 214.20
  A 0.84 0.83 53.7 0 0 242.77 213.03
  L 234.48 201.96
  A 1.52 1.46 50.5 0 1 234.63 199.97
  Q 237.27 197.53 238.50 194.61
  Q 241.46 187.54 234.92 184.10
  Q 232.20 182.68 230.00 182.50
  Q 224.38 182.05 218.02 181.99
  A 1.01 1.01 0.3 0 0 217.00 183.00
  L 217.00 215.46
  A 1.68 1.40 89.7 0 0 218.42 217.14
  L 223.61 217.07
  A 0.77 0.65 89.6 0 0 224.25 216.30
  L 224.31 188.05
  A 0.54 0.53 -2.3 0 1 224.81 187.52"
/>
<path stroke="#e78b8b" vector-effect="non-scaling-stroke" d="
  M 354.86 204.15
  Q 357.77 206.24 354.95 208.43
  Q 352.31 210.48 348.99 211.00
  Q 347.11 211.30 346.99 213.19
  Q 346.71 217.31 351.00 217.00
  Q 353.17 216.84 358.83 213.10
  Q 363.99 209.69 363.72 203.87
  Q 363.62 201.90 362.44 200.45
  Q 361.24 198.98 359.54 197.97
  Q 356.82 196.36 354.30 194.43
  Q 351.89 192.58 354.13 190.52
  Q 356.74 188.12 360.69 187.73
  A 0.74 0.70 3.7 0 0 361.33 187.20
  Q 362.04 184.50 360.27 182.43
  A 0.90 0.86 -24.4 0 0 359.44 182.14
  Q 353.62 183.08 349.56 186.56
  Q 341.72 193.29 349.68 200.06
  Q 352.46 202.42 354.86 204.15"
/>
<path stroke="#82cab2" vector-effect="non-scaling-stroke" d="
  M 251.59 261.26
  Q 255.07 257.19 256.89 251.43
  Q 257.96 248.06 257.16 245.02
  Q 254.67 235.63 244.05 234.05
  Q 237.52 233.08 231.75 234.25
  Q 206.13 239.45 182.15 251.86
  Q 171.35 257.45 163.31 261.06
  Q 138.57 272.19 111.50 274.29
  Q 102.14 275.01 91.50 274.98
  Q 49.57 274.87 11.57 256.42
  Q 9.50 255.41 7.28 254.68
  Q 6.42 254.39 6.84 255.19
  Q 10.95 263.08 16.09 269.92
  Q 19.27 274.15 25.69 276.56
  Q 40.71 282.20 54.39 284.91
  Q 62.90 286.59 74.16 287.81
  Q 124.70 293.29 171.10 273.36
  Q 172.55 272.73 189.14 264.72
  Q 200.88 259.05 212.97 254.18
  Q 223.14 250.09 233.81 247.55
  Q 236.50 246.91 239.26 246.98
  A 1.27 1.22 -21.0 0 1 240.12 247.34
  Q 241.61 248.81 241.53 250.75
  Q 241.47 252.11 240.18 253.86
  Q 237.71 257.21 234.55 260.32
  A 1.62 1.61 -37.6 0 0 234.29 262.30
  Q 240.57 273.00 250.16 280.38
  A 1.20 1.20 59.8 0 0 251.06 280.62
  Q 255.21 280.07 264.75 279.25
  Q 291.69 276.94 313.53 279.76
  Q 338.62 282.99 361.46 294.36
  Q 362.51 294.88 362.04 293.81
  Q 360.38 290.01 358.32 286.57
  Q 355.59 282.01 354.21 280.38
  Q 351.76 277.49 348.20 275.78
  Q 336.66 270.22 324.23 267.10
  Q 289.05 258.28 252.44 262.82
  Q 250.01 263.12 251.59 261.26"
/>
<path stroke="#898204" vector-effect="non-scaling-stroke" d="
  M 130.35 72.06
  A 2.47 2.47 0.0 0 0 127.88 69.59
  A 2.47 2.47 0.0 0 0 125.41 72.06
  A 2.47 2.47 0.0 0 0 127.88 74.53
  A 2.47 2.47 0.0 0 0 130.35 72.06"
/>
<path stroke="#4d411a" vector-effect="non-scaling-stroke" d="
  M 91.04 130.75
  L 82.25 128.29"
/>
<path stroke="#811519" vector-effect="non-scaling-stroke" d="
  M 82.25 128.29
  Q 79.81 127.35 80.25 130.00
  Q 80.54 131.73 81.06 133.07
  Q 81.92 135.27 82.11 136.04
  Q 85.11 147.94 93.32 157.16
  Q 98.77 163.29 107.00 166.50
  Q 121.54 172.18 134.57 164.49
  Q 138.58 162.12 144.06 156.56
  Q 154.72 145.75 162.45 132.67
  Q 163.45 130.97 161.62 130.23
  Q 158.63 129.02 154.50 129.13
  Q 151.16 129.23 147.82 129.36
  Q 143.60 129.54 141.97 128.28
  Q 139.35 126.26 140.11 121.57
  A 1.09 1.08 -3.9 0 0 138.72 120.36
  Q 131.45 122.56 125.23 126.01
  Q 112.77 132.91 98.51 131.40
  Q 94.78 131.00 91.04 130.75"
/>
<path stroke="#b74925" vector-effect="non-scaling-stroke" d="
  M 82.25 128.29
  Q 85.97 131.74 91.04 130.75"
/>
<path stroke="#eb837e" vector-effect="non-scaling-stroke" d="
  M 261.45 141.42
  L 258.00 149.51
  A 1.10 1.01 7.8 0 0 259.16 150.90
  L 266.67 150.24
  A 0.70 0.70 -16.3 0 0 267.23 149.22
  L 263.20 141.47
  Q 262.22 139.60 261.45 141.42"
/>
<path stroke="#e98481" vector-effect="non-scaling-stroke" d="
  M 345.26 141.03
  L 341.26 149.54
  A 0.85 0.82 11.9 0 0 342.05 150.71
  L 350.19 150.66
  A 0.34 0.31 -11.9 0 0 350.51 150.22
  L 346.27 140.99
  Q 345.78 139.92 345.26 141.03"
/>
<path stroke="#ee9092" vector-effect="non-scaling-stroke" d="
  M 156.64 181.04
  L 150.13 195.86
  A 0.34 0.33 -78.0 0 0 150.43 196.34
  L 163.61 196.17
  A 0.72 0.70 76.6 0 0 164.22 195.15
  L 157.74 181.03
  Q 157.18 179.82 156.64 181.04"
/>
<path stroke="#e98d8f" vector-effect="non-scaling-stroke" d="
  M 258.2484 211.0381
  A 11.69 8.95 95.9 0 0 268.3526 200.3300
  A 11.69 8.95 95.9 0 0 260.6516 187.7819
  A 11.69 8.95 95.9 0 0 250.5474 198.4900
  A 11.69 8.95 95.9 0 0 258.2484 211.0381"
/>
<path stroke="#e88e8e" vector-effect="non-scaling-stroke" d="
  M 325.0336 211.1793
  A 11.87 8.96 95.3 0 0 335.0517 200.1876
  A 11.87 8.96 95.3 0 0 327.2264 187.5407
  A 11.87 8.96 95.3 0 0 317.2083 198.5324
  A 11.87 8.96 95.3 0 0 325.0336 211.1793"
/>
</g>
<path fill="#ffffff" d="
  M 0.00 0.00
  L 394.00 0.00
  L 394.00 346.00
  L 0.00 346.00
  L 0.00 0.00
  Z
  M 78.79 113.50
  Q 78.98 114.68 77.52 114.72
  Q 77.30 118.64 81.31 120.19
  Q 99.87 127.34 117.14 120.76
  Q 117.17 120.75 123.88 117.67
  Q 131.86 114.01 139.25 113.50
  Q 147.22 112.95 148.88 119.69
  A 1.74 1.74 -7.3 0 0 150.60 121.02
  Q 158.13 120.91 163.99 122.62
  Q 168.49 123.93 171.83 127.17
  Q 172.38 127.71 172.58 127.47
  A 0.72 0.41 47.8 0 0 172.41 126.72
  Q 169.26 122.95 165.44 120.14
  Q 163.15 118.32 162.21 115.75
  Q 160.41 112.30 158.38 108.97
  Q 155.96 104.99 154.65 102.18
  Q 150.06 92.33 146.13 82.18
  Q 146.06 80.71 145.61 79.17
  Q 144.73 76.16 147.75 75.96
  Q 148.25 76.62 148.78 76.45
  Q 149.14 76.33 149.35 75.72
  Q 151.68 69.21 154.08 62.72
  A 1.67 1.18 -51.0 0 0 154.14 61.77
  Q 153.72 60.42 152.42 60.39
  Q 151.57 60.38 150.47 61.31
  Q 147.87 63.49 145.75 64.00
  Q 143.64 64.50 143.79 66.25
  Q 141.22 67.19 139.39 65.69
  Q 136.28 59.10 129.82 57.14
  Q 127.28 56.38 123.64 56.02
  Q 120.22 55.68 117.31 56.31
  Q 97.56 60.64 93.28 80.45
  Q 91.92 86.72 89.82 92.77
  Q 86.41 102.58 79.28 110.08
  A 1.43 0.72 -35.8 0 0 78.84 110.93
  L 78.79 113.50
  Z
  M 166.56 131.40
  Q 169.47 131.93 172.12 133.34
  Q 174.20 134.45 173.00 132.50
  Q 171.00 129.24 167.11 127.68
  Q 164.99 126.83 159.97 125.81
  Q 153.03 124.40 145.71 125.02
  Q 143.53 125.21 144.05 123.08
  Q 145.80 115.92 139.25 116.75
  Q 131.86 117.69 123.09 122.25
  Q 100.89 133.82 77.41 122.69
  Q 76.86 122.43 76.91 123.04
  Q 78.45 139.85 87.31 152.94
  Q 95.82 165.50 108.92 170.70
  Q 113.49 172.51 118.29 172.84
  Q 123.78 173.21 128.00 172.00
  Q 135.48 169.85 141.90 164.44
  Q 145.97 161.01 152.68 153.16
  Q 159.04 145.73 164.94 136.69
  Q 166.52 134.27 166.15 131.80
  A 0.35 0.35 -88.9 0 1 166.56 131.40
  Z
  M 203.94 157.77
  Q 198.93 158.57 195.56 155.69
  Q 191.75 152.42 192.53 148.08
  Q 193.09 144.91 196.08 141.57
  Q 200.62 136.49 207.58 134.92
  A 0.58 0.51 -11.2 0 0 208.04 134.32
  L 207.07 128.04
  A 0.51 0.47 -11.2 0 0 206.46 127.67
  Q 194.50 130.43 187.94 140.44
  Q 184.02 146.41 185.39 152.79
  Q 186.50 157.94 190.49 160.98
  Q 194.52 164.05 200.25 164.25
  Q 206.06 164.46 210.96 163.30
  A 0.67 0.64 84.9 0 0 211.46 162.68
  Q 211.67 157.54 211.53 152.40
  Q 211.53 152.29 211.63 150.61
  Q 211.78 148.09 209.08 147.94
  Q 207.55 147.86 205.15 148.08
  A 0.73 0.72 87.4 0 0 204.50 148.81
  L 204.45 157.19
  A 0.60 0.58 -4.6 0 1 203.94 157.77
  Z
  M 225.06 133.75
  Q 228.61 133.39 230.64 135.60
  Q 232.50 137.63 231.86 140.30
  Q 231.26 142.79 228.81 144.74
  Q 226.48 146.58 228.00 149.17
  L 236.50 163.57
  A 0.71 0.68 68.4 0 0 237.24 163.91
  Q 240.17 163.32 241.85 161.09
  Q 243.11 159.42 241.82 157.76
  Q 238.70 153.78 235.83 150.07
  Q 235.78 150.01 234.99 149.10
  Q 233.01 146.83 235.81 145.06
  Q 236.99 144.32 238.30 141.95
  Q 239.36 140.03 239.52 138.24
  Q 239.87 134.33 237.32 131.82
  Q 235.55 130.08 231.68 129.22
  Q 224.79 127.69 217.69 128.15
  A 0.54 0.53 -1.7 0 0 217.18 128.68
  L 217.01 162.98
  A 0.52 0.52 0.0 0 0 217.53 163.50
  L 223.99 163.50
  A 0.69 0.68 -1.6 0 0 224.68 162.78
  Q 223.93 148.62 224.54 134.31
  A 0.59 0.58 88.3 0 1 225.06 133.75
  Z
  M 255.81 156.49
  L 268.09 155.24
  A 1.18 1.08 66.4 0 1 269.08 155.68
  Q 272.03 159.34 273.26 163.52
  A 0.91 0.91 71.5 0 0 274.44 164.11
  Q 277.54 162.99 279.18 161.42
  A 1.91 1.83 -36.7 0 0 279.56 159.16
  L 262.77 128.53
  Q 262.23 127.53 261.71 128.57
  L 246.08 159.88
  A 1.27 1.26 -52.5 0 0 246.26 161.29
  Q 247.98 163.21 250.77 164.26
  A 1.19 1.13 -67.9 0 0 252.22 163.61
  L 255.10 157.02
  A 0.89 0.88 8.1 0 1 255.81 156.49
  Z
  M 306.96 148.98
  Q 306.93 150.11 306.14 149.29
  Q 295.44 138.17 284.85 128.71
  Q 283.82 127.79 283.78 129.16
  L 282.83 161.51
  A 1.73 1.70 5.6 0 0 284.27 163.24
  Q 288.42 163.97 289.17 161.95
  Q 289.23 161.81 289.27 158.01
  Q 289.36 150.86 289.50 143.55
  Q 289.53 142.15 290.52 143.14
  L 309.55 162.18
  Q 312.11 164.73 312.25 161.13
  L 313.48 130.00
  A 0.76 0.71 -78.4 0 0 313.04 129.28
  Q 312.14 128.89 311.14 128.89
  Q 310.38 128.88 308.88 128.83
  Q 306.97 128.77 307.13 130.73
  Q 307.25 132.21 307.24 132.28
  Q 307.18 140.95 306.96 148.98
  Z
  M 345.69 128.48
  Q 337.39 143.28 329.72 159.72
  Q 328.86 161.58 330.33 162.30
  L 333.98 164.10
  A 1.81 1.46 -67.2 0 0 336.12 162.95
  L 338.35 157.01
  A 0.96 0.81 3.3 0 1 339.06 156.48
  Q 345.24 155.46 351.74 155.50
  A 1.86 1.82 -12.7 0 1 353.38 156.51
  L 357.07 163.95
  A 0.91 0.87 -29.5 0 0 358.36 164.28
  L 363.02 161.28
  A 1.15 1.06 -31.0 0 0 363.44 159.83
  L 346.20 128.48
  Q 345.95 128.03 345.69 128.48
  Z
  M 320.44 130.10
  Q 320.53 139.97 320.48 149.50
  Q 320.46 153.88 318.53 157.65
  Q 318.32 158.05 316.13 160.61
  Q 313.56 163.63 317.24 167.10
  A 1.73 1.72 -41.8 0 0 319.47 167.22
  Q 324.42 163.45 326.36 157.79
  Q 327.46 154.58 327.64 146.60
  Q 327.83 138.45 327.93 130.30
  A 0.55 0.49 -88.9 0 0 327.45 129.74
  L 320.95 129.53
  A 0.56 0.49 -89.6 0 0 320.44 130.10
  Z
  M 131.60 213.62
  L 138.81 218.18
  Q 140.66 219.36 141.43 217.43
  L 146.01 205.90
  A 0.76 0.76 -80.6 0 1 146.69 205.41
  L 166.43 204.47
  Q 168.56 204.37 169.40 206.25
  L 174.66 218.00
  A 0.87 0.84 64.9 0 0 175.80 218.44
  Q 180.65 216.10 184.53 212.72
  A 1.17 1.17 -34.0 0 0 184.81 211.31
  Q 172.73 187.76 158.13 162.27
  Q 157.31 160.85 156.54 162.30
  Q 143.81 186.17 131.15 212.21
  A 1.14 1.07 29.0 0 0 131.60 213.62
  Z
  M 21.95 174.06
  Q 22.59 194.30 21.96 215.94
  A 1.03 1.03 -89.2 0 0 22.99 217.00
  L 33.56 217.00
  A 0.69 0.68 89.6 0 0 34.24 216.30
  L 33.76 174.14
  A 0.66 0.64 0.0 0 1 34.43 173.49
  L 49.94 173.68
  A 0.55 0.50 1.1 0 0 50.50 173.19
  L 50.68 164.29
  A 0.60 0.55 -0.0 0 0 50.07 163.73
  Q 28.13 164.31 5.84 163.73
  A 0.81 0.81 1.0 0 0 5.00 164.54
  L 5.00 173.26
  A 0.85 0.85 -3.1 0 0 5.94 174.10
  Q 14.17 173.29 21.44 173.54
  A 0.53 0.53 0.6 0 1 21.95 174.06
  Z
  M 53.06 187.26
  Q 56.15 186.95 58.25 187.75
  Q 61.91 189.15 61.10 193.47
  Q 60.41 197.18 57.45 199.03
  Q 55.43 200.28 56.68 202.30
  Q 60.80 208.94 64.94 215.56
  Q 66.36 217.85 67.94 217.15
  Q 68.79 216.79 70.19 215.49
  Q 71.70 214.11 71.28 212.27
  Q 71.05 211.27 69.71 209.57
  Q 66.71 205.78 63.59 201.95
  A 1.43 1.43 48.8 0 1 63.72 200.01
  Q 67.41 196.54 68.50 192.00
  Q 69.26 188.82 67.28 186.35
  Q 66.10 184.89 63.71 183.83
  Q 61.37 182.79 59.44 182.56
  Q 53.15 181.81 46.81 181.81
  A 0.51 0.50 -90.0 0 0 46.31 182.32
  L 46.56 216.18
  A 0.61 0.57 -86.7 0 0 47.05 216.77
  Q 50.06 217.25 52.96 216.34
  A 0.67 0.66 -9.7 0 0 53.43 215.68
  L 52.58 187.81
  A 0.54 0.53 86.5 0 1 53.06 187.26
  Z
  M 196.06 187.49
  Q 199.35 187.08 202.32 189.62
  A 2.72 2.71 25.5 0 1 203.22 192.15
  Q 202.45 196.51 198.56 200.02
  A 1.57 1.52 53.4 0 0 198.30 201.99
  L 207.57 216.95
  A 1.32 1.18 53.8 0 0 209.45 217.35
  L 213.31 213.96
  A 1.33 1.18 53.0 0 0 213.44 212.32
  Q 209.77 206.71 205.06 201.94
  A 0.63 0.63 -45.7 0 1 205.05 201.07
  Q 206.44 199.60 207.70 198.03
  Q 209.16 196.22 209.83 194.63
  Q 212.02 189.39 208.68 185.99
  Q 206.54 183.81 201.69 182.89
  Q 195.71 181.75 188.99 181.75
  A 0.75 0.74 0.8 0 0 188.24 182.47
  Q 187.88 195.97 188.43 209.67
  Q 188.49 211.13 188.39 212.83
  Q 188.29 214.42 188.25 216.02
  A 0.97 0.89 -88.1 0 0 189.10 217.01
  L 194.18 217.24
  A 1.48 1.32 -89.9 0 0 195.56 215.70
  Q 194.99 201.18 195.54 188.06
  A 0.60 0.59 87.8 0 1 196.06 187.49
  Z
  M 252.8912 216.2840
  A 18.17 16.74 111.6 0 0 275.1445 205.5524
  A 18.17 16.74 111.6 0 0 266.2688 182.4960
  A 18.17 16.74 111.6 0 0 244.0155 193.2276
  A 18.17 16.74 111.6 0 0 252.8912 216.2840
  Z
  M 284.90 194.27
  Q 287.06 197.07 288.17 200.40
  Q 289.00 202.89 289.00 207.20
  Q 289.00 211.15 289.00 215.66
  A 1.12 1.12 4.1 0 0 289.96 216.77
  Q 293.71 217.33 296.03 216.65
  A 0.64 0.61 81.5 0 0 296.48 216.01
  Q 296.07 206.58 297.25 201.50
  Q 298.94 194.27 306.00 189.90
  Q 308.25 188.51 308.39 187.15
  Q 308.61 185.07 306.27 182.59
  A 1.43 1.41 -36.6 0 0 304.52 182.34
  Q 296.56 186.95 293.93 195.43
  Q 293.53 196.74 293.07 195.45
  Q 289.87 186.49 281.62 182.04
  A 0.63 0.62 -55.2 0 0 280.85 182.18
  Q 278.94 184.38 278.19 187.19
  A 0.90 0.89 -59.8 0 0 278.41 188.04
  Q 280.01 189.64 281.72 191.12
  Q 284.00 193.10 284.90 194.27
  Z
  M 319.2366 216.2569
  A 18.17 16.74 112.5 0 0 341.6557 205.8761
  A 18.17 16.74 112.5 0 0 333.1434 182.6831
  A 18.17 16.74 112.5 0 0 310.7243 193.0639
  A 18.17 16.74 112.5 0 0 319.2366 216.2569
  Z
  M 81.99 209.70
  L 81.98 203.56
  A 0.63 0.56 -2.8 0 1 82.56 203.00
  L 89.04 202.49
  A 1.26 1.21 -0.4 0 0 90.19 201.37
  Q 90.36 199.00 89.67 197.50
  A 0.80 0.80 -13.1 0 0 88.93 197.04
  L 82.31 197.15
  A 0.47 0.45 -0.0 0 1 81.83 196.69
  L 81.94 188.94
  A 0.61 0.59 86.1 0 1 82.43 188.35
  Q 87.16 187.52 88.75 187.75
  Q 91.32 188.12 91.39 186.17
  Q 91.45 184.20 91.49 183.84
  Q 91.70 181.71 89.56 182.00
  Q 87.51 182.28 87.41 182.29
  Q 81.87 182.47 75.52 182.50
  A 0.79 0.79 89.5 0 0 74.74 183.30
  L 75.18 216.31
  A 0.55 0.52 90.0 0 0 75.69 216.85
  L 91.69 216.96
  A 0.61 0.57 -84.9 0 0 92.27 216.44
  Q 92.62 213.94 91.85 211.53
  A 0.80 0.64 -3.6 0 0 91.19 211.07
  L 82.56 210.29
  A 0.62 0.59 2.7 0 1 81.99 209.70
  Z
  M 109.06 211.56
  Q 117.22 202.94 107.26 196.99
  Q 103.65 194.84 102.94 193.81
  Q 100.73 190.64 104.39 189.26
  Q 107.25 188.19 110.05 186.95
  A 1.10 1.02 -5.6 0 0 110.65 186.27
  Q 111.35 183.62 109.68 182.58
  Q 108.48 181.82 106.24 182.31
  Q 100.45 183.56 96.81 187.81
  Q 93.06 192.20 95.28 196.33
  Q 96.17 197.98 100.00 200.90
  Q 102.66 202.92 105.14 205.17
  A 0.58 0.57 38.5 0 1 105.23 205.92
  Q 102.46 210.08 97.12 210.51
  A 1.15 1.01 -6.0 0 0 96.06 211.66
  L 96.69 216.20
  A 0.60 0.55 -4.3 0 0 97.30 216.68
  Q 104.41 216.49 109.06 211.56
  Z
  M 224.81 187.52
  Q 232.20 186.94 231.78 193.02
  Q 231.65 194.97 230.20 197.00
  Q 229.01 198.64 227.51 200.49
  A 1.46 1.46 48.6 0 0 227.41 202.19
  L 236.59 216.98
  A 1.24 1.17 55.8 0 0 238.32 217.36
  L 242.60 214.20
  A 0.84 0.83 53.7 0 0 242.77 213.03
  L 234.48 201.96
  A 1.52 1.46 50.5 0 1 234.63 199.97
  Q 237.27 197.53 238.50 194.61
  Q 241.46 187.54 234.92 184.10
  Q 232.20 182.68 230.00 182.50
  Q 224.38 182.05 218.02 181.99
  A 1.01 1.01 0.3 0 0 217.00 183.00
  L 217.00 215.46
  A 1.68 1.40 89.7 0 0 218.42 217.14
  L 223.61 217.07
  A 0.77 0.65 89.6 0 0 224.25 216.30
  L 224.31 188.05
  A 0.54 0.53 -2.3 0 1 224.81 187.52
  Z
  M 354.86 204.15
  Q 357.77 206.24 354.95 208.43
  Q 352.31 210.48 348.99 211.00
  Q 347.11 211.30 346.99 213.19
  Q 346.71 217.31 351.00 217.00
  Q 353.17 216.84 358.83 213.10
  Q 363.99 209.69 363.72 203.87
  Q 363.62 201.90 362.44 200.45
  Q 361.24 198.98 359.54 197.97
  Q 356.82 196.36 354.30 194.43
  Q 351.89 192.58 354.13 190.52
  Q 356.74 188.12 360.69 187.73
  A 0.74 0.70 3.7 0 0 361.33 187.20
  Q 362.04 184.50 360.27 182.43
  A 0.90 0.86 -24.4 0 0 359.44 182.14
  Q 353.62 183.08 349.56 186.56
  Q 341.72 193.29 349.68 200.06
  Q 352.46 202.42 354.86 204.15
  Z
  M 251.59 261.26
  Q 255.07 257.19 256.89 251.43
  Q 257.96 248.06 257.16 245.02
  Q 254.67 235.63 244.05 234.05
  Q 237.52 233.08 231.75 234.25
  Q 206.13 239.45 182.15 251.86
  Q 171.35 257.45 163.31 261.06
  Q 138.57 272.19 111.50 274.29
  Q 102.14 275.01 91.50 274.98
  Q 49.57 274.87 11.57 256.42
  Q 9.50 255.41 7.28 254.68
  Q 6.42 254.39 6.84 255.19
  Q 10.95 263.08 16.09 269.92
  Q 19.27 274.15 25.69 276.56
  Q 40.71 282.20 54.39 284.91
  Q 62.90 286.59 74.16 287.81
  Q 124.70 293.29 171.10 273.36
  Q 172.55 272.73 189.14 264.72
  Q 200.88 259.05 212.97 254.18
  Q 223.14 250.09 233.81 247.55
  Q 236.50 246.91 239.26 246.98
  A 1.27 1.22 -21.0 0 1 240.12 247.34
  Q 241.61 248.81 241.53 250.75
  Q 241.47 252.11 240.18 253.86
  Q 237.71 257.21 234.55 260.32
  A 1.62 1.61 -37.6 0 0 234.29 262.30
  Q 240.57 273.00 250.16 280.38
  A 1.20 1.20 59.8 0 0 251.06 280.62
  Q 255.21 280.07 264.75 279.25
  Q 291.69 276.94 313.53 279.76
  Q 338.62 282.99 361.46 294.36
  Q 362.51 294.88 362.04 293.81
  Q 360.38 290.01 358.32 286.57
  Q 355.59 282.01 354.21 280.38
  Q 351.76 277.49 348.20 275.78
  Q 336.66 270.22 324.23 267.10
  Q 289.05 258.28 252.44 262.82
  Q 250.01 263.12 251.59 261.26
  Z"
/>
<path fill="#121206" d="
  M 139.39 65.69
  Q 125.10 54.40 109.56 63.31
  Q 103.34 66.88 99.87 73.36
  Q 98.66 75.61 97.48 79.70
  Q 96.15 84.32 95.75 86.25
  Q 92.64 101.24 83.37 113.36
  Q 81.15 116.27 78.79 113.50
  L 78.84 110.93
  A 1.43 0.72 -35.8 0 1 79.28 110.08
  Q 86.41 102.58 89.82 92.77
  Q 91.92 86.72 93.28 80.45
  Q 97.56 60.64 117.31 56.31
  Q 120.22 55.68 123.64 56.02
  Q 127.28 56.38 129.82 57.14
  Q 136.28 59.10 139.39 65.69
  Z"
/>
<path fill="#fff201" d="
  M 139.39 65.69
  Q 141.22 67.19 143.79 66.25
  Q 145.73 68.18 148.27 66.74
  Q 150.31 65.58 149.04 67.56
  Q 146.72 71.14 147.75 75.96
  Q 144.73 76.16 145.61 79.17
  Q 146.06 80.71 146.13 82.18
  Q 144.90 82.60 145.25 83.37
  Q 145.58 84.09 145.60 84.19
  Q 149.71 101.35 160.28 115.47
  Q 161.21 116.71 162.21 115.75
  Q 163.15 118.32 165.44 120.14
  L 154.03 116.78
  A 4.42 3.28 -2.9 0 1 151.84 115.32
  Q 147.41 109.11 139.00 109.75
  Q 131.37 110.33 123.51 113.81
  Q 114.73 117.70 114.71 117.71
  Q 95.92 124.20 77.52 114.72
  Q 78.98 114.68 78.79 113.50
  Q 81.15 116.27 83.37 113.36
  Q 92.64 101.24 95.75 86.25
  Q 96.15 84.32 97.48 79.70
  Q 98.66 75.61 99.87 73.36
  Q 103.34 66.88 109.56 63.31
  Q 125.10 54.40 139.39 65.69
  Z
  M 130.35 72.06
  A 2.47 2.47 0.0 0 0 127.88 69.59
  A 2.47 2.47 0.0 0 0 125.41 72.06
  A 2.47 2.47 0.0 0 0 127.88 74.53
  A 2.47 2.47 0.0 0 0 130.35 72.06
  Z"
/>
<path fill="#121206" d="
  M 147.75 75.96
  Q 146.72 71.14 149.04 67.56
  Q 150.31 65.58 148.27 66.74
  Q 145.73 68.18 143.79 66.25
  Q 143.64 64.50 145.75 64.00
  Q 147.87 63.49 150.47 61.31
  Q 151.57 60.38 152.42 60.39
  Q 153.72 60.42 154.14 61.77
  A 1.67 1.18 -51.0 0 1 154.08 62.72
  Q 151.68 69.21 149.35 75.72
  Q 149.14 76.33 148.78 76.45
  Q 148.25 76.62 147.75 75.96
  Z"
/>
<circle fill="#121206" cx="127.88" cy="72.06" r="2.47"/>
<path fill="#837425" d="
  M 146.13 82.18
  Q 150.06 92.33 154.65 102.18
  Q 155.96 104.99 158.38 108.97
  Q 160.41 112.30 162.21 115.75
  Q 161.21 116.71 160.28 115.47
  Q 149.71 101.35 145.60 84.19
  Q 145.58 84.09 145.25 83.37
  Q 144.90 82.60 146.13 82.18
  Z"
/>
<path fill="#121206" d="
  M 165.44 120.14
  Q 169.26 122.95 172.41 126.72
  A 0.72 0.41 47.8 0 1 172.58 127.47
  Q 172.38 127.71 171.83 127.17
  Q 168.49 123.93 163.99 122.62
  Q 158.13 120.91 150.60 121.02
  A 1.74 1.74 -7.3 0 1 148.88 119.69
  Q 147.22 112.95 139.25 113.50
  Q 131.86 114.01 123.88 117.67
  Q 117.17 120.75 117.14 120.76
  Q 99.87 127.34 81.31 120.19
  Q 77.30 118.64 77.52 114.72
  Q 95.92 124.20 114.71 117.71
  Q 114.73 117.70 123.51 113.81
  Q 131.37 110.33 139.00 109.75
  Q 147.41 109.11 151.84 115.32
  A 4.42 3.28 -2.9 0 0 154.03 116.78
  L 165.44 120.14
  Z"
/>
<path fill="#160d0e" d="
  M 166.15 131.80
  Q 166.52 134.27 164.94 136.69
  Q 159.04 145.73 152.68 153.16
  Q 145.97 161.01 141.90 164.44
  Q 135.48 169.85 128.00 172.00
  Q 123.78 173.21 118.29 172.84
  Q 113.49 172.51 108.92 170.70
  Q 95.82 165.50 87.31 152.94
  Q 78.45 139.85 76.91 123.04
  Q 76.86 122.43 77.41 122.69
  Q 100.89 133.82 123.09 122.25
  Q 131.86 117.69 139.25 116.75
  Q 145.80 115.92 144.05 123.08
  Q 143.53 125.21 145.71 125.02
  Q 153.03 124.40 159.97 125.81
  Q 164.99 126.83 167.11 127.68
  Q 171.00 129.24 173.00 132.50
  Q 174.20 134.45 172.12 133.34
  Q 169.47 131.93 166.56 131.40
  A 0.35 0.35 -88.9 0 0 166.15 131.80
  Z
  M 91.04 130.75
  L 82.25 128.29
  Q 79.81 127.35 80.25 130.00
  Q 80.54 131.73 81.06 133.07
  Q 81.92 135.27 82.11 136.04
  Q 85.11 147.94 93.32 157.16
  Q 98.77 163.29 107.00 166.50
  Q 121.54 172.18 134.57 164.49
  Q 138.58 162.12 144.06 156.56
  Q 154.72 145.75 162.45 132.67
  Q 163.45 130.97 161.62 130.23
  Q 158.63 129.02 154.50 129.13
  Q 151.16 129.23 147.82 129.36
  Q 143.60 129.54 141.97 128.28
  Q 139.35 126.26 140.11 121.57
  A 1.09 1.08 -3.9 0 0 138.72 120.36
  Q 131.45 122.56 125.23 126.01
  Q 112.77 132.91 98.51 131.40
  Q 94.78 131.00 91.04 130.75
  Z"
/>
<path fill="#eb1d24" d="
  M 82.25 128.29
  Q 85.97 131.74 91.04 130.75
  Q 94.78 131.00 98.51 131.40
  Q 112.77 132.91 125.23 126.01
  Q 131.45 122.56 138.72 120.36
  A 1.09 1.08 -3.9 0 1 140.11 121.57
  Q 139.35 126.26 141.97 128.28
  Q 143.60 129.54 147.82 129.36
  Q 151.16 129.23 154.50 129.13
  Q 158.63 129.02 161.62 130.23
  Q 163.45 130.97 162.45 132.67
  Q 154.72 145.75 144.06 156.56
  Q 138.58 162.12 134.57 164.49
  Q 121.54 172.18 107.00 166.50
  Q 98.77 163.29 93.32 157.16
  Q 85.11 147.94 82.11 136.04
  Q 81.92 135.27 81.06 133.07
  Q 80.54 131.73 80.25 130.00
  Q 79.81 127.35 82.25 128.29
  Z"
/>
<path fill="#d31a1f" d="
  M 204.45 157.19
  L 204.50 148.81
  A 0.73 0.72 87.4 0 1 205.15 148.08
  Q 207.55 147.86 209.08 147.94
  Q 211.78 148.09 211.63 150.61
  Q 211.53 152.29 211.53 152.40
  Q 211.67 157.54 211.46 162.68
  A 0.67 0.64 84.9 0 1 210.96 163.30
  Q 206.06 164.46 200.25 164.25
  Q 194.52 164.05 190.49 160.98
  Q 186.50 157.94 185.39 152.79
  Q 184.02 146.41 187.94 140.44
  Q 194.50 130.43 206.46 127.67
  A 0.51 0.47 -11.2 0 1 207.07 128.04
  L 208.04 134.32
  A 0.58 0.51 -11.2 0 1 207.58 134.92
  Q 200.62 136.49 196.08 141.57
  Q 193.09 144.91 192.53 148.08
  Q 191.75 152.42 195.56 155.69
  Q 198.93 158.57 203.94 157.77
  A 0.60 0.58 -4.6 0 0 204.45 157.19
  Z"
/>
<path fill="#d01c1c" d="
  M 224.54 134.31
  Q 223.93 148.62 224.68 162.78
  A 0.69 0.68 -1.6 0 1 223.99 163.50
  L 217.53 163.50
  A 0.52 0.52 0.0 0 1 217.01 162.98
  L 217.18 128.68
  A 0.54 0.53 -1.7 0 1 217.69 128.15
  Q 224.79 127.69 231.68 129.22
  Q 235.55 130.08 237.32 131.82
  Q 239.87 134.33 239.52 138.24
  Q 239.36 140.03 238.30 141.95
  Q 236.99 144.32 235.81 145.06
  Q 233.01 146.83 234.99 149.10
  Q 235.78 150.01 235.83 150.07
  Q 238.70 153.78 241.82 157.76
  Q 243.11 159.42 241.85 161.09
  Q 240.17 163.32 237.24 163.91
  A 0.71 0.68 68.4 0 1 236.50 163.57
  L 228.00 149.17
  Q 226.48 146.58 228.81 144.74
  Q 231.26 142.79 231.86 140.30
  Q 232.50 137.63 230.64 135.60
  Q 228.61 133.39 225.06 133.75
  A 0.59 0.58 88.3 0 0 224.54 134.31
  Z"
/>
<path fill="#d7171a" d="
  M 255.10 157.02
  L 252.22 163.61
  A 1.19 1.13 -67.9 0 1 250.77 164.26
  Q 247.98 163.21 246.26 161.29
  A 1.27 1.26 -52.5 0 1 246.08 159.88
  L 261.71 128.57
  Q 262.23 127.53 262.77 128.53
  L 279.56 159.16
  A 1.91 1.83 -36.7 0 1 279.18 161.42
  Q 277.54 162.99 274.44 164.11
  A 0.91 0.91 71.5 0 1 273.26 163.52
  Q 272.03 159.34 269.08 155.68
  A 1.18 1.08 66.4 0 0 268.09 155.24
  L 255.81 156.49
  A 0.89 0.88 8.1 0 0 255.10 157.02
  Z
  M 261.45 141.42
  L 258.00 149.51
  A 1.10 1.01 7.8 0 0 259.16 150.90
  L 266.67 150.24
  A 0.70 0.70 -16.3 0 0 267.23 149.22
  L 263.20 141.47
  Q 262.22 139.60 261.45 141.42
  Z"
/>
<path fill="#837425" d="
  M 82.25 128.29
  L 91.04 130.75
  Q 85.97 131.74 82.25 128.29
  Z"
/>
<path fill="#d01c1c" d="
  M 306.96 148.98
  Q 307.18 140.95 307.24 132.28
  Q 307.25 132.21 307.13 130.73
  Q 306.97 128.77 308.88 128.83
  Q 310.38 128.88 311.14 128.89
  Q 312.14 128.89 313.04 129.28
  A 0.76 0.71 -78.4 0 1 313.48 130.00
  L 312.25 161.13
  Q 312.11 164.73 309.55 162.18
  L 290.52 143.14
  Q 289.53 142.15 289.50 143.55
  Q 289.36 150.86 289.27 158.01
  Q 289.23 161.81 289.17 161.95
  Q 288.42 163.97 284.27 163.24
  A 1.73 1.70 5.6 0 1 282.83 161.51
  L 283.78 129.16
  Q 283.82 127.79 284.85 128.71
  Q 295.44 138.17 306.14 149.29
  Q 306.93 150.11 306.96 148.98
  Z"
/>
<path fill="#d31a1f" d="
  M 345.69 128.48
  Q 345.95 128.03 346.20 128.48
  L 363.44 159.83
  A 1.15 1.06 -31.0 0 1 363.02 161.28
  L 358.36 164.28
  A 0.91 0.87 -29.5 0 1 357.07 163.95
  L 353.38 156.51
  A 1.86 1.82 -12.7 0 0 351.74 155.50
  Q 345.24 155.46 339.06 156.48
  A 0.96 0.81 3.3 0 0 338.35 157.01
  L 336.12 162.95
  A 1.81 1.46 -67.2 0 1 333.98 164.10
  L 330.33 162.30
  Q 328.86 161.58 329.72 159.72
  Q 337.39 143.28 345.69 128.48
  Z
  M 345.26 141.03
  L 341.26 149.54
  A 0.85 0.82 11.9 0 0 342.05 150.71
  L 350.19 150.66
  A 0.34 0.31 -11.9 0 0 350.51 150.22
  L 346.27 140.99
  Q 345.78 139.92 345.26 141.03
  Z"
/>
<path fill="#d31f24" d="
  M 320.44 130.10
  A 0.56 0.49 -89.6 0 1 320.95 129.53
  L 327.45 129.74
  A 0.55 0.49 -88.9 0 1 327.93 130.30
  Q 327.83 138.45 327.64 146.60
  Q 327.46 154.58 326.36 157.79
  Q 324.42 163.45 319.47 167.22
  A 1.73 1.72 -41.8 0 1 317.24 167.10
  Q 313.56 163.63 316.13 160.61
  Q 318.32 158.05 318.53 157.65
  Q 320.46 153.88 320.48 149.50
  Q 320.53 139.97 320.44 130.10
  Z"
/>
<path fill="#ffeee2" d="
  M 261.45 141.42
  Q 262.22 139.60 263.20 141.47
  L 267.23 149.22
  A 0.70 0.70 -16.3 0 1 266.67 150.24
  L 259.16 150.90
  A 1.10 1.01 7.8 0 1 258.00 149.51
  L 261.45 141.42
  Z"
/>
<path fill="#ffeee2" d="
  M 345.26 141.03
  Q 345.78 139.92 346.27 140.99
  L 350.51 150.22
  A 0.34 0.31 -11.9 0 1 350.19 150.66
  L 342.05 150.71
  A 0.85 0.82 11.9 0 1 341.26 149.54
  L 345.26 141.03
  Z"
/>
<path fill="#dd2024" d="
  M 131.60 213.62
  A 1.14 1.07 29.0 0 1 131.15 212.21
  Q 143.81 186.17 156.54 162.30
  Q 157.31 160.85 158.13 162.27
  Q 172.73 187.76 184.81 211.31
  A 1.17 1.17 -34.0 0 1 184.53 212.72
  Q 180.65 216.10 175.80 218.44
  A 0.87 0.84 64.9 0 1 174.66 218.00
  L 169.40 206.25
  Q 168.56 204.37 166.43 204.47
  L 146.69 205.41
  A 0.76 0.76 -80.6 0 0 146.01 205.90
  L 141.43 217.43
  Q 140.66 219.36 138.81 218.18
  L 131.60 213.62
  Z
  M 156.64 181.04
  L 150.13 195.86
  A 0.34 0.33 -78.0 0 0 150.43 196.34
  L 163.61 196.17
  A 0.72 0.70 76.6 0 0 164.22 195.15
  L 157.74 181.03
  Q 157.18 179.82 156.64 181.04
  Z"
/>
<path fill="#e31d24" d="
  M 21.44 173.54
  Q 14.17 173.29 5.94 174.10
  A 0.85 0.85 -3.1 0 1 5.00 173.26
  L 5.00 164.54
  A 0.81 0.81 1.0 0 1 5.84 163.73
  Q 28.13 164.31 50.07 163.73
  A 0.60 0.55 -0.0 0 1 50.68 164.29
  L 50.50 173.19
  A 0.55 0.50 1.1 0 1 49.94 173.68
  L 34.43 173.49
  A 0.66 0.64 0.0 0 0 33.76 174.14
  L 34.24 216.30
  A 0.69 0.68 89.6 0 1 33.56 217.00
  L 22.99 217.00
  A 1.03 1.03 -89.2 0 1 21.96 215.94
  Q 22.59 194.30 21.95 174.06
  A 0.53 0.53 0.6 0 0 21.44 173.54
  Z"
/>
<path fill="#ffffff" d="
  M 156.64 181.04
  Q 157.18 179.82 157.74 181.03
  L 164.22 195.15
  A 0.72 0.70 76.6 0 1 163.61 196.17
  L 150.43 196.34
  A 0.34 0.33 -78.0 0 1 150.13 195.86
  L 156.64 181.04
  Z"
/>
<path fill="#cf1717" d="
  M 52.58 187.81
  L 53.43 215.68
  A 0.67 0.66 -9.7 0 1 52.96 216.34
  Q 50.06 217.25 47.05 216.77
  A 0.61 0.57 -86.7 0 1 46.56 216.18
  L 46.31 182.32
  A 0.51 0.50 -90.0 0 1 46.81 181.81
  Q 53.15 181.81 59.44 182.56
  Q 61.37 182.79 63.71 183.83
  Q 66.10 184.89 67.28 186.35
  Q 69.26 188.82 68.50 192.00
  Q 67.41 196.54 63.72 200.01
  A 1.43 1.43 48.8 0 0 63.59 201.95
  Q 66.71 205.78 69.71 209.57
  Q 71.05 211.27 71.28 212.27
  Q 71.70 214.11 70.19 215.49
  Q 68.79 216.79 67.94 217.15
  Q 66.36 217.85 64.94 215.56
  Q 60.80 208.94 56.68 202.30
  Q 55.43 200.28 57.45 199.03
  Q 60.41 197.18 61.10 193.47
  Q 61.91 189.15 58.25 187.75
  Q 56.15 186.95 53.06 187.26
  A 0.54 0.53 86.5 0 0 52.58 187.81
  Z"
/>
<path fill="#d01c1c" d="
  M 195.54 188.06
  Q 194.99 201.18 195.56 215.70
  A 1.48 1.32 -89.9 0 1 194.18 217.24
  L 189.10 217.01
  A 0.97 0.89 -88.1 0 1 188.25 216.02
  Q 188.29 214.42 188.39 212.83
  Q 188.49 211.13 188.43 209.67
  Q 187.88 195.97 188.24 182.47
  A 0.75 0.74 0.8 0 1 188.99 181.75
  Q 195.71 181.75 201.69 182.89
  Q 206.54 183.81 208.68 185.99
  Q 212.02 189.39 209.83 194.63
  Q 209.16 196.22 207.70 198.03
  Q 206.44 199.60 205.05 201.07
  A 0.63 0.63 -45.7 0 0 205.06 201.94
  Q 209.77 206.71 213.44 212.32
  A 1.33 1.18 53.0 0 1 213.31 213.96
  L 209.45 217.35
  A 1.32 1.18 53.8 0 1 207.57 216.95
  L 198.30 201.99
  A 1.57 1.52 53.4 0 1 198.56 200.02
  Q 202.45 196.51 203.22 192.15
  A 2.72 2.71 25.5 0 0 202.32 189.62
  Q 199.35 187.08 196.06 187.49
  A 0.60 0.59 87.8 0 0 195.54 188.06
  Z"
/>
<path fill="#d31a1f" d="
  M 252.8912 216.2840
  A 18.17 16.74 111.6 0 1 244.0155 193.2276
  A 18.17 16.74 111.6 0 1 266.2688 182.4960
  A 18.17 16.74 111.6 0 1 275.1445 205.5524
  A 18.17 16.74 111.6 0 1 252.8912 216.2840
  Z
  M 258.2484 211.0381
  A 11.69 8.95 95.9 0 0 268.3526 200.3300
  A 11.69 8.95 95.9 0 0 260.6516 187.7819
  A 11.69 8.95 95.9 0 0 250.5474 198.4900
  A 11.69 8.95 95.9 0 0 258.2484 211.0381
  Z"
/>
<path fill="#d31f24" d="
  M 281.72 191.12
  Q 280.01 189.64 278.41 188.04
  A 0.90 0.89 -59.8 0 1 278.19 187.19
  Q 278.94 184.38 280.85 182.18
  A 0.63 0.62 -55.2 0 1 281.62 182.04
  Q 289.87 186.49 293.07 195.45
  Q 293.53 196.74 293.93 195.43
  Q 296.56 186.95 304.52 182.34
  A 1.43 1.41 -36.6 0 1 306.27 182.59
  Q 308.61 185.07 308.39 187.15
  Q 308.25 188.51 306.00 189.90
  Q 298.94 194.27 297.25 201.50
  Q 296.07 206.58 296.48 216.01
  A 0.64 0.61 81.5 0 1 296.03 216.65
  Q 293.71 217.33 289.96 216.77
  A 1.12 1.12 4.1 0 1 289.00 215.66
  Q 289.00 211.15 289.00 207.20
  Q 289.00 202.89 288.17 200.40
  Q 287.06 197.07 284.90 194.27
  Q 284.00 193.10 281.72 191.12
  Z"
/>
<path fill="#d01c1c" d="
  M 319.2366 216.2569
  A 18.17 16.74 112.5 0 1 310.7243 193.0639
  A 18.17 16.74 112.5 0 1 333.1434 182.6831
  A 18.17 16.74 112.5 0 1 341.6557 205.8761
  A 18.17 16.74 112.5 0 1 319.2366 216.2569
  Z
  M 325.0336 211.1793
  A 11.87 8.96 95.3 0 0 335.0517 200.1876
  A 11.87 8.96 95.3 0 0 327.2264 187.5407
  A 11.87 8.96 95.3 0 0 317.2083 198.5324
  A 11.87 8.96 95.3 0 0 325.0336 211.1793
  Z"
/>
<path fill="#d7171a" d="
  M 82.56 210.29
  L 91.19 211.07
  A 0.80 0.64 -3.6 0 1 91.85 211.53
  Q 92.62 213.94 92.27 216.44
  A 0.61 0.57 -84.9 0 1 91.69 216.96
  L 75.69 216.85
  A 0.55 0.52 90.0 0 1 75.18 216.31
  L 74.74 183.30
  A 0.79 0.79 89.2 0 1 75.52 182.50
  Q 81.87 182.47 87.41 182.29
  Q 87.51 182.28 89.56 182.00
  Q 91.70 181.71 91.49 183.84
  Q 91.45 184.20 91.39 186.17
  Q 91.32 188.12 88.75 187.75
  Q 87.16 187.52 82.43 188.35
  A 0.61 0.59 86.1 0 0 81.94 188.94
  L 81.83 196.69
  A 0.47 0.45 -0.0 0 0 82.31 197.15
  L 88.93 197.04
  A 0.80 0.80 -13.1 0 1 89.67 197.50
  Q 90.36 199.00 90.19 201.37
  A 1.26 1.21 -0.4 0 1 89.04 202.49
  L 82.56 203.00
  A 0.63 0.56 -2.8 0 0 81.98 203.56
  L 81.99 209.70
  A 0.62 0.59 2.7 0 0 82.56 210.29
  Z"
/>
<path fill="#d01c1c" d="
  M 109.06 211.56
  Q 104.41 216.49 97.30 216.68
  A 0.60 0.55 -4.3 0 1 96.69 216.20
  L 96.06 211.66
  A 1.15 1.01 -6.0 0 1 97.12 210.51
  Q 102.46 210.08 105.23 205.92
  A 0.58 0.57 38.5 0 0 105.14 205.17
  Q 102.66 202.92 100.00 200.90
  Q 96.17 197.98 95.28 196.33
  Q 93.06 192.20 96.81 187.81
  Q 100.45 183.56 106.24 182.31
  Q 108.48 181.82 109.68 182.58
  Q 111.35 183.62 110.65 186.27
  A 1.10 1.02 -5.6 0 1 110.05 186.95
  Q 107.25 188.19 104.39 189.26
  Q 100.73 190.64 102.94 193.81
  Q 103.65 194.84 107.26 196.99
  Q 117.22 202.94 109.06 211.56
  Z"
/>
<path fill="#d01c1c" d="
  M 224.31 188.05
  L 224.25 216.30
  A 0.77 0.65 89.6 0 1 223.61 217.07
  L 218.42 217.14
  A 1.68 1.40 89.7 0 1 217.00 215.46
  L 217.00 183.00
  A 1.01 1.01 0.3 0 1 218.02 181.99
  Q 224.38 182.05 230.00 182.50
  Q 232.20 182.68 234.92 184.10
  Q 241.46 187.54 238.50 194.61
  Q 237.27 197.53 234.63 199.97
  A 1.52 1.46 50.5 0 0 234.48 201.96
  L 242.77 213.03
  A 0.84 0.83 53.7 0 1 242.60 214.20
  L 238.32 217.36
  A 1.24 1.17 55.8 0 1 236.59 216.98
  L 227.41 202.19
  A 1.46 1.46 48.6 0 1 227.51 200.49
  Q 229.01 198.64 230.20 197.00
  Q 231.65 194.97 231.78 193.02
  Q 232.20 186.94 224.81 187.52
  A 0.54 0.53 -2.3 0 0 224.31 188.05
  Z"
/>
<path fill="#cf1717" d="
  M 354.86 204.15
  Q 352.46 202.42 349.68 200.06
  Q 341.72 193.29 349.56 186.56
  Q 353.62 183.08 359.44 182.14
  A 0.90 0.86 -24.4 0 1 360.27 182.43
  Q 362.04 184.50 361.33 187.20
  A 0.74 0.70 3.7 0 1 360.69 187.73
  Q 356.74 188.12 354.13 190.52
  Q 351.89 192.58 354.30 194.43
  Q 356.82 196.36 359.54 197.97
  Q 361.24 198.98 362.44 200.45
  Q 363.62 201.90 363.72 203.87
  Q 363.99 209.69 358.83 213.10
  Q 353.17 216.84 351.00 217.00
  Q 346.71 217.31 346.99 213.19
  Q 347.11 211.30 348.99 211.00
  Q 352.31 210.48 354.95 208.43
  Q 357.77 206.24 354.86 204.15
  Z"
/>
<ellipse fill="#ffffff" cx="0.00" cy="0.00" transform="translate(326.13,199.36) rotate(95.3)" rx="11.87" ry="8.96"/>
<ellipse fill="#ffffff" cx="0.00" cy="0.00" transform="translate(259.45,199.41) rotate(95.9)" rx="11.69" ry="8.95"/>
<path fill="#059564" d="
  M 251.59 261.26
  Q 250.01 263.12 252.44 262.82
  Q 289.05 258.28 324.23 267.10
  Q 336.66 270.22 348.20 275.78
  Q 351.76 277.49 354.21 280.38
  Q 355.59 282.01 358.32 286.57
  Q 360.38 290.01 362.04 293.81
  Q 362.51 294.88 361.46 294.36
  Q 338.62 282.99 313.53 279.76
  Q 291.69 276.94 264.75 279.25
  Q 255.21 280.07 251.06 280.62
  A 1.20 1.20 59.8 0 1 250.16 280.38
  Q 240.57 273.00 234.29 262.30
  A 1.62 1.61 -37.6 0 1 234.55 260.32
  Q 237.71 257.21 240.18 253.86
  Q 241.47 252.11 241.53 250.75
  Q 241.61 248.81 240.12 247.34
  A 1.27 1.22 -21.0 0 0 239.26 246.98
  Q 236.50 246.91 233.81 247.55
  Q 223.14 250.09 212.97 254.18
  Q 200.88 259.05 189.14 264.72
  Q 172.55 272.73 171.10 273.36
  Q 124.70 293.29 74.16 287.81
  Q 62.90 286.59 54.39 284.91
  Q 40.71 282.20 25.69 276.56
  Q 19.27 274.15 16.09 269.92
  Q 10.95 263.08 6.84 255.19
  Q 6.42 254.39 7.28 254.68
  Q 9.50 255.41 11.57 256.42
  Q 49.57 274.87 91.50 274.98
  Q 102.14 275.01 111.50 274.29
  Q 138.57 272.19 163.31 261.06
  Q 171.35 257.45 182.15 251.86
  Q 206.13 239.45 231.75 234.25
  Q 237.52 233.08 244.05 234.05
  Q 254.67 235.63 257.16 245.02
  Q 257.96 248.06 256.89 251.43
  Q 255.07 257.19 251.59 261.26
  Z"
/>
</svg>
