<?xml version="1.0" encoding="UTF-8" standalone="no"?>
<!DOCTYPE svg PUBLIC "-//W3C//DTD SVG 1.1//EN" "http://www.w3.org/Graphics/SVG/1.1/DTD/svg11.dtd">
<svg xmlns="http://www.w3.org/2000/svg" version="1.1" viewBox="0 0 622 560">
<g stroke-width="2.00" fill="none" stroke-linecap="butt">
<path stroke="#81cbd9" vector-effect="non-scaling-stroke" d="
  M 175.29 110.50
  Q 174.01 119.85 175.00 131.50
  Q 177.50 160.96 195.64 182.86"
/>
<path stroke="#81bac9" vector-effect="non-scaling-stroke" d="
  M 195.64 182.86
  Q 195.67 184.27 194.75 184.30
  Q 178.21 184.88 163.65 192.62
  Q 146.79 201.59 136.05 217.36
  Q 119.62 241.52 120.05 271.02"
/>
<path stroke="#81aebc" vector-effect="non-scaling-stroke" d="
  M 120.05 271.02
  Q 119.81 303.39 138.52 328.15
  Q 144.86 336.54 152.32 342.55
  Q 172.09 358.50 198.25 358.50
  Q 278.38 358.50 358.37 358.50
  Q 359.88 358.50 358.54 357.80
  Q 337.16 346.72 327.07 325.12
  Q 316.62 302.76 316.26 278.00
  Q 316.14 270.00 316.46 262.00"
/>
<path stroke="#81bac9" vector-effect="non-scaling-stroke" d="
  M 316.46 262.00
  Q 318.50 237.58 330.20 216.14
  Q 335.72 206.01 344.28 198.28
  Q 350.51 192.67 358.25 189.46"
/>
<path stroke="#81cbd9" vector-effect="non-scaling-stroke" d="
  M 358.25 189.46
  Q 373.27 183.79 388.82 190.44
  Q 391.70 191.67 390.09 188.98
  Q 389.57 188.11 388.29 186.58
  Q 387.23 185.31 386.57 184.13
  Q 369.99 154.65 371.71 120.50"
/>
<path stroke="#80c5d3" vector-effect="non-scaling-stroke" d="
  M 371.71 120.50
  Q 371.96 87.10 390.97 59.92
  Q 399.33 47.96 412.59 41.88
  Q 417.32 39.72 422.48 39.07
  Q 424.03 38.88 425.29 38.26
  Q 426.18 37.82 425.21 37.60
  Q 420.75 36.61 416.43 36.12
  Q 413.22 35.76 407.54 35.73
  Q 330.77 35.32 254.00 35.40
  Q 217.40 35.44 194.94 62.94
  Q 178.31 83.30 175.29 110.50"
/>
<path stroke="#0190ad" vector-effect="non-scaling-stroke" d="
  M 371.71 120.50
  Q 370.71 121.84 370.47 123.72
  A 0.59 0.57 -86.2 0 1 369.89 124.24
  L 364.06 124.21
  A 0.72 0.63 81.1 0 1 363.45 123.70
  Q 362.81 121.58 360.50 121.70
  A 1.02 0.99 -21.6 0 1 359.68 121.36
  Q 357.03 118.37 352.69 118.44
  Q 341.03 118.63 332.26 119.58
  Q 329.79 119.84 326.94 119.19
  Q 324.20 118.55 321.18 119.31
  Q 320.69 119.43 320.20 119.29
  Q 316.38 118.21 312.49 118.74
  Q 311.08 118.93 309.51 118.71
  Q 307.99 118.50 306.47 118.63
  Q 302.46 118.97 301.99 118.96
  Q 289.53 118.75 277.06 118.69
  Q 274.79 118.68 273.34 118.77
  Q 271.40 118.90 269.67 118.68
  Q 267.23 118.37 264.78 118.72
  Q 263.29 118.93 261.73 118.70
  Q 260.17 118.46 258.60 118.54
  Q 254.52 118.74 254.00 118.72
  Q 242.47 118.30 234.75 119.25
  Q 230.35 119.79 227.15 119.37
  Q 224.94 119.07 223.31 118.95
  Q 221.38 118.81 219.49 118.29
  Q 216.94 117.58 214.30 118.10
  Q 211.31 118.69 209.30 116.42
  Q 207.82 114.76 205.74 113.96
  Q 202.29 112.63 198.00 111.25
  Q 196.48 110.76 195.82 110.14
  A 1.30 0.31 46.9 0 0 195.02 109.61
  L 189.64 109.06
  A 0.43 0.35 -76.4 0 0 189.25 109.36
  Q 188.87 110.56 188.50 110.18
  A 1.31 0.43 51.1 0 0 187.76 109.70
  L 185.76 109.53
  A 2.08 1.63 58.5 0 1 184.85 109.19
  Q 182.84 107.78 181.44 110.01
  A 0.28 0.27 46.6 0 1 180.97 109.99
  Q 180.29 108.82 178.93 108.88
  A 1.40 0.57 -50.7 0 0 178.12 109.32
  Q 177.71 109.69 177.40 109.26
  A 0.28 0.26 44.4 0 0 176.95 109.25
  Q 176.38 110.15 175.29 110.50"
/>
<path stroke="#0286a2" vector-effect="non-scaling-stroke" d="
  M 358.25 189.46
  Q 359.06 186.27 357.14 185.00
  Q 355.90 184.18 353.39 184.81
  Q 348.60 186.01 343.75 186.91
  A 0.90 0.83 62.7 0 1 342.94 186.61
  Q 341.24 184.67 338.00 185.00
  Q 333.85 185.42 318.25 184.50
  Q 306.25 183.79 287.50 184.25
  Q 271.59 184.64 211.47 184.04
  Q 207.93 184.00 203.56 183.54
  Q 199.55 183.11 195.64 182.86"
/>
<path stroke="#026985" vector-effect="non-scaling-stroke" d="
  M 316.46 262.00
  Q 315.19 263.29 314.31 264.86
  Q 313.98 265.44 313.78 266.90
  Q 313.47 269.24 310.69 266.75
  A 3.06 2.52 59.6 0 0 308.55 265.97
  L 296.24 267.17
  Q 295.96 267.19 295.36 267.56
  Q 294.88 267.86 294.63 267.51
  A 1.03 0.59 61.6 0 0 293.94 267.08
  Q 283.95 267.42 274.01 266.38
  Q 270.53 266.01 263.75 266.00
  Q 216.93 265.93 170.10 265.99
  Q 166.31 266.00 161.44 265.36
  Q 157.11 264.80 152.75 264.53
  Q 150.65 264.40 148.60 264.75
  Q 147.37 264.96 145.13 266.39
  Q 142.31 268.18 138.81 267.87
  A 0.56 0.50 6.1 0 0 138.21 268.30
  L 137.84 270.94
  A 0.32 0.31 -72.1 0 1 137.38 271.19
  Q 134.29 269.49 131.04 268.15
  Q 130.72 268.02 128.23 266.71
  Q 124.93 264.97 125.44 269.94
  Q 125.82 273.66 123.81 270.44
  Q 122.76 268.74 122.40 270.45
  Q 122.31 270.85 122.16 270.46
  Q 121.46 268.66 120.05 271.02"
/>
<path stroke="#8ac6cb" vector-effect="non-scaling-stroke" d="
  M 426.8332 135.3070
  A 10.10 7.65 91.4 0 0 434.7277 125.3969
  A 10.10 7.65 91.4 0 0 427.3268 115.1130
  A 10.10 7.65 91.4 0 0 419.4323 125.0231
  A 10.10 7.65 91.4 0 0 426.8332 135.3070"
/>
<path stroke="#88bfca" vector-effect="non-scaling-stroke" d="
  M 426.93 251.98
  Q 428.34 247.39 429.23 242.88
  Q 430.44 236.69 431.42 233.79
  Q 435.96 220.39 443.20 208.58
  Q 443.97 207.32 442.58 207.81
  Q 436.67 209.88 430.50 210.73
  Q 424.67 211.52 419.02 209.93
  Q 414.38 208.62 409.73 207.25
  Q 406.86 206.39 408.93 208.56
  Q 410.97 210.70 412.58 213.38
  Q 423.09 230.88 426.58 251.95
  Q 426.71 252.71 426.93 251.98"
/>
<path stroke="#8ac6cb" vector-effect="non-scaling-stroke" d="
  M 481.5543 281.2396
  A 9.82 7.87 90.5 0 0 489.5097 271.4887
  A 9.82 7.87 90.5 0 0 481.7257 261.6004
  A 9.82 7.87 90.5 0 0 473.7703 271.3513
  A 9.82 7.87 90.5 0 0 481.5543 281.2396"
/>
<path stroke="#8faebb" vector-effect="non-scaling-stroke" d="
  M 371.9728 283.5581
  A 10.27 7.64 91.1 0 0 379.8086 273.4367
  A 10.27 7.64 91.1 0 0 372.3672 263.0219
  A 10.27 7.64 91.1 0 0 364.5314 273.1433
  A 10.27 7.64 91.1 0 0 371.9728 283.5581"
/>
<path stroke="#83c2cf" vector-effect="non-scaling-stroke" d="
  M 468.06 354.94
  Q 463.26 352.76 458.90 349.87
  Q 454.80 347.14 451.05 343.08
  Q 431.65 322.09 428.04 293.08
  Q 427.99 292.69 427.88 292.43
  Q 427.50 291.59 427.09 292.36
  Q 426.95 292.62 426.89 293.04
  Q 425.11 305.88 420.27 317.74
  Q 415.94 328.40 411.21 335.55
  Q 402.41 348.87 387.67 356.44
  Q 385.76 357.43 387.91 357.44
  Q 419.36 357.70 451.32 357.30
  Q 455.35 357.25 459.67 356.90
  Q 463.84 356.56 468.00 356.25
  Q 470.54 356.06 468.06 354.94"
/>
<path stroke="#8d8888" vector-effect="non-scaling-stroke" d="
  M 368.5295 376.2351
  A 0.58 0.58 0.0 0 0 367.9485 375.6561
  L 352.0086 375.6840
  A 0.58 0.58 0.0 0 0 351.4296 376.2650
  L 351.5505 445.5249
  A 0.58 0.58 0.0 0 0 352.1315 446.1039
  L 368.0714 446.0760
  A 0.58 0.58 0.0 0 0 368.6504 445.4950
  L 368.5295 376.2351"
/>
<path stroke="#8d8888" vector-effect="non-scaling-stroke" d="
  M 125.15 427.19
  Q 134.64 428.31 143.27 426.71
  Q 150.31 425.41 154.37 421.83
  Q 161.05 415.95 161.75 405.50
  Q 163.11 385.20 144.45 380.73
  Q 139.77 379.60 130.50 379.50
  Q 118.35 379.36 106.20 379.67
  A 0.52 0.50 -1.7 0 0 105.70 380.18
  Q 106.37 412.84 105.75 445.43
  A 0.81 0.81 -89.7 0 0 106.56 446.25
  L 121.75 446.25
  A 1.51 1.49 -0.0 0 0 123.26 444.76
  L 123.24 428.91
  Q 123.24 426.96 125.15 427.19"
/>
<path stroke="#8faebb" vector-effect="non-scaling-stroke" d="
  M 198.50 442.46
  Q 199.93 442.23 200.21 443.50"
/>
<path stroke="#8d8888" vector-effect="non-scaling-stroke" d="
  M 200.21 443.50
  Q 200.16 445.00 201.16 445.88
  A 1.46 0.90 -14.3 0 0 202.05 446.16
  L 215.57 446.30
  A 0.92 0.87 0.3 0 0 216.50 445.43
  Q 216.50 428.50 216.58 412.50
  Q 216.63 402.86 209.00 398.00
  Q 201.72 393.36 192.24 394.09
  Q 182.20 394.86 172.50 398.25
  A 1.98 1.98 75.6 0 0 171.20 400.45
  Q 172.07 405.59 174.17 409.65
  A 1.16 1.16 66.8 0 0 175.59 410.22
  Q 180.25 408.58 184.91 407.34
  Q 189.95 405.99 194.90 407.66
  Q 200.07 409.40 200.41 414.51
  A 0.96 0.95 -0.8 0 1 199.42 415.52
  Q 192.50 415.28 185.91 415.69
  Q 177.29 416.22 173.52 418.56
  Q 169.25 421.21 167.63 426.21
  Q 166.22 430.57 167.46 435.34
  Q 170.04 445.30 181.25 446.75
  Q 190.10 447.90 198.50 442.46"
/>
<path stroke="#1d3744" vector-effect="non-scaling-stroke" d="
  M 200.21 443.50
  Q 201.31 437.78 198.50 442.46"
/>
<path stroke="#8d8888" vector-effect="non-scaling-stroke" d="
  M 246.30 440.97
  Q 247.50 440.86 248.11 441.99
  Q 248.39 442.49 248.72 442.73
  Q 257.68 448.94 268.06 445.81
  Q 280.75 441.99 283.53 428.70
  Q 285.52 419.22 283.75 412.75
  Q 279.08 395.66 262.44 394.35
  Q 258.06 394.00 254.67 395.18
  Q 250.86 396.51 247.80 399.34
  A 1.41 1.02 -60.1 0 1 246.94 399.73
  Q 245.00 399.72 245.67 396.76
  Q 246.09 394.86 244.15 394.70
  Q 237.00 394.14 229.23 394.75
  A 0.52 0.52 -2.4 0 0 228.75 395.27
  L 228.44 464.25
  A 0.54 0.52 0.6 0 0 228.97 464.77
  L 243.36 464.96
  Q 245.49 464.98 245.51 462.93
  Q 245.60 455.12 245.50 446.25
  Q 245.46 442.96 245.70 441.55
  A 0.72 0.67 -86.9 0 1 246.30 440.97"
/>
<path stroke="#8b8888" vector-effect="non-scaling-stroke" d="
  M 306.81 424.82
  L 341.23 424.51
  A 1.31 1.29 89.3 0 0 342.51 423.18
  Q 342.41 416.22 340.19 410.05
  Q 337.68 403.05 332.85 399.36
  Q 327.33 395.14 319.25 394.50
  Q 311.14 393.86 304.58 396.51
  Q 297.84 399.24 293.70 405.60
  Q 287.64 414.90 290.02 427.09
  Q 292.51 439.86 304.19 444.31
  Q 321.28 450.83 337.08 439.85
  Q 339.37 438.27 337.57 436.27
  L 332.78 430.93
  Q 331.34 429.32 329.29 430.28
  Q 327.37 431.17 325.68 432.13
  Q 323.11 433.60 322.04 433.91
  Q 317.50 435.25 312.69 432.81
  Q 307.63 430.25 306.42 425.31
  A 0.40 0.40 -6.8 0 1 306.81 424.82"
/>
<path stroke="#8b8888" vector-effect="non-scaling-stroke" d="
  M 455.72 401.51
  Q 455.67 400.85 455.75 399.55
  Q 455.77 399.19 456.07 397.61
  Q 456.65 394.60 453.19 394.64
  Q 446.56 394.72 439.94 394.92
  A 0.53 0.52 89.4 0 0 439.44 395.44
  L 439.24 445.43
  A 0.57 0.57 0.0 0 0 439.81 446.00
  L 455.19 446.00
  A 0.81 0.81 0.0 0 0 456.00 445.19
  Q 456.00 434.54 456.00 424.69
  Q 456.00 418.94 457.11 416.48
  Q 459.00 412.27 463.64 410.51
  Q 465.68 409.74 466.84 409.43
  Q 468.64 408.93 470.25 409.25
  Q 473.10 409.81 472.81 407.83
  Q 472.54 405.94 472.55 405.64
  Q 472.75 400.84 472.51 396.24
  Q 472.39 393.83 470.01 394.25
  Q 462.50 395.58 457.02 401.94
  Q 455.86 403.29 455.72 401.51"
/>
<path stroke="#8b8888" vector-effect="non-scaling-stroke" d="
  M 507.45 415.43
  Q 492.10 415.20 487.75 416.00
  Q 480.46 417.33 477.13 422.79
  Q 474.08 427.79 475.16 434.12
  Q 476.23 440.44 481.51 443.90
  Q 486.07 446.89 491.98 446.88
  Q 499.52 446.87 506.86 441.94
  A 0.41 0.41 -25.2 0 1 507.48 442.16
  Q 508.67 445.87 511.50 446.04
  Q 517.24 446.39 523.73 446.23
  A 1.03 1.03 -0.3 0 0 524.74 445.21
  Q 524.89 428.59 524.56 413.19
  Q 524.40 405.46 520.13 400.67
  Q 516.54 396.65 509.19 394.90
  Q 501.21 393.00 493.75 394.75
  Q 486.84 396.37 479.94 398.27
  A 0.95 0.94 82.3 0 0 479.25 399.18
  Q 479.26 405.07 482.03 409.28
  A 1.13 1.10 76.7 0 0 482.80 409.77
  Q 485.48 410.17 487.98 408.96
  Q 494.93 405.58 502.11 407.47
  Q 505.09 408.26 506.48 409.77
  Q 508.36 411.81 508.01 414.93
  A 0.57 0.55 -86.0 0 1 507.45 415.43"
/>
<path stroke="#8b8888" vector-effect="non-scaling-stroke" d="
  M 415.52 431.46
  Q 411.39 434.07 406.71 434.24
  Q 402.60 434.39 399.69 432.32
  Q 396.62 430.14 395.02 426.14
  A 1.06 1.06 -8.3 0 1 396.10 424.69
  Q 402.63 425.30 408.50 424.75
  Q 412.79 424.35 429.74 424.98
  A 0.54 0.53 4.0 0 0 430.30 424.50
  Q 431.33 414.58 426.64 405.84
  Q 423.01 399.10 415.80 396.48
  Q 409.00 394.01 402.05 394.45
  Q 394.79 394.92 389.12 398.42
  Q 379.21 404.54 378.00 417.75
  Q 377.25 425.88 380.23 432.96
  Q 381.68 436.41 384.14 438.93
  Q 386.79 441.63 390.00 443.25
  Q 401.29 448.94 413.37 445.67
  Q 417.66 444.51 420.17 443.28
  Q 423.34 441.74 426.11 439.02
  A 1.52 1.45 -43.8 0 0 426.20 436.94
  L 419.56 429.91
  A 1.28 1.26 70.0 0 0 418.70 429.50
  Q 417.04 429.38 416.18 430.74
  Q 415.86 431.24 415.52 431.46"
/>
<path stroke="#8b8888" vector-effect="non-scaling-stroke" d="
  M 429.08 457.77
  A 8.89 8.89 0.0 0 0 420.19 448.88
  A 8.89 8.89 0.0 0 0 411.30 457.77
  A 8.89 8.89 0.0 0 0 420.19 466.66
  A 8.89 8.89 0.0 0 0 429.08 457.77"
/>
<path stroke="#8d8888" vector-effect="non-scaling-stroke" d="
  M 120.07 512.05
  L 123.57 521.20
  Q 124.20 522.84 126.25 523.02
  Q 133.74 523.67 141.28 523.26
  A 0.93 0.93 77.1 0 0 142.09 521.97
  L 115.38 458.27
  A 1.65 1.58 77.8 0 0 113.87 457.25
  L 97.91 457.55
  A 1.51 1.45 -80.3 0 0 96.56 458.55
  Q 95.63 461.21 94.34 464.14
  Q 81.52 493.17 69.67 522.29
  A 0.70 0.70 11.0 0 0 70.32 523.25
  L 85.79 523.25
  A 1.22 1.16 -78.3 0 0 86.88 522.49
  L 91.10 512.30
  A 1.38 1.29 10.5 0 1 92.35 511.50
  L 119.44 511.56
  A 0.77 0.63 77.5 0 1 120.07 512.05"
/>
<path stroke="#8d8888" vector-effect="non-scaling-stroke" d="
  M 371.76 474.66
  L 367.40 474.42
  A 0.85 0.77 4.8 0 0 366.52 475.09
  Q 365.89 480.13 366.52 485.19
  A 0.93 0.92 -10.0 0 0 367.64 485.97
  Q 370.25 485.38 372.95 485.95
  A 0.62 0.59 -83.8 0 1 373.42 486.56
  Q 373.27 491.22 373.50 507.00
  Q 373.72 522.52 388.69 523.81
  Q 393.61 524.24 399.10 522.61
  Q 399.23 522.57 401.45 522.20
  Q 403.73 521.82 403.25 519.05
  Q 402.71 515.99 401.95 512.97
  Q 401.35 510.57 400.48 509.82
  Q 398.93 508.47 396.31 510.06
  Q 394.02 511.46 392.20 510.41
  Q 390.82 509.62 390.22 507.43
  Q 389.67 505.40 389.67 503.25
  Q 389.69 494.85 389.92 486.44
  A 0.53 0.52 -89.4 0 1 390.43 485.93
  L 402.26 485.51
  A 0.77 0.75 -2.3 0 0 403.00 484.73
  L 402.69 475.38
  A 0.67 0.65 -0.9 0 0 402.02 474.75
  L 389.98 474.75
  A 0.51 0.48 -89.4 0 1 389.50 474.23
  L 389.82 461.43
  A 0.54 0.51 3.4 0 0 389.32 460.90
  Q 381.61 460.34 373.93 461.13
  A 0.59 0.54 -4.5 0 0 373.40 461.69
  L 373.71 472.15
  Q 373.79 474.78 371.76 474.66"
/>
<path stroke="#8d8888" vector-effect="non-scaling-stroke" d="
  M 164.94 477.87
  L 165.64 473.77
  A 0.68 0.66 -81.8 0 0 165.07 472.98
  Q 157.15 472.00 149.05 472.77
  A 0.54 0.53 87.7 0 0 148.56 473.31
  L 148.75 522.35
  A 1.21 1.20 -2.6 0 0 150.06 523.54
  Q 157.25 522.90 164.28 523.52
  A 0.89 0.89 -87.4 0 0 165.25 522.63
  Q 165.25 510.50 165.29 499.25
  Q 165.31 494.07 168.57 490.78
  Q 170.51 488.81 174.09 487.81
  Q 177.30 486.91 180.39 486.78
  A 1.57 1.45 88.7 0 0 181.78 485.21
  L 181.75 472.24
  A 0.43 0.40 89.4 0 0 181.34 471.81
  Q 172.85 472.12 166.64 478.63
  Q 164.41 480.96 164.94 477.87"
/>
<path stroke="#8d8888" vector-effect="non-scaling-stroke" d="
  M 324.69 478.86
  Q 323.89 477.73 323.96 476.25
  Q 324.05 474.43 323.38 472.77
  A 0.77 0.68 -9.3 0 0 322.68 472.33
  L 308.19 472.50
  A 0.70 0.68 1.3 0 0 307.49 473.15
  Q 307.01 487.16 307.35 501.29
  Q 307.46 506.06 307.33 511.71
  Q 307.22 516.69 307.26 522.16
  A 1.06 1.02 89.4 0 0 308.29 523.21
  L 323.75 523.03
  A 0.50 0.48 87.7 0 0 324.22 522.50
  Q 323.32 508.28 324.77 494.12
  Q 325.01 491.80 326.32 490.32
  Q 332.47 483.35 341.01 489.51
  Q 342.50 490.58 342.51 492.34
  L 342.74 522.43
  A 0.79 0.74 89.6 0 0 343.49 523.22
  L 358.69 522.97
  A 0.56 0.53 -89.4 0 0 359.21 522.43
  Q 359.63 510.50 359.34 498.58
  Q 359.34 498.50 359.39 492.42
  Q 359.44 486.03 357.44 481.56
  Q 354.85 475.78 349.69 473.56
  Q 338.78 468.87 328.56 475.56
  Q 327.20 476.45 325.31 478.86
  A 0.40 0.38 -43.6 0 1 324.69 478.86"
/>
<path stroke="#8d8888" vector-effect="non-scaling-stroke" d="
  M 458.50 479.15
  L 458.19 473.25
  A 0.57 0.46 -89.7 0 0 457.76 472.71
  Q 449.84 472.11 441.93 472.89
  A 0.55 0.54 -2.9 0 0 441.44 473.43
  L 441.50 522.07
  A 0.78 0.76 -87.1 0 0 442.18 522.84
  Q 449.94 523.64 457.94 522.98
  A 0.54 0.54 -2.3 0 0 458.44 522.44
  Q 458.36 510.45 458.64 498.47
  Q 458.77 493.29 460.26 490.83
  Q 463.14 486.10 469.50 486.75
  Q 474.30 487.24 476.08 491.22
  Q 477.00 493.27 477.01 498.41
  Q 477.03 509.62 476.93 521.97
  A 1.24 1.18 -90.0 0 0 478.12 523.22
  L 493.50 523.00
  A 0.73 0.70 87.3 0 0 494.19 522.21
  Q 493.61 514.60 493.95 507.01
  Q 494.22 500.85 494.01 494.70
  Q 493.75 486.73 492.14 482.63
  Q 487.48 470.74 472.26 472.09
  Q 464.09 472.81 459.30 479.32
  Q 458.56 480.33 458.50 479.15"
/>
<path stroke="#8b8888" vector-effect="non-scaling-stroke" d="
  M 533.16 493.24
  Q 525.32 492.47 517.49 493.26
  Q 510.41 493.97 507.03 496.39
  Q 502.17 499.88 501.29 506.72
  Q 500.59 512.19 503.56 516.44
  Q 508.42 523.38 516.38 523.89
  Q 520.53 524.16 524.60 523.30
  Q 529.13 522.34 532.12 519.37
  Q 533.47 518.03 533.92 519.88
  Q 534.37 521.73 535.11 522.66
  Q 535.79 523.51 537.68 523.47
  Q 543.76 523.35 550.24 523.24
  A 0.52 0.52 -0.6 0 0 550.75 522.72
  Q 550.79 507.83 550.42 493.43
  Q 550.22 485.45 548.58 481.83
  Q 544.92 473.75 535.00 472.25
  Q 520.09 470.00 505.51 476.85
  A 0.57 0.56 -22.3 0 0 505.21 477.54
  L 508.73 487.69
  A 0.49 0.47 -21.7 0 0 509.39 487.96
  Q 516.44 484.80 524.01 484.53
  Q 528.48 484.38 530.69 485.58
  Q 534.22 487.50 534.00 492.51
  A 0.77 0.76 -85.7 0 1 533.16 493.24"
/>
<path stroke="#8d8888" vector-effect="non-scaling-stroke" d="
  M 221.76 514.80
  Q 222.85 522.65 217.93 526.40
  Q 214.08 529.33 207.52 529.02
  Q 200.42 528.68 193.91 524.69
  A 0.50 0.48 29.6 0 0 193.22 524.87
  L 187.79 535.41
  A 0.51 0.50 27.9 0 0 188.01 536.08
  Q 198.01 541.57 208.93 542.13
  Q 218.10 542.60 225.50 539.00
  Q 233.14 535.28 236.39 527.63
  Q 237.74 524.44 237.83 519.14
  Q 238.16 500.57 237.95 482.00
  Q 237.90 477.58 238.42 473.32
  A 0.73 0.73 -86.5 0 0 237.70 472.50
  L 222.42 472.50
  A 0.72 0.67 -87.7 0 0 221.75 473.17
  L 221.50 476.75
  Q 221.44 477.66 220.67 477.10
  Q 214.82 472.82 208.40 472.10
  Q 201.94 471.38 196.04 474.61
  Q 186.55 479.79 185.25 492.00
  Q 184.45 499.49 187.07 506.23
  Q 189.84 513.35 195.42 517.20
  Q 202.20 521.87 210.94 520.19
  Q 215.91 519.23 221.31 514.63
  Q 221.69 514.31 221.76 514.80"
/>
<path stroke="#8b8888" vector-effect="non-scaling-stroke" d="
  M 263.73 502.31
  L 297.72 502.25
  A 0.79 0.78 -87.6 0 0 298.50 501.53
  Q 299.22 492.10 295.06 483.69
  Q 290.53 474.50 279.56 472.69
  Q 272.24 471.48 265.93 472.77
  Q 258.90 474.20 254.14 478.72
  Q 249.03 483.57 247.35 491.02
  Q 245.48 499.33 247.00 505.25
  Q 251.16 521.44 268.73 523.63
  Q 282.17 525.31 293.88 516.51
  Q 295.90 514.99 293.98 513.14
  L 287.75 507.13
  A 1.08 1.04 46.6 0 0 286.32 507.06
  Q 283.01 509.91 278.96 510.91
  Q 274.69 511.96 270.94 510.71
  Q 265.67 508.96 263.20 503.12
  A 0.58 0.58 78.3 0 1 263.73 502.31"
/>
<path stroke="#8b8888" vector-effect="non-scaling-stroke" d="
  M 428.47 472.82
  A 0.38 0.38 0.0 0 0 428.09 472.44
  L 412.49 472.44
  A 0.38 0.38 0.0 0 0 412.11 472.82
  L 412.11 522.90
  A 0.38 0.38 0.0 0 0 412.49 523.28
  L 428.09 523.28
  A 0.38 0.38 0.0 0 0 428.47 522.90
  L 428.47 472.82"
/>
<path stroke="#8d8888" vector-effect="non-scaling-stroke" d="
  M 142.66 396.34
  Q 139.70 393.48 135.50 393.49
  Q 130.37 393.50 124.24 393.50
  A 0.76 0.75 -88.4 0 0 123.49 394.22
  Q 122.98 403.54 123.65 413.07
  A 0.58 0.58 0.3 0 0 124.18 413.60
  Q 131.80 414.14 137.00 413.50
  Q 143.43 412.71 145.31 406.81
  Q 147.24 400.78 142.66 396.34"
/>
<path stroke="#8d8686" vector-effect="non-scaling-stroke" d="
  M 187.13 435.26
  Q 189.23 435.78 192.06 435.31
  Q 199.74 434.05 200.24 426.37
  A 1.43 1.43 6.1 0 0 199.02 424.86
  Q 193.19 424.01 187.95 424.79
  Q 185.05 425.22 183.69 426.96
  Q 181.71 429.51 183.47 432.43
  Q 184.81 434.67 187.13 435.26"
/>
<path stroke="#8d8888" vector-effect="non-scaling-stroke" d="
  M 256.5653 433.0899
  A 12.80 11.21 90.2 0 0 267.8199 420.3291
  A 12.80 11.21 90.2 0 0 256.6547 407.4901
  A 12.80 11.21 90.2 0 0 245.4001 420.2509
  A 12.80 11.21 90.2 0 0 256.5653 433.0899"
/>
<path stroke="#8b8686" vector-effect="non-scaling-stroke" d="
  M 320.53 406.74
  Q 319.55 406.07 318.36 405.97
  Q 308.65 405.15 306.45 415.34
  A 0.76 0.74 -84.2 0 0 307.19 416.26
  L 325.16 415.74
  A 1.13 1.11 79.5 0 0 326.17 414.24
  Q 324.52 409.49 320.53 406.74"
/>
<path stroke="#8b8686" vector-effect="non-scaling-stroke" d="
  M 493.44 434.56
  Q 497.82 436.93 503.11 434.68
  Q 507.67 432.74 508.09 426.38
  A 1.82 1.81 3.6 0 0 506.37 424.44
  Q 503.26 424.26 499.31 424.43
  Q 499.27 424.44 496.69 424.37
  Q 494.29 424.31 492.63 425.68
  Q 490.65 427.31 490.55 429.96
  Q 490.44 432.94 493.44 434.56"
/>
<path stroke="#8b8686" vector-effect="non-scaling-stroke" d="
  M 413.97 416.08
  A 0.46 0.46 86.3 0 0 414.43 415.55
  Q 414.05 413.04 412.47 410.50
  Q 409.25 405.28 403.86 405.95
  Q 400.43 406.37 398.08 408.55
  Q 395.66 410.80 394.96 414.48
  A 1.29 1.28 5.6 0 0 396.22 416.00
  L 413.97 416.08"
/>
<path stroke="#8b8281" vector-effect="non-scaling-stroke" d="
  M 97.58 498.56
  L 113.33 498.73
  A 1.05 1.02 80.0 0 0 114.29 497.32
  L 106.50 476.32
  Q 105.90 474.70 105.19 476.27
  Q 100.43 486.93 97.00 497.74
  A 0.63 0.62 -80.9 0 0 97.58 498.56"
/>
<path stroke="#8b8686" vector-effect="non-scaling-stroke" d="
  M 522.27 512.41
  Q 526.78 513.42 530.56 510.81
  Q 535.05 507.73 534.04 502.07
  A 0.67 0.66 87.1 0 0 533.44 501.52
  Q 528.82 501.12 524.33 501.46
  Q 520.31 501.77 518.26 503.50
  Q 515.17 506.10 517.81 509.59
  Q 519.48 511.79 522.27 512.41"
/>
<path stroke="#8d8686" vector-effect="non-scaling-stroke" d="
  M 210.6350 508.4094
  A 12.06 10.41 92.4 0 0 221.5409 496.7959
  A 12.06 10.41 92.4 0 0 211.6450 484.3106
  A 12.06 10.41 92.4 0 0 200.7391 495.9241
  A 12.06 10.41 92.4 0 0 210.6350 508.4094"
/>
<path stroke="#898281" vector-effect="non-scaling-stroke" d="
  M 263.96 493.32
  Q 272.95 493.69 282.19 492.98
  A 0.48 0.48 -6.2 0 0 282.63 492.44
  Q 281.99 487.87 278.77 485.49
  Q 275.56 483.11 271.32 483.77
  Q 265.12 484.74 263.13 492.20
  A 0.89 0.89 8.5 0 0 263.96 493.32"
/>
</g>
<path fill="#ffffff" d="
  M 0.00 0.00
  L 622.00 0.00
  L 622.00 560.00
  L 0.00 560.00
  L 0.00 0.00
  Z
  M 175.29 110.50
  Q 174.01 119.85 175.00 131.50
  Q 177.50 160.96 195.64 182.86
  Q 195.67 184.27 194.75 184.30
  Q 178.21 184.88 163.65 192.62
  Q 146.79 201.59 136.05 217.36
  Q 119.62 241.52 120.05 271.02
  Q 119.81 303.39 138.52 328.15
  Q 144.86 336.54 152.32 342.55
  Q 172.09 358.50 198.25 358.50
  Q 278.38 358.50 358.37 358.50
  Q 359.88 358.50 358.54 357.80
  Q 337.16 346.72 327.07 325.12
  Q 316.62 302.76 316.26 278.00
  Q 316.14 270.00 316.46 262.00
  Q 318.50 237.58 330.20 216.14
  Q 335.72 206.01 344.28 198.28
  Q 350.51 192.67 358.25 189.46
  Q 373.27 183.79 388.82 190.44
  Q 391.70 191.67 390.09 188.98
  Q 389.57 188.11 388.29 186.58
  Q 387.23 185.31 386.57 184.13
  Q 369.99 154.65 371.71 120.50
  Q 371.96 87.10 390.97 59.92
  Q 399.33 47.96 412.59 41.88
  Q 417.32 39.72 422.48 39.07
  Q 424.03 38.88 425.29 38.26
  Q 426.18 37.82 425.21 37.60
  Q 420.75 36.61 416.43 36.12
  Q 413.22 35.76 407.54 35.73
  Q 330.77 35.32 254.00 35.40
  Q 217.40 35.44 194.94 62.94
  Q 178.31 83.30 175.29 110.50
  Z
  M 426.8332 135.3070
  A 10.10 7.65 91.4 0 0 434.7277 125.3969
  A 10.10 7.65 91.4 0 0 427.3268 115.1130
  A 10.10 7.65 91.4 0 0 419.4323 125.0231
  A 10.10 7.65 91.4 0 0 426.8332 135.3070
  Z
  M 426.93 251.98
  Q 428.34 247.39 429.23 242.88
  Q 430.44 236.69 431.42 233.79
  Q 435.96 220.39 443.20 208.58
  Q 443.97 207.32 442.58 207.81
  Q 436.67 209.88 430.50 210.73
  Q 424.67 211.52 419.02 209.93
  Q 414.38 208.62 409.73 207.25
  Q 406.86 206.39 408.93 208.56
  Q 410.97 210.70 412.58 213.38
  Q 423.09 230.88 426.58 251.95
  Q 426.71 252.71 426.93 251.98
  Z
  M 481.5543 281.2396
  A 9.82 7.87 90.5 0 0 489.5097 271.4887
  A 9.82 7.87 90.5 0 0 481.7257 261.6004
  A 9.82 7.87 90.5 0 0 473.7703 271.3513
  A 9.82 7.87 90.5 0 0 481.5543 281.2396
  Z
  M 371.9728 283.5581
  A 10.27 7.64 91.1 0 0 379.8086 273.4367
  A 10.27 7.64 91.1 0 0 372.3672 263.0219
  A 10.27 7.64 91.1 0 0 364.5314 273.1433
  A 10.27 7.64 91.1 0 0 371.9728 283.5581
  Z
  M 468.06 354.94
  Q 463.26 352.76 458.90 349.87
  Q 454.80 347.14 451.05 343.08
  Q 431.65 322.09 428.04 293.08
  Q 427.99 292.69 427.88 292.43
  Q 427.50 291.59 427.09 292.36
  Q 426.95 292.62 426.89 293.04
  Q 425.11 305.88 420.27 317.74
  Q 415.94 328.40 411.21 335.55
  Q 402.41 348.87 387.67 356.44
  Q 385.76 357.43 387.91 357.44
  Q 419.36 357.70 451.32 357.30
  Q 455.35 357.25 459.67 356.90
  Q 463.84 356.56 468.00 356.25
  Q 470.54 356.06 468.06 354.94
  Z
  M 368.5295 376.2351
  A 0.58 0.58 0.0 0 0 367.9485 375.6561
  L 352.0086 375.6840
  A 0.58 0.58 0.0 0 0 351.4296 376.2650
  L 351.5505 445.5249
  A 0.58 0.58 0.0 0 0 352.1315 446.1039
  L 368.0714 446.0760
  A 0.58 0.58 0.0 0 0 368.6504 445.4950
  L 368.5295 376.2351
  Z
  M 125.15 427.19
  Q 134.64 428.31 143.27 426.71
  Q 150.31 425.41 154.37 421.83
  Q 161.05 415.95 161.75 405.50
  Q 163.11 385.20 144.45 380.73
  Q 139.77 379.60 130.50 379.50
  Q 118.35 379.36 106.20 379.67
  A 0.52 0.50 -1.7 0 0 105.70 380.18
  Q 106.37 412.84 105.75 445.43
  A 0.81 0.81 -89.7 0 0 106.56 446.25
  L 121.75 446.25
  A 1.51 1.49 -0.0 0 0 123.26 444.76
  L 123.24 428.91
  Q 123.24 426.96 125.15 427.19
  Z
  M 198.50 442.46
  Q 199.93 442.23 200.21 443.50
  Q 200.16 445.00 201.16 445.88
  A 1.46 0.90 -14.3 0 0 202.05 446.16
  L 215.57 446.30
  A 0.92 0.87 0.3 0 0 216.50 445.43
  Q 216.50 428.50 216.58 412.50
  Q 216.63 402.86 209.00 398.00
  Q 201.72 393.36 192.24 394.09
  Q 182.20 394.86 172.50 398.25
  A 1.98 1.98 75.6 0 0 171.20 400.45
  Q 172.07 405.59 174.17 409.65
  A 1.16 1.16 66.8 0 0 175.59 410.22
  Q 180.25 408.58 184.91 407.34
  Q 189.95 405.99 194.90 407.66
  Q 200.07 409.40 200.41 414.51
  A 0.96 0.95 -0.8 0 1 199.42 415.52
  Q 192.50 415.28 185.91 415.69
  Q 177.29 416.22 173.52 418.56
  Q 169.25 421.21 167.63 426.21
  Q 166.22 430.57 167.46 435.34
  Q 170.04 445.30 181.25 446.75
  Q 190.10 447.90 198.50 442.46
  Z
  M 246.30 440.97
  Q 247.50 440.86 248.11 441.99
  Q 248.39 442.49 248.72 442.73
  Q 257.68 448.94 268.06 445.81
  Q 280.75 441.99 283.53 428.70
  Q 285.52 419.22 283.75 412.75
  Q 279.08 395.66 262.44 394.35
  Q 258.06 394.00 254.67 395.18
  Q 250.86 396.51 247.80 399.34
  A 1.41 1.02 -60.1 0 1 246.94 399.73
  Q 245.00 399.72 245.67 396.76
  Q 246.09 394.86 244.15 394.70
  Q 237.00 394.14 229.23 394.75
  A 0.52 0.52 -2.4 0 0 228.75 395.27
  L 228.44 464.25
  A 0.54 0.52 0.6 0 0 228.97 464.77
  L 243.36 464.96
  Q 245.49 464.98 245.51 462.93
  Q 245.60 455.12 245.50 446.25
  Q 245.46 442.96 245.70 441.55
  A 0.72 0.67 -86.9 0 1 246.30 440.97
  Z
  M 306.81 424.82
  L 341.23 424.51
  A 1.31 1.29 89.3 0 0 342.51 423.18
  Q 342.41 416.22 340.19 410.05
  Q 337.68 403.05 332.85 399.36
  Q 327.33 395.14 319.25 394.50
  Q 311.14 393.86 304.58 396.51
  Q 297.84 399.24 293.70 405.60
  Q 287.64 414.90 290.02 427.09
  Q 292.51 439.86 304.19 444.31
  Q 321.28 450.83 337.08 439.85
  Q 339.37 438.27 337.57 436.27
  L 332.78 430.93
  Q 331.34 429.32 329.29 430.28
  Q 327.37 431.17 325.68 432.13
  Q 323.11 433.60 322.04 433.91
  Q 317.50 435.25 312.69 432.81
  Q 307.63 430.25 306.42 425.31
  A 0.40 0.40 -6.8 0 1 306.81 424.82
  Z
  M 455.72 401.51
  Q 455.67 400.85 455.75 399.55
  Q 455.77 399.19 456.07 397.61
  Q 456.65 394.60 453.19 394.64
  Q 446.56 394.72 439.94 394.92
  A 0.53 0.52 89.4 0 0 439.44 395.44
  L 439.24 445.43
  A 0.57 0.57 0.0 0 0 439.81 446.00
  L 455.19 446.00
  A 0.81 0.81 0.0 0 0 456.00 445.19
  Q 456.00 434.54 456.00 424.69
  Q 456.00 418.94 457.11 416.48
  Q 459.00 412.27 463.64 410.51
  Q 465.68 409.74 466.84 409.43
  Q 468.64 408.93 470.25 409.25
  Q 473.10 409.81 472.81 407.83
  Q 472.54 405.94 472.55 405.64
  Q 472.75 400.84 472.51 396.24
  Q 472.39 393.83 470.01 394.25
  Q 462.50 395.58 457.02 401.94
  Q 455.86 403.29 455.72 401.51
  Z
  M 507.45 415.43
  Q 492.10 415.20 487.75 416.00
  Q 480.46 417.33 477.13 422.79
  Q 474.08 427.79 475.16 434.12
  Q 476.23 440.44 481.51 443.90
  Q 486.07 446.89 491.98 446.88
  Q 499.52 446.87 506.86 441.94
  A 0.41 0.41 -25.2 0 1 507.48 442.16
  Q 508.67 445.87 511.50 446.04
  Q 517.24 446.39 523.73 446.23
  A 1.03 1.03 -0.3 0 0 524.74 445.21
  Q 524.89 428.59 524.56 413.19
  Q 524.40 405.46 520.13 400.67
  Q 516.54 396.65 509.19 394.90
  Q 501.21 393.00 493.75 394.75
  Q 486.84 396.37 479.94 398.27
  A 0.95 0.94 82.3 0 0 479.25 399.18
  Q 479.26 405.07 482.03 409.28
  A 1.13 1.10 76.7 0 0 482.80 409.77
  Q 485.48 410.17 487.98 408.96
  Q 494.93 405.58 502.11 407.47
  Q 505.09 408.26 506.48 409.77
  Q 508.36 411.81 508.01 414.93
  A 0.57 0.55 -86.0 0 1 507.45 415.43
  Z
  M 415.52 431.46
  Q 411.39 434.07 406.71 434.24
  Q 402.60 434.39 399.69 432.32
  Q 396.62 430.14 395.02 426.14
  A 1.06 1.06 -8.3 0 1 396.10 424.69
  Q 402.63 425.30 408.50 424.75
  Q 412.79 424.35 429.74 424.98
  A 0.54 0.53 4.0 0 0 430.30 424.50
  Q 431.33 414.58 426.64 405.84
  Q 423.01 399.10 415.80 396.48
  Q 409.00 394.01 402.05 394.45
  Q 394.79 394.92 389.12 398.42
  Q 379.21 404.54 378.00 417.75
  Q 377.25 425.88 380.23 432.96
  Q 381.68 436.41 384.14 438.93
  Q 386.79 441.63 390.00 443.25
  Q 401.29 448.94 413.37 445.67
  Q 417.66 444.51 420.17 443.28
  Q 423.34 441.74 426.11 439.02
  A 1.52 1.45 -43.8 0 0 426.20 436.94
  L 419.56 429.91
  A 1.28 1.26 70.0 0 0 418.70 429.50
  Q 417.04 429.38 416.18 430.74
  Q 415.86 431.24 415.52 431.46
  Z
  M 429.08 457.77
  A 8.89 8.89 0.0 0 0 420.19 448.88
  A 8.89 8.89 0.0 0 0 411.30 457.77
  A 8.89 8.89 0.0 0 0 420.19 466.66
  A 8.89 8.89 0.0 0 0 429.08 457.77
  Z
  M 120.07 512.05
  L 123.57 521.20
  Q 124.20 522.84 126.25 523.02
  Q 133.74 523.67 141.28 523.26
  A 0.93 0.93 77.1 0 0 142.09 521.97
  L 115.38 458.27
  A 1.65 1.58 77.8 0 0 113.87 457.25
  L 97.91 457.55
  A 1.51 1.45 -80.3 0 0 96.56 458.55
  Q 95.63 461.21 94.34 464.14
  Q 81.52 493.17 69.67 522.29
  A 0.70 0.70 11.0 0 0 70.32 523.25
  L 85.79 523.25
  A 1.22 1.16 -78.3 0 0 86.88 522.49
  L 91.10 512.30
  A 1.38 1.29 10.5 0 1 92.35 511.50
  L 119.44 511.56
  A 0.77 0.63 77.5 0 1 120.07 512.05
  Z
  M 371.76 474.66
  L 367.40 474.42
  A 0.85 0.77 4.8 0 0 366.52 475.09
  Q 365.89 480.13 366.52 485.19
  A 0.93 0.92 -10.0 0 0 367.64 485.97
  Q 370.25 485.38 372.95 485.95
  A 0.62 0.59 -83.8 0 1 373.42 486.56
  Q 373.27 491.22 373.50 507.00
  Q 373.72 522.52 388.69 523.81
  Q 393.61 524.24 399.10 522.61
  Q 399.23 522.57 401.45 522.20
  Q 403.73 521.82 403.25 519.05
  Q 402.71 515.99 401.95 512.97
  Q 401.35 510.57 400.48 509.82
  Q 398.93 508.47 396.31 510.06
  Q 394.02 511.46 392.20 510.41
  Q 390.82 509.62 390.22 507.43
  Q 389.67 505.40 389.67 503.25
  Q 389.69 494.85 389.92 486.44
  A 0.53 0.52 -89.4 0 1 390.43 485.93
  L 402.26 485.51
  A 0.77 0.75 -2.3 0 0 403.00 484.73
  L 402.69 475.38
  A 0.67 0.65 -0.9 0 0 402.02 474.75
  L 389.98 474.75
  A 0.51 0.48 -89.4 0 1 389.50 474.23
  L 389.82 461.43
  A 0.54 0.51 3.4 0 0 389.32 460.90
  Q 381.61 460.34 373.93 461.13
  A 0.59 0.54 -4.5 0 0 373.40 461.69
  L 373.71 472.15
  Q 373.79 474.78 371.76 474.66
  Z
  M 164.94 477.87
  L 165.64 473.77
  A 0.68 0.66 -81.8 0 0 165.07 472.98
  Q 157.15 472.00 149.05 472.77
  A 0.54 0.53 87.7 0 0 148.56 473.31
  L 148.75 522.35
  A 1.21 1.20 -2.6 0 0 150.06 523.54
  Q 157.25 522.90 164.28 523.52
  A 0.89 0.89 -87.4 0 0 165.25 522.63
  Q 165.25 510.50 165.29 499.25
  Q 165.31 494.07 168.57 490.78
  Q 170.51 488.81 174.09 487.81
  Q 177.30 486.91 180.39 486.78
  A 1.57 1.45 88.7 0 0 181.78 485.21
  L 181.75 472.24
  A 0.43 0.40 89.4 0 0 181.34 471.81
  Q 172.85 472.12 166.64 478.63
  Q 164.41 480.96 164.94 477.87
  Z
  M 324.69 478.86
  Q 323.89 477.73 323.96 476.25
  Q 324.05 474.43 323.38 472.77
  A 0.77 0.68 -9.3 0 0 322.68 472.33
  L 308.19 472.50
  A 0.70 0.68 1.3 0 0 307.49 473.15
  Q 307.01 487.16 307.35 501.29
  Q 307.46 506.06 307.33 511.71
  Q 307.22 516.69 307.26 522.16
  A 1.06 1.02 89.4 0 0 308.29 523.21
  L 323.75 523.03
  A 0.50 0.48 87.7 0 0 324.22 522.50
  Q 323.32 508.28 324.77 494.12
  Q 325.01 491.80 326.32 490.32
  Q 332.47 483.35 341.01 489.51
  Q 342.50 490.58 342.51 492.34
  L 342.74 522.43
  A 0.79 0.74 89.6 0 0 343.49 523.22
  L 358.69 522.97
  A 0.56 0.53 -89.4 0 0 359.21 522.43
  Q 359.63 510.50 359.34 498.58
  Q 359.34 498.50 359.39 492.42
  Q 359.44 486.03 357.44 481.56
  Q 354.85 475.78 349.69 473.56
  Q 338.78 468.87 328.56 475.56
  Q 327.20 476.45 325.31 478.86
  A 0.40 0.38 -43.6 0 1 324.69 478.86
  Z
  M 458.50 479.15
  L 458.19 473.25
  A 0.57 0.46 -89.7 0 0 457.76 472.71
  Q 449.84 472.11 441.93 472.89
  A 0.55 0.54 -2.9 0 0 441.44 473.43
  L 441.50 522.07
  A 0.78 0.76 -87.1 0 0 442.18 522.84
  Q 449.94 523.64 457.94 522.98
  A 0.54 0.54 -2.3 0 0 458.44 522.44
  Q 458.36 510.45 458.64 498.47
  Q 458.77 493.29 460.26 490.83
  Q 463.14 486.10 469.50 486.75
  Q 474.30 487.24 476.08 491.22
  Q 477.00 493.27 477.01 498.41
  Q 477.03 509.62 476.93 521.97
  A 1.24 1.18 -90.0 0 0 478.12 523.22
  L 493.50 523.00
  A 0.73 0.70 87.3 0 0 494.19 522.21
  Q 493.61 514.60 493.95 507.01
  Q 494.22 500.85 494.01 494.70
  Q 493.75 486.73 492.14 482.63
  Q 487.48 470.74 472.26 472.09
  Q 464.09 472.81 459.30 479.32
  Q 458.56 480.33 458.50 479.15
  Z
  M 533.16 493.24
  Q 525.32 492.47 517.49 493.26
  Q 510.41 493.97 507.03 496.39
  Q 502.17 499.88 501.29 506.72
  Q 500.59 512.19 503.56 516.44
  Q 508.42 523.38 516.38 523.89
  Q 520.53 524.16 524.60 523.30
  Q 529.13 522.34 532.12 519.37
  Q 533.47 518.03 533.92 519.88
  Q 534.37 521.73 535.11 522.66
  Q 535.79 523.51 537.68 523.47
  Q 543.76 523.35 550.24 523.24
  A 0.52 0.52 -0.6 0 0 550.75 522.72
  Q 550.79 507.83 550.42 493.43
  Q 550.22 485.45 548.58 481.83
  Q 544.92 473.75 535.00 472.25
  Q 520.09 470.00 505.51 476.85
  A 0.57 0.56 -22.3 0 0 505.21 477.54
  L 508.73 487.69
  A 0.49 0.47 -21.7 0 0 509.39 487.96
  Q 516.44 484.80 524.01 484.53
  Q 528.48 484.38 530.69 485.58
  Q 534.22 487.50 534.00 492.51
  A 0.77 0.76 -85.7 0 1 533.16 493.24
  Z
  M 221.76 514.80
  Q 222.85 522.65 217.93 526.40
  Q 214.08 529.33 207.52 529.02
  Q 200.42 528.68 193.91 524.69
  A 0.50 0.48 29.6 0 0 193.22 524.87
  L 187.79 535.41
  A 0.51 0.50 27.9 0 0 188.01 536.08
  Q 198.01 541.57 208.93 542.13
  Q 218.10 542.60 225.50 539.00
  Q 233.14 535.28 236.39 527.63
  Q 237.74 524.44 237.83 519.14
  Q 238.16 500.57 237.95 482.00
  Q 237.90 477.58 238.42 473.32
  A 0.73 0.73 -86.5 0 0 237.70 472.50
  L 222.42 472.50
  A 0.72 0.67 -87.7 0 0 221.75 473.17
  L 221.50 476.75
  Q 221.44 477.66 220.67 477.10
  Q 214.82 472.82 208.40 472.10
  Q 201.94 471.38 196.04 474.61
  Q 186.55 479.79 185.25 492.00
  Q 184.45 499.49 187.07 506.23
  Q 189.84 513.35 195.42 517.20
  Q 202.20 521.87 210.94 520.19
  Q 215.91 519.23 221.31 514.63
  Q 221.69 514.31 221.76 514.80
  Z
  M 263.73 502.31
  L 297.72 502.25
  A 0.79 0.78 -87.6 0 0 298.50 501.53
  Q 299.22 492.10 295.06 483.69
  Q 290.53 474.50 279.56 472.69
  Q 272.24 471.48 265.93 472.77
  Q 258.90 474.20 254.14 478.72
  Q 249.03 483.57 247.35 491.02
  Q 245.48 499.33 247.00 505.25
  Q 251.16 521.44 268.73 523.63
  Q 282.17 525.31 293.88 516.51
  Q 295.90 514.99 293.98 513.14
  L 287.75 507.13
  A 1.08 1.04 46.6 0 0 286.32 507.06
  Q 283.01 509.91 278.96 510.91
  Q 274.69 511.96 270.94 510.71
  Q 265.67 508.96 263.20 503.12
  A 0.58 0.58 78.3 0 1 263.73 502.31
  Z
  M 428.47 472.82
  A 0.38 0.38 0.0 0 0 428.09 472.44
  L 412.49 472.44
  A 0.38 0.38 0.0 0 0 412.11 472.82
  L 412.11 522.90
  A 0.38 0.38 0.0 0 0 412.49 523.28
  L 428.09 523.28
  A 0.38 0.38 0.0 0 0 428.47 522.90
  L 428.47 472.82
  Z"
/>
<path fill="#008aa7" d="
  M 371.71 120.50
  Q 370.71 121.84 370.47 123.72
  A 0.59 0.57 -86.2 0 1 369.89 124.24
  L 364.06 124.21
  A 0.72 0.63 81.1 0 1 363.45 123.70
  Q 362.81 121.58 360.50 121.70
  A 1.02 0.99 -21.6 0 1 359.68 121.36
  Q 357.03 118.37 352.69 118.44
  Q 341.03 118.63 332.26 119.58
  Q 329.79 119.84 326.94 119.19
  Q 324.20 118.55 321.18 119.31
  Q 320.69 119.43 320.20 119.29
  Q 316.38 118.21 312.49 118.74
  Q 311.08 118.93 309.51 118.71
  Q 307.99 118.50 306.47 118.63
  Q 302.46 118.97 301.99 118.96
  Q 289.53 118.75 277.06 118.69
  Q 274.79 118.68 273.34 118.77
  Q 271.40 118.90 269.67 118.68
  Q 267.23 118.37 264.78 118.72
  Q 263.29 118.93 261.73 118.70
  Q 260.17 118.46 258.60 118.54
  Q 254.52 118.74 254.00 118.72
  Q 242.47 118.30 234.75 119.25
  Q 230.35 119.79 227.15 119.37
  Q 224.94 119.07 223.31 118.95
  Q 221.38 118.81 219.49 118.29
  Q 216.94 117.58 214.30 118.10
  Q 211.31 118.69 209.30 116.42
  Q 207.82 114.76 205.74 113.96
  Q 202.29 112.63 198.00 111.25
  Q 196.48 110.76 195.82 110.14
  A 1.30 0.31 46.9 0 0 195.02 109.61
  L 189.64 109.06
  A 0.43 0.35 -76.4 0 0 189.25 109.36
  Q 188.87 110.56 188.50 110.18
  A 1.31 0.43 51.1 0 0 187.76 109.70
  L 185.76 109.53
  A 2.08 1.63 58.5 0 1 184.85 109.19
  Q 182.84 107.78 181.44 110.01
  A 0.28 0.27 46.6 0 1 180.97 109.99
  Q 180.29 108.82 178.93 108.88
  A 1.40 0.57 -50.7 0 0 178.12 109.32
  Q 177.71 109.69 177.40 109.26
  A 0.28 0.26 44.4 0 0 176.95 109.25
  Q 176.38 110.15 175.29 110.50
  Q 178.31 83.30 194.94 62.94
  Q 217.40 35.44 254.00 35.40
  Q 330.77 35.32 407.54 35.73
  Q 413.22 35.76 416.43 36.12
  Q 420.75 36.61 425.21 37.60
  Q 426.18 37.82 425.29 38.26
  Q 424.03 38.88 422.48 39.07
  Q 417.32 39.72 412.59 41.88
  Q 399.33 47.96 390.97 59.92
  Q 371.96 87.10 371.71 120.50
  Z"
/>
<path fill="#0296b2" d="
  M 371.71 120.50
  Q 369.99 154.65 386.57 184.13
  Q 387.23 185.31 388.29 186.58
  Q 389.57 188.11 390.09 188.98
  Q 391.70 191.67 388.82 190.44
  Q 373.27 183.79 358.25 189.46
  Q 359.06 186.27 357.14 185.00
  Q 355.90 184.18 353.39 184.81
  Q 348.60 186.01 343.75 186.91
  A 0.90 0.83 62.7 0 1 342.94 186.61
  Q 341.24 184.67 338.00 185.00
  Q 333.85 185.42 318.25 184.50
  Q 306.25 183.79 287.50 184.25
  Q 271.59 184.64 211.47 184.04
  Q 207.93 184.00 203.56 183.54
  Q 199.55 183.11 195.64 182.86
  Q 177.50 160.96 175.00 131.50
  Q 174.01 119.85 175.29 110.50
  Q 176.38 110.15 176.95 109.25
  A 0.28 0.26 44.4 0 1 177.40 109.26
  Q 177.71 109.69 178.12 109.32
  A 1.40 0.57 -50.7 0 1 178.93 108.88
  Q 180.29 108.82 180.97 109.99
  A 0.28 0.27 46.6 0 0 181.44 110.01
  Q 182.84 107.78 184.85 109.19
  A 2.08 1.63 58.5 0 0 185.76 109.53
  L 187.76 109.70
  A 1.31 0.43 51.1 0 1 188.50 110.18
  Q 188.87 110.56 189.25 109.36
  A 0.43 0.35 -76.4 0 1 189.64 109.06
  L 195.02 109.61
  A 1.30 0.31 46.9 0 1 195.82 110.14
  Q 196.48 110.76 198.00 111.25
  Q 202.29 112.63 205.74 113.96
  Q 207.82 114.76 209.30 116.42
  Q 211.31 118.69 214.30 118.10
  Q 216.94 117.58 219.49 118.29
  Q 221.38 118.81 223.31 118.95
  Q 224.94 119.07 227.15 119.37
  Q 230.35 119.79 234.75 119.25
  Q 242.47 118.30 254.00 118.72
  Q 254.52 118.74 258.60 118.54
  Q 260.17 118.46 261.73 118.70
  Q 263.29 118.93 264.78 118.72
  Q 267.23 118.37 269.67 118.68
  Q 271.40 118.90 273.34 118.77
  Q 274.79 118.68 277.06 118.69
  Q 289.53 118.75 301.99 118.96
  Q 302.46 118.97 306.47 118.63
  Q 307.99 118.50 309.51 118.71
  Q 311.08 118.93 312.49 118.74
  Q 316.38 118.21 320.20 119.29
  Q 320.69 119.43 321.18 119.31
  Q 324.20 118.55 326.94 119.19
  Q 329.79 119.84 332.26 119.58
  Q 341.03 118.63 352.69 118.44
  Q 357.03 118.37 359.68 121.36
  A 1.02 0.99 -21.6 0 0 360.50 121.70
  Q 362.81 121.58 363.45 123.70
  A 0.72 0.63 81.1 0 0 364.06 124.21
  L 369.89 124.24
  A 0.59 0.57 -86.2 0 0 370.47 123.72
  Q 370.71 121.84 371.71 120.50
  Z"
/>
<ellipse fill="#158d96" cx="0.00" cy="0.00" transform="translate(427.08,125.21) rotate(91.4)" rx="10.10" ry="7.65"/>
<path fill="#027592" d="
  M 358.25 189.46
  Q 350.51 192.67 344.28 198.28
  Q 335.72 206.01 330.20 216.14
  Q 318.50 237.58 316.46 262.00
  Q 315.19 263.29 314.31 264.86
  Q 313.98 265.44 313.78 266.90
  Q 313.47 269.24 310.69 266.75
  A 3.06 2.52 59.6 0 0 308.55 265.97
  L 296.24 267.17
  Q 295.96 267.19 295.36 267.56
  Q 294.88 267.86 294.63 267.51
  A 1.03 0.59 61.6 0 0 293.94 267.08
  Q 283.95 267.42 274.01 266.38
  Q 270.53 266.01 263.75 266.00
  Q 216.93 265.93 170.10 265.99
  Q 166.31 266.00 161.44 265.36
  Q 157.11 264.80 152.75 264.53
  Q 150.65 264.40 148.60 264.75
  Q 147.37 264.96 145.13 266.39
  Q 142.31 268.18 138.81 267.87
  A 0.56 0.50 6.1 0 0 138.21 268.30
  L 137.84 270.94
  A 0.32 0.31 -72.1 0 1 137.38 271.19
  Q 134.29 269.49 131.04 268.15
  Q 130.72 268.02 128.23 266.71
  Q 124.93 264.97 125.44 269.94
  Q 125.82 273.66 123.81 270.44
  Q 122.76 268.74 122.40 270.45
  Q 122.31 270.85 122.16 270.46
  Q 121.46 268.66 120.05 271.02
  Q 119.62 241.52 136.05 217.36
  Q 146.79 201.59 163.65 192.62
  Q 178.21 184.88 194.75 184.30
  Q 195.67 184.27 195.64 182.86
  Q 199.55 183.11 203.56 183.54
  Q 207.93 184.00 211.47 184.04
  Q 271.59 184.64 287.50 184.25
  Q 306.25 183.79 318.25 184.50
  Q 333.85 185.42 338.00 185.00
  Q 341.24 184.67 342.94 186.61
  A 0.90 0.83 62.7 0 0 343.75 186.91
  Q 348.60 186.01 353.39 184.81
  Q 355.90 184.18 357.14 185.00
  Q 359.06 186.27 358.25 189.46
  Z"
/>
<path fill="#107e95" d="
  M 426.93 251.98
  Q 426.71 252.71 426.58 251.95
  Q 423.09 230.88 412.58 213.38
  Q 410.97 210.70 408.93 208.56
  Q 406.86 206.39 409.73 207.25
  Q 414.38 208.62 419.02 209.93
  Q 424.67 211.52 430.50 210.73
  Q 436.67 209.88 442.58 207.81
  Q 443.97 207.32 443.20 208.58
  Q 435.96 220.39 431.42 233.79
  Q 430.44 236.69 429.23 242.88
  Q 428.34 247.39 426.93 251.98
  Z"
/>
<ellipse fill="#158d96" cx="0.00" cy="0.00" transform="translate(481.64,271.42) rotate(90.5)" rx="9.82" ry="7.87"/>
<path fill="#025d78" d="
  M 316.46 262.00
  Q 316.14 270.00 316.26 278.00
  Q 316.62 302.76 327.07 325.12
  Q 337.16 346.72 358.54 357.80
  Q 359.88 358.50 358.37 358.50
  Q 278.38 358.50 198.25 358.50
  Q 172.09 358.50 152.32 342.55
  Q 144.86 336.54 138.52 328.15
  Q 119.81 303.39 120.05 271.02
  Q 121.46 268.66 122.16 270.46
  Q 122.31 270.85 122.40 270.45
  Q 122.76 268.74 123.81 270.44
  Q 125.82 273.66 125.44 269.94
  Q 124.93 264.97 128.23 266.71
  Q 130.72 268.02 131.04 268.15
  Q 134.29 269.49 137.38 271.19
  A 0.32 0.31 -72.1 0 0 137.84 270.94
  L 138.21 268.30
  A 0.56 0.50 6.1 0 1 138.81 267.87
  Q 142.31 268.18 145.13 266.39
  Q 147.37 264.96 148.60 264.75
  Q 150.65 264.40 152.75 264.53
  Q 157.11 264.80 161.44 265.36
  Q 166.31 266.00 170.10 265.99
  Q 216.93 265.93 263.75 266.00
  Q 270.53 266.01 274.01 266.38
  Q 283.95 267.42 293.94 267.08
  A 1.03 0.59 61.6 0 1 294.63 267.51
  Q 294.88 267.86 295.36 267.56
  Q 295.96 267.19 296.24 267.17
  L 308.55 265.97
  A 3.06 2.52 59.6 0 1 310.69 266.75
  Q 313.47 269.24 313.78 266.90
  Q 313.98 265.44 314.31 264.86
  Q 315.19 263.29 316.46 262.00
  Z"
/>
<ellipse fill="#1f5c77" cx="0.00" cy="0.00" transform="translate(372.17,273.29) rotate(91.1)" rx="10.27" ry="7.64"/>
<path fill="#06849e" d="
  M 468.06 354.94
  Q 470.54 356.06 468.00 356.25
  Q 463.84 356.56 459.67 356.90
  Q 455.35 357.25 451.32 357.30
  Q 419.36 357.70 387.91 357.44
  Q 385.76 357.43 387.67 356.44
  Q 402.41 348.87 411.21 335.55
  Q 415.94 328.40 420.27 317.74
  Q 425.11 305.88 426.89 293.04
  Q 426.95 292.62 427.09 292.36
  Q 427.50 291.59 427.88 292.43
  Q 427.99 292.69 428.04 293.08
  Q 431.65 322.09 451.05 343.08
  Q 454.80 347.14 458.90 349.87
  Q 463.26 352.76 468.06 354.94
  Z"
/>
<rect fill="#1a1110" x="-8.55" y="-35.21" transform="translate(360.04,410.88) rotate(-0.1)" width="17.10" height="70.42" rx="0.58"/>
<path fill="#1a1110" d="
  M 125.15 427.19
  Q 123.24 426.96 123.24 428.91
  L 123.26 444.76
  A 1.51 1.49 -0.0 0 1 121.75 446.25
  L 106.56 446.25
  A 0.81 0.81 -89.7 0 1 105.75 445.43
  Q 106.37 412.84 105.70 380.18
  A 0.52 0.50 -1.7 0 1 106.20 379.67
  Q 118.35 379.36 130.50 379.50
  Q 139.77 379.60 144.45 380.73
  Q 163.11 385.20 161.75 405.50
  Q 161.05 415.95 154.37 421.83
  Q 150.31 425.41 143.27 426.71
  Q 134.64 428.31 125.15 427.19
  Z
  M 142.66 396.34
  Q 139.70 393.48 135.50 393.49
  Q 130.37 393.50 124.24 393.50
  A 0.76 0.75 -88.4 0 0 123.49 394.22
  Q 122.98 403.54 123.65 413.07
  A 0.58 0.58 0.3 0 0 124.18 413.60
  Q 131.80 414.14 137.00 413.50
  Q 143.43 412.71 145.31 406.81
  Q 147.24 400.78 142.66 396.34
  Z"
/>
<path fill="#ffffff" d="
  M 142.66 396.34
  Q 147.24 400.78 145.31 406.81
  Q 143.43 412.71 137.00 413.50
  Q 131.80 414.14 124.18 413.60
  A 0.58 0.58 1.8 0 1 123.65 413.07
  Q 122.98 403.54 123.49 394.22
  A 0.76 0.75 -88.4 0 1 124.24 393.50
  Q 130.37 393.50 135.50 393.49
  Q 139.70 393.48 142.66 396.34
  Z"
/>
<path fill="#1a1110" d="
  M 200.21 443.50
  Q 201.31 437.78 198.50 442.46
  Q 190.10 447.90 181.25 446.75
  Q 170.04 445.30 167.46 435.34
  Q 166.22 430.57 167.63 426.21
  Q 169.25 421.21 173.52 418.56
  Q 177.29 416.22 185.91 415.69
  Q 192.50 415.28 199.42 415.52
  A 0.96 0.95 -0.8 0 0 200.41 414.51
  Q 200.07 409.40 194.90 407.66
  Q 189.95 405.99 184.91 407.34
  Q 180.25 408.58 175.59 410.22
  A 1.16 1.16 66.8 0 1 174.17 409.65
  Q 172.07 405.59 171.20 400.45
  A 1.98 1.98 75.6 0 1 172.50 398.25
  Q 182.20 394.86 192.24 394.09
  Q 201.72 393.36 209.00 398.00
  Q 216.63 402.86 216.58 412.50
  Q 216.50 428.50 216.50 445.43
  A 0.92 0.87 0.3 0 1 215.57 446.30
  L 202.05 446.16
  A 1.46 0.90 -14.3 0 1 201.16 445.88
  Q 200.16 445.00 200.21 443.50
  Z
  M 187.13 435.26
  Q 189.23 435.78 192.06 435.31
  Q 199.74 434.05 200.24 426.37
  A 1.43 1.43 6.1 0 0 199.02 424.86
  Q 193.19 424.01 187.95 424.79
  Q 185.05 425.22 183.69 426.96
  Q 181.71 429.51 183.47 432.43
  Q 184.81 434.67 187.13 435.26
  Z"
/>
<path fill="#1a1110" d="
  M 245.70 441.55
  Q 245.46 442.96 245.50 446.25
  Q 245.60 455.12 245.51 462.93
  Q 245.49 464.98 243.36 464.96
  L 228.97 464.77
  A 0.54 0.52 0.6 0 1 228.44 464.25
  L 228.75 395.27
  A 0.52 0.52 -2.4 0 1 229.23 394.75
  Q 237.00 394.14 244.15 394.70
  Q 246.09 394.86 245.67 396.76
  Q 245.00 399.72 246.94 399.73
  A 1.41 1.02 -60.1 0 0 247.80 399.34
  Q 250.86 396.51 254.67 395.18
  Q 258.06 394.00 262.44 394.35
  Q 279.08 395.66 283.75 412.75
  Q 285.52 419.22 283.53 428.70
  Q 280.75 441.99 268.06 445.81
  Q 257.68 448.94 248.72 442.73
  Q 248.39 442.49 248.11 441.99
  Q 247.50 440.86 246.30 440.97
  A 0.72 0.67 -86.9 0 0 245.70 441.55
  Z
  M 256.5653 433.0899
  A 12.80 11.21 90.2 0 0 267.8199 420.3291
  A 12.80 11.21 90.2 0 0 256.6547 407.4901
  A 12.80 11.21 90.2 0 0 245.4001 420.2509
  A 12.80 11.21 90.2 0 0 256.5653 433.0899
  Z"
/>
<path fill="#171110" d="
  M 306.42 425.31
  Q 307.63 430.25 312.69 432.81
  Q 317.50 435.25 322.04 433.91
  Q 323.11 433.60 325.68 432.13
  Q 327.37 431.17 329.29 430.28
  Q 331.34 429.32 332.78 430.93
  L 337.57 436.27
  Q 339.37 438.27 337.08 439.85
  Q 321.28 450.83 304.19 444.31
  Q 292.51 439.86 290.02 427.09
  Q 287.64 414.90 293.70 405.60
  Q 297.84 399.24 304.58 396.51
  Q 311.14 393.86 319.25 394.50
  Q 327.33 395.14 332.85 399.36
  Q 337.68 403.05 340.19 410.05
  Q 342.41 416.22 342.51 423.18
  A 1.31 1.29 89.3 0 1 341.23 424.51
  L 306.81 424.82
  A 0.40 0.40 -6.8 0 0 306.42 425.31
  Z
  M 320.53 406.74
  Q 319.55 406.07 318.36 405.97
  Q 308.65 405.15 306.45 415.34
  A 0.76 0.74 -84.2 0 0 307.19 416.26
  L 325.16 415.74
  A 1.13 1.11 79.5 0 0 326.17 414.24
  Q 324.52 409.49 320.53 406.74
  Z"
/>
<path fill="#171110" d="
  M 455.72 401.51
  Q 455.86 403.29 457.02 401.94
  Q 462.50 395.58 470.01 394.25
  Q 472.39 393.83 472.51 396.24
  Q 472.75 400.84 472.55 405.64
  Q 472.54 405.94 472.81 407.83
  Q 473.10 409.81 470.25 409.25
  Q 468.64 408.93 466.84 409.43
  Q 465.68 409.74 463.64 410.51
  Q 459.00 412.27 457.11 416.48
  Q 456.00 418.94 456.00 424.69
  Q 456.00 434.54 456.00 445.19
  A 0.81 0.81 0.0 0 1 455.19 446.00
  L 439.81 446.00
  A 0.57 0.57 0.0 0 1 439.24 445.43
  L 439.44 395.44
  A 0.53 0.52 89.4 0 1 439.94 394.92
  Q 446.56 394.72 453.19 394.64
  Q 456.65 394.60 456.07 397.61
  Q 455.77 399.19 455.75 399.55
  Q 455.67 400.85 455.72 401.51
  Z"
/>
<path fill="#171110" d="
  M 508.01 414.93
  Q 508.36 411.81 506.48 409.77
  Q 505.09 408.26 502.11 407.47
  Q 494.93 405.58 487.98 408.96
  Q 485.48 410.17 482.80 409.77
  A 1.13 1.10 76.7 0 1 482.03 409.28
  Q 479.26 405.07 479.25 399.18
  A 0.95 0.94 82.3 0 1 479.94 398.27
  Q 486.84 396.37 493.75 394.75
  Q 501.21 393.00 509.19 394.90
  Q 516.54 396.65 520.13 400.67
  Q 524.40 405.46 524.56 413.19
  Q 524.89 428.59 524.74 445.21
  A 1.03 1.03 -0.3 0 1 523.73 446.23
  Q 517.24 446.39 511.50 446.04
  Q 508.67 445.87 507.48 442.16
  A 0.41 0.41 -25.2 0 0 506.86 441.94
  Q 499.52 446.87 491.98 446.88
  Q 486.07 446.89 481.51 443.90
  Q 476.23 440.44 475.16 434.12
  Q 474.08 427.79 477.13 422.79
  Q 480.46 417.33 487.75 416.00
  Q 492.10 415.20 507.45 415.43
  A 0.57 0.55 -86.0 0 0 508.01 414.93
  Z
  M 493.44 434.56
  Q 497.82 436.93 503.11 434.68
  Q 507.67 432.74 508.09 426.38
  A 1.82 1.81 3.6 0 0 506.37 424.44
  Q 503.26 424.26 499.31 424.43
  Q 499.27 424.44 496.69 424.37
  Q 494.29 424.31 492.63 425.68
  Q 490.65 427.31 490.55 429.96
  Q 490.44 432.94 493.44 434.56
  Z"
/>
<path fill="#171110" d="
  M 416.18 430.74
  Q 417.04 429.38 418.70 429.50
  A 1.28 1.26 70.0 0 1 419.56 429.91
  L 426.20 436.94
  A 1.52 1.45 -43.8 0 1 426.11 439.02
  Q 423.34 441.74 420.17 443.28
  Q 417.66 444.51 413.37 445.67
  Q 401.29 448.94 390.00 443.25
  Q 386.79 441.63 384.14 438.93
  Q 381.68 436.41 380.23 432.96
  Q 377.25 425.88 378.00 417.75
  Q 379.21 404.54 389.12 398.42
  Q 394.79 394.92 402.05 394.45
  Q 409.00 394.01 415.80 396.48
  Q 423.01 399.10 426.64 405.84
  Q 431.33 414.58 430.30 424.50
  A 0.54 0.53 4.0 0 1 429.74 424.98
  Q 412.79 424.35 408.50 424.75
  Q 402.63 425.30 396.10 424.69
  A 1.06 1.06 -8.3 0 0 395.02 426.14
  Q 396.62 430.14 399.69 432.32
  Q 402.60 434.39 406.71 434.24
  Q 411.39 434.07 415.52 431.46
  Q 415.86 431.24 416.18 430.74
  Z
  M 413.97 416.08
  A 0.46 0.46 86.3 0 0 414.43 415.55
  Q 414.05 413.04 412.47 410.50
  Q 409.25 405.28 403.86 405.95
  Q 400.43 406.37 398.08 408.55
  Q 395.66 410.80 394.96 414.48
  A 1.29 1.28 5.6 0 0 396.22 416.00
  L 413.97 416.08
  Z"
/>
<path fill="#fffbfb" d="
  M 320.53 406.74
  Q 324.52 409.49 326.17 414.24
  A 1.13 1.11 79.5 0 1 325.16 415.74
  L 307.19 416.26
  A 0.76 0.74 -84.2 0 1 306.45 415.34
  Q 308.65 405.15 318.36 405.97
  Q 319.55 406.07 320.53 406.74
  Z"
/>
<path fill="#fffbfb" d="
  M 413.97 416.08
  L 396.22 416.00
  A 1.29 1.28 5.6 0 1 394.96 414.48
  Q 395.66 410.80 398.08 408.55
  Q 400.43 406.37 403.86 405.95
  Q 409.25 405.28 412.47 410.50
  Q 414.05 413.04 414.43 415.55
  A 0.46 0.46 86.3 0 1 413.97 416.08
  Z"
/>
<ellipse fill="#ffffff" cx="0.00" cy="0.00" transform="translate(256.61,420.29) rotate(90.2)" rx="12.80" ry="11.21"/>
<path fill="#fffbfb" d="
  M 493.44 434.56
  Q 490.44 432.94 490.55 429.96
  Q 490.65 427.31 492.63 425.68
  Q 494.29 424.31 496.69 424.37
  Q 499.27 424.44 499.31 424.43
  Q 503.26 424.26 506.37 424.44
  A 1.82 1.81 3.6 0 1 508.09 426.38
  Q 507.67 432.74 503.11 434.68
  Q 497.82 436.93 493.44 434.56
  Z"
/>
<path fill="#fffbfb" d="
  M 183.47 432.43
  Q 181.71 429.51 183.69 426.96
  Q 185.05 425.22 187.95 424.79
  Q 193.19 424.01 199.02 424.86
  A 1.43 1.43 6.1 0 1 200.24 426.37
  Q 199.74 434.05 192.06 435.31
  Q 189.23 435.78 187.13 435.26
  Q 184.81 434.67 183.47 432.43
  Z"
/>
<path fill="#1f5c77" d="
  M 200.21 443.50
  Q 199.93 442.23 198.50 442.46
  Q 201.31 437.78 200.21 443.50
  Z"
/>
<circle fill="#171110" cx="420.19" cy="457.77" r="8.89"/>
<path fill="#1a1110" d="
  M 119.44 511.56
  L 92.35 511.50
  A 1.38 1.29 10.5 0 0 91.10 512.30
  L 86.88 522.49
  A 1.22 1.16 -78.3 0 1 85.79 523.25
  L 70.32 523.25
  A 0.70 0.70 11.0 0 1 69.67 522.29
  Q 81.52 493.17 94.34 464.14
  Q 95.63 461.21 96.56 458.55
  A 1.51 1.45 -80.3 0 1 97.91 457.55
  L 113.87 457.25
  A 1.65 1.58 77.8 0 1 115.38 458.27
  L 142.09 521.97
  A 0.93 0.93 77.1 0 1 141.28 523.26
  Q 133.74 523.67 126.25 523.02
  Q 124.20 522.84 123.57 521.20
  L 120.07 512.05
  A 0.77 0.63 77.5 0 0 119.44 511.56
  Z
  M 97.58 498.56
  L 113.33 498.73
  A 1.05 1.02 80.0 0 0 114.29 497.32
  L 106.50 476.32
  Q 105.90 474.70 105.19 476.27
  Q 100.43 486.93 97.00 497.74
  A 0.63 0.62 -80.9 0 0 97.58 498.56
  Z"
/>
<path fill="#1a1110" d="
  M 371.76 474.66
  Q 373.79 474.78 373.71 472.15
  L 373.40 461.69
  A 0.59 0.54 -4.5 0 1 373.93 461.13
  Q 381.61 460.34 389.32 460.90
  A 0.54 0.51 3.4 0 1 389.82 461.43
  L 389.50 474.23
  A 0.51 0.48 -89.4 0 0 389.98 474.75
  L 402.02 474.75
  A 0.67 0.65 -0.9 0 1 402.69 475.38
  L 403.00 484.73
  A 0.77 0.75 -2.3 0 1 402.26 485.51
  L 390.43 485.93
  A 0.53 0.52 -89.4 0 0 389.92 486.44
  Q 389.69 494.85 389.67 503.25
  Q 389.67 505.40 390.22 507.43
  Q 390.82 509.62 392.20 510.41
  Q 394.02 511.46 396.31 510.06
  Q 398.93 508.47 400.48 509.82
  Q 401.35 510.57 401.95 512.97
  Q 402.71 515.99 403.25 519.05
  Q 403.73 521.82 401.45 522.20
  Q 399.23 522.57 399.10 522.61
  Q 393.61 524.24 388.69 523.81
  Q 373.72 522.52 373.50 507.00
  Q 373.27 491.22 373.42 486.56
  A 0.62 0.59 -83.8 0 0 372.95 485.95
  Q 370.25 485.38 367.64 485.97
  A 0.93 0.92 -10.0 0 1 366.52 485.19
  Q 365.89 480.13 366.52 475.09
  A 0.85 0.77 4.8 0 1 367.40 474.42
  L 371.76 474.66
  Z"
/>
<path fill="#1a1110" d="
  M 164.94 477.87
  Q 164.41 480.96 166.64 478.63
  Q 172.85 472.12 181.34 471.81
  A 0.43 0.40 89.4 0 1 181.75 472.24
  L 181.78 485.21
  A 1.57 1.45 88.7 0 1 180.39 486.78
  Q 177.30 486.91 174.09 487.81
  Q 170.51 488.81 168.57 490.78
  Q 165.31 494.07 165.29 499.25
  Q 165.25 510.50 165.25 522.63
  A 0.89 0.89 -87.4 0 1 164.28 523.52
  Q 157.25 522.90 150.06 523.54
  A 1.21 1.20 -2.6 0 1 148.75 522.35
  L 148.56 473.31
  A 0.54 0.53 87.7 0 1 149.05 472.77
  Q 157.15 472.00 165.07 472.98
  A 0.68 0.66 -81.8 0 1 165.64 473.77
  L 164.94 477.87
  Z"
/>
<path fill="#1a1110" d="
  M 325.31 478.86
  Q 327.20 476.45 328.56 475.56
  Q 338.78 468.87 349.69 473.56
  Q 354.85 475.78 357.44 481.56
  Q 359.44 486.03 359.39 492.42
  Q 359.34 498.50 359.34 498.58
  Q 359.63 510.50 359.21 522.43
  A 0.56 0.53 -89.4 0 1 358.69 522.97
  L 343.49 523.22
  A 0.79 0.74 89.6 0 1 342.74 522.43
  L 342.51 492.34
  Q 342.50 490.58 341.01 489.51
  Q 332.47 483.35 326.32 490.32
  Q 325.01 491.80 324.77 494.12
  Q 323.32 508.28 324.22 522.50
  A 0.50 0.48 87.7 0 1 323.75 523.03
  L 308.29 523.21
  A 1.06 1.02 89.4 0 1 307.26 522.16
  Q 307.22 516.69 307.33 511.71
  Q 307.46 506.06 307.35 501.29
  Q 307.01 487.16 307.49 473.15
  A 0.70 0.68 1.3 0 1 308.19 472.50
  L 322.68 472.33
  A 0.77 0.68 -9.3 0 1 323.38 472.77
  Q 324.05 474.43 323.96 476.25
  Q 323.89 477.73 324.69 478.86
  A 0.40 0.38 -43.6 0 0 325.31 478.86
  Z"
/>
<path fill="#1a1110" d="
  M 458.50 479.15
  Q 458.56 480.33 459.30 479.32
  Q 464.09 472.81 472.26 472.09
  Q 487.48 470.74 492.14 482.63
  Q 493.75 486.73 494.01 494.70
  Q 494.22 500.85 493.95 507.01
  Q 493.61 514.60 494.19 522.21
  A 0.73 0.70 87.3 0 1 493.50 523.00
  L 478.12 523.22
  A 1.24 1.18 -90.0 0 1 476.93 521.97
  Q 477.03 509.62 477.01 498.41
  Q 477.00 493.27 476.08 491.22
  Q 474.30 487.24 469.50 486.75
  Q 463.14 486.10 460.26 490.83
  Q 458.77 493.29 458.64 498.47
  Q 458.36 510.45 458.44 522.44
  A 0.54 0.54 -2.3 0 1 457.94 522.98
  Q 449.94 523.64 442.18 522.84
  A 0.78 0.76 -87.1 0 1 441.50 522.07
  L 441.44 473.43
  A 0.55 0.54 -2.9 0 1 441.93 472.89
  Q 449.84 472.11 457.76 472.71
  A 0.57 0.46 -89.7 0 1 458.19 473.25
  L 458.50 479.15
  Z"
/>
<path fill="#171110" d="
  M 533.16 493.24
  A 0.77 0.76 -85.7 0 0 534.00 492.51
  Q 534.22 487.50 530.69 485.58
  Q 528.48 484.38 524.01 484.53
  Q 516.44 484.80 509.39 487.96
  A 0.49 0.47 -21.7 0 1 508.73 487.69
  L 505.21 477.54
  A 0.57 0.56 -22.3 0 1 505.51 476.85
  Q 520.09 470.00 535.00 472.25
  Q 544.92 473.75 548.58 481.83
  Q 550.22 485.45 550.42 493.43
  Q 550.79 507.83 550.75 522.72
  A 0.52 0.52 -0.6 0 1 550.24 523.24
  Q 543.76 523.35 537.68 523.47
  Q 535.79 523.51 535.11 522.66
  Q 534.37 521.73 533.92 519.88
  Q 533.47 518.03 532.12 519.37
  Q 529.13 522.34 524.60 523.30
  Q 520.53 524.16 516.38 523.89
  Q 508.42 523.38 503.56 516.44
  Q 500.59 512.19 501.29 506.72
  Q 502.17 499.88 507.03 496.39
  Q 510.41 493.97 517.49 493.26
  Q 525.32 492.47 533.16 493.24
  Z
  M 522.27 512.41
  Q 526.78 513.42 530.56 510.81
  Q 535.05 507.73 534.04 502.07
  A 0.67 0.66 87.1 0 0 533.44 501.52
  Q 528.82 501.12 524.33 501.46
  Q 520.31 501.77 518.26 503.50
  Q 515.17 506.10 517.81 509.59
  Q 519.48 511.79 522.27 512.41
  Z"
/>
<path fill="#1a1110" d="
  M 221.31 514.63
  Q 215.91 519.23 210.94 520.19
  Q 202.20 521.87 195.42 517.20
  Q 189.84 513.35 187.07 506.23
  Q 184.45 499.49 185.25 492.00
  Q 186.55 479.79 196.04 474.61
  Q 201.94 471.38 208.40 472.10
  Q 214.82 472.82 220.67 477.10
  Q 221.44 477.66 221.50 476.75
  L 221.75 473.17
  A 0.72 0.67 -87.7 0 1 222.42 472.50
  L 237.70 472.50
  A 0.73 0.73 -86.5 0 1 238.42 473.32
  Q 237.90 477.58 237.95 482.00
  Q 238.16 500.57 237.83 519.14
  Q 237.74 524.44 236.39 527.63
  Q 233.14 535.28 225.50 539.00
  Q 218.10 542.60 208.93 542.13
  Q 198.01 541.57 188.01 536.08
  A 0.51 0.50 27.9 0 1 187.79 535.41
  L 193.22 524.87
  A 0.50 0.48 29.6 0 1 193.91 524.69
  Q 200.42 528.68 207.52 529.02
  Q 214.08 529.33 217.93 526.40
  Q 222.85 522.65 221.76 514.80
  Q 221.69 514.31 221.31 514.63
  Z
  M 210.6350 508.4094
  A 12.06 10.41 92.4 0 0 221.5409 496.7959
  A 12.06 10.41 92.4 0 0 211.6450 484.3106
  A 12.06 10.41 92.4 0 0 200.7391 495.9241
  A 12.06 10.41 92.4 0 0 210.6350 508.4094
  Z"
/>
<path fill="#171110" d="
  M 263.73 502.31
  A 0.58 0.58 78.3 0 0 263.20 503.12
  Q 265.67 508.96 270.94 510.71
  Q 274.69 511.96 278.96 510.91
  Q 283.01 509.91 286.32 507.06
  A 1.08 1.04 46.6 0 1 287.75 507.13
  L 293.98 513.14
  Q 295.90 514.99 293.88 516.51
  Q 282.17 525.31 268.73 523.63
  Q 251.16 521.44 247.00 505.25
  Q 245.48 499.33 247.35 491.02
  Q 249.03 483.57 254.14 478.72
  Q 258.90 474.20 265.93 472.77
  Q 272.24 471.48 279.56 472.69
  Q 290.53 474.50 295.06 483.69
  Q 299.22 492.10 298.50 501.53
  A 0.79 0.78 -87.6 0 1 297.72 502.25
  L 263.73 502.31
  Z
  M 263.96 493.32
  Q 272.95 493.69 282.19 492.98
  A 0.48 0.48 -6.2 0 0 282.63 492.44
  Q 281.99 487.87 278.77 485.49
  Q 275.56 483.11 271.32 483.77
  Q 265.12 484.74 263.13 492.20
  A 0.89 0.89 8.5 0 0 263.96 493.32
  Z"
/>
<rect fill="#171110" x="412.11" y="472.44" width="16.36" height="50.84" rx="0.38"/>
<path fill="#fbf3f2" d="
  M 97.58 498.56
  A 0.63 0.62 -80.9 0 1 97.00 497.74
  Q 100.43 486.93 105.19 476.27
  Q 105.90 474.70 106.50 476.32
  L 114.29 497.32
  A 1.05 1.02 80.0 0 1 113.33 498.73
  L 97.58 498.56
  Z"
/>
<path fill="#fbf3f2" d="
  M 263.96 493.32
  A 0.89 0.89 8.5 0 1 263.13 492.20
  Q 265.12 484.74 271.32 483.77
  Q 275.56 483.11 278.77 485.49
  Q 281.99 487.87 282.63 492.44
  A 0.48 0.48 -6.2 0 1 282.19 492.98
  Q 272.95 493.69 263.96 493.32
  Z"
/>
<ellipse fill="#fffbfb" cx="0.00" cy="0.00" transform="translate(211.14,496.36) rotate(92.4)" rx="12.06" ry="10.41"/>
<path fill="#fffbfb" d="
  M 517.81 509.59
  Q 515.17 506.10 518.26 503.50
  Q 520.31 501.77 524.33 501.46
  Q 528.82 501.12 533.44 501.52
  A 0.67 0.66 87.1 0 1 534.04 502.07
  Q 535.05 507.73 530.56 510.81
  Q 526.78 513.42 522.27 512.41
  Q 519.48 511.79 517.81 509.59
  Z"
/>
</svg>
